<svg width="52" height="48" viewBox="0 0 52 48" fill="none" xmlns="http://www.w3.org/2000/svg">
<path d="M9.67986 31.14C8.30094 31.14 6.95299 30.7311 5.8065 29.9649C4.66 29.1988 3.76647 28.1098 3.2389 26.8358C2.71134 25.5618 2.57344 24.16 2.84265 22.8076C3.11186 21.4552 3.77609 20.213 4.75133 19.2382C5.72656 18.2633 6.96899 17.5996 8.32148 17.3309C9.67397 17.0622 11.0758 17.2006 12.3496 17.7287C13.6234 18.2568 14.712 19.1507 15.4777 20.2975C16.2434 21.4443 16.6518 22.7924 16.6512 24.1713C16.6491 26.0194 15.9138 27.791 14.6068 29.0975C13.2998 30.404 11.5279 31.1385 9.67986 31.14ZM9.67986 19.92C8.83902 19.92 8.01706 20.1693 7.31793 20.6365C6.6188 21.1036 6.07389 21.7676 5.75211 22.5444C5.43034 23.3213 5.34615 24.1761 5.51019 25.0007C5.67423 25.8254 6.07913 26.583 6.67369 27.1775C7.26826 27.7721 8.02578 28.177 8.85046 28.341C9.67514 28.5051 10.5299 28.4209 11.3068 28.0991C12.0836 27.7773 12.7476 27.2324 13.2147 26.5333C13.6819 25.8341 13.9312 25.0122 13.9312 24.1713C13.9305 23.044 13.4824 21.9631 12.6852 21.166C11.8881 20.3689 10.8072 19.9207 9.67986 19.92Z" fill="black"/>
<path d="M17.8399 47.12C17.4792 47.12 17.1333 46.9767 16.8782 46.7217C16.6232 46.4666 16.4799 46.1207 16.4799 45.76V43.04C16.4799 41.2365 15.7635 39.5069 14.4882 38.2317C13.213 36.9564 11.4834 36.24 9.67991 36.24C7.87644 36.24 6.14683 36.9564 4.87159 38.2317C3.59634 39.5069 2.87991 41.2365 2.87991 43.04V45.76C2.87991 46.1207 2.73663 46.4666 2.48158 46.7217C2.22653 46.9767 1.88061 47.12 1.51991 47.12C1.15922 47.12 0.813297 46.9767 0.558247 46.7217C0.303198 46.4666 0.159912 46.1207 0.159912 45.76V43.04C0.159912 40.5152 1.16291 38.0937 2.94826 36.3084C4.7336 34.523 7.15505 33.52 9.67991 33.52C12.2048 33.52 14.6262 34.523 16.4116 36.3084C18.1969 38.0937 19.1999 40.5152 19.1999 43.04V45.76C19.1999 46.1207 19.0566 46.4666 18.8016 46.7217C18.5465 46.9767 18.2006 47.12 17.8399 47.12Z" fill="black"/>
<path d="M17.8399 45.3792C17.5812 45.379 17.3279 45.305 17.1098 45.166C16.8917 45.0269 16.7177 44.8286 16.6084 44.5941C16.499 44.3597 16.4588 44.0989 16.4924 43.8425C16.526 43.586 16.632 43.3444 16.7981 43.146L35.8381 20.4069C36.0736 20.1439 36.4021 19.9829 36.7541 19.9577C37.1062 19.9325 37.4543 20.0452 37.7248 20.2719C37.9953 20.4986 38.167 20.8216 38.2038 21.1727C38.2405 21.5237 38.1393 21.8753 37.9216 22.1531L18.8816 44.8923C18.7541 45.0446 18.5947 45.1671 18.4147 45.2513C18.2348 45.3354 18.0385 45.379 17.8399 45.3792Z" fill="black"/>
<path d="M6.95985 14.48C6.59916 14.48 6.25324 14.3367 5.99819 14.0817C5.74314 13.8266 5.59985 13.4807 5.59985 13.12V2.24C5.59985 1.87931 5.74314 1.53339 5.99819 1.27834C6.25324 1.02329 6.59916 0.880005 6.95985 0.880005C7.32055 0.880005 7.66647 1.02329 7.92152 1.27834C8.17657 1.53339 8.31985 1.87931 8.31985 2.24V13.12C8.31985 13.4807 8.17657 13.8266 7.92152 14.0817C7.66647 14.3367 7.32055 14.48 6.95985 14.48Z" fill="black"/>
<path d="M50.4799 3.6H4.23988C3.87919 3.6 3.53327 3.45672 3.27822 3.20167C3.02317 2.94662 2.87988 2.6007 2.87988 2.24C2.87988 1.87931 3.02317 1.53339 3.27822 1.27834C3.53327 1.02329 3.87919 0.880005 4.23988 0.880005H50.4799C50.8406 0.880005 51.1865 1.02329 51.4416 1.27834C51.6966 1.53339 51.8399 1.87931 51.8399 2.24C51.8399 2.6007 51.6966 2.94662 51.4416 3.20167C51.1865 3.45672 50.8406 3.6 50.4799 3.6Z" fill="black"/>
<path d="M47.7599 33.52C47.3992 33.52 47.0533 33.3767 46.7982 33.1217C46.5432 32.8666 46.3999 32.5207 46.3999 32.16V2.24C46.3999 1.87931 46.5432 1.53339 46.7982 1.27834C47.0533 1.02329 47.3992 0.880005 47.7599 0.880005C48.1206 0.880005 48.4665 1.02329 48.7216 1.27834C48.9766 1.53339 49.1199 1.87931 49.1199 2.24V32.16C49.1199 32.5207 48.9766 32.8666 48.7216 33.1217C48.4665 33.3767 48.1206 33.52 47.7599 33.52Z" fill="black"/>
<path d="M50.4799 33.52H34.1599C33.7992 33.52 33.4533 33.3768 33.1983 33.1217C32.9432 32.8667 32.7999 32.5207 32.7999 32.16C32.7999 31.7994 32.9432 31.4534 33.1983 31.1984C33.4533 30.9433 33.7992 30.8 34.1599 30.8H50.4799C50.8406 30.8 51.1865 30.9433 51.4416 31.1984C51.6966 31.4534 51.8399 31.7994 51.8399 32.16C51.8399 32.5207 51.6966 32.8667 51.4416 33.1217C51.1865 33.3768 50.8406 33.52 50.4799 33.52Z" fill="black"/>
<path d="M39.5999 11.76H23.2799C22.9192 11.76 22.5733 11.6168 22.3183 11.3617C22.0632 11.1067 21.9199 10.7607 21.9199 10.4C21.9199 10.0393 22.0632 9.69342 22.3183 9.43837C22.5733 9.18332 22.9192 9.04004 23.2799 9.04004H39.5999C39.9606 9.04004 40.3065 9.18332 40.5616 9.43837C40.8166 9.69342 40.9599 10.0393 40.9599 10.4C40.9599 10.7607 40.8166 11.1067 40.5616 11.3617C40.3065 11.6168 39.9606 11.76 39.5999 11.76Z" fill="black"/>
<path d="M39.5999 17.2H17.8399C17.4792 17.2 17.1332 17.0567 16.8782 16.8016C16.6231 16.5466 16.4799 16.2007 16.4799 15.84C16.4799 15.4793 16.6231 15.1334 16.8782 14.8783C17.1332 14.6233 17.4792 14.48 17.8399 14.48H39.5999C39.9606 14.48 40.3065 14.6233 40.5615 14.8783C40.8166 15.1334 40.9599 15.4793 40.9599 15.84C40.9599 16.2007 40.8166 16.5466 40.5615 16.8016C40.3065 17.0567 39.9606 17.2 39.5999 17.2Z" fill="black"/>
</svg>
