<svg width="29" height="52" viewBox="0 0 29 52" fill="none" xmlns="http://www.w3.org/2000/svg">
<path d="M25.3998 0.90332H4.59472C2.60504 0.90332 0.997681 2.53933 0.997681 4.55665V47.3871C0.997681 49.3981 2.60504 51.0357 4.59472 51.0357H25.3998C27.3864 51.0357 29 49.3997 29 47.3871V4.55665C28.9984 2.53933 27.3864 0.90332 25.3998 0.90332ZM26.3018 41.5219H3.69585V7.06604H26.3018V41.5219ZM19.8209 4.61044H10.1752V3.54403H19.8225L19.8209 4.61044ZM23.9485 4.12312C23.9485 4.63892 23.5334 5.05663 23.0262 5.05663C22.5175 5.05663 22.104 4.63734 22.104 4.12312C22.104 3.6089 22.5175 3.18962 23.0262 3.18962C23.535 3.18804 23.9485 3.60732 23.9485 4.12312ZM19.3886 47.1435H10.6044V44.4031H19.3886V47.1435Z" fill="black"/>
</svg>
