<svg width="57" height="52" viewBox="0 0 57 52" fill="none" xmlns="http://www.w3.org/2000/svg">
<path d="M10.3159 33.7366C8.82173 33.7366 7.36108 33.2935 6.11874 32.4633C4.87639 31.6331 3.90815 30.4531 3.33647 29.0726C2.7648 27.6921 2.61537 26.173 2.90709 24.7076C3.19881 23.2421 3.91857 21.8961 4.97534 20.8397C6.03212 19.7834 7.37842 19.0641 8.84399 18.773C10.3096 18.4818 11.8286 18.6318 13.2089 19.2041C14.5892 19.7763 15.7688 20.745 16.5985 21.9876C17.4282 23.2303 17.8707 24.6911 17.8702 26.1853C17.8678 28.1879 17.0711 30.1076 15.6548 31.5234C14.2385 32.9391 12.3185 33.7351 10.3159 33.7366ZM10.3159 21.5785C9.4048 21.5785 8.51412 21.8487 7.75654 22.3549C6.99895 22.8611 6.40848 23.5806 6.05981 24.4224C5.71113 25.2642 5.6199 26.1905 5.79765 27.0841C5.97541 27.9777 6.41416 28.7986 7.05844 29.4428C7.70271 30.0871 8.52356 30.5259 9.4172 30.7036C10.3108 30.8814 11.2371 30.7902 12.0789 30.4415C12.9207 30.0928 13.6402 29.5023 14.1464 28.7447C14.6526 27.9872 14.9227 27.0965 14.9227 26.1853C14.922 24.9638 14.4364 23.7925 13.5726 22.9287C12.7088 22.0649 11.5375 21.5793 10.3159 21.5785Z" fill="black"/>
<path d="M19.1582 51.053C18.7673 51.053 18.3925 50.8977 18.1161 50.6213C17.8397 50.345 17.6845 49.9701 17.6845 49.5793V46.6319C17.6845 44.6776 16.9081 42.8034 15.5263 41.4215C14.1444 40.0397 12.2702 39.2633 10.3159 39.2633C8.36169 39.2633 6.48747 40.0397 5.10561 41.4215C3.72374 42.8034 2.94741 44.6776 2.94741 46.6319V49.5793C2.94741 49.9701 2.79215 50.345 2.51577 50.6213C2.2394 50.8977 1.86456 51.053 1.47371 51.053C1.08285 51.053 0.708012 50.8977 0.431639 50.6213C0.155265 50.345 0 49.9701 0 49.5793V46.6319C5.7656e-08 43.8959 1.08686 41.272 3.02147 39.3374C4.95609 37.4028 7.57999 36.3159 10.3159 36.3159C13.0519 36.3159 15.6758 37.4028 17.6104 39.3374C19.545 41.272 20.6319 43.8959 20.6319 46.6319V49.5793C20.6319 49.9701 20.4766 50.345 20.2003 50.6213C19.9239 50.8977 19.549 51.053 19.1582 51.053Z" fill="black"/>
<path d="M19.1582 49.1664C18.8779 49.1662 18.6035 49.0861 18.3671 48.9354C18.1307 48.7847 17.9422 48.5697 17.8237 48.3157C17.7052 48.0617 17.6616 47.7791 17.698 47.5012C17.7345 47.2233 17.8494 46.9615 18.0294 46.7466L38.6612 22.1062C38.9164 21.8213 39.2724 21.6468 39.6538 21.6195C40.0353 21.5922 40.4125 21.7143 40.7056 21.96C40.9988 22.2056 41.1849 22.5556 41.2247 22.936C41.2645 23.3164 41.1549 23.6974 40.919 23.9984L20.2871 48.6388C20.1489 48.8039 19.9762 48.9366 19.7812 49.0278C19.5861 49.1189 19.3735 49.1662 19.1582 49.1664Z" fill="black"/>
<path d="M7.36824 15.6838C6.97739 15.6838 6.60254 15.5286 6.32617 15.2522C6.0498 14.9758 5.89453 14.601 5.89453 14.2101V2.42048C5.89453 2.02963 6.0498 1.65479 6.32617 1.37842C6.60254 1.10204 6.97739 0.946777 7.36824 0.946777C7.75909 0.946777 8.13393 1.10204 8.4103 1.37842C8.68668 1.65479 8.84194 2.02963 8.84194 2.42048V14.2101C8.84194 14.601 8.68668 14.9758 8.4103 15.2522C8.13393 15.5286 7.75909 15.6838 7.36824 15.6838Z" fill="black"/>
<path d="M54.527 3.89419H4.42097C4.03012 3.89419 3.65528 3.73892 3.3789 3.46255C3.10253 3.18618 2.94727 2.81133 2.94727 2.42048C2.94727 2.02963 3.10253 1.65479 3.3789 1.37842C3.65528 1.10204 4.03012 0.946777 4.42097 0.946777H54.527C54.9178 0.946777 55.2927 1.10204 55.569 1.37842C55.8454 1.65479 56.0007 2.02963 56.0007 2.42048C56.0007 2.81133 55.8454 3.18618 55.569 3.46255C55.2927 3.73892 54.9178 3.89419 54.527 3.89419Z" fill="black"/>
<path d="M51.5792 36.3157C51.1883 36.3157 50.8135 36.1605 50.5371 35.8841C50.2607 35.6077 50.1055 35.2329 50.1055 34.842V2.42048C50.1055 2.02963 50.2607 1.65479 50.5371 1.37842C50.8135 1.10204 51.1883 0.946777 51.5792 0.946777C51.97 0.946777 52.3449 1.10204 52.6212 1.37842C52.8976 1.65479 53.0529 2.02963 53.0529 2.42048V34.842C53.0529 35.2329 52.8976 35.6077 52.6212 35.8841C52.3449 36.1605 51.97 36.3157 51.5792 36.3157Z" fill="black"/>
<path d="M54.5273 36.3156H36.8428C36.452 36.3156 36.0772 36.1603 35.8008 35.8839C35.5244 35.6076 35.3691 35.2327 35.3691 34.8419C35.3691 34.451 35.5244 34.0762 35.8008 33.7998C36.0772 33.5234 36.452 33.3682 36.8428 33.3682H54.5273C54.9182 33.3682 55.293 33.5234 55.5694 33.7998C55.8458 34.0762 56.001 34.451 56.001 34.8419C56.001 35.2327 55.8458 35.6076 55.5694 35.8839C55.293 36.1603 54.9182 36.3156 54.5273 36.3156Z" fill="black"/>
<path d="M42.7363 12.7365H25.0518C24.661 12.7365 24.2861 12.5812 24.0098 12.3048C23.7334 12.0285 23.5781 11.6536 23.5781 11.2628C23.5781 10.8719 23.7334 10.4971 24.0098 10.2207C24.2861 9.94433 24.661 9.78906 25.0518 9.78906H42.7363C43.1272 9.78906 43.502 9.94433 43.7784 10.2207C44.0547 10.4971 44.21 10.8719 44.21 11.2628C44.21 11.6536 44.0547 12.0285 43.7784 12.3048C43.502 12.5812 43.1272 12.7365 42.7363 12.7365Z" fill="black"/>
<path d="M42.7385 18.6315H19.1593C18.7684 18.6315 18.3936 18.4762 18.1172 18.1999C17.8408 17.9235 17.6855 17.5486 17.6855 17.1578C17.6855 16.7669 17.8408 16.3921 18.1172 16.1157C18.3936 15.8393 18.7684 15.6841 19.1593 15.6841H42.7385C43.1294 15.6841 43.5042 15.8393 43.7806 16.1157C44.057 16.3921 44.2123 16.7669 44.2123 17.1578C44.2123 17.5486 44.057 17.9235 43.7806 18.1999C43.5042 18.4762 43.1294 18.6315 42.7385 18.6315Z" fill="black"/>
</svg>
