<svg width="55" height="55" viewBox="0 0 55 55" fill="none" xmlns="http://www.w3.org/2000/svg">
<path d="M44.3347 36.3276V30.602L41.9185 31.5421L41.9114 31.5262L41.8538 31.4216C40.9279 29.98 39.4305 28.977 37.7443 28.6713L31.9301 27.6134V27.1544C34.1045 25.8918 35.6967 23.7379 36.1929 21.1914C37.8037 20.8582 39.0185 19.4291 39.0185 17.7208V8.96937C39.0185 6.49644 37.3988 4.33982 35.049 3.63808L34.606 3.19506C32.545 1.13413 29.8054 0 26.8912 0C20.8759 0 15.9814 4.89359 15.9814 10.9098V17.7208C15.9814 19.4291 17.1962 20.8582 18.807 21.1914C19.3041 23.7379 20.8954 25.8927 23.0697 27.1544V27.6134L17.2564 28.6705C15.5721 28.9761 14.0756 29.9774 13.1488 31.4181L13.0956 31.5474L10.6652 30.602V36.3276C9.19969 36.3276 8.00708 37.5202 8.00708 38.9857V42.5299C8.00708 43.9954 9.19969 45.188 10.6652 45.188V48.4522L27.4999 55L44.3347 48.4522V45.188C45.8002 45.188 46.9928 43.9954 46.9928 42.5299V38.9857C46.9928 37.5202 45.8002 36.3276 44.3347 36.3276ZM33.5906 29.7169L37.4271 30.4142C38.5568 30.6197 39.5572 31.2719 40.2243 32.2004L31.6519 35.5337L33.5906 29.7169ZM24.9171 27.9669C25.735 28.2168 26.6015 28.3533 27.4999 28.3533C28.3984 28.3533 29.2649 28.2168 30.0827 27.9669L27.4999 29.9038L24.9171 27.9669ZM26.1514 31.1071L24.343 32.9146L23.1699 29.3961L23.7343 29.2942L26.1514 31.1071ZM31.2656 29.2951L31.83 29.397L30.6569 32.9155L28.8485 31.108L31.2656 29.2951ZM36.3603 19.2465V16.195C36.8875 16.5025 37.2464 17.0678 37.2464 17.7208C37.2464 18.3738 36.8875 18.9391 36.3603 19.2465ZM18.6396 19.2465C18.1124 18.9391 17.7535 18.3738 17.7535 17.7208C17.7535 17.0678 18.1124 16.5025 18.6396 16.195V19.2465ZM18.6396 13.2906V14.3024C18.3241 14.3848 18.0282 14.5089 17.7535 14.6693V10.9098C17.7535 5.87178 21.8523 1.77208 26.8912 1.77208C29.3314 1.77208 31.6271 2.7228 33.3531 4.4488L34.1346 5.23118L34.3729 5.28965C36.0653 5.71229 37.2464 7.22565 37.2464 8.96937V14.6693C36.9717 14.5089 36.6758 14.384 36.3603 14.3024V13.2906H33.5507C31.1495 13.2906 28.8547 12.1441 27.4149 10.224L26.7105 9.28303L24.9499 11.0445C23.5004 12.4932 21.5741 13.2906 19.5256 13.2906H18.6396ZM20.4116 19.4929V15.0219C22.5993 14.819 24.6292 13.8701 26.2028 12.2973L26.5474 11.9527C28.324 13.9135 30.8828 15.0627 33.5507 15.0627H34.5883V19.4929C34.5883 23.4012 31.4083 26.5812 27.4999 26.5812C23.5916 26.5812 20.4116 23.4012 20.4116 19.4929ZM17.5728 30.4142L21.4093 29.7169L23.348 35.5337L14.7738 32.1996C15.4409 31.2701 16.4431 30.6197 17.5728 30.4142ZM9.77916 42.5299V38.9857C9.77916 38.4966 10.177 38.0997 10.6652 38.0997C12.1307 38.0997 13.3233 39.2923 13.3233 40.7578C13.3233 42.2233 12.1307 43.4159 10.6652 43.4159C10.177 43.4159 9.77916 43.019 9.77916 42.5299ZM26.6139 52.753L12.4373 47.241V44.8123C13.9994 44.1265 15.0954 42.5698 15.0954 40.7578C15.0954 38.9459 13.9994 37.3891 12.4373 36.7033V33.1928L26.6139 38.7057V52.753ZM23.9833 35.7818L27.4999 32.2642L31.0166 35.7809L27.4999 37.149L23.9833 35.7818ZM42.5626 47.2401L28.386 52.7521V38.7057L42.5626 33.1928V36.7033C41.0005 37.3891 39.9045 38.9459 39.9045 40.7578C39.9045 42.5698 41.0005 44.1265 42.5626 44.8123V47.2401ZM45.2207 42.5299C45.2207 43.019 44.8229 43.4159 44.3347 43.4159C42.8692 43.4159 41.6766 42.2233 41.6766 40.7578C41.6766 39.2923 42.8692 38.0997 44.3347 38.0997C44.8229 38.0997 45.2207 38.4966 45.2207 38.9857V42.5299Z" fill="black"/>
</svg>
