<svg width="48" height="48" viewBox="0 0 48 48" fill="none" xmlns="http://www.w3.org/2000/svg">
<g clip-path="url(#clip0_23_62)">
<path d="M4.36364 0C1.96506 0 0 1.96506 0 4.36364V10.9091H2.18182H45.8182V32.7273C45.8182 33.9549 44.864 34.9091 43.6364 34.9091H27.2557C27.2658 34.7225 27.2727 34.5356 27.2727 34.3487C27.2727 30.3718 24.9936 26.8052 21.5241 25.0824C22.3884 24.0439 22.9091 22.7109 22.9091 21.2621C22.9091 17.9666 20.2125 15.2727 16.9155 15.2727C13.6185 15.2727 10.9197 17.9666 10.9197 21.2621C10.9197 22.7109 11.4421 24.0439 12.3068 25.0824C8.83751 26.8055 6.55611 30.3718 6.55611 34.3487C6.55611 34.5357 6.56277 34.7225 6.57315 34.9091H4.36364C3.13604 34.9091 2.18182 33.9549 2.18182 32.7273V13.0909H0V32.7273C0 35.1259 1.96506 37.0909 4.36364 37.0909H43.6364C46.0349 37.0909 48 35.1259 48 32.7273V4.36364C48 1.96506 46.0349 0 43.6364 0H4.36364ZM4.36364 2.18182H43.6364C44.864 2.18182 45.8182 3.13604 45.8182 4.36364V8.72727H2.18182V4.36364C2.18182 3.13604 3.13604 2.18182 4.36364 2.18182ZM16.9155 17.4545C19.0345 17.4545 20.7273 19.1469 20.7273 21.2621C20.7273 23.3772 19.0345 25.0696 16.9155 25.0696C14.7965 25.0696 13.1016 23.3772 13.1016 21.2621C13.1016 19.1469 14.7965 17.4545 16.9155 17.4545ZM14.2585 26.6271C15.0606 27.0265 15.9628 27.2514 16.9155 27.2514C17.8682 27.2514 18.7706 27.0265 19.5724 26.6271C22.8625 27.7545 25.0909 30.841 25.0909 34.3487C25.0909 34.5358 25.0826 34.7225 25.0696 34.9091H8.75923C8.74622 34.7225 8.73793 34.5359 8.73793 34.3487C8.73793 30.8403 10.9682 27.754 14.2585 26.6271Z" fill="black"/>
<path d="M10.9091 39.2727C8.88883 39.2727 7.17941 40.6712 6.69034 42.5454H0V44.7273H6.69034C7.17941 46.6015 8.88883 48 10.9091 48C12.93 48 14.6436 46.6023 15.1321 44.7273H48V42.5454H15.1321C14.6436 40.6704 12.93 39.2727 10.9091 39.2727ZM10.9091 41.4545C12.127 41.4545 13.0909 42.4184 13.0909 43.6363C13.0909 44.8542 12.127 45.8182 10.9091 45.8182C9.69119 45.8182 8.72727 44.8542 8.72727 43.6363C8.72727 42.4184 9.69119 41.4545 10.9091 41.4545Z" fill="black"/>
<path d="M32.1669 15.4091C32.0007 15.3167 31.8133 15.2693 31.6231 15.2716C31.433 15.2739 31.2468 15.3258 31.0829 15.4223C30.9191 15.5188 30.7833 15.6564 30.689 15.8215C30.5947 15.9866 30.5452 16.1735 30.5454 16.3637V27.2727C30.5452 27.4629 30.5947 27.6498 30.689 27.8149C30.7833 27.98 30.9191 28.1176 31.0829 28.2141C31.2468 28.3106 31.433 28.3625 31.6231 28.3648C31.8133 28.3672 32.0007 28.3197 32.1669 28.2273L41.985 22.7727C42.1555 22.6784 42.2976 22.5401 42.3966 22.3722C42.4955 22.2044 42.5477 22.0131 42.5477 21.8182C42.5477 21.6233 42.4955 21.432 42.3966 21.2642C42.2976 21.0963 42.1555 20.958 41.985 20.8637L32.1669 15.4091ZM32.7272 18.2195L39.2066 21.8182L32.7272 25.4191V18.2195Z" fill="black" fill-opacity="0.999"/>
<path d="M41.4546 4.36353V6.54534H43.6364V4.36353H41.4546Z" fill="black"/>
<path d="M37.0908 4.36353V6.54534H39.2726V4.36353H37.0908Z" fill="black"/>
<path d="M32.7273 4.36353V6.54534H34.9091V4.36353H32.7273Z" fill="black"/>
<path d="M28.3635 4.36353V6.54534H30.5453V4.36353H28.3635Z" fill="black"/>
</g>
<defs>
<clipPath id="clip0_23_62">
<rect width="48" height="48" fill="white"/>
</clipPath>
</defs>
</svg>
