<svg width="34" height="41" viewBox="0 0 34 41" fill="none" xmlns="http://www.w3.org/2000/svg">
<path d="M27.0468 3.70062C23.3496 0.619134 18.5078 -0.600573 13.7832 0.363039C7.5 1.63742 2.4628 6.88048 1.248 13.4097C-0.0507979 20.4005 2.8594 27.284 8.6582 30.948C10.4278 32.0655 11.9472 33.711 13.0528 35.7037L15.2578 39.6813C15.6114 40.3205 16.2774 40.7164 17 40.7164C17.7226 40.7164 18.3886 40.3205 18.7422 39.6813L20.9454 35.7075C22.0294 33.7535 23.586 32.1031 25.5704 30.7998C30.2598 27.7232 33.0586 22.4564 33.0586 16.7103C33.0586 11.6272 30.8672 6.88535 27.0468 3.70062ZM23.4024 27.385C20.9004 29.0255 18.8458 31.2128 17.461 33.7118L17 34.5425L16.5372 33.7088C15.1036 31.1216 13.1094 28.9728 10.7716 27.4962C6.3848 24.7243 4.1896 19.4912 5.1778 14.1638C6.0918 9.24733 9.8654 5.30224 14.5646 4.34858C15.3908 4.18192 16.211 4.0994 17.0196 4.0994C19.7482 4.0994 22.3438 5.03923 24.5098 6.84349C27.4004 9.25302 29.0586 12.8497 29.0586 16.7103C29.0586 21.0702 26.9434 25.0609 23.4024 27.385Z" fill="#FFD600"/>
<path d="M17.0194 9.64258C13.4198 9.64258 10.4902 12.618 10.4902 16.2751C10.4902 19.9332 13.4198 22.9086 17.0194 22.9086C20.619 22.9086 23.5468 19.9332 23.5468 16.2751C23.5466 12.6178 20.619 9.64258 17.0194 9.64258ZM17.0194 18.8433C15.6248 18.8433 14.4902 17.6911 14.4902 16.2749C14.4902 14.8596 15.625 13.7074 17.0194 13.7074C18.414 13.7074 19.5468 14.8596 19.5468 16.2749C19.5466 17.6911 18.4138 18.8433 17.0194 18.8433Z" fill="#FFD600"/>
</svg>
