<svg width="35" height="31" viewBox="0 0 35 31" fill="none" xmlns="http://www.w3.org/2000/svg">
<path d="M6.32295 20.0955C5.40723 20.0955 4.51207 19.824 3.7507 19.3152C2.98933 18.8064 2.39594 18.0833 2.0456 17.2372C1.69525 16.3912 1.60367 15.4602 1.78245 14.5621C1.96123 13.664 2.40234 12.8391 3.04998 12.1917C3.69762 11.5443 4.5227 11.1035 5.42087 10.9251C6.31904 10.7467 7.24995 10.8386 8.09587 11.1893C8.94178 11.54 9.6647 12.1336 10.1732 12.8952C10.6817 13.6568 10.9529 14.552 10.9525 15.4678C10.9511 16.695 10.4628 17.8715 9.59487 18.7392C8.72691 19.6068 7.55019 20.0946 6.32295 20.0955ZM6.32295 12.6445C5.76456 12.6445 5.21871 12.8101 4.75442 13.1203C4.29014 13.4305 3.92827 13.8715 3.71459 14.3873C3.5009 14.9032 3.44499 15.4709 3.55393 16.0186C3.66286 16.5662 3.93175 17.0693 4.32659 17.4641C4.72144 17.859 5.22449 18.1278 5.77216 18.2368C6.31982 18.3457 6.88748 18.2898 7.40337 18.0761C7.91925 17.8624 8.36019 17.5006 8.67041 17.0363C8.98064 16.572 9.14622 16.0262 9.14622 15.4678C9.14574 14.7191 8.84814 14.0013 8.31878 13.4719C7.78941 12.9426 7.07158 12.645 6.32295 12.6445Z" fill="black"/>
<path d="M11.7411 30.7077C11.5015 30.7077 11.2718 30.6125 11.1024 30.4431C10.9331 30.2738 10.8379 30.044 10.8379 29.8045V27.9982C10.8379 26.8005 10.3621 25.6519 9.51525 24.805C8.66838 23.9582 7.51977 23.4824 6.32211 23.4824C5.12444 23.4824 3.97584 23.9582 3.12896 24.805C2.28209 25.6519 1.80632 26.8005 1.80632 27.9982V29.8045C1.80632 30.044 1.71116 30.2738 1.54179 30.4431C1.37241 30.6125 1.14269 30.7077 0.903158 30.7077C0.663626 30.7077 0.433904 30.6125 0.264529 30.4431C0.0951541 30.2738 0 30.044 0 29.8045V27.9982C3.53344e-08 26.3215 0.666078 24.7134 1.8517 23.5278C3.03733 22.3422 4.64538 21.6761 6.32211 21.6761C7.99883 21.6761 9.60689 22.3422 10.7925 23.5278C11.9781 24.7134 12.6442 26.3215 12.6442 27.9982V29.8045C12.6442 30.044 12.5491 30.2738 12.3797 30.4431C12.2103 30.6125 11.9806 30.7077 11.7411 30.7077Z" fill="black"/>
<path d="M11.7404 29.5515C11.5686 29.5514 11.4004 29.5023 11.2556 29.4099C11.1107 29.3176 10.9952 29.1858 10.9226 29.0302C10.8499 28.8745 10.8232 28.7013 10.8455 28.531C10.8679 28.3606 10.9383 28.2002 11.0486 28.0685L23.6928 12.9677C23.8492 12.7931 24.0673 12.6861 24.3011 12.6694C24.5349 12.6527 24.7661 12.7275 24.9457 12.8781C25.1253 13.0286 25.2394 13.2431 25.2638 13.4763C25.2882 13.7094 25.221 13.9429 25.0764 14.1274L12.4322 29.2282C12.3475 29.3293 12.2417 29.4107 12.1222 29.4665C12.0027 29.5224 11.8723 29.5514 11.7404 29.5515V29.5515Z" fill="black"/>
<path d="M4.51644 9.03176C4.27691 9.03176 4.04719 8.93661 3.87781 8.76723C3.70844 8.59786 3.61328 8.36814 3.61328 8.1286V0.903341C3.61328 0.663809 3.70844 0.434087 3.87781 0.264712C4.04719 0.0953371 4.27691 0.000183105 4.51644 0.000183105C4.75597 0.000183105 4.98569 0.0953371 5.15507 0.264712C5.32444 0.434087 5.4196 0.663809 5.4196 0.903341V8.1286C5.4196 8.36814 5.32444 8.59786 5.15507 8.76723C4.98569 8.93661 4.75597 9.03176 4.51644 9.03176Z" fill="black"/>
<path d="M33.4172 1.8065H2.7098C2.47027 1.8065 2.24054 1.71135 2.07117 1.54197C1.90179 1.3726 1.80664 1.14287 1.80664 0.903341C1.80664 0.663809 1.90179 0.434087 2.07117 0.264712C2.24054 0.0953372 2.47027 0.000183105 2.7098 0.000183105H33.4172C33.6567 0.000183105 33.8864 0.0953372 34.0558 0.264712C34.2252 0.434087 34.3203 0.663809 34.3203 0.903341C34.3203 1.14287 34.2252 1.3726 34.0558 1.54197C33.8864 1.71135 33.6567 1.8065 33.4172 1.8065Z" fill="black"/>
<path d="M31.6102 21.676C31.3707 21.676 31.1409 21.5808 30.9716 21.4114C30.8022 21.2421 30.707 21.0124 30.707 20.7728V0.903341C30.707 0.663809 30.8022 0.434087 30.9716 0.264712C31.1409 0.0953372 31.3707 0.000183105 31.6102 0.000183105C31.8497 0.000183105 32.0794 0.0953372 32.2488 0.264712C32.4182 0.434087 32.5133 0.663809 32.5133 0.903341V20.7728C32.5133 21.0124 32.4182 21.2421 32.2488 21.4114C32.0794 21.5808 31.8497 21.676 31.6102 21.676Z" fill="black"/>
<path d="M33.4168 21.6759H22.5789C22.3394 21.6759 22.1097 21.5808 21.9403 21.4114C21.7709 21.242 21.6758 21.0123 21.6758 20.7728C21.6758 20.5333 21.7709 20.3035 21.9403 20.1342C22.1097 19.9648 22.3394 19.8696 22.5789 19.8696H33.4168C33.6564 19.8696 33.8861 19.9648 34.0555 20.1342C34.2248 20.3035 34.32 20.5333 34.32 20.7728C34.32 21.0123 34.2248 21.242 34.0555 21.4114C33.8861 21.5808 33.6564 21.6759 33.4168 21.6759Z" fill="black"/>
<path d="M26.1922 7.22557H15.3543C15.1148 7.22557 14.8851 7.13041 14.7157 6.96104C14.5463 6.79166 14.4512 6.56194 14.4512 6.32241C14.4512 6.08288 14.5463 5.85315 14.7157 5.68378C14.8851 5.5144 15.1148 5.41925 15.3543 5.41925H26.1922C26.4318 5.41925 26.6615 5.5144 26.8309 5.68378C27.0002 5.85315 27.0954 6.08288 27.0954 6.32241C27.0954 6.56194 27.0002 6.79166 26.8309 6.96104C26.6615 7.13041 26.4318 7.22557 26.1922 7.22557Z" fill="black"/>
<path d="M26.1916 10.8381H11.741C11.5015 10.8381 11.2718 10.743 11.1024 10.5736C10.933 10.4042 10.8379 10.1745 10.8379 9.93496C10.8379 9.69542 10.933 9.4657 11.1024 9.29633C11.2718 9.12695 11.5015 9.0318 11.741 9.0318H26.1916C26.4311 9.0318 26.6608 9.12695 26.8302 9.29633C26.9996 9.4657 27.0947 9.69542 27.0947 9.93496C27.0947 10.1745 26.9996 10.4042 26.8302 10.5736C26.6608 10.743 26.4311 10.8381 26.1916 10.8381Z" fill="black"/>
</svg>
