<svg width="40" height="40" viewBox="0 0 40 40" fill="none" xmlns="http://www.w3.org/2000/svg">
<path d="M26.0287 22.6196C25.6677 22.6196 25.3148 22.7267 25.0146 22.9272C24.7145 23.1278 24.4805 23.4128 24.3423 23.7464C24.2042 24.0799 24.168 24.4469 24.2384 24.8009C24.3088 25.155 24.4826 25.4802 24.7379 25.7355C24.9931 25.9908 25.3183 26.1647 25.6724 26.2351C26.0264 26.3056 26.3934 26.2695 26.727 26.1314C27.0605 25.9933 27.3456 25.7594 27.5462 25.4593C27.7468 25.1591 27.8539 24.8063 27.854 24.4453C27.8535 23.9613 27.6611 23.4972 27.3189 23.155C26.9767 22.8127 26.5127 22.6202 26.0287 22.6196ZM26.0287 25.1764C25.884 25.1764 25.7425 25.1335 25.6222 25.0531C25.5019 24.9727 25.4082 24.8585 25.3528 24.7248C25.2974 24.5911 25.2829 24.444 25.3112 24.3021C25.3394 24.1602 25.4091 24.0298 25.5114 23.9275C25.6137 23.8252 25.7441 23.7556 25.886 23.7273C26.0279 23.6991 26.175 23.7136 26.3087 23.769C26.4424 23.8244 26.5566 23.9182 26.637 24.0385C26.7174 24.1588 26.7603 24.3002 26.7602 24.4449C26.76 24.6389 26.6829 24.8248 26.5457 24.962C26.4086 25.0991 26.2226 25.1762 26.0287 25.1764Z" fill="white"/>
<path d="M15.6245 24.0236C15.6245 23.6625 15.5175 23.3096 15.3169 23.0095C15.1163 22.7093 14.8312 22.4753 14.4977 22.3372C14.1642 22.199 13.7972 22.1629 13.4431 22.2333C13.089 22.3037 12.7638 22.4776 12.5085 22.7329C12.2532 22.9881 12.0794 23.3134 12.009 23.6675C11.9385 24.0215 11.9747 24.3885 12.1128 24.7221C12.251 25.0556 12.4849 25.3407 12.7851 25.5412C13.0853 25.7418 13.4382 25.8489 13.7992 25.8489C14.2831 25.8483 14.7471 25.6558 15.0893 25.3137C15.4315 24.9715 15.624 24.5075 15.6245 24.0236ZM13.7992 24.7551C13.6545 24.7551 13.5131 24.7122 13.3928 24.6318C13.2725 24.5514 13.1787 24.4372 13.1233 24.3035C13.0679 24.1698 13.0535 24.0227 13.0817 23.8808C13.1099 23.7389 13.1796 23.6086 13.2819 23.5063C13.3842 23.404 13.5146 23.3343 13.6565 23.306C13.7984 23.2778 13.9455 23.2923 14.0791 23.3477C14.2128 23.403 14.3271 23.4968 14.4075 23.6171C14.4878 23.7374 14.5308 23.8789 14.5308 24.0236C14.5306 24.2175 14.4534 24.4035 14.3163 24.5407C14.1791 24.6778 13.9932 24.7549 13.7992 24.7551Z" fill="white"/>
<path d="M25.2405 27.9507C25.0955 27.9507 24.9564 28.0083 24.8538 28.1109C24.7513 28.2134 24.6936 28.3525 24.6936 28.4976C24.6885 29.7619 24.1827 30.9727 23.2869 31.8649C22.391 32.7571 21.1782 33.2581 19.9138 33.2581C18.6495 33.2581 17.4367 32.7571 16.5408 31.8649C15.645 30.9727 15.1391 29.7619 15.134 28.4976C15.134 28.3525 15.0764 28.2134 14.9739 28.1109C14.8713 28.0083 14.7322 27.9507 14.5872 27.9507C14.4421 27.9507 14.303 28.0083 14.2005 28.1109C14.0979 28.2134 14.0403 28.3525 14.0403 28.4976C14.046 30.0516 14.6673 31.5401 15.7682 32.637C16.8691 33.7338 18.3598 34.3497 19.9138 34.3497C21.4679 34.3497 22.9586 33.7338 24.0595 32.637C25.1604 31.5401 25.7817 30.0516 25.7874 28.4976C25.7874 28.3525 25.7298 28.2134 25.6272 28.1109C25.5247 28.0083 25.3856 27.9507 25.2405 27.9507Z" fill="white"/>
<path d="M3.26597 10.1646L8.14097 12.0402V18.6544C8.14114 18.7315 8.15766 18.8076 8.18943 18.8778C8.2212 18.948 8.26749 19.0107 8.32526 19.0617C7.97246 19.7758 7.6869 20.5213 7.4723 21.2883C6.72643 21.5157 6.07333 21.9766 5.60926 22.6033C5.14519 23.2299 4.89469 23.989 4.89469 24.7688C4.89469 25.5485 5.14519 26.3077 5.60926 26.9343C6.07333 27.5609 6.72643 28.0219 7.4723 28.2492C8.23247 30.9627 9.85915 33.3531 12.1043 35.056C14.3495 36.7588 17.09 37.6808 19.9079 37.6812C22.7258 37.6816 25.4665 36.7605 27.7122 35.0583C29.9578 33.356 31.5852 30.9661 32.3462 28.2529C33.0945 28.0271 33.7502 27.5663 34.2163 26.9388C34.6823 26.3113 34.934 25.5504 34.934 24.7688C34.934 23.9871 34.6823 23.2262 34.2163 22.5987C33.7502 21.9713 33.0945 21.5105 32.3462 21.2846C32.1181 20.4705 31.8101 19.6809 31.4267 18.9273C31.4753 18.8445 31.501 18.7503 31.5014 18.6544V12.1119L34.8685 10.8163V16.3588C34.4672 16.5147 34.1348 16.809 33.9315 17.1886C33.7281 17.5681 33.6671 18.0078 33.7596 18.4284C33.852 18.8489 34.0918 19.2226 34.4356 19.4818C34.7794 19.7411 35.2045 19.8689 35.6343 19.8421C36.064 19.8154 36.47 19.6359 36.779 19.336C37.088 19.0361 37.2796 18.6357 37.3192 18.2069C37.3588 17.7782 37.2438 17.3494 36.995 16.998C36.7462 16.6466 36.3799 16.3957 35.9623 16.2907V10.3955L36.5623 10.1646C37.2087 9.91588 37.3052 9.50838 37.3052 9.28822C37.3052 9.06807 37.2087 8.66049 36.5623 8.41182L21.0623 2.44807C20.4081 2.19635 19.4217 2.19635 18.7671 2.44807L3.26706 8.41182C2.62065 8.66049 2.52417 9.06768 2.52417 9.28822C2.52417 9.50877 2.61956 9.91588 3.26597 10.1646ZM36.2326 18.0459C36.2317 18.1864 36.1892 18.3236 36.1104 18.44C36.0317 18.5564 35.9202 18.6469 35.7901 18.7C35.66 18.7532 35.5171 18.7666 35.3794 18.7387C35.2416 18.7107 35.1152 18.6426 35.0162 18.5429C34.9171 18.4432 34.8498 18.3164 34.8227 18.1785C34.7956 18.0406 34.8099 17.8977 34.8639 17.7679C34.9179 17.6382 35.0091 17.5273 35.126 17.4493C35.2429 17.3713 35.3803 17.3296 35.5209 17.3296C35.7102 17.3305 35.8914 17.4064 36.0248 17.5406C36.1582 17.6749 36.233 17.8566 36.2326 18.0459ZM31.7938 22.2734C32.3707 22.3887 32.8899 22.7004 33.263 23.1554C33.636 23.6104 33.8399 24.1806 33.8399 24.769C33.8399 25.3574 33.636 25.9276 33.263 26.3826C32.8899 26.8376 32.3707 27.1493 31.7938 27.2646C31.6922 27.2847 31.5984 27.3333 31.5233 27.4046C31.4482 27.4759 31.3949 27.567 31.3696 27.6674C30.724 30.2176 29.2462 32.4795 27.1702 34.0952C25.0943 35.7109 22.5387 36.588 19.9081 36.5878C17.2775 36.5875 14.7221 35.7098 12.6465 34.0937C10.5709 32.4776 9.09353 30.2154 8.44839 27.6651C8.42316 27.5649 8.3701 27.474 8.29533 27.4027C8.22056 27.3315 8.12714 27.2829 8.02589 27.2625C7.45072 27.1457 6.93363 26.8337 6.56221 26.3792C6.19079 25.9248 5.98789 25.3559 5.98789 24.769C5.98789 24.1821 6.19079 23.6133 6.56221 23.1589C6.93363 22.7044 7.45072 22.3924 8.02589 22.2756C8.12716 22.2552 8.22059 22.2066 8.29536 22.1353C8.37013 22.064 8.42319 21.973 8.44839 21.8728C8.66061 21.0311 8.96555 20.2155 9.35761 19.441C12.7495 20.4653 16.2743 20.9822 19.8175 20.9749C23.4165 20.9823 26.9963 20.4498 30.4375 19.3953C30.8403 20.1825 31.1529 21.0128 31.3694 21.8703C31.3947 21.9708 31.448 22.062 31.5231 22.1334C31.5983 22.2047 31.6921 22.2533 31.7938 22.2734ZM30.4071 18.2584C23.6619 20.4224 15.9749 20.4249 9.23433 18.2571V12.4609L18.7663 16.1284C19.5107 16.38 20.3171 16.38 21.0615 16.1284L30.4071 12.5326V18.2584ZM19.159 3.46869C19.5541 3.31666 20.2737 3.31666 20.6688 3.46869L35.7938 9.28799L20.6688 15.1074C20.2737 15.2595 19.5541 15.2595 19.159 15.1074L4.03401 9.28822L19.159 3.46869Z" fill="white"/>
</svg>
