<svg width="30" height="30" viewBox="0 0 30 30" fill="none" xmlns="http://www.w3.org/2000/svg">
<path d="M25.6066 25.6066C22.7735 28.4397 19.0066 30 15 30C10.9934 30 7.22651 28.4397 4.39339 25.6066C1.56028 22.7735 0 19.0066 0 15C0 10.9933 1.56028 7.22651 4.39339 4.39333C7.22657 1.56022 10.9934 -6.10352e-05 15 -6.10352e-05C19.0067 -6.10352e-05 22.7735 1.56022 25.6067 4.39333C28.4398 7.22651 30.0001 10.9933 30.0001 15C30.0001 19.0066 28.4397 22.7735 25.6066 25.6066ZM19.0217 24.5979C20.2518 22.049 20.9293 18.6404 20.9293 15C20.9293 11.3597 20.2518 7.9511 19.0217 5.40218C17.9068 3.09198 16.441 1.76707 15 1.76707C13.5591 1.76707 12.0932 3.09204 10.9784 5.40218C9.74816 7.95104 9.07069 11.3596 9.07069 15C9.07069 18.6403 9.74816 22.0489 10.9783 24.5978C12.0932 26.908 13.5591 28.233 15 28.233C16.441 28.233 17.9068 26.908 19.0217 24.5979ZM1.76702 15C1.76702 20.7874 5.5019 25.7184 10.6877 27.5109C10.218 26.9004 9.78168 26.1838 9.38692 25.3659C8.04352 22.5823 7.30367 18.901 7.30367 15C7.30367 11.099 8.04352 7.4177 9.38692 4.63412C9.78168 3.81617 10.218 3.09964 10.6877 2.48908C5.5019 4.28154 1.76702 9.21252 1.76702 15ZM19.3123 2.48908C19.782 3.09964 20.2183 3.81623 20.6131 4.63412C21.9565 7.4177 22.6963 11.099 22.6963 15C22.6963 18.9009 21.9565 22.5822 20.6131 25.3658C20.2183 26.1838 19.782 26.9003 19.3123 27.5109C24.4981 25.7184 28.233 20.7874 28.233 14.9999C28.233 9.2124 24.4981 4.28154 19.3123 2.48908Z" fill="white"/>
<path d="M14.9998 11.6623C16.8402 11.6623 18.3375 13.1595 18.3375 15C18.3375 16.8405 16.8402 18.3376 14.9998 18.3376C13.1594 18.3376 11.6621 16.8404 11.6621 14.9999C11.6621 13.1595 13.1594 11.6623 14.9998 11.6623ZM14.9998 16.5706C15.8659 16.5706 16.5705 15.8661 16.5705 14.9999C16.5705 14.1338 15.866 13.4292 14.9998 13.4292C14.1337 13.4292 13.4291 14.1339 13.4291 14.9999C13.4291 15.866 14.1337 16.5706 14.9998 16.5706Z" fill="white"/>
</svg>
