<svg width="30" height="30" viewBox="0 0 30 30" fill="none" xmlns="http://www.w3.org/2000/svg">
<g clip-path="url(#clip0_43_233)">
<path d="M26.1133 17.9261V15.9982H21.8114C23.1847 14.3866 23.9325 12.3642 23.9325 10.2187V8.93246C23.9325 4.00709 19.9254 0 15 0C10.0747 0 6.0676 4.00709 6.0676 8.93246V10.1334C6.0676 12.2994 6.8284 14.3611 8.2199 15.9983H3.97221V17.8765C1.89227 19.503 0.708984 21.9351 0.708984 24.6226V30H29.2911V24.6226C29.2911 22.0377 28.1107 19.5676 26.1133 17.9261ZM9.06206 17.7692C9.15459 17.7646 10.2301 17.7618 10.2301 17.7618C10.2261 17.8426 10.2236 17.9235 10.2236 18.0044C10.2236 20.6643 12.3877 22.8284 15.0476 22.8284C17.7076 22.8284 19.8716 20.6643 19.8716 18.0044C19.8716 17.9235 19.8694 17.8425 19.8654 17.7618C19.8654 17.7618 20.9041 17.765 21.0235 17.7706V28.2364H9.06206V17.7692ZM12.0565 18.6511C12.9173 18.954 13.8277 19.1237 14.7625 19.148C14.8428 19.1501 14.9226 19.1511 15.0027 19.1511C16.0567 19.1511 17.0825 18.9695 18.0456 18.621C17.7595 20.014 16.524 21.0649 15.0476 21.0649C13.5819 21.0648 12.3542 20.029 12.0565 18.6511ZM22.787 17.7618H24.3497V28.2195H22.787V17.7618ZM22.0104 7.43144H20.5383C19.209 7.43144 18.1275 6.34997 18.1275 5.02066V2.48261C20.0833 3.43482 21.544 5.25092 22.0104 7.43144ZM15.0001 1.76355C15.4663 1.76355 15.9222 1.80882 16.3639 1.89429V3.92967C16.3639 5.86058 14.793 7.43144 12.8622 7.43144H7.98976C8.68166 4.19667 11.5618 1.76355 15.0001 1.76355ZM7.83116 9.195H12.8622C14.5288 9.195 16.0169 8.41645 16.9824 7.20412C17.7179 8.39752 19.0365 9.195 20.5383 9.195H22.1689V10.2187C22.1689 12.1689 21.3995 13.9926 20.0024 15.3538C18.6519 16.6696 16.8825 17.3876 15.0012 17.3876C14.9372 17.3876 14.8727 17.3868 14.8084 17.3851C10.9612 17.285 7.83122 14.0319 7.83122 10.1334V9.195H7.83116ZM5.73576 17.7618H7.29851V28.2195H5.73576V17.7618ZM2.47254 24.6226C2.47254 23.0141 3.00507 21.5217 3.97221 20.3313V28.2364H2.47254V24.6226ZM27.5276 28.2364H26.1133V20.452C27.0175 21.6421 27.5276 23.1078 27.5276 24.6227V28.2364Z" fill="white"/>
<path d="M15.0478 14.8012C16.4219 14.8012 17.5399 13.6832 17.5399 12.3091H15.7763C15.7763 12.7108 15.4495 13.0377 15.0478 13.0377C14.6461 13.0377 14.3192 12.7108 14.3192 12.3091H12.5557C12.5557 13.6833 13.6736 14.8012 15.0478 14.8012Z" fill="white"/>
</g>
<defs>
<clipPath id="clip0_43_233">
<rect width="30" height="30" fill="white"/>
</clipPath>
</defs>
</svg>
