<svg width="79" height="76" viewBox="0 0 79 76" fill="none" xmlns="http://www.w3.org/2000/svg">
<path d="M78.4918 38C78.4918 58.9868 60.9208 76 39.2459 76C17.571 76 0 58.9868 0 38C0 17.0132 17.571 0 39.2459 0C60.9208 0 78.4918 17.0132 78.4918 38Z" fill="#E8063C"/>
<path fill-rule="evenodd" clip-rule="evenodd" d="M54.0318 49.5H41.5866C41.0518 49.5 40.6184 49.0803 40.6184 48.5625V36.5125C40.6184 36.4116 40.6353 36.3115 40.6683 36.2161L43.7795 27.1785C43.9112 26.7957 44.2811 26.5374 44.6979 26.5374H47.8093C48.3441 26.5374 48.7776 26.9573 48.7776 27.4749V35.575H54.0318C54.5666 35.575 55 35.9946 55 36.5125V48.5625C55 49.0803 54.5666 49.5 54.0318 49.5ZM35.3643 49.5H22.9192C22.3844 49.5 21.9509 49.0803 21.9509 48.5625V36.5125C21.9509 36.4116 21.9678 36.3115 22.0006 36.2161L25.1118 27.1785C25.2437 26.7957 25.6136 26.5374 26.0304 26.5374H29.1416C29.6764 26.5374 30.1099 26.9573 30.1099 27.4749V35.575H35.3643C35.8991 35.575 36.3325 35.9946 36.3325 36.5125V48.5625C36.3325 49.0803 35.8991 49.5 35.3643 49.5Z" fill="white"/>
</svg>
