<svg width="50" height="49" viewBox="0 0 50 49" fill="none" xmlns="http://www.w3.org/2000/svg">
<path d="M47.4404 13.5239H46.557C46.3523 12.8795 45.8052 12.384 45.1062 12.2677C38.75 11.2107 32.3044 11.2107 25.9484 12.2677C25.5811 12.3287 25.2565 12.4956 25.0002 12.7325C24.744 12.4956 24.4194 12.3287 24.0521 12.2677C17.6959 11.2107 11.2503 11.2107 4.89429 12.2677C4.19536 12.3839 3.64829 12.8795 3.44351 13.5239H2.56001C1.14858 13.5239 0.000244141 14.6723 0.000244141 16.0837V45.9187C0.000244141 47.3302 1.14858 48.4784 2.56001 48.4784H23.4255C24.0191 48.4784 24.5656 48.2748 25.0002 47.9346C25.4349 48.2748 25.9814 48.4784 26.575 48.4784H47.4404C48.8519 48.4784 50.0002 47.3302 50.0002 45.9187V16.0837C50.0002 14.6723 48.8519 13.5239 47.4404 13.5239ZM4.53726 29.3005C11.4556 27.7467 17.9664 27.744 24.4092 29.2928V31.9688C17.9578 30.4612 11.4414 30.4648 4.53726 31.98V29.3005ZM25.5914 29.3005C32.5097 27.7467 39.0205 27.744 45.4633 29.2928V31.9688C39.0119 30.4612 32.4955 30.4648 25.5914 31.98V29.3005ZM45.4632 28.0774C39.0118 26.5698 32.4954 26.5735 25.5913 28.0886V25.2351C32.5098 23.6811 39.0205 23.6786 45.4632 25.2273V28.0774ZM24.4091 28.0774C17.9577 26.5699 11.4413 26.5735 4.53716 28.0886V25.2351C11.4557 23.6811 17.9664 23.6786 24.4091 25.2273V28.0774ZM4.53726 33.1919C11.4558 31.6378 17.9665 31.6354 24.4092 33.1842V35.983C17.9578 34.4754 11.4414 34.4789 4.53726 35.9941V33.1919ZM25.5914 33.1919C32.5099 31.6378 39.0206 31.6354 45.4633 33.1842V35.983C39.0119 34.4754 32.4955 34.4789 25.5914 35.9941V33.1919ZM45.4632 24.0121C39.0118 22.5046 32.4954 22.508 25.5913 24.0232V21.2219C32.5096 19.6681 39.0204 19.6654 45.4632 21.2142V24.0121ZM24.4091 24.0121C17.9577 22.5046 11.4413 22.508 4.53716 24.0232V21.2219C11.4555 19.6681 17.9663 19.6654 24.4091 21.2142V24.0121ZM4.53726 37.2061C11.4558 35.652 17.9665 35.6496 24.4092 37.1983V39.823C17.9578 38.3155 11.4414 38.3191 4.53726 39.8342V37.2061ZM25.5914 37.2061C32.5099 35.652 39.0206 35.6496 45.4633 37.1983V39.823C39.0119 38.3155 32.4955 38.3191 25.5914 39.8342V37.2061ZM45.4632 19.9989C39.0118 18.4914 32.4954 18.495 25.5913 20.0101V17.2441C32.5096 15.6903 39.0204 15.6877 45.4632 17.2364V19.9989ZM24.4091 19.9989C17.9577 18.4914 11.4413 18.495 4.53716 20.0101V17.2441C11.4555 15.6903 17.9663 15.6877 24.4091 17.2364V19.9989ZM4.53726 41.0461C11.4556 39.4922 17.9664 39.4896 24.4092 41.0384V42.801C24.4092 43.0009 24.3202 43.1875 24.1649 43.3129C24.0082 43.4396 23.8048 43.4879 23.6065 43.4453C17.6536 42.1674 11.676 42.1748 5.33237 43.4687C5.13589 43.5088 4.93413 43.4594 4.77925 43.3328C4.62544 43.2071 4.53726 43.0213 4.53726 42.8227V41.0461ZM25.8333 43.3328C25.6794 43.2072 25.5913 43.0213 25.5913 42.8227V42.801V41.046C32.5096 39.4921 39.0204 39.4895 45.4632 41.0383V42.8009C45.4632 43.0008 45.3742 43.1874 45.2189 43.3128C45.0622 43.4395 44.8587 43.4878 44.6605 43.4452C38.7076 42.1672 32.73 42.1746 26.3863 43.4685C26.1901 43.5092 25.9882 43.4594 25.8333 43.3328ZM26.1423 13.4339C29.256 12.916 32.3917 12.6571 35.5273 12.6571C38.6629 12.6571 41.7986 12.916 44.9123 13.4339C45.2315 13.487 45.4632 13.7614 45.4632 14.0862V16.0211C39.0118 14.5136 32.4954 14.5171 25.5913 16.0322V14.0861C25.5914 13.7613 25.823 13.487 26.1423 13.4339ZM5.08823 13.4339C8.2019 12.916 11.3376 12.6571 14.4732 12.6571C17.6088 12.6571 20.7445 12.916 23.8582 13.4339C24.1774 13.487 24.4091 13.7614 24.4091 14.0862V16.0211C17.9577 14.5136 11.4413 14.5171 4.53716 16.0322V14.0861C4.53726 13.7613 4.7689 13.487 5.08823 13.4339ZM23.4255 46.5082H2.56001C2.23491 46.5082 1.97046 46.2437 1.97046 45.9187V16.0837C1.97046 15.7586 2.23491 15.4941 2.56001 15.4941H3.35503V42.8227C3.35503 43.3777 3.60151 43.8974 4.0314 44.2483C4.3646 44.5205 4.77505 44.6647 5.19644 44.6647C5.32007 44.6647 5.44478 44.6523 5.5686 44.627C11.7491 43.3667 17.5682 43.3581 23.3583 44.6013C23.5778 44.6484 23.7998 44.6546 24.0151 44.6232V45.9187C24.0151 46.2437 23.7506 46.5082 23.4255 46.5082ZM48.03 45.9187C48.03 46.2437 47.7656 46.5082 47.4405 46.5082H26.575C26.2499 46.5082 25.9854 46.2437 25.9854 45.9187V44.6441C26.073 44.6568 26.1614 44.6647 26.2505 44.6647C26.3742 44.6647 26.4989 44.6523 26.6227 44.627C32.8033 43.3667 38.6223 43.3581 44.4125 44.6013C44.9613 44.7192 45.5261 44.5849 45.962 44.2325C46.3963 43.8815 46.6455 43.3598 46.6455 42.8011V15.4942H47.4405C47.7656 15.4942 48.03 15.7587 48.03 16.0838V45.9187Z" fill="#E8063C"/>
<path d="M8.02417 8.08596C9.03325 8.08596 9.85122 7.26799 9.85122 6.25891C9.85122 5.24983 9.03315 4.43176 8.02417 4.43176C7.01509 4.43176 6.19702 5.24983 6.19702 6.25891C6.19702 7.26799 7.01509 8.08596 8.02417 8.08596Z" fill="#E8063C"/>
<path d="M35.5274 2.29221C35.9547 2.29221 36.3011 1.94583 36.3011 1.51848C36.3011 1.09114 35.9547 0.744751 35.5274 0.744751C35.1 0.744751 34.7537 1.09114 34.7537 1.51848C34.7537 1.94583 35.1 2.29221 35.5274 2.29221Z" fill="#E8063C"/>
<path d="M17.4809 3.33914L19.0315 4.03777C19.0979 4.06765 19.1505 4.12693 19.1771 4.20164L19.7978 5.94695C19.8855 6.19353 20.1956 6.19353 20.2833 5.94695L20.904 4.20164C20.9305 4.12693 20.9832 4.06765 21.0496 4.03777L22.6002 3.33914C22.8192 3.24041 22.8192 2.89138 22.6002 2.79265L21.0496 2.09402C20.9832 2.06414 20.9305 2.00486 20.904 1.93015L20.2834 0.184937C20.1957 -0.0616455 19.8856 -0.0616455 19.7979 0.184937L19.1772 1.93025C19.1506 2.00496 19.098 2.06423 19.0316 2.09412L17.481 2.79275C17.2619 2.89138 17.2619 3.2405 17.4809 3.33914Z" fill="#E8063C"/>
<path d="M40.0612 6.50022L42.1918 7.44211C42.2831 7.48245 42.3553 7.56223 42.3918 7.66301L43.2448 10.0158C43.3653 10.3483 43.7914 10.3483 43.9119 10.0158L44.7647 7.66301C44.8012 7.56233 44.8735 7.48245 44.9647 7.44211L47.0954 6.50022C47.3963 6.36721 47.3963 5.89661 47.0954 5.7636L44.9647 4.8217C44.8735 4.78137 44.8012 4.70159 44.7647 4.60081L43.9119 2.24797C43.7914 1.91555 43.3653 1.91555 43.2448 2.24797L42.3918 4.60081C42.3553 4.70159 42.2831 4.78137 42.1918 4.8217L40.0612 5.7636C39.7602 5.89661 39.7602 6.36721 40.0612 6.50022Z" fill="#E8063C"/>
</svg>
