<svg width="50" height="46" viewBox="0 0 50 46" fill="none" xmlns="http://www.w3.org/2000/svg">
<path d="M48.4022 24.0755L26.4066 14.3982C25.5259 14.0108 24.4747 14.0109 23.5942 14.3982L1.5984 24.0755C0.612552 24.5092 0.000244141 25.3656 0.000244141 26.3103C0.000244141 27.2551 0.612552 28.1115 1.5984 28.5452L10.7281 32.5619V41.0502C10.7281 42.4868 12.2462 43.5611 15.3691 44.3344C17.9536 44.9745 21.3741 45.3269 25.0003 45.3269C28.6265 45.3269 32.0471 44.9745 34.6315 44.3344C37.7544 43.5611 39.2725 42.4868 39.2725 41.0502V32.5619L43.3289 30.7773V33.7333H42.9674C41.9986 33.7333 41.2104 34.5215 41.2104 35.4904V39.2336C41.2104 40.9461 42.6036 42.3391 44.3159 42.3391C46.0283 42.3391 47.4214 40.946 47.4214 39.2336V35.4904C47.4214 34.5215 46.6332 33.7333 45.6642 33.7333H45.3028V29.9088L48.4021 28.5452C49.388 28.1115 50.0004 27.2552 50.0004 26.3103C50.0005 25.3655 49.3881 24.5092 48.4022 24.0755ZM45.4474 39.2336C45.4474 39.8576 44.9398 40.3652 44.3159 40.3652C43.6919 40.3652 43.1843 39.8576 43.1843 39.2336V35.7073H45.4474V39.2336ZM37.2987 38.6785C36.599 38.3366 35.7114 38.0331 34.6316 37.7658C32.0471 37.1257 28.6266 36.7733 25.0004 36.7733C21.3741 36.7733 17.9536 37.1257 15.3692 37.7658C14.2895 38.0331 13.4019 38.3366 12.7022 38.6785V27.318C12.8047 27.1046 13.6378 26.4197 16.2491 25.8275C18.6337 25.2868 21.7417 24.989 25.0004 24.989C28.2593 24.989 31.3672 25.2867 33.7517 25.8275C36.363 26.4197 37.196 27.1046 37.2987 27.318V38.6785ZM33.7517 42.5144C31.367 43.0551 28.2591 43.353 25.0004 43.353C21.7417 43.353 18.6336 43.0552 16.2491 42.5144C13.7361 41.9445 12.87 41.2888 12.7169 41.0501C12.8699 40.8114 13.736 40.1556 16.2491 39.5857C18.6337 39.045 21.7417 38.7471 25.0004 38.7471C28.2593 38.7471 31.3672 39.0449 33.7517 39.5857C36.2648 40.1555 37.1308 40.8113 37.2839 41.0501C37.1308 41.2888 36.2647 41.9446 33.7517 42.5144ZM39.2726 30.4053V27.2919C39.2726 25.8552 37.7545 24.7808 34.6316 24.0076C32.0471 23.3676 28.6266 23.0151 25.0004 23.0151C21.3741 23.0151 17.9536 23.3676 15.3692 24.0076C12.2463 24.7808 10.7282 25.8552 10.7282 27.2919V30.4053L2.39342 26.7384C2.13873 26.6264 1.97428 26.4583 1.97428 26.3103C1.97428 26.1624 2.13883 25.9944 2.39342 25.8823L24.3892 16.205C24.5749 16.1234 24.7876 16.0826 25.0005 16.0826C25.2132 16.0826 25.426 16.1234 25.6116 16.205L43.329 24V28.6206L39.2726 30.4053ZM47.6072 26.7384L45.3028 27.7522V24.8685L47.6072 25.8824C47.862 25.9944 48.0264 26.1625 48.0264 26.3104C48.0265 26.4583 47.862 26.6263 47.6072 26.7384Z" fill="#E8063C"/>
<path d="M29.7768 31.3038C29.4497 31.3038 29.1846 31.569 29.1846 31.896V33.1562C29.1846 33.4832 29.4497 33.7484 29.7768 33.7484C30.1038 33.7484 30.3689 33.4832 30.3689 33.1562V31.896C30.3689 31.569 30.1038 31.3038 29.7768 31.3038Z" fill="#E8063C"/>
<path d="M32.5461 29.6824C32.219 29.6824 31.9539 29.9475 31.9539 30.2746V31.5347C31.9539 31.8618 32.219 32.1269 32.5461 32.1269C32.8731 32.1269 33.1382 31.8618 33.1382 31.5347V30.2746C33.1382 29.9475 32.8731 29.6824 32.5461 29.6824Z" fill="#E8063C"/>
<path d="M34.5968 33.8187C34.2698 33.8187 34.0046 34.0839 34.0046 34.4109V35.6711C34.0046 35.9981 34.2698 36.2633 34.5968 36.2633C34.9239 36.2633 35.189 35.9981 35.189 35.6711V34.4109C35.189 34.0839 34.9238 33.8187 34.5968 33.8187Z" fill="#E8063C"/>
<path d="M15.6274 34.7454C15.0824 34.7454 14.6404 34.3035 14.6404 33.7584V32.1456C14.6404 31.6005 15.0823 31.1586 15.6274 31.1586C16.1724 31.1586 16.6144 31.6005 16.6144 32.1456V33.7584C16.6144 34.3035 16.1725 34.7454 15.6274 34.7454Z" fill="#E8063C"/>
<path d="M15.6274 30.1341C15.0824 30.1341 14.6404 29.6922 14.6404 29.1471V28.5466C14.6404 28.0015 15.0823 27.5596 15.6274 27.5596C16.1724 27.5596 16.6144 28.0015 16.6144 28.5466V29.1471C16.6144 29.6922 16.1725 30.1341 15.6274 30.1341Z" fill="#E8063C"/>
<path d="M36.3377 11.0889C36.3377 12.0998 35.5181 12.9194 34.5071 12.9194C33.496 12.9194 32.6765 12.0999 32.6765 11.0889C32.6765 10.0778 33.496 9.2583 34.5071 9.2583C35.5181 9.2583 36.3377 10.0779 36.3377 11.0889Z" fill="#E8063C"/>
<path d="M8.70933 4.3139C8.70933 4.74202 8.36226 5.08909 7.93413 5.08909C7.50601 5.08909 7.15894 4.74202 7.15894 4.3139C7.15894 3.88577 7.50601 3.5387 7.93413 3.5387C8.36226 3.5387 8.70933 3.88577 8.70933 4.3139Z" fill="#E8063C"/>
<path d="M21.0235 0.185304L21.6454 1.93385C21.672 2.00865 21.7247 2.06803 21.7912 2.09801L23.3447 2.79791C23.5641 2.89684 23.5641 3.24645 23.3447 3.34538L21.7912 4.04528C21.7247 4.07526 21.6719 4.13454 21.6454 4.20944L21.0235 5.95799C20.9356 6.20506 20.6249 6.20506 20.537 5.95799L19.9152 4.20944C19.8885 4.13454 19.8359 4.07526 19.7694 4.04528L18.2158 3.34538C17.9964 3.24645 17.9964 2.89684 18.2158 2.79791L19.7694 2.09801C19.8359 2.06803 19.8886 2.00875 19.9152 1.93385L20.537 0.185304C20.6249 -0.0617679 20.9357 -0.0617679 21.0235 0.185304Z" fill="#E8063C"/>
<path d="M43.6986 1.49629L44.5531 3.85353C44.5897 3.9545 44.6621 4.03439 44.7535 4.07482L46.8882 5.01838C47.1897 5.15168 47.1897 5.62307 46.8882 5.75637L44.7535 6.69993C44.6621 6.74036 44.5896 6.82034 44.5531 6.92122L43.6986 9.27845C43.5779 9.61146 43.1509 9.61146 43.0302 9.27845L42.1757 6.92122C42.1391 6.82034 42.0668 6.74026 41.9754 6.69993L39.8407 5.75637C39.5391 5.62307 39.5391 5.15168 39.8407 5.01838L41.9754 4.07482C42.0668 4.03439 42.1392 3.95441 42.1757 3.85353L43.0302 1.49629C43.1509 1.16318 43.5779 1.16318 43.6986 1.49629Z" fill="#E8063C"/>
<path d="M7.49328 8.74109L8.34778 11.0983C8.3844 11.1993 8.45676 11.2792 8.54817 11.3196L10.6828 12.2632C10.9844 12.3965 10.9844 12.8679 10.6828 13.0012L8.54817 13.9447C8.45676 13.9852 8.3843 14.0651 8.34778 14.166L7.49328 16.5233C7.37258 16.8563 6.94562 16.8563 6.82492 16.5233L5.97042 14.166C5.9338 14.0651 5.86144 13.9851 5.77003 13.9447L3.63535 13.0012C3.33379 12.8679 3.33379 12.3964 3.63535 12.2632L5.77003 11.3196C5.86144 11.2792 5.9339 11.1992 5.97042 11.0983L6.82492 8.74109C6.94562 8.40808 7.37258 8.40808 7.49328 8.74109Z" fill="#E8063C"/>
</svg>
