<svg width="84" height="84" viewBox="0 0 84 84" fill="none" xmlns="http://www.w3.org/2000/svg">
<g clip-path="url(#clip0_16_527)">
<path d="M31.038 28.8496C30.516 28.9538 30.029 29.1886 29.6223 29.5321C29.2157 29.8755 28.9027 30.3164 28.7126 30.8136C28.5225 31.3108 28.4615 31.848 28.5353 32.3752C28.6091 32.9023 28.8152 33.4022 29.1345 33.8281L32.124 37.8781L31.05 44.3326C30.9601 44.872 31.0122 45.4254 31.2011 45.9386C31.3901 46.4517 31.7093 46.9069 32.1275 47.2592C32.5457 47.6115 33.0484 47.849 33.5861 47.9481C34.1239 48.0472 34.6782 48.0047 35.1945 47.8246L42.0525 45.4951L48.8175 47.8261C49.335 48.0069 49.8908 48.0489 50.4296 47.9478C50.9684 47.8467 51.4712 47.6062 51.888 47.2501C52.3064 46.8995 52.6255 46.4453 52.8134 45.9328C53.0014 45.4203 53.0516 44.8675 52.959 44.3296L51.909 37.7641L54.876 33.8281C55.1953 33.4022 55.4014 32.9023 55.4752 32.3752C55.549 31.848 55.488 31.3108 55.2979 30.8136C55.1078 30.3164 54.7948 29.8755 54.3882 29.5321C53.9815 29.1886 53.4945 28.9538 52.9725 28.8496L47.8815 27.7846L44.715 22.5346C44.436 22.0638 44.0386 21.6744 43.5622 21.4052C43.0858 21.1359 42.5472 20.9963 42 21.0001V21.0001C41.4563 20.9985 40.9216 21.1384 40.4483 21.4058C39.9749 21.6732 39.5792 22.0591 39.3 22.5256L36.021 27.8551L31.038 28.8496ZM38.688 29.3356L41.859 24.0766C41.8729 24.0518 41.8935 24.0314 41.9184 24.0179C41.9434 24.0044 41.9717 23.9982 42 24.0001V24.0001C42.0268 23.9982 42.0535 24.0041 42.077 24.0172C42.1004 24.0302 42.1195 24.0498 42.132 24.0736V24.0736L45.3 29.3341C45.5273 29.7095 45.8304 30.0335 46.1899 30.2853C46.5494 30.5371 46.9575 30.7112 47.388 30.7966L52.374 31.7911L52.467 32.0221L49.5 35.9596C49.2434 36.3004 49.0587 36.6898 48.9571 37.1042C48.8555 37.5185 48.8391 37.9492 48.909 38.3701L49.944 44.9611C49.9238 44.9788 49.8993 44.9908 49.8729 44.9958C49.8465 45.0009 49.8193 44.9987 49.794 44.9896L43.0275 42.6571C42.3603 42.4301 41.6367 42.4301 40.9695 42.6571L34.2195 44.9866C34.197 44.9986 34.1325 45.0181 34.014 44.8261L35.0925 38.3656C35.1617 37.9451 35.1449 37.5149 35.0431 37.1011C34.9412 36.6873 34.7565 36.2984 34.5 35.9581L31.53 32.0236L31.6245 31.7911L36.606 30.7966C37.0375 30.7121 37.4465 30.5385 37.8071 30.2869C38.1677 30.0354 38.4718 29.7114 38.7 29.3356H38.688Z" fill="#E8063C"/>
<path d="M3 64.5C3 64.1022 2.84196 63.7206 2.56066 63.4393C2.27936 63.158 1.89782 63 1.5 63C1.10218 63 0.720645 63.158 0.43934 63.4393C0.158036 63.7206 0 64.1022 0 64.5C0.00357213 67.2837 1.11097 69.9523 3.07932 71.9207C5.04768 73.889 7.71632 74.9964 10.5 75C10.8978 75 11.2794 74.842 11.5607 74.5607C11.842 74.2794 12 73.8978 12 73.5C12 73.1022 11.842 72.7206 11.5607 72.4393C11.2794 72.158 10.8978 72 10.5 72C8.51161 71.9976 6.60534 71.2067 5.19933 69.8007C3.79332 68.3947 3.00238 66.4884 3 64.5V64.5Z" fill="#E8063C"/>
<path d="M71.685 25.7131C71.7415 26.1069 71.9521 26.4622 72.2706 26.7007C72.589 26.9393 72.9891 27.0416 73.383 26.9851C73.7768 26.9286 74.1321 26.7179 74.3707 26.3995C74.6092 26.0811 74.7115 25.6809 74.655 25.2871C73.8832 19.88 71.7765 14.7504 68.5252 10.3616C65.2738 5.97292 60.9803 2.46337 56.0325 0.150062C55.8533 0.0533996 55.6563 -0.00577469 55.4535 -0.023857C55.2507 -0.0419394 55.0464 -0.018551 54.8529 0.0448833C54.6595 0.108318 54.481 0.21047 54.3283 0.345118C54.1756 0.479767 54.0519 0.644092 53.9647 0.828086C53.8776 1.01208 53.8288 1.21189 53.8213 1.41534C53.8139 1.6188 53.8479 1.82164 53.9214 2.01151C53.9949 2.20139 54.1062 2.37432 54.2487 2.51977C54.3911 2.66522 54.5617 2.78015 54.75 2.85756C59.2494 4.96026 63.154 8.15103 66.1108 12.1415C69.0676 16.132 70.9833 20.7963 71.685 25.7131V25.7131Z" fill="#E8063C"/>
<path d="M73.5 51C73.1022 51 72.7206 51.158 72.4393 51.4393C72.158 51.7206 72 52.1022 72 52.5C72 52.8978 72.158 53.2794 72.4393 53.5607C72.7206 53.842 73.1022 54 73.5 54C75.4884 54.0024 77.3947 54.7933 78.8007 56.1993C80.2067 57.6053 80.9976 59.5116 81 61.5C81 61.8978 81.158 62.2794 81.4393 62.5607C81.7206 62.842 82.1022 63 82.5 63C82.8978 63 83.2794 62.842 83.5607 62.5607C83.842 62.2794 84 61.8978 84 61.5C83.9964 58.7163 82.889 56.0477 80.9207 54.0793C78.9523 52.111 76.2837 51.0036 73.5 51V51Z" fill="#E8063C"/>
<path d="M12 34.5V30C11.9929 24.4494 13.5409 19.0077 16.4685 14.292C16.6786 13.9538 16.7457 13.5461 16.6551 13.1585C16.5645 12.7708 16.3237 12.435 15.9855 12.225C15.6474 12.0149 15.2396 11.9478 14.852 12.0384C14.4644 12.129 14.1286 12.3698 13.9185 12.708C10.6966 17.8997 8.99277 23.8898 9.00002 30V34.5C9.00002 34.8978 9.15806 35.2793 9.43936 35.5607C9.72067 35.842 10.1022 36 10.5 36C10.8978 36 11.2794 35.842 11.5607 35.5607C11.842 35.2793 12 34.8978 12 34.5Z" fill="#E8063C"/>
<path d="M61.38 66C60.9822 66 60.6007 66.158 60.3193 66.4393C60.038 66.7206 59.88 67.1022 59.88 67.5C59.88 67.8978 60.038 68.2794 60.3193 68.5607C60.6007 68.842 60.9822 69 61.38 69H64.38C64.7778 69 65.1594 68.842 65.4407 68.5607C65.722 68.2794 65.88 67.8978 65.88 67.5C65.88 67.1022 65.722 66.7206 65.4407 66.4393C65.1594 66.158 64.7778 66 64.38 66H61.38Z" fill="#E8063C"/>
<path d="M6 61.5002V64.5002C6 65.6936 6.47411 66.8382 7.31802 67.6821C8.16193 68.5261 9.30653 69.0002 10.5 69.0002H35.31C34.1463 70.2933 33.3823 71.8961 33.1105 73.6144C32.8387 75.3328 33.0708 77.0931 33.7786 78.6823C34.4864 80.2714 35.6397 81.6214 37.0988 82.5688C38.5579 83.5162 40.2603 84.0205 42 84.0205C43.7397 84.0205 45.4421 83.5162 46.9012 82.5688C48.3603 81.6214 49.5136 80.2714 50.2214 78.6823C50.9292 77.0931 51.1613 75.3328 50.8895 73.6144C50.6177 71.8961 49.8537 70.2933 48.69 69.0002H55.38C55.7778 69.0002 56.1594 68.8421 56.4407 68.5608C56.722 68.2795 56.88 67.898 56.88 67.5002C56.88 67.1023 56.722 66.7208 56.4407 66.4395C56.1594 66.1582 55.7778 66.0002 55.38 66.0002H10.5C10.1022 66.0002 9.72064 65.8421 9.43934 65.5608C9.15804 65.2795 9 64.898 9 64.5002V61.5002C9 61.1023 9.15804 60.7208 9.43934 60.4395C9.72064 60.1582 10.1022 60.0002 10.5 60.0002C11.4852 60.0012 12.4609 59.8078 13.3713 59.4313C14.2817 59.0547 15.1089 58.5023 15.8055 57.8057C16.5021 57.109 17.0545 56.2819 17.4311 55.3715C17.8077 54.4611 18.001 53.4854 18 52.5002V30.0002C18.0041 26.6812 18.6948 23.3991 20.0286 20.36C21.3624 17.3208 23.3105 14.5905 25.7505 12.3407C26.0435 12.0713 26.2175 11.6967 26.2342 11.299C26.251 10.9014 26.1091 10.5134 25.8397 10.2204C25.5704 9.92743 25.1957 9.75342 24.7981 9.73668C24.4005 9.71994 24.0125 9.86185 23.7195 10.1312C20.9743 12.6625 18.7825 15.7345 17.2819 19.1538C15.7814 22.5732 15.0044 26.266 15 30.0002V52.5002C15.0012 53.0915 14.8856 53.6772 14.6599 54.2237C14.4341 54.7702 14.1027 55.2667 13.6846 55.6848C13.2665 56.1029 12.77 56.4343 12.2235 56.6601C11.677 56.8858 11.0913 57.0014 10.5 57.0002C9.30653 57.0002 8.16193 57.4743 7.31802 58.3182C6.47411 59.1621 6 60.3067 6 61.5002ZM48 75.0002C48 76.1869 47.6481 77.3469 46.9888 78.3336C46.3295 79.3203 45.3925 80.0893 44.2961 80.5434C43.1997 80.9976 41.9933 81.1164 40.8295 80.8849C39.6656 80.6534 38.5965 80.0819 37.7574 79.2428C36.9182 78.4037 36.3468 77.3346 36.1153 76.1707C35.8838 75.0068 36.0026 73.8004 36.4567 72.7041C36.9108 71.6077 37.6799 70.6706 38.6666 70.0114C39.6533 69.3521 40.8133 69.0002 42 69.0002C43.5913 69.0002 45.1174 69.6323 46.2426 70.7575C47.3679 71.8828 48 73.4089 48 75.0002Z" fill="#E8063C"/>
<path d="M39 3.17527C38.6257 3.24303 38.2911 3.45049 38.064 3.75565C37.8368 4.06081 37.7341 4.44088 37.7766 4.81891C37.8191 5.19694 38.0037 5.5447 38.2929 5.79179C38.5822 6.03888 38.9545 6.16684 39.3345 6.14977C42.6901 5.77477 46.0871 6.11204 49.3035 7.13954C52.5198 8.16704 55.4832 9.86165 57.9999 12.1126C60.5166 14.3636 62.53 17.1203 63.9086 20.2026C65.2871 23.2848 65.9998 26.6233 66 29.9998V52.4998C66.0024 54.4882 66.7933 56.3944 68.1994 57.8004C69.6054 59.2064 71.5116 59.9974 73.5 59.9998C73.7003 59.9994 73.8985 60.04 74.0825 60.1192C74.2664 60.1984 74.4322 60.3145 74.5695 60.4603C74.7074 60.5957 74.8167 60.7576 74.8906 60.9362C74.9646 61.1148 75.0018 61.3065 75 61.4998V64.4998C75 64.8976 74.842 65.2791 74.5607 65.5604C74.2794 65.8417 73.8978 65.9998 73.5 65.9998H70.38C69.9822 65.9998 69.6007 66.1578 69.3194 66.4391C69.0381 66.7204 68.88 67.1019 68.88 67.4998C68.88 67.8976 69.0381 68.2791 69.3194 68.5604C69.6007 68.8417 69.9822 68.9998 70.38 68.9998H73.5C74.6935 68.9998 75.8381 68.5257 76.682 67.6817C77.5259 66.8378 78 65.6932 78 64.4998V61.4998C77.9941 60.3081 77.5181 59.167 76.6755 58.3243C75.8328 57.4817 74.6917 57.0057 73.5 56.9998C72.3065 56.9998 71.162 56.5257 70.318 55.6817C69.4741 54.8378 69 53.6932 69 52.4998V29.9998C69.0095 26.1984 68.2142 22.4381 66.6664 18.9662C65.1185 15.4942 62.8533 12.3892 60.0195 9.85544C57.1858 7.32164 53.8477 5.41641 50.2249 4.26506C46.6021 3.1137 42.7766 2.7423 39 3.17527V3.17527Z" fill="#E8063C"/>
<path d="M31.4505 5.13907C30.709 5.44945 29.9849 5.79997 29.2815 6.18907C28.9322 6.37963 28.6729 6.70114 28.5607 7.08287C28.4484 7.4646 28.4924 7.87528 28.683 8.22457C28.8736 8.57386 29.1951 8.83315 29.5768 8.94539C29.9585 9.05763 30.3692 9.01363 30.7185 8.82307C31.3284 8.48729 31.9558 8.18435 32.598 7.91557C32.7855 7.8442 32.9568 7.73594 33.1018 7.59718C33.2467 7.45843 33.3623 7.29201 33.4418 7.10777C33.5213 6.92354 33.563 6.72523 33.5644 6.52459C33.5659 6.32395 33.5271 6.12505 33.4503 5.93968C33.3735 5.75431 33.2603 5.58622 33.1174 5.44537C32.9745 5.30452 32.8048 5.19378 32.6184 5.11969C32.4319 5.04559 32.2324 5.00967 32.0319 5.01403C31.8313 5.01839 31.6336 5.06295 31.4505 5.14507V5.13907Z" fill="#E8063C"/>
</g>
<defs>
<clipPath id="clip0_16_527">
<rect width="84" height="84" fill="white"/>
</clipPath>
</defs>
</svg>
