<svg width="56" height="49" viewBox="0 0 56 49" fill="none" xmlns="http://www.w3.org/2000/svg">
<path d="M40.9166 48.7188H15.0833C5.65413 48.7188 0.229126 43.2062 0.229126 33.625V15.25C0.229126 5.66875 5.65413 0.15625 15.0833 0.15625H40.9166C50.3458 0.15625 55.7708 5.66875 55.7708 15.25V33.625C55.7708 43.2062 50.3458 48.7188 40.9166 48.7188ZM15.0833 4.09375C7.69496 4.09375 4.10413 7.7425 4.10413 15.25V33.625C4.10413 41.1325 7.69496 44.7812 15.0833 44.7812H40.9166C48.305 44.7812 51.8958 41.1325 51.8958 33.625V15.25C51.8958 7.7425 48.305 4.09375 40.9166 4.09375H15.0833Z" fill="black"/>
<path d="M27.9969 26.721C25.8269 26.721 23.6311 26.0385 21.9519 24.6473L13.8661 18.0847C13.0394 17.4022 12.8844 16.1684 13.5561 15.3284C14.2278 14.4884 15.4419 14.3309 16.2686 15.0134L24.3544 21.576C26.3177 23.1773 29.6502 23.1773 31.6136 21.576L39.6994 15.0134C40.5261 14.3309 41.7661 14.4622 42.4119 15.3284C43.0836 16.1684 42.9544 17.4284 42.1019 18.0847L34.0161 24.6473C32.3627 26.0385 30.1669 26.721 27.9969 26.721Z" fill="black"/>
</svg>
