<svg width="52" height="57" viewBox="0 0 52 57" fill="none" xmlns="http://www.w3.org/2000/svg">
<path d="M10.0153 49.9923L7.27606 54.2072C6.74587 55.029 6.97562 56.1246 7.7974 56.6548C8.09784 56.8491 8.42483 56.9375 8.76054 56.9375C9.34371 56.9375 9.90931 56.6548 10.245 56.1335L12.9224 52.0157C16.7573 54.2954 21.2284 55.6121 26 55.6121C30.7804 55.6121 35.2514 54.2956 39.0776 52.007L41.7461 56.1248C42.0818 56.6461 42.6563 56.9288 43.2306 56.9288C43.5576 56.9288 43.8933 56.8404 44.1937 56.6461C45.0155 56.1159 45.2452 55.0202 44.715 54.1985L41.9847 49.9836C47.8519 45.2916 51.625 38.0724 51.625 29.9873C51.625 15.8582 40.1291 4.3623 26 4.3623C11.8709 4.3623 0.375 15.858 0.375 29.9871C0.375 38.0722 4.14803 45.2914 10.0153 49.9923ZM26 7.89658C38.1851 7.89658 48.0905 17.802 48.0905 29.9871C48.0905 42.1723 38.1851 52.0777 26 52.0777C13.8149 52.0777 3.90942 42.1723 3.90942 29.9871C3.90942 17.802 13.8149 7.89658 26 7.89658Z" fill="black"/>
<path d="M31.9026 37.5067C32.2384 37.7983 32.6537 37.9396 33.069 37.9396C33.5638 37.9396 34.0498 37.7364 34.4032 37.3387C35.0482 36.6054 34.9687 35.492 34.2353 34.847L27.7672 29.183V14.9655C27.7672 13.9935 26.972 13.1982 26 13.1982C25.028 13.1982 24.2328 13.9935 24.2328 14.9655V29.987C24.2328 30.4995 24.4537 30.9856 24.8337 31.3213L31.9026 37.5067Z" fill="black"/>
<path d="M3.9094 10.1322C4.36891 10.1322 4.82842 9.95538 5.17298 9.60197C7.27604 7.45479 9.66183 5.66101 12.2508 4.26493C13.1079 3.80541 13.4349 2.73632 12.9754 1.87028C12.5158 1.01324 11.4467 0.686237 10.5807 1.14575C7.66487 2.70976 4.99635 4.71558 2.63712 7.12793C1.9567 7.82605 1.96556 8.94812 2.66368 9.62853C3.01694 9.96438 3.4676 10.1322 3.9094 10.1322Z" fill="black"/>
<path d="M39.7491 4.26478C42.3469 5.65201 44.7239 7.45464 46.827 9.60182C47.1715 9.95523 47.631 10.132 48.0905 10.132C48.5323 10.132 48.983 9.96409 49.3275 9.62838C50.0257 8.94797 50.0344 7.82576 49.3541 7.12779C47.0037 4.72429 44.3264 2.70962 41.4104 1.14575C40.5445 0.686237 39.4752 1.01324 39.0157 1.87028C38.5651 2.73618 38.8832 3.80527 39.7491 4.26478Z" fill="black"/>
</svg>
