<svg width="78" height="78" viewBox="0 0 78 78" fill="none" xmlns="http://www.w3.org/2000/svg">
<g clip-path="url(#clip0_38_556)">
<path d="M76.9339 26.1602C76.8882 25.8769 76.8425 25.5874 76.7953 25.2873L76.777 25.1761C76.195 21.5564 74.2679 17.9763 71.4587 15.0407C68.6495 12.105 65.0892 9.97523 61.4345 9.21504C60.5493 9.03223 59.5667 8.85094 58.5201 8.68336C58.4795 7.89117 58.4363 7.09848 58.3906 6.30527C58.2718 4.29586 56.6646 2.49668 54.8151 2.34434C52.9657 2.19199 51.5306 3.73828 51.6007 5.78426C51.625 6.45762 51.6489 7.13148 51.6723 7.80586C48.7305 7.51641 45.5785 7.31836 42.4143 7.23609C42.4082 6.63281 42.4027 6.02852 42.3976 5.4232C42.3732 3.35133 40.8513 1.64355 39.0003 1.64355C37.1493 1.64355 35.6274 3.35133 35.603 5.41102C35.603 6.02039 35.5975 6.62469 35.5863 7.22391C32.4145 7.30617 29.2442 7.50574 26.2933 7.79672C26.3157 7.12336 26.3395 6.44898 26.3649 5.77359C26.435 3.72914 24.9938 2.17066 23.1505 2.3352C21.3071 2.49973 19.6938 4.29434 19.575 6.30375C19.5252 7.09797 19.481 7.89117 19.4424 8.68336C18.4065 8.85398 17.4406 9.03223 16.5677 9.21352C12.9114 9.97523 9.35574 12.108 6.54195 15.0391C3.72816 17.9702 1.80406 21.5564 1.2282 25.1761C1.2282 25.2127 1.21602 25.2492 1.21145 25.2858C1.1627 25.5905 1.11699 25.8769 1.07129 26.1602C26.3244 24.2953 51.6808 24.2953 76.9339 26.1602Z" fill="#E8063C"/>
<path d="M77.6453 31.4191C51.9388 30.2796 26.0617 30.2796 0.355221 31.4191C0.140416 33.6677 -0.0271617 36.5104 0.000260142 41.0914C0.131276 50.2732 0.774166 53.2774 1.5237 57.7228C1.5237 57.7593 1.53741 57.7974 1.5435 57.834C2.18639 61.472 4.15925 65.1054 6.97608 68.1126C9.79292 71.1199 13.3227 73.3197 16.9256 74.1378C22.2287 75.3687 30.8864 76.391 39.0064 76.3559C47.1263 76.391 55.7825 75.3687 61.0871 74.1378C64.69 73.3197 68.2137 71.1107 71.0366 68.1126C73.8596 65.1145 75.8278 61.472 76.4692 57.834C76.4692 57.7959 76.4814 57.7593 76.489 57.7213C77.2324 53.2759 77.8753 50.2701 78.0018 41.0914C78.0277 36.5104 77.8601 33.6677 77.6453 31.4191ZM50.3849 49.6638L47.0333 54.0223C46.8096 54.3141 46.6929 54.6739 46.7028 55.0415L46.8551 60.535C46.862 60.7945 46.8056 61.0518 46.6909 61.2847C46.5762 61.5176 46.4067 61.7191 46.1968 61.8719C45.9869 62.0246 45.743 62.1241 45.4861 62.1616C45.2293 62.1992 44.9671 62.1737 44.7223 62.0874L39.5426 60.2486C39.1975 60.1275 38.8213 60.1275 38.4762 60.2486L33.2965 62.0874C33.0517 62.1737 32.7895 62.1992 32.5327 62.1616C32.2758 62.1241 32.0319 62.0246 31.822 61.8719C31.6121 61.7191 31.4426 61.5176 31.3279 61.2847C31.2132 61.0518 31.1568 60.7945 31.1637 60.535L31.316 55.0415C31.3259 54.6739 31.2092 54.3141 30.9855 54.0223L27.6339 49.6638C27.4756 49.4576 27.3699 49.216 27.3259 48.9599C27.2819 48.7037 27.3009 48.4407 27.3813 48.1935C27.4617 47.9464 27.601 47.7225 27.7873 47.5412C27.9736 47.36 28.2012 47.2268 28.4505 47.1532L33.7215 45.5947C34.0741 45.4906 34.3801 45.2684 34.5884 44.9655L37.6977 40.4333C37.845 40.219 38.0422 40.0437 38.2723 39.9227C38.5024 39.8016 38.7585 39.7383 39.0185 39.7383C39.2786 39.7383 39.5347 39.8016 39.7648 39.9227C39.9949 40.0437 40.1921 40.219 40.3394 40.4333L43.4487 44.9655C43.6569 45.2684 43.963 45.4906 44.3155 45.5947L49.5866 47.1532C49.8344 47.2289 50.06 47.3637 50.2442 47.5459C50.4285 47.7281 50.5657 47.9522 50.6442 48.1991C50.7227 48.446 50.7401 48.7083 50.695 48.9634C50.6498 49.2185 50.5434 49.4588 50.3849 49.6638Z" fill="#E8063C"/>
</g>
<defs>
<clipPath id="clip0_38_556">
<rect width="78" height="78" fill="white" transform="translate(0.000244141)"/>
</clipPath>
</defs>
</svg>
