<svg width="70" height="70" viewBox="0 0 70 70" fill="none" xmlns="http://www.w3.org/2000/svg">
<path d="M65.9616 64.6156H42.2632C44.0745 62.9704 45.3066 60.6855 45.5958 58.083C45.5931 58.1073 48.4635 32.2746 48.9752 27.6695C49.6553 21.5503 44.8666 16.1541 38.6685 16.1541H36.6098C37.3751 12.7596 39.0816 9.96516 41.6975 7.83298C43.961 5.98781 46.1033 5.34381 46.1422 5.33223C46.8548 5.12695 47.2674 4.38346 47.0642 3.66973C46.8602 2.95479 46.1159 2.54085 45.4006 2.74412C45.2952 2.77427 42.7858 3.50537 40.0973 5.6646C38.8871 6.63652 37.5225 8.00273 36.3465 9.84643V4.03871C36.3465 3.29523 35.7437 2.69256 35.0003 2.69256C34.2569 2.69256 33.6542 3.29523 33.6542 4.03871V9.84656C32.4781 8.00273 31.1136 6.63666 29.9034 5.66473C27.2149 3.5055 24.7056 2.77427 24.6001 2.74425C23.8846 2.54058 23.1402 2.95479 22.9365 3.66987C22.7328 4.38495 23.1472 5.12964 23.8621 5.33345C23.9421 5.3562 31.4388 7.59229 33.3882 16.1542H31.9102C25.7539 16.1542 20.9189 21.5087 21.6034 27.6696C22.4869 35.6218 24.4022 52.8582 24.9827 58.0832C25.2718 60.6857 26.504 62.9706 28.3153 64.6158H4.03854C3.29506 64.6158 2.69238 65.2186 2.69238 65.9619C2.69238 66.7053 3.29506 67.3081 4.03854 67.3081H65.9616C66.705 67.3081 67.3078 66.7053 67.3078 65.9619C67.3078 65.2186 66.705 64.6156 65.9616 64.6156ZM35.289 64.6156C31.3712 64.6156 28.0907 61.6793 27.658 57.7857L26.4725 47.1156H36.3462C37.0896 47.1156 37.6924 46.5128 37.6924 45.7695C37.6924 45.0261 37.0896 44.4233 36.3462 44.4233H26.1735L24.8273 32.3079H35.0001C35.7434 32.3079 36.3462 31.7053 36.3462 30.9618C36.3462 30.2183 35.7434 29.6156 35.0001 29.6156H24.5281L24.2788 27.3721C23.7753 22.8418 27.3208 18.8464 31.9097 18.8464H38.6682C43.2346 18.8464 46.8049 22.8204 46.2993 27.3721L45.3022 36.3464H35.0001C34.2566 36.3464 33.6539 36.9492 33.6539 37.6926C33.6539 38.4359 34.2566 39.0387 35.0001 39.0387H45.0031L43.5074 52.5003H33.6539C32.9104 52.5003 32.3078 53.1031 32.3078 53.8464C32.3078 54.5898 32.9104 55.1926 33.6539 55.1926H43.2083L42.92 57.7857C42.4874 61.6793 39.2069 64.6156 35.289 64.6156Z" fill="black"/>
<path d="M59.2308 21.5388C61.4577 21.5388 63.2693 19.7272 63.2693 17.5004C63.2693 15.2736 61.4577 13.4619 59.2308 13.4619C57.004 13.4619 55.1924 15.2736 55.1924 17.5004C55.1924 19.7272 57.004 21.5388 59.2308 21.5388ZM59.2308 16.1542C59.9731 16.1542 60.577 16.7581 60.577 17.5004C60.577 18.2426 59.9731 18.8465 59.2308 18.8465C58.4886 18.8465 57.8847 18.2426 57.8847 17.5004C57.8847 16.7581 58.4886 16.1542 59.2308 16.1542Z" fill="black"/>
<path d="M12.1154 52.5003C14.3422 52.5003 16.1538 50.6886 16.1538 48.4618C16.1538 46.235 14.3422 44.4233 12.1154 44.4233C9.88856 44.4233 8.0769 46.235 8.0769 48.4618C8.0769 50.6886 9.88856 52.5003 12.1154 52.5003ZM12.1154 47.1156C12.8576 47.1156 13.4615 47.7195 13.4615 48.4618C13.4615 49.2041 12.8576 49.808 12.1154 49.808C11.3731 49.808 10.7692 49.2041 10.7692 48.4618C10.7692 47.7195 11.3731 47.1156 12.1154 47.1156Z" fill="black"/>
<path d="M12.1155 24.231H14.8078V26.9233H12.1155V24.231Z" fill="black"/>
<path d="M12.1155 18.8464H14.8078V21.5387H12.1155V18.8464Z" fill="black"/>
<path d="M12.1155 13.4619H14.8078V16.1542H12.1155V13.4619Z" fill="black"/>
<path d="M12.1155 8.07715H14.8078V10.7695H12.1155V8.07715Z" fill="black"/>
<path d="M57.8848 52.5002H60.5771V55.1926H57.8848V52.5002Z" fill="black"/>
<path d="M57.8848 47.1157H60.5771V49.808H57.8848V47.1157Z" fill="black"/>
<path d="M57.8848 41.731H60.5771V44.4233H57.8848V41.731Z" fill="black"/>
<path d="M57.8848 36.3464H60.5771V39.0387H57.8848V36.3464Z" fill="black"/>
</svg>
