<svg width="72" height="72" viewBox="0 0 72 72" fill="none" xmlns="http://www.w3.org/2000/svg">
<g clip-path="url(#clip0_26_359)">
<path d="M54.9069 66.9614C49.6382 68.0027 39.5916 69.75 31.5 69.75C19.7324 69.75 5.74496 65.945 4.64682 66.4937C3.65837 66.9876 2.46798 66.5737 2.27687 65.5504C6.42362 58.8341 3.37501 68.0363 3.37501 43.875C3.37501 42.042 3.8416 38.2144 4.72501 32.8063C4.74882 32.6605 4.74367 32.5114 4.70986 32.3676C4.67606 32.2238 4.61425 32.088 4.52798 31.9681C4.44172 31.8481 4.33267 31.7464 4.20707 31.6686C4.08147 31.5908 3.94178 31.5385 3.79597 31.5147C3.65017 31.4909 3.5011 31.496 3.35728 31.5298C3.21346 31.5637 3.07771 31.6255 2.95778 31.7117C2.83784 31.798 2.73608 31.907 2.65829 32.0326C2.5805 32.1582 2.52821 32.2979 2.5044 32.4437C1.58907 38.0486 1.12501 41.8947 1.12501 43.875C1.12501 55.5639 1.84825 60.1965 2.16437 61.6628L0.189012 64.626C-0.284613 65.3368 0.0852305 67.3663 1.72182 68.3776C2.24894 68.6987 2.84344 68.8928 3.45842 68.9448C4.0734 68.9968 4.69205 68.9052 5.26557 68.6772C25.9664 73.1631 37.0004 72.7943 55.3434 69.1694C55.4884 69.1407 55.6263 69.0838 55.7493 69.0019C55.8722 68.92 55.9779 68.8147 56.0601 68.6919C56.1424 68.5692 56.1997 68.4314 56.2287 68.2865C56.2578 68.1416 56.258 67.9925 56.2293 67.8475C56.2007 67.7025 56.1438 67.5646 56.0619 67.4416C55.98 67.3186 55.8746 67.213 55.7519 67.1307C55.6291 67.0485 55.4914 66.9912 55.3465 66.9622C55.2016 66.9331 55.0524 66.9329 54.9075 66.9615L54.9069 66.9614Z" fill="black"/>
<path d="M3.37494 29.25H29.2499C29.5483 29.25 29.8345 29.1315 30.0454 28.9205C30.2564 28.7095 30.3749 28.4234 30.3749 28.125C30.3749 27.8266 30.2564 27.5405 30.0454 27.3295C29.8345 27.1185 29.5483 27 29.2499 27H3.37494C3.07658 27 2.79043 26.8815 2.57945 26.6705C2.36847 26.4595 2.24994 26.1734 2.24994 25.875C2.24994 25.5766 2.36847 25.2905 2.57945 25.0795C2.79043 24.8685 3.07658 24.75 3.37494 24.75H12.3749C12.6733 24.75 12.9595 24.6315 13.1704 24.4205C13.3814 24.2095 13.4999 23.9234 13.4999 23.625C13.4999 23.3266 13.3814 23.0405 13.1704 22.8295C12.9595 22.6185 12.6733 22.5 12.3749 22.5H3.37494C3.07658 22.5 2.79043 22.3815 2.57945 22.1705C2.36847 21.9595 2.24994 21.6734 2.24994 21.375C2.24994 21.0766 2.36847 20.7905 2.57945 20.5795C2.79043 20.3685 3.07658 20.25 3.37494 20.25H51.7499C52.0483 20.25 52.3345 20.1315 52.5454 19.9205C52.7564 19.7095 52.8749 19.4234 52.8749 19.125C52.8749 18.8266 52.7564 18.5405 52.5454 18.3295C52.3345 18.1185 52.0483 18 51.7499 18H3.37494C0.449945 18 -1.06881 21.471 0.861413 23.625C-1.06768 25.7778 0.447976 29.25 3.37494 29.25Z" fill="black"/>
<path d="M12.6181 15.3882C20.4401 6.91594 27.1458 2.25 31.5001 2.25C35.8544 2.25 42.5601 6.91594 50.3821 15.3882C50.5845 15.6074 50.8657 15.7372 51.1639 15.7491C51.462 15.761 51.7527 15.654 51.9719 15.4516C52.1911 15.2492 52.321 14.968 52.3329 14.6698C52.3447 14.3717 52.2377 14.0811 52.0353 13.8618C46.197 7.5375 37.8952 0 31.5001 0C25.1051 0 16.8033 7.5375 10.9649 13.8618C10.8647 13.9704 10.7869 14.0976 10.7358 14.2362C10.6848 14.3749 10.6615 14.5222 10.6674 14.6698C10.6793 14.968 10.8091 15.2492 11.0284 15.4516C11.2476 15.654 11.5382 15.761 11.8364 15.7491C11.984 15.7432 12.129 15.7083 12.2632 15.6464C12.3973 15.5845 12.5179 15.4967 12.6181 15.3882Z" fill="black"/>
<path d="M21.375 22.5C21.0766 22.5 20.7905 22.6185 20.5795 22.8295C20.3685 23.0405 20.25 23.3266 20.25 23.625C20.25 23.9234 20.3685 24.2095 20.5795 24.4205C20.7905 24.6315 21.0766 24.75 21.375 24.75H31.5C31.7984 24.75 32.0845 24.6315 32.2955 24.4205C32.5065 24.2095 32.625 23.9234 32.625 23.625C32.625 23.3266 32.5065 23.0405 32.2955 22.8295C32.0845 22.6185 31.7984 22.5 31.5 22.5H21.375Z" fill="black"/>
<path d="M16.875 24.75C17.4963 24.75 18 24.2463 18 23.625C18 23.0037 17.4963 22.5 16.875 22.5C16.2537 22.5 15.75 23.0037 15.75 23.625C15.75 24.2463 16.2537 24.75 16.875 24.75Z" fill="black"/>
<path d="M25.875 11.25C26.4963 11.25 27 10.7463 27 10.125C27 9.50368 26.4963 9 25.875 9C25.2537 9 24.75 9.50368 24.75 10.125C24.75 10.7463 25.2537 11.25 25.875 11.25Z" fill="black"/>
<path d="M29.25 6.75C29.8713 6.75 30.375 6.24632 30.375 5.625C30.375 5.00368 29.8713 4.5 29.25 4.5C28.6287 4.5 28.125 5.00368 28.125 5.625C28.125 6.24632 28.6287 6.75 29.25 6.75Z" fill="black"/>
<path d="M31.5 10.125C32.1213 10.125 32.625 9.62132 32.625 9C32.625 8.37868 32.1213 7.875 31.5 7.875C30.8787 7.875 30.375 8.37868 30.375 9C30.375 9.62132 30.8787 10.125 31.5 10.125Z" fill="black"/>
<path d="M34.875 7.875C35.4963 7.875 36 7.37132 36 6.75C36 6.12868 35.4963 5.625 34.875 5.625C34.2537 5.625 33.75 6.12868 33.75 6.75C33.75 7.37132 34.2537 7.875 34.875 7.875Z" fill="black"/>
<path d="M37.125 12.375C37.7463 12.375 38.25 11.8713 38.25 11.25C38.25 10.6287 37.7463 10.125 37.125 10.125C36.5037 10.125 36 10.6287 36 11.25C36 11.8713 36.5037 12.375 37.125 12.375Z" fill="black"/>
<path d="M41.625 15.75C42.2463 15.75 42.75 15.2463 42.75 14.625C42.75 14.0037 42.2463 13.5 41.625 13.5C41.0037 13.5 40.5 14.0037 40.5 14.625C40.5 15.2463 41.0037 15.75 41.625 15.75Z" fill="black"/>
<path d="M33.75 15.75C34.3713 15.75 34.875 15.2463 34.875 14.625C34.875 14.0037 34.3713 13.5 33.75 13.5C33.1287 13.5 32.625 14.0037 32.625 14.625C32.625 15.2463 33.1287 15.75 33.75 15.75Z" fill="black"/>
<path d="M28.125 15.75C28.7463 15.75 29.25 15.2463 29.25 14.625C29.25 14.0037 28.7463 13.5 28.125 13.5C27.5037 13.5 27 14.0037 27 14.625C27 15.2463 27.5037 15.75 28.125 15.75Z" fill="black"/>
<path d="M21.375 15.75C21.9963 15.75 22.5 15.2463 22.5 14.625C22.5 14.0037 21.9963 13.5 21.375 13.5C20.7537 13.5 20.25 14.0037 20.25 14.625C20.25 15.2463 20.7537 15.75 21.375 15.75Z" fill="black"/>
<path d="M71.9943 38.249C71.9924 37.9832 71.8965 37.7267 71.7236 37.5248C71.5506 37.323 71.3118 37.1889 71.0494 37.1464C71.6386 35.7095 71.9589 34.1766 71.9943 32.624C71.9926 32.3279 71.8742 32.0445 71.6648 31.8351C71.4554 31.6257 71.172 31.5074 70.8759 31.5056C70.3699 31.5143 69.8651 31.5566 69.3647 31.6322C69.8839 30.1179 69.8973 28.0207 69.7131 27.2815C69.7834 27.0094 69.7361 27.2426 69.7499 21.3753C69.7499 21.0769 69.6314 20.7908 69.4204 20.5798C69.2094 20.3688 68.9233 20.2503 68.6249 20.2503C68.3265 20.2503 68.0404 20.3688 67.8294 20.5798C67.6184 20.7908 67.4999 21.0769 67.4999 21.3753V26.3607C66.7421 26.3571 65.9863 26.4405 65.2475 26.6092C65.2062 23.9728 63.6714 21.7943 62.9999 20.9661V15.75C62.9999 15.4516 62.8814 15.1655 62.6704 14.9545C62.4594 14.7435 62.1733 14.625 61.8749 14.625C61.5765 14.625 61.2904 14.7435 61.0794 14.9545C60.8684 15.1655 60.7499 15.4516 60.7499 15.75V20.9658C60.0781 21.7943 58.5421 23.9742 58.5023 26.6119C57.7635 26.443 57.0078 26.3595 56.2499 26.3631V21.375C56.2499 21.0766 56.1314 20.7905 55.9204 20.5795C55.7094 20.3685 55.4233 20.25 55.1249 20.25C54.8265 20.25 54.5404 20.3685 54.3294 20.5795C54.1184 20.7905 53.9999 21.0766 53.9999 21.375C54.014 27.2227 53.9684 27.0117 54.0356 27.2769C53.8926 27.8339 53.7929 29.9147 54.3799 31.6302C53.3615 31.4827 52.2389 31.2587 51.8406 32.1877C51.3876 32.4311 50.9518 32.7053 50.5363 33.0085C50.2953 31.4297 49.3368 29.5632 48.8303 28.9931C48.7664 28.7194 48.8326 28.9477 46.1272 23.7414C45.989 23.477 45.7514 23.2783 45.4667 23.189C45.182 23.0997 44.8735 23.1272 44.609 23.2654C44.3446 23.4035 44.1459 23.6411 44.0566 23.9258C43.9673 24.2105 43.9948 24.519 44.133 24.7835L46.4423 29.2019C45.7689 29.5497 45.1377 29.9737 44.561 30.4654C43.3034 28.1482 40.9342 26.9283 39.9554 26.5053L37.5395 21.8827C37.4005 21.6196 37.163 21.4222 36.8789 21.3338C36.5948 21.2454 36.2873 21.2731 36.0236 21.411C35.7599 21.5488 35.5615 21.7854 35.4719 22.0692C35.3823 22.3529 35.4087 22.6605 35.5454 22.9248L37.9612 27.5472C37.7503 28.5924 37.3987 31.2352 38.5839 33.5914C37.8509 33.7837 37.1425 34.0599 36.4727 34.4145L34.1627 29.9945C34.0245 29.73 33.7869 29.5313 33.5022 29.442C33.2175 29.3527 32.909 29.3802 32.6445 29.5184C32.3801 29.6566 32.1814 29.8941 32.0921 30.1788C32.0028 30.4635 32.0303 30.7721 32.1684 31.0365C34.9081 36.2482 34.7474 36.0408 34.9336 36.2493C35.0728 36.8453 35.97 38.7288 37.2557 39.9495C36.7768 40.1136 36.3098 40.3106 35.858 40.539C35.5964 40.6776 35.4 40.9139 35.3114 41.1964C35.2228 41.479 35.2492 41.7851 35.3848 42.0483C36.1354 43.4077 37.129 44.6179 38.3163 45.6187C38.1036 45.7781 37.9542 46.0075 37.8946 46.2664C37.8349 46.5253 37.8687 46.797 37.9902 47.0333C38.7419 48.3949 39.7374 49.6068 40.9271 50.6087C40.7137 50.7676 40.5636 50.9972 40.5035 51.2564C40.4434 51.5157 40.4772 51.7878 40.5989 52.0245C41.3483 53.3822 42.3402 54.591 43.5255 55.591C43.3135 55.7505 43.1648 55.9798 43.1055 56.2384C43.0461 56.4969 43.0801 56.7681 43.2013 57.004C43.2857 57.1681 45.3148 61.0359 49.0716 62.2136C51.2559 62.8985 53.7054 62.5613 55.8334 61.7431C61.3119 72.2256 60.9012 71.548 61.1974 71.7712C61.323 71.8665 61.4672 71.9342 61.6207 71.97C61.7742 72.0058 61.9335 72.0088 62.0883 71.979C62.2431 71.9491 62.3898 71.8869 62.5189 71.7965C62.6481 71.7061 62.7567 71.5896 62.8378 71.4544C63.1871 70.8754 62.9022 70.9059 62.9999 59.5495C64.5209 59.3738 67.2519 58.7879 69.2044 56.8354C71.9888 54.051 71.9949 49.6839 71.9939 49.4993C71.992 49.234 71.8965 48.9778 71.724 48.7761C71.5516 48.5744 71.3135 48.4402 71.0517 48.3971C71.6392 46.962 71.9585 45.4312 71.9939 43.8809C71.992 43.6147 71.8958 43.3577 71.7223 43.1557C71.5489 42.9538 71.3094 42.8199 71.0465 42.7778C71.6373 41.3391 71.9586 39.804 71.9943 38.249ZM60.6328 40.3892C59.2901 38.805 57.4007 37.893 55.3828 37.4414C54.5973 36.2402 54.257 34.8439 54.1107 33.8669C57.9841 34.4474 60.0519 36.5109 60.6328 40.3892ZM60.6338 46.0211C59.2944 44.4405 57.4073 43.5258 55.3863 43.0726C54.5988 41.8698 54.2571 40.471 54.1107 39.4919C57.9893 40.0732 60.0552 42.1424 60.6338 46.0211ZM60.6317 51.6371C59.2925 50.057 57.4023 49.1424 55.3782 48.6904C54.5949 47.4896 54.2557 46.095 54.1102 45.1198C58.0534 45.7031 60.0596 47.8357 60.6317 51.6375V51.6371ZM45.3685 32.8628C45.9671 32.0688 46.8849 31.4987 47.5462 31.1626C48.8625 33.641 48.1667 34.6607 48.1897 35.2004C47.3041 36.2525 46.692 37.5071 46.408 38.8527L45.283 36.6993C45.5382 35.4356 45.5671 34.1366 45.3685 32.8628ZM40.0205 29.0589C42.4466 30.4777 43.444 32.3807 43.2233 35.187C40.7971 33.7686 39.8 31.8656 40.0205 29.0589ZM37.4495 36.4424C38.1051 36.0908 39.0993 35.6612 40.0939 35.6247C41.0253 36.5129 42.1065 37.2291 43.2877 37.7402L44.4172 39.9014C43.1487 39.3642 41.7671 39.149 40.3953 39.275C39.9862 38.964 38.7345 38.9434 37.4495 36.4424ZM43.2669 52.0328C44.456 51.6217 46.3922 51.1725 48.192 51.7368C48.3331 51.7816 48.4817 51.7981 48.6292 51.7854C48.7768 51.7726 48.9203 51.7309 49.0517 51.6625C49.183 51.5942 49.2996 51.5006 49.3947 51.3871C49.4898 51.2736 49.5616 51.1424 49.6059 51.0011C49.6502 50.8598 49.6662 50.7112 49.6529 50.5637C49.6396 50.4162 49.5974 50.2728 49.5285 50.1417C49.4597 50.0106 49.3657 49.8943 49.2519 49.7996C49.138 49.7049 49.0066 49.6337 48.8651 49.5899C46.9104 48.9772 44.9264 49.2294 43.4477 49.6243C42.1902 48.9226 41.2386 47.8384 40.6557 47.0382C42.1735 46.5099 43.9933 46.2471 45.5837 46.7464C45.7246 46.7907 45.8729 46.8067 46.0201 46.7936C46.1672 46.7806 46.3104 46.7386 46.4413 46.6702C46.5723 46.6018 46.6885 46.5083 46.7833 46.395C46.8781 46.2817 46.9497 46.1509 46.9939 46.0099C47.0381 45.8689 47.0542 45.7206 47.0411 45.5735C47.028 45.4263 46.9861 45.2832 46.9177 45.1522C46.8493 45.0213 46.7558 44.9051 46.6425 44.8103C46.5292 44.7154 46.3983 44.6439 46.2574 44.5996C44.301 43.9857 42.3141 44.2388 40.8347 44.6344C39.5811 43.9327 38.6321 42.8512 38.0504 42.0529C39.2343 41.6409 41.1651 41.192 42.9787 41.7615C45.8275 42.6537 47.5068 45.8238 47.5233 45.8558C47.5409 45.89 47.5603 45.9232 47.5814 45.9554C48.5638 47.5345 48.6193 48.7398 49.7189 48.7398C49.9121 48.7392 50.102 48.6889 50.2702 48.5937C50.4384 48.4986 50.5794 48.3617 50.6794 48.1964C50.7794 48.031 50.8353 47.8427 50.8415 47.6495C50.8477 47.4563 50.8041 47.2648 50.7149 47.0933C50.3648 46.2125 47.596 42.4387 48.7545 38.7429C49.3506 36.8397 50.9631 35.4593 51.978 34.7469C52.1333 35.5695 52.3733 36.3738 52.6941 37.1471C52.4318 37.1896 52.193 37.3237 52.0202 37.5255C51.8474 37.7273 51.7516 37.9839 51.7499 38.2496C51.7854 39.8045 52.1063 41.3397 52.6966 42.7787C52.4339 42.8208 52.1947 42.9547 52.0214 43.1565C51.8481 43.3583 51.7519 43.615 51.7499 43.881C51.7854 45.4314 52.1048 46.962 52.6921 48.3972C52.4302 48.4403 52.192 48.5747 52.0196 48.7765C51.8471 48.9783 51.7516 49.2346 51.7499 49.5C51.7491 49.6578 51.7554 52.8688 53.4937 55.5369C51.2282 54.0637 48.7251 53.8875 46.0405 54.6064C44.7929 53.9058 43.8475 52.8292 43.2669 52.0328ZM45.8671 57.0094C47.4281 56.466 49.2182 56.2219 50.7949 56.7169C52.597 57.2819 53.9309 58.7589 54.6722 59.775C50.9966 61.0528 48.1901 60.1945 45.8671 57.0094ZM54.1111 50.7428C57.9858 51.3235 60.0511 53.3856 60.6328 57.2643C56.758 56.6831 54.6926 54.621 54.1111 50.7423V50.7428ZM60.7499 66.2933C57.4109 59.9414 57.3159 59.5041 56.2616 58.1414C57.8886 59.0768 59.6421 59.4231 60.7499 59.5505V66.2933ZM60.7499 34.9058C59.8744 33.8419 58.7494 33.011 57.475 32.487C57.2558 32.0206 56.1568 31.4241 56.1762 28.6123C56.9193 28.6054 58 28.6843 58.8989 29.1125C59.313 30.3312 59.9397 31.4669 60.7499 32.4671V34.9058ZM61.8749 30.1739C60.3818 27.7933 60.3798 25.6441 61.8749 23.2595C63.3679 25.6402 63.3702 27.7889 61.8749 30.1736V30.1739ZM62.9999 32.4674C63.8113 31.4659 64.4386 30.3284 64.8526 29.1078C65.7493 28.6829 66.8238 28.6044 67.5667 28.6096C67.5941 31.453 66.512 31.9721 66.2703 32.487C64.9983 33.0087 63.8749 33.8366 62.9999 34.8971V32.4674ZM63.1111 57.264C63.6916 53.3898 65.7539 51.3236 69.6326 50.7426C69.0521 54.6164 66.9899 56.6827 63.1111 57.2638V57.264ZM68.3659 48.689C66.3343 49.1434 64.4475 50.0621 63.1126 51.6369C63.6843 47.8361 65.6842 45.7155 69.6333 45.1239C69.4874 46.0986 69.1479 47.4902 68.3659 48.6887V48.689ZM68.3565 43.0732C66.3554 43.522 64.4574 44.4299 63.1111 46.02C63.6835 42.1836 65.7099 40.0798 69.6339 39.492C69.4868 40.4709 69.1452 41.8702 68.3565 43.0734V43.0732ZM68.3594 37.4428C66.3329 37.8962 64.4485 38.8105 63.1116 40.3882C63.6919 36.5143 65.7553 34.4479 69.6333 33.867C69.4869 34.8445 69.1461 36.2415 68.3594 37.4425V37.4428Z" fill="black"/>
</g>
<defs>
<clipPath id="clip0_26_359">
<rect width="72" height="72" fill="white"/>
</clipPath>
</defs>
</svg>
