<svg width="70" height="70" viewBox="0 0 70 70" fill="none" xmlns="http://www.w3.org/2000/svg">
<g clip-path="url(#clip0_26_333)">
<path d="M70 33.1233C70 24.0737 66.476 15.5658 60.0772 9.16699C59.6772 8.76726 59.029 8.76726 58.6292 9.16699L22.8921 44.9039C20.2347 43.5008 17.8062 43.9077 15.0204 44.3955C13.7561 39.8337 10.586 38.067 10.4189 37.9771C9.92099 37.7088 9.3001 37.8953 9.03197 38.3932C8.76385 38.8911 8.95006 39.512 9.44808 39.7801C9.47771 39.7959 11.6267 40.9956 12.7777 44.1204C9.46774 43.2991 5.94077 44.4342 3.58035 46.8527C0.337878 35.0283 4.23687 17.2884 19.3336 17.3094C26.0495 17.3094 31.9787 21.7292 34.1932 28.0051C34.381 28.5384 34.9661 28.8185 35.4991 28.6304C36.0325 28.4424 36.3123 27.8577 36.1244 27.3245C34.8278 23.6431 32.4637 20.464 29.2148 18.2779C29.5058 16.7588 30.1271 15.3087 31.031 14.0511L32.3809 12.1727C33.6773 10.3685 31.6741 7.86227 29.6113 8.80262L26.3961 10.2702C26.3257 7.52166 27.0243 5.40971 28.6906 3.2228C29.1972 2.51768 29.1673 1.59317 28.6161 0.922452C28.0648 0.25146 27.1635 0.0434047 26.3736 0.403406C23.5104 1.71031 20.7487 2.87058 19.2136 5.85189C17.69 2.89311 14.902 1.70348 12.0536 0.403406C11.2638 0.0427221 10.3624 0.251597 9.81122 0.922316C9.25996 1.59317 9.22993 2.51754 9.73655 3.2228C11.3946 5.41175 12.1079 7.51647 12.0312 10.2702L8.81573 8.80262C6.79483 7.88043 4.72342 10.3315 6.0463 12.1727L7.3962 14.0511C8.31238 15.3259 8.93764 16.7975 9.22351 18.3389C-0.16233 24.7232 -1.17667 38.9323 2.04205 48.851C-0.536938 53.1141 -0.654345 59.564 1.58348 63.9776C1.83932 64.4819 2.45543 64.6835 2.95973 64.4278C3.46403 64.1721 3.66567 63.5559 3.40997 63.0516C0.936378 58.1721 1.67659 49.8933 6.78705 46.9189C9.02392 45.6171 10.9847 45.9154 13.3463 46.3879C13.4358 46.9981 13.4884 47.6548 13.4884 48.3659C13.4884 48.9315 13.9467 49.3898 14.5123 49.3898C15.0779 49.3898 15.5362 48.9315 15.5362 48.3659C15.5362 47.6713 15.494 47.0181 15.4182 46.4034C17.8309 45.9598 19.8626 45.523 22.1662 46.8385C28.6471 50.5393 28.6587 63.1314 22.1426 66.7665C20.3509 67.766 18.0586 68.0356 16.1155 67.3155C15.0091 66.9601 13.8394 66.9601 12.7329 67.3155C10.567 68.0119 8.30323 67.6882 6.35933 66.4045C5.88752 66.0927 5.2523 66.2226 4.94076 66.6945C4.62909 67.1664 4.75892 67.8015 5.23087 68.1132C7.66733 69.7225 10.6302 70.1424 13.3595 69.2651C14.0559 69.0411 14.7923 69.0411 15.4889 69.2651C18.0197 70.122 20.8059 69.8573 23.1403 68.5549C23.94 68.1088 24.6752 67.5519 25.3314 66.9047C27.71 68.7582 30.6345 69.7716 33.6744 69.7716C37.1159 69.7716 40.262 68.4848 42.6586 66.3678C49.272 65.0737 55.2899 61.8671 60.0772 57.0799C66.476 50.6809 70 42.1731 70 33.1233ZM9.05914 12.856L7.70924 10.9776C7.63456 10.7421 7.72002 10.6381 7.96548 10.6657C9.49696 11.3647 11.0862 11.9961 12.5701 12.7935C12.8875 12.9643 13.2712 12.9555 13.5802 12.7706C13.8896 12.5857 14.0788 12.2519 14.0788 11.8916C14.0788 8.37845 13.9833 5.48302 11.7503 2.51618C15.0764 4.03441 18.1896 5.85994 18.1896 10.0672C18.1896 10.6328 18.6478 11.0911 19.2134 11.0911C19.779 11.0911 20.2373 10.6328 20.2373 10.0672C20.2373 5.88179 23.3509 4.03441 26.6764 2.51631C24.4438 5.48315 24.3482 8.37845 24.3482 11.8916C24.3482 12.2521 24.5377 12.5857 24.8469 12.7706C25.1563 12.9553 25.5397 12.964 25.8572 12.7932C27.3408 11.9953 28.9295 11.3647 30.4613 10.6656C30.7067 10.638 30.7922 10.742 30.7177 10.9775L29.368 12.856C28.4322 14.1584 27.7511 15.6342 27.3609 17.1863C24.8842 15.9235 22.1507 15.2616 19.3337 15.2616C16.4709 15.2387 13.6222 15.9226 11.0784 17.2351C10.6903 15.665 10.0052 14.1725 9.05914 12.856ZM26.6445 65.3324C30.0094 60.4581 29.8538 52.1561 26.0628 47.5159C28.1676 45.6604 30.8352 44.646 33.6745 44.646C40.0369 44.646 45.2133 49.8223 45.2133 56.1848C45.2133 62.5471 40.037 67.7235 33.6745 67.7235C31.1164 67.7235 28.6543 66.879 26.6445 65.3324ZM44.9865 63.7015C45.8164 62.4568 46.447 61.0682 46.8312 59.5814C50.3816 58.1471 53.5658 56.0379 56.3007 53.303C60.2999 49.3037 62.9979 44.2705 64.1028 38.7476C64.2138 38.193 63.8542 37.6535 63.2996 37.5427C62.7448 37.4314 62.2057 37.7913 62.0947 38.3458C61.0693 43.4711 58.5651 48.1426 54.8525 51.8551C52.6153 54.0922 50.0547 55.8775 47.2243 57.1812C47.7891 49.426 41.4545 42.5982 33.6745 42.5982C30.3566 42.5982 27.2363 43.7722 24.7668 45.9255L55.5629 15.1292C60.1904 20.1186 62.686 26.5736 62.6099 33.4187C62.6036 33.9841 63.057 34.4476 63.6225 34.4539C64.1871 34.4594 64.6514 34.0068 64.6577 33.4413C64.7396 26.0408 62.0303 19.0646 57.0105 13.6817L59.3419 11.3502C64.9025 17.271 67.9522 24.9625 67.9522 33.1233C67.9522 41.626 64.6412 49.6196 58.6292 55.6315C54.7972 59.4634 50.1266 62.218 44.9865 63.7015Z" fill="black"/>
<path d="M49.0129 44.5674C48.6128 44.1676 47.9647 44.1676 47.5648 44.5674C47.1649 44.9674 47.1649 45.6156 47.5648 46.0154L49.111 47.5616C49.311 47.7615 49.5731 47.8614 49.8351 47.8614C50.0971 47.8614 50.3592 47.7615 50.5592 47.5616C50.9591 47.1616 50.9591 46.5135 50.5592 46.1136L49.0129 44.5674Z" fill="black"/>
<path d="M54.5452 39.5779L52.5522 38.6898C52.0356 38.4594 51.4304 38.692 51.2002 39.2083C50.9701 39.7249 51.2023 40.3302 51.7187 40.5603L53.7118 41.4483C53.8472 41.5087 53.9886 41.5372 54.128 41.5372C54.52 41.5372 54.8939 41.3109 55.0637 40.9298C55.2938 40.4132 55.0617 39.8081 54.5452 39.5779Z" fill="black"/>
<path d="M55.8553 31.9997L53.688 31.891C53.6704 31.8901 53.653 31.8896 53.6358 31.8896C53.0938 31.8896 52.6414 32.3149 52.6141 32.8622C52.5857 33.4271 53.0207 33.9078 53.5853 33.9361L55.7527 34.0447C55.7703 34.0457 55.7876 34.0461 55.8048 34.0461C56.3468 34.0461 56.7992 33.6208 56.8266 33.0735C56.8549 32.5088 56.42 32.0279 55.8553 31.9997Z" fill="black"/>
<path d="M52.5867 27.0986C52.6946 27.0986 52.8045 27.0814 52.9123 27.0452L54.9578 26.3595C55.4941 26.1797 55.7829 25.5994 55.6033 25.0633C55.4236 24.527 54.8427 24.2383 54.307 24.4178L52.2615 25.1035C51.7253 25.2833 51.4364 25.8637 51.6161 26.3998C51.7596 26.828 52.1586 27.0986 52.5867 27.0986Z" fill="black"/>
<path d="M19.2136 29.8172C19.4755 29.8172 19.7377 29.7173 19.9375 29.5174L22.1935 27.2616C22.5935 26.8617 22.5935 26.2134 22.1936 25.8136C21.7938 25.4139 21.1454 25.4136 20.7457 25.8135L19.2136 27.3455L17.6814 25.8135C17.2817 25.4138 16.6333 25.4136 16.2335 25.8136C15.8336 26.2135 15.8336 26.8618 16.2336 27.2616L18.4896 29.5174C18.6895 29.7171 18.9516 29.8172 19.2136 29.8172Z" fill="black"/>
<path d="M28.4482 29.8172C28.7102 29.8172 28.9723 29.7173 29.1721 29.5174L31.4281 27.2616C31.8281 26.8617 31.8281 26.2134 31.4283 25.8136C31.0283 25.4138 30.3799 25.4136 29.9803 25.8135L28.4482 27.3455L26.916 25.8135C26.5163 25.4138 25.868 25.4136 25.4681 25.8136C25.0682 26.2135 25.0682 26.8618 25.4682 27.2616L27.7242 29.5174C27.9241 29.7171 28.1862 29.8172 28.4482 29.8172Z" fill="black"/>
<path d="M16.0836 32.2793L14.5516 33.8115L13.0197 32.2795C12.6197 31.8796 11.9713 31.8795 11.5717 32.2793C11.1717 32.6792 11.1717 33.3275 11.5716 33.7272L13.8275 35.9832C14.0195 36.1753 14.2799 36.2832 14.5516 36.2832C14.8232 36.2832 15.0834 36.1753 15.2757 35.9834L17.5316 33.7274C17.9315 33.3274 17.9315 32.6792 17.5316 32.2793C17.1318 31.8796 16.4836 31.8796 16.0836 32.2793Z" fill="black"/>
<path d="M23.0621 35.9835C23.2542 36.1756 23.5145 36.2834 23.7862 36.2834C24.0578 36.2834 24.3181 36.1756 24.5103 35.9836L26.7663 33.7276C27.1661 33.3276 27.1661 32.6794 26.7663 32.2796C26.3663 31.8798 25.7181 31.8798 25.3182 32.2796L23.7862 33.8117L22.2543 32.2797C21.8544 31.8798 21.2061 31.8797 20.8064 32.2796C20.4064 32.6794 20.4064 33.3278 20.8062 33.7275L23.0621 35.9835Z" fill="black"/>
<path d="M35.9655 50.0058C36.531 50.0058 36.9894 49.5474 36.9894 48.9819C36.9894 48.4164 36.531 47.958 35.9655 47.958C35.4001 47.958 34.9417 48.4164 34.9417 48.9819C34.9417 49.5474 35.4001 50.0058 35.9655 50.0058Z" fill="black"/>
</g>
<defs>
<clipPath id="clip0_26_333">
<rect width="70" height="70" fill="white"/>
</clipPath>
</defs>
</svg>
