<svg width="38" height="40" viewBox="0 0 38 40" fill="none" xmlns="http://www.w3.org/2000/svg">
<g clip-path="url(#clip0_19_2086)">
<path d="M27.7086 0.605469H2.3753C1.4253 0.605469 0.791992 1.24907 0.791992 2.21451V37.614C0.791992 38.5795 1.4253 39.2231 2.3753 39.2231H18.2086V36.0049H3.95861V3.82363H26.1253V18.3052H29.292V2.21451C29.292 1.24907 28.6586 0.605469 27.7086 0.605469Z" fill="#FFD600"/>
<path d="M8.70831 10.2601C9.58275 10.2601 10.2916 9.53969 10.2916 8.65104C10.2916 7.76239 9.58275 7.04199 8.70831 7.04199C7.83387 7.04199 7.125 7.76239 7.125 8.65104C7.125 9.53969 7.83387 10.2601 8.70831 10.2601Z" fill="#FFD600"/>
<path d="M8.70831 18.305C9.58275 18.305 10.2916 17.5846 10.2916 16.696C10.2916 15.8073 9.58275 15.0869 8.70831 15.0869C7.83387 15.0869 7.125 15.8073 7.125 16.696C7.125 17.5846 7.83387 18.305 8.70831 18.305Z" fill="#FFD600"/>
<path d="M8.70831 26.3504C9.58275 26.3504 10.2916 25.63 10.2916 24.7414C10.2916 23.8527 9.58275 23.1323 8.70831 23.1323C7.83387 23.1323 7.125 23.8527 7.125 24.7414C7.125 25.63 7.83387 26.3504 8.70831 26.3504Z" fill="#FFD600"/>
<path d="M22.9583 7.0415H11.875V10.2597H22.9583V7.0415Z" fill="#FFD600"/>
<path d="M19.7917 15.0869H11.875V18.3051H19.7917V15.0869Z" fill="#FFD600"/>
<path d="M16.625 23.1323H11.875V26.3505H16.625V23.1323Z" fill="#FFD600"/>
<path d="M34.0417 29.5689C34.0417 33.1089 31.1917 36.0052 27.7084 36.0052C24.2251 36.0052 21.375 33.1089 21.375 29.5689C21.375 26.029 24.225 23.1327 27.7083 23.1327C28.5 23.1327 29.45 23.2936 30.2417 23.6154L31.5083 20.7191C26.7583 18.6273 21.0583 20.88 19 25.7072C16.9417 30.5344 19.1583 36.327 23.9083 38.4188C28.6583 40.5106 34.3583 38.2579 36.4166 33.4307C36.8916 32.1434 37.2083 30.8562 37.2083 29.5689H34.0417Z" fill="#FFD600"/>
<path d="M32.9336 23.6152L27.7086 28.9252L25.6503 26.8333L23.4336 29.086L26.6003 32.3042C27.2336 32.9478 28.1836 32.9478 28.817 32.3042L35.1503 25.868L32.9336 23.6152Z" fill="#FFD600"/>
</g>
<defs>
<clipPath id="clip0_19_2086">
<rect width="38" height="38.6176" fill="white" transform="translate(0 0.605469)"/>
</clipPath>
</defs>
</svg>
