<svg width="48" height="44" viewBox="0 0 48 44" fill="none" xmlns="http://www.w3.org/2000/svg">
<path d="M8.93178 28.5794C7.67214 28.5794 6.4408 28.2058 5.39348 27.506C4.34617 26.8061 3.52993 25.8113 3.048 24.6475C2.56607 23.4837 2.4401 22.2032 2.68603 20.9678C2.93195 19.7324 3.53872 18.5977 4.42959 17.7071C5.32046 16.8166 6.45542 16.2103 7.69091 15.9648C8.9264 15.7194 10.2069 15.8459 11.3705 16.3282C12.5342 16.8106 13.5286 17.6273 14.228 18.6748C14.9275 19.7224 15.3006 20.9539 15.3001 22.2136C15.2981 23.9017 14.6265 25.5201 13.4325 26.7136C12.2386 27.907 10.6199 28.5781 8.93178 28.5794ZM8.93178 18.33C8.16368 18.33 7.41282 18.5577 6.77417 18.9845C6.13552 19.4112 5.63775 20.0177 5.34381 20.7274C5.04987 21.437 4.97296 22.2179 5.12281 22.9712C5.27266 23.7246 5.64253 24.4165 6.18566 24.9597C6.72879 25.5028 7.42078 25.8727 8.17413 26.0225C8.92747 26.1724 9.70833 26.0955 10.418 25.8015C11.1276 25.5076 11.7341 25.0098 12.1609 24.3712C12.5876 23.7325 12.8154 22.9817 12.8154 22.2136C12.8147 21.1838 12.4053 20.1963 11.6772 19.4682C10.949 18.74 9.96157 18.3306 8.93178 18.33Z" fill="#E8063C"/>
<path d="M16.3859 43.1774C16.0564 43.1774 15.7405 43.0465 15.5075 42.8136C15.2745 42.5806 15.1436 42.2646 15.1436 41.9351V39.4504C15.1436 37.8029 14.4891 36.2229 13.3242 35.058C12.1593 33.8931 10.5793 33.2386 8.93182 33.2386C7.28436 33.2386 5.70437 33.8931 4.53944 35.058C3.37451 36.2229 2.72006 37.8029 2.72006 39.4504V41.9351C2.72006 42.2646 2.58917 42.5806 2.35618 42.8136C2.12319 43.0465 1.8072 43.1774 1.4777 43.1774C1.14821 43.1774 0.832215 43.0465 0.599229 42.8136C0.366242 42.5806 0.235352 42.2646 0.235352 41.9351V39.4504C0.235352 37.1439 1.15158 34.9319 2.78249 33.301C4.41339 31.6701 6.62538 30.7539 8.93182 30.7539C11.2383 30.7539 13.4503 31.6701 15.0812 33.301C16.7121 34.9319 17.6283 37.1439 17.6283 39.4504V41.9351C17.6283 42.2646 17.4974 42.5806 17.2644 42.8136C17.0314 43.0465 16.7154 43.1774 16.3859 43.1774Z" fill="#E8063C"/>
<path d="M16.386 41.5869C16.1497 41.5867 15.9183 41.5192 15.7191 41.3921C15.5198 41.2651 15.3609 41.0839 15.261 40.8698C15.1611 40.6556 15.1244 40.4174 15.1551 40.1831C15.1858 39.9488 15.2827 39.7281 15.4344 39.5469L32.8273 18.7748C33.0424 18.5346 33.3425 18.3875 33.6641 18.3645C33.9857 18.3415 34.3036 18.4444 34.5507 18.6515C34.7979 18.8586 34.9548 19.1537 34.9883 19.4744C35.0219 19.795 34.9295 20.1162 34.7306 20.37L17.3377 41.1421C17.2211 41.2813 17.0756 41.3932 16.9112 41.47C16.7467 41.5469 16.5675 41.5868 16.386 41.5869Z" fill="#E8063C"/>
<path d="M6.44743 13.361C6.11794 13.361 5.80194 13.2301 5.56896 12.9972C5.33597 12.7642 5.20508 12.4482 5.20508 12.1187V2.17985C5.20508 1.85036 5.33597 1.53436 5.56896 1.30138C5.80194 1.06839 6.11794 0.9375 6.44743 0.9375C6.77692 0.9375 7.09292 1.06839 7.32591 1.30138C7.55889 1.53436 7.68978 1.85036 7.68978 2.17985V12.1187C7.68978 12.4482 7.55889 12.7642 7.32591 12.9972C7.09292 13.2301 6.77692 13.361 6.44743 13.361Z" fill="#E8063C"/>
<path d="M46.2021 3.42221H3.96208C3.63259 3.42221 3.31659 3.29132 3.0836 3.05833C2.85062 2.82534 2.71973 2.50935 2.71973 2.17985C2.71973 1.85036 2.85062 1.53436 3.0836 1.30138C3.31659 1.06839 3.63259 0.9375 3.96208 0.9375H46.2021C46.5316 0.9375 46.8476 1.06839 47.0806 1.30138C47.3135 1.53436 47.4444 1.85036 47.4444 2.17985C47.4444 2.50935 47.3135 2.82534 47.0806 3.05833C46.8476 3.29132 46.5316 3.42221 46.2021 3.42221Z" fill="#E8063C"/>
<path d="M43.7179 30.754C43.3884 30.754 43.0724 30.6231 42.8395 30.3901C42.6065 30.1571 42.4756 29.8411 42.4756 29.5116V2.17985C42.4756 1.85036 42.6065 1.53436 42.8395 1.30138C43.0724 1.06839 43.3884 0.9375 43.7179 0.9375C44.0474 0.9375 44.3634 1.06839 44.5964 1.30138C44.8294 1.53436 44.9603 1.85036 44.9603 2.17985V29.5116C44.9603 29.8411 44.8294 30.1571 44.5964 30.3901C44.3634 30.6231 44.0474 30.754 43.7179 30.754Z" fill="#E8063C"/>
<path d="M46.2023 30.7542H31.2941C30.9646 30.7542 30.6486 30.6233 30.4156 30.3904C30.1826 30.1574 30.0518 29.8414 30.0518 29.5119C30.0518 29.1824 30.1826 28.8664 30.4156 28.6334C30.6486 28.4004 30.9646 28.2695 31.2941 28.2695H46.2023C46.5318 28.2695 46.8478 28.4004 47.0808 28.6334C47.3138 28.8664 47.4447 29.1824 47.4447 29.5119C47.4447 29.8414 47.3138 30.1574 47.0808 30.3904C46.8478 30.6233 46.5318 30.7542 46.2023 30.7542Z" fill="#E8063C"/>
<path d="M36.2629 10.8763H21.3547C21.0252 10.8763 20.7092 10.7454 20.4762 10.5124C20.2432 10.2794 20.1123 9.96345 20.1123 9.63395C20.1123 9.30446 20.2432 8.98846 20.4762 8.75548C20.7092 8.52249 21.0252 8.3916 21.3547 8.3916H36.2629C36.5924 8.3916 36.9084 8.52249 37.1414 8.75548C37.3744 8.98846 37.5052 9.30446 37.5052 9.63395C37.5052 9.96345 37.3744 10.2794 37.1414 10.5124C36.9084 10.7454 36.5924 10.8763 36.2629 10.8763Z" fill="#E8063C"/>
<path d="M36.2636 15.846H16.3859C16.0564 15.846 15.7404 15.7151 15.5074 15.4822C15.2744 15.2492 15.1436 14.9332 15.1436 14.6037C15.1436 14.2742 15.2744 13.9582 15.5074 13.7252C15.7404 13.4922 16.0564 13.3613 16.3859 13.3613H36.2636C36.593 13.3613 36.909 13.4922 37.142 13.7252C37.375 13.9582 37.5059 14.2742 37.5059 14.6037C37.5059 14.9332 37.375 15.2492 37.142 15.4822C36.909 15.7151 36.593 15.846 36.2636 15.846Z" fill="#E8063C"/>
</svg>
