<svg width="48" height="48" viewBox="0 0 48 48" fill="none" xmlns="http://www.w3.org/2000/svg">
<path d="M45 7.5H40.5V3C40.5 2.60218 40.342 2.22064 40.0607 1.93934C39.7794 1.65804 39.3978 1.5 39 1.5H3C2.60218 1.5 2.22064 1.65804 1.93934 1.93934C1.65804 2.22064 1.5 2.60218 1.5 3V39C1.5 39.3978 1.65804 39.7794 1.93934 40.0607C2.22064 40.342 2.60218 40.5 3 40.5H7.5V45C7.5 45.3978 7.65804 45.7794 7.93934 46.0607C8.22064 46.342 8.60218 46.5 9 46.5H45C45.3978 46.5 45.7794 46.342 46.0607 46.0607C46.342 45.7794 46.5 45.3978 46.5 45V9C46.5 8.60218 46.342 8.22064 46.0607 7.93934C45.7794 7.65804 45.3978 7.5 45 7.5ZM37.5 4.5V10.5H4.5V4.5H37.5ZM15 16.5V13.5H27V16.5H15ZM4.5 13.5H12V18C12 18.3978 12.158 18.7794 12.4393 19.0607C12.7206 19.342 13.1022 19.5 13.5 19.5H19.5V25.5H22.5V19.5H28.5C28.8978 19.5 29.2794 19.342 29.5607 19.0607C29.842 18.7794 30 18.3978 30 18V13.5H37.5V37.5H36V36.75C36 35.624 35.717 34.5161 35.1771 33.528C34.6371 32.5398 33.8576 31.7032 32.91 31.095C33.4517 30.3377 33.7452 29.4311 33.75 28.5C33.75 27.3065 33.2759 26.1619 32.432 25.318C31.5881 24.4741 30.4435 24 29.25 24C28.0565 24 26.9119 24.4741 26.068 25.318C25.2241 26.1619 24.75 27.3065 24.75 28.5C24.7548 29.4311 25.0483 30.3377 25.59 31.095C24.6424 31.7032 23.8629 32.5398 23.3229 33.528C22.783 34.5161 22.5 35.624 22.5 36.75V37.5H19.5V36.75C19.5 35.624 19.217 34.5161 18.6771 33.528C18.1371 32.5398 17.3576 31.7032 16.41 31.095C16.9517 30.3377 17.2452 29.4311 17.25 28.5C17.25 27.3065 16.7759 26.1619 15.932 25.318C15.0881 24.4741 13.9435 24 12.75 24C11.5565 24 10.4119 24.4741 9.56802 25.318C8.72411 26.1619 8.25 27.3065 8.25 28.5C8.2548 29.4311 8.54828 30.3377 9.09 31.095C8.14241 31.7032 7.36286 32.5398 6.82293 33.528C6.28301 34.5161 6.00004 35.624 6 36.75V37.5H4.5V13.5ZM27.75 28.5C27.75 28.2033 27.838 27.9133 28.0028 27.6666C28.1676 27.42 28.4019 27.2277 28.676 27.1142C28.9501 27.0006 29.2517 26.9709 29.5426 27.0288C29.8336 27.0867 30.1009 27.2296 30.3107 27.4393C30.5204 27.6491 30.6633 27.9164 30.7212 28.2074C30.7791 28.4983 30.7494 28.7999 30.6358 29.074C30.5223 29.3481 30.33 29.5824 30.0834 29.7472C29.8367 29.912 29.5467 30 29.25 30C28.8522 30 28.4706 29.842 28.1893 29.5607C27.908 29.2794 27.75 28.8978 27.75 28.5ZM29.25 33C30.2446 33 31.1984 33.3951 31.9016 34.0984C32.6049 34.8016 33 35.7554 33 36.75V37.5H25.5V36.75C25.5 35.7554 25.8951 34.8016 26.5984 34.0984C27.3016 33.3951 28.2554 33 29.25 33ZM9 37.5V36.75C9 35.7554 9.39509 34.8016 10.0983 34.0984C10.8016 33.3951 11.7554 33 12.75 33C13.7446 33 14.6984 33.3951 15.4017 34.0984C16.1049 34.8016 16.5 35.7554 16.5 36.75V37.5H9ZM11.25 28.5C11.25 28.2033 11.338 27.9133 11.5028 27.6666C11.6676 27.42 11.9019 27.2277 12.176 27.1142C12.4501 27.0006 12.7517 26.9709 13.0426 27.0288C13.3336 27.0867 13.6009 27.2296 13.8107 27.4393C14.0204 27.6491 14.1633 27.9164 14.2212 28.2074C14.2791 28.4983 14.2494 28.7999 14.1358 29.074C14.0223 29.3481 13.83 29.5824 13.5834 29.7472C13.3367 29.912 13.0467 30 12.75 30C12.3522 30 11.9706 29.842 11.6893 29.5607C11.408 29.2794 11.25 28.8978 11.25 28.5ZM43.5 43.5H10.5V40.5H39C39.3978 40.5 39.7794 40.342 40.0607 40.0607C40.342 39.7794 40.5 39.3978 40.5 39V10.5H43.5V43.5Z" fill="black"/>
<path d="M32.25 6H36V9H32.25V6Z" fill="black"/>
<path d="M26.25 6H30V9H26.25V6Z" fill="black"/>
</svg>
