<svg width="48" height="48" viewBox="0 0 48 48" fill="none" xmlns="http://www.w3.org/2000/svg">
<g clip-path="url(#clip0_27_3845)">
<path d="M48 29.0915V0H22.6951V14.7394H13.2014C15.9958 14.2552 18.1283 11.8147 18.1283 8.88412C18.1283 5.60653 15.4617 2.94 12.1841 2.94C8.90653 2.94 6.23991 5.60653 6.23991 8.88412C6.23991 11.8147 8.37234 14.2552 11.1667 14.7394H7.07719C3.16191 14.7394 0 17.9247 0 21.8399V34.9902H5.60166V48H19.8027V23.3155H22.6952V29.0915H33.953V45.1856H28.3628V48H41.8628V45.1856H36.7655V29.0915H48ZM9.05241 8.88412C9.05241 7.15734 10.4572 5.7525 12.184 5.7525C13.9108 5.7525 15.3157 7.15734 15.3157 8.88412C15.3157 10.6109 13.9108 12.0157 12.184 12.0157C10.4572 12.0157 9.05241 10.6109 9.05241 8.88412ZM8.48362 45.09V23.4852H5.67112V32.0391H2.92763V21.8399C2.92763 19.5519 4.78903 17.6904 7.07709 17.6904H29.115V20.3643H16.8516V45.0899H14.1089V34.6874H11.2964V45.09H8.48362ZM25.4812 23.3155H32.0662V16.5987L41.4655 7.74534L39.5371 5.69803L29.9381 14.7394H25.4812V2.745H45.2372V26.3053H25.4812V23.3155Z" fill="black"/>
</g>
<defs>
<clipPath id="clip0_27_3845">
<rect width="48" height="48" fill="white"/>
</clipPath>
</defs>
</svg>
