<svg width="56" height="56" viewBox="0 0 56 56" fill="none" xmlns="http://www.w3.org/2000/svg">
<path d="M39.7039 33.8693C39.3977 33.5642 38.9755 33.3892 38.5435 33.3892C38.1115 33.3892 37.6892 33.5642 37.3831 33.8693C37.0779 34.1745 36.9028 34.5978 36.9028 35.0298C36.9028 35.4618 37.0779 35.884 37.3831 36.1892C37.6894 36.4954 38.1115 36.6704 38.5435 36.6704C38.9755 36.6704 39.3978 36.4954 39.7039 36.1892C40.0091 35.884 40.1841 35.4607 40.1841 35.0298C40.1841 34.5978 40.0091 34.1745 39.7039 33.8693Z" fill="black"/>
<path d="M29.1604 33.8693C28.8541 33.5642 28.432 33.3892 28 33.3892C27.568 33.3892 27.1447 33.5642 26.8395 33.8693C26.5344 34.1745 26.3594 34.5978 26.3594 35.0298C26.3594 35.4607 26.5344 35.884 26.8395 36.1892C27.1447 36.4954 27.568 36.6704 28 36.6704C28.432 36.6704 28.8542 36.4954 29.1604 36.1892C29.4655 35.884 29.6406 35.4607 29.6406 35.0298C29.6406 34.5978 29.4655 34.1745 29.1604 33.8693Z" fill="black"/>
<path d="M54.3594 52.7187H50.7281V27.8835H54.3594C55.0359 27.8835 55.6431 27.4682 55.8883 26.8376C56.1336 26.2071 55.9666 25.4906 55.4679 25.0335L50.7281 20.6886V10.8666C50.7281 9.96052 49.9936 9.22596 49.0875 9.22596C48.1814 9.22596 47.4469 9.96052 47.4469 10.8666V17.6809L34.3804 5.70321C33.7532 5.12823 32.7904 5.12823 32.1631 5.70321L11.0756 25.0334C10.5769 25.4906 10.4099 26.207 10.6552 26.8375C10.9004 27.4681 11.5077 27.8834 12.1842 27.8834H15.8154V52.7187H1.64063C0.734563 52.7187 0 53.4533 0 54.3593C0 55.2654 0.734563 56 1.64063 56H28H38.5436H54.3594C55.2654 56 56 55.2654 56 54.3593C56 53.4533 55.2654 52.7187 54.3594 52.7187ZM36.903 52.7185H29.6406V45.4562H36.903V52.7185ZM47.4469 52.7185H40.1844V43.8156C40.1844 42.9095 39.4498 42.175 38.5438 42.175H28C27.0939 42.175 26.3594 42.9095 26.3594 43.8156V52.7185H19.0969V27.8835H47.4469V52.7185ZM49.0875 24.6022H17.4563H16.4021L33.2718 9.13824L50.1416 24.6022H49.0875Z" fill="black"/>
<path d="M15.6989 7.02942H15.383C15.2187 6.35141 14.9492 5.69428 14.5776 5.08222L14.8003 4.85953C15.441 4.21892 15.4411 3.18008 14.8004 2.53936C14.1597 1.89853 13.121 1.89853 12.4802 2.53925L12.2593 2.76019C11.6547 2.39148 10.9988 2.1198 10.3105 1.953V1.64063C10.3105 0.734563 9.57589 0 8.66983 0C7.76377 0 7.0292 0.734563 7.0292 1.64063V1.953C6.34113 2.1198 5.6852 2.39148 5.08069 2.76019L4.85964 2.53914C4.21903 1.89842 3.18019 1.89842 2.53947 2.53925C1.89875 3.17997 1.89886 4.2187 2.53958 4.85942L2.76238 5.08222C2.39083 5.69428 2.12144 6.35141 1.95694 7.02931H1.64063C0.734563 7.02931 0 7.76388 0 8.66994C0 9.576 0.734563 10.3105 1.64063 10.3105H1.95694C2.12144 10.9883 2.39072 11.6452 2.76227 12.2571L2.53947 12.4799C1.89875 13.1205 1.89864 14.1594 2.53936 14.8001C2.85972 15.1206 3.27961 15.2807 3.6995 15.2807C4.11928 15.2807 4.53917 15.1205 4.85953 14.8002L5.08058 14.5793C5.68509 14.948 6.34102 15.2196 7.0292 15.3864V15.6991C7.0292 16.6052 7.76377 17.3398 8.66983 17.3398C9.57589 17.3398 10.3105 16.6052 10.3105 15.6991V15.3865C10.9988 15.2198 11.6548 14.9481 12.2593 14.5794L12.4801 14.8003C12.8005 15.1207 13.2204 15.2808 13.6402 15.2808C14.06 15.2808 14.4799 15.1207 14.8003 14.8003C15.441 14.1596 15.441 13.1208 14.8003 12.4801L14.5775 12.2573C14.949 11.6454 15.2184 10.9885 15.3829 10.3107H15.6989C16.605 10.3107 17.3396 9.57611 17.3396 8.67005C17.3396 7.76399 16.605 7.02942 15.6989 7.02942ZM11.2387 11.2363C11.2384 11.2366 11.238 11.237 11.2376 11.2373C11.2372 11.2376 11.237 11.2381 11.2365 11.2385C10.5509 11.9236 9.63955 12.301 8.67005 12.301C7.7 12.301 6.78814 11.9233 6.10236 11.2373C4.68661 9.82166 4.68672 7.51789 6.10236 6.10203C6.78759 5.41658 7.69858 5.03902 8.66775 5.03847C8.66841 5.03847 8.66917 5.03858 8.66983 5.03858C8.6706 5.03858 8.67125 5.03847 8.67202 5.03847C9.64053 5.03902 10.5511 5.41603 11.2362 6.10039C11.2366 6.10083 11.2371 6.10138 11.2375 6.10181C11.238 6.10225 11.2385 6.10269 11.239 6.10324C12.653 7.51888 12.6529 9.82078 11.2387 11.2363Z" fill="black"/>
</svg>
