<svg width="52" height="48" viewBox="0 0 52 48" fill="none" xmlns="http://www.w3.org/2000/svg">
<path d="M9.68035 31.14C8.30143 31.14 6.95348 30.7311 5.80698 29.9649C4.66049 29.1988 3.76696 28.1098 3.23939 26.8358C2.71182 25.5618 2.57393 24.16 2.84314 22.8076C3.11235 21.4552 3.77658 20.213 4.75181 19.2382C5.72705 18.2633 6.96948 17.5996 8.32197 17.3309C9.67446 17.0622 11.0763 17.2006 12.3501 17.7287C13.6239 18.2568 14.7124 19.1507 15.4781 20.2975C16.2438 21.4443 16.6522 22.7924 16.6517 24.1713C16.6495 26.0194 15.9143 27.791 14.6073 29.0975C13.3003 30.404 11.5284 31.1385 9.68035 31.14ZM9.68035 19.92C8.83951 19.92 8.01755 20.1693 7.31842 20.6365C6.61929 21.1036 6.07438 21.7676 5.7526 22.5444C5.43083 23.3213 5.34664 24.1761 5.51068 25.0007C5.67472 25.8254 6.07962 26.583 6.67418 27.1775C7.26874 27.7721 8.02626 28.177 8.85095 28.341C9.67563 28.5051 10.5304 28.4209 11.3073 28.0991C12.0841 27.7773 12.7481 27.2324 13.2152 26.5333C13.6824 25.8341 13.9317 25.0122 13.9317 24.1713C13.931 23.044 13.4828 21.9631 12.6857 21.166C11.8886 20.3689 10.8077 19.9207 9.68035 19.92Z" fill="black"/>
<path d="M17.8402 47.12C17.4795 47.12 17.1335 46.9767 16.8785 46.7217C16.6234 46.4666 16.4802 46.1207 16.4802 45.76V43.04C16.4802 41.2365 15.7637 39.5069 14.4885 38.2317C13.2132 36.9564 11.4836 36.24 9.68016 36.24C7.87668 36.24 6.14708 36.9564 4.87183 38.2317C3.59658 39.5069 2.88016 41.2365 2.88016 43.04V45.76C2.88016 46.1207 2.73687 46.4666 2.48182 46.7217C2.22677 46.9767 1.88085 47.12 1.52016 47.12C1.15946 47.12 0.813541 46.9767 0.558491 46.7217C0.303442 46.4666 0.160156 46.1207 0.160156 45.76V43.04C0.160156 40.5152 1.16315 38.0937 2.9485 36.3084C4.73385 34.523 7.1553 33.52 9.68016 33.52C12.205 33.52 14.6265 34.523 16.4118 36.3084C18.1972 38.0937 19.2002 40.5152 19.2002 43.04V45.76C19.2002 46.1207 19.0569 46.4666 18.8018 46.7217C18.5468 46.9767 18.2009 47.12 17.8402 47.12Z" fill="black"/>
<path d="M17.8405 45.379C17.5818 45.3789 17.3285 45.3049 17.1104 45.1659C16.8923 45.0268 16.7183 44.8284 16.609 44.594C16.4996 44.3596 16.4594 44.0988 16.493 43.8423C16.5266 43.5858 16.6327 43.3443 16.7987 43.1459L35.8387 20.4067C36.0742 20.1438 36.4027 19.9828 36.7547 19.9576C37.1068 19.9324 37.4549 20.0451 37.7254 20.2718C37.9959 20.4985 38.1677 20.8215 38.2044 21.1725C38.2411 21.5236 38.14 21.8752 37.9222 22.153L18.8822 44.8922C18.7547 45.0445 18.5953 45.167 18.4154 45.2511C18.2354 45.3352 18.0392 45.3789 17.8405 45.379Z" fill="black"/>
<path d="M6.96059 14.4799C6.59989 14.4799 6.25397 14.3366 5.99892 14.0815C5.74387 13.8265 5.60059 13.4806 5.60059 13.1199V2.23988C5.60059 1.87919 5.74387 1.53327 5.99892 1.27822C6.25397 1.02317 6.59989 0.879883 6.96059 0.879883C7.32128 0.879883 7.6672 1.02317 7.92225 1.27822C8.1773 1.53327 8.32059 1.87919 8.32059 2.23988V13.1199C8.32059 13.4806 8.1773 13.8265 7.92225 14.0815C7.6672 14.3366 7.32128 14.4799 6.96059 14.4799Z" fill="black"/>
<path d="M50.4799 3.59988H4.23988C3.87919 3.59988 3.53327 3.4566 3.27822 3.20155C3.02317 2.9465 2.87988 2.60058 2.87988 2.23988C2.87988 1.87919 3.02317 1.53327 3.27822 1.27822C3.53327 1.02317 3.87919 0.879883 4.23988 0.879883H50.4799C50.8406 0.879883 51.1865 1.02317 51.4416 1.27822C51.6966 1.53327 51.8399 1.87919 51.8399 2.23988C51.8399 2.60058 51.6966 2.9465 51.4416 3.20155C51.1865 3.4566 50.8406 3.59988 50.4799 3.59988Z" fill="black"/>
<path d="M47.7604 33.5199C47.3997 33.5199 47.0538 33.3766 46.7987 33.1215C46.5437 32.8665 46.4004 32.5206 46.4004 32.1599V2.23988C46.4004 1.87919 46.5437 1.53327 46.7987 1.27822C47.0538 1.02317 47.3997 0.879883 47.7604 0.879883C48.1211 0.879883 48.467 1.02317 48.7221 1.27822C48.9771 1.53327 49.1204 1.87919 49.1204 2.23988V32.1599C49.1204 32.5206 48.9771 32.8665 48.7221 33.1215C48.467 33.3766 48.1211 33.5199 47.7604 33.5199Z" fill="black"/>
<path d="M50.4798 33.5198H34.1598C33.7991 33.5198 33.4532 33.3765 33.1981 33.1215C32.9431 32.8664 32.7998 32.5205 32.7998 32.1598C32.7998 31.7991 32.9431 31.4532 33.1981 31.1981C33.4532 30.9431 33.7991 30.7998 34.1598 30.7998H50.4798C50.8405 30.7998 51.1864 30.9431 51.4415 31.1981C51.6965 31.4532 51.8398 31.7991 51.8398 32.1598C51.8398 32.5205 51.6965 32.8664 51.4415 33.1215C51.1864 33.3765 50.8405 33.5198 50.4798 33.5198Z" fill="black"/>
<path d="M39.5999 11.76H23.2799C22.9192 11.76 22.5733 11.6168 22.3183 11.3617C22.0632 11.1067 21.9199 10.7607 21.9199 10.4C21.9199 10.0393 22.0632 9.69342 22.3183 9.43837C22.5733 9.18332 22.9192 9.04004 23.2799 9.04004H39.5999C39.9606 9.04004 40.3065 9.18332 40.5616 9.43837C40.8166 9.69342 40.9599 10.0393 40.9599 10.4C40.9599 10.7607 40.8166 11.1067 40.5616 11.3617C40.3065 11.6168 39.9606 11.76 39.5999 11.76Z" fill="black"/>
<path d="M39.6005 17.2H17.8405C17.4798 17.2 17.1339 17.0567 16.8788 16.8016C16.6238 16.5466 16.4805 16.2007 16.4805 15.84C16.4805 15.4793 16.6238 15.1334 16.8788 14.8783C17.1339 14.6233 17.4798 14.48 17.8405 14.48H39.6005C39.9612 14.48 40.3071 14.6233 40.5621 14.8783C40.8172 15.1334 40.9605 15.4793 40.9605 15.84C40.9605 16.2007 40.8172 16.5466 40.5621 16.8016C40.3071 17.0567 39.9612 17.2 39.6005 17.2Z" fill="black"/>
</svg>
