<svg width="46" height="46" viewBox="0 0 46 46" fill="none" xmlns="http://www.w3.org/2000/svg">
<g clip-path="url(#clip0_23_91)">
<path d="M6.41912 29.8435C6.10995 29.8435 5.81345 29.7207 5.59484 29.5021C5.37623 29.2834 5.25342 28.9869 5.25342 28.6778V20.3625C5.25342 20.0533 5.37623 19.7568 5.59484 19.5382C5.81345 19.3196 6.10995 19.1968 6.41912 19.1968C6.72828 19.1968 7.02478 19.3196 7.24339 19.5382C7.462 19.7568 7.58481 20.0533 7.58481 20.3625V28.6778C7.58481 28.9869 7.462 29.2834 7.24339 29.5021C7.02478 29.7207 6.72828 29.8435 6.41912 29.8435Z" fill="black"/>
<path d="M11.6718 11.2762C10.5567 11.2762 9.46661 10.9455 8.53943 10.326C7.61225 9.70648 6.8896 8.82593 6.46287 7.7957C6.03613 6.76547 5.92448 5.63184 6.14203 4.53816C6.35958 3.44448 6.89655 2.43986 7.68505 1.65136C8.47355 0.86286 9.47817 0.325884 10.5718 0.108337C11.6655 -0.10921 12.7992 0.00244295 13.8294 0.429177C14.8596 0.855911 15.7402 1.57856 16.3597 2.50574C16.9792 3.43292 17.3099 4.52299 17.3099 5.6381C17.3082 7.13291 16.7137 8.56602 15.6567 9.62301C14.5997 10.68 13.1666 11.2745 11.6718 11.2762ZM11.6718 2.3314C11.0178 2.3314 10.3785 2.52533 9.83469 2.88868C9.2909 3.25202 8.86707 3.76846 8.6168 4.37268C8.36652 4.9769 8.30104 5.64176 8.42863 6.2832C8.55622 6.92464 8.87115 7.51383 9.3336 7.97628C9.79605 8.43873 10.3852 8.75367 11.0267 8.88126C11.6681 9.00885 12.333 8.94336 12.9372 8.69309C13.5414 8.44281 14.0579 8.01898 14.4212 7.4752C14.7845 6.93141 14.9785 6.2921 14.9785 5.6381C14.9775 4.76142 14.6287 3.92095 14.0088 3.30104C13.3889 2.68114 12.5485 2.33243 11.6718 2.3314Z" fill="black"/>
<path d="M30.0532 19.9973C29.8281 19.9975 29.6078 19.9324 29.4188 19.8101C29.2299 19.6877 29.0804 19.5133 28.9884 19.3078C28.8965 19.1024 28.866 18.8747 28.9006 18.6523C28.9352 18.4299 29.0335 18.2223 29.1836 18.0545L35.5172 10.9546C35.6192 10.8404 35.7428 10.7473 35.8808 10.6808C36.0188 10.6143 36.1686 10.5757 36.3215 10.567C36.4745 10.5584 36.6276 10.58 36.7722 10.6306C36.9168 10.6811 37.0501 10.7597 37.1643 10.8617C37.2786 10.9638 37.3716 11.0873 37.4381 11.2254C37.5046 11.3634 37.5433 11.5131 37.5519 11.6661C37.5605 11.819 37.5389 11.9722 37.4884 12.1168C37.4378 12.2614 37.3592 12.3946 37.2572 12.5089L30.9236 19.6049C30.8144 19.728 30.6804 19.8266 30.5304 19.8943C30.3804 19.9619 30.2177 19.997 30.0532 19.9973Z" fill="black"/>
<path d="M42.5028 30.5234H21.5879C21.2787 30.5234 20.9822 30.4005 20.7636 30.1819C20.545 29.9633 20.4222 29.6668 20.4222 29.3577C20.4222 29.0485 20.545 28.752 20.7636 28.5334C20.9822 28.3148 21.2787 28.192 21.5879 28.192H42.5028C42.812 28.192 43.1085 28.0691 43.3271 27.8505C43.5457 27.6319 43.6685 27.3354 43.6685 27.0263V3.52346C43.6685 3.2143 43.5457 2.9178 43.3271 2.69919C43.1085 2.48058 42.812 2.35776 42.5028 2.35776H19.6349C19.3258 2.35776 19.0293 2.23495 18.8107 2.01634C18.5921 1.79773 18.4692 1.50123 18.4692 1.19207C18.4692 0.882903 18.5921 0.586403 18.8107 0.367792C19.0293 0.149181 19.3258 0.0263672 19.6349 0.0263672H42.5028C43.4303 0.0263672 44.3198 0.39481 44.9756 1.05064C45.6315 1.70648 45.9999 2.59597 45.9999 3.52346V27.0263C45.9999 27.9538 45.6315 28.8433 44.9756 29.4991C44.3198 30.1549 43.4303 30.5234 42.5028 30.5234Z" fill="black"/>
<path d="M11.6718 46.0007H6.41912C6.10995 46.0007 5.81345 45.8779 5.59484 45.6593C5.37623 45.4407 5.25342 45.1442 5.25342 44.835V28.6777C5.25342 28.3685 5.37623 28.072 5.59484 27.8534C5.81345 27.6348 6.10995 27.512 6.41912 27.512C6.72828 27.512 7.02478 27.6348 7.24339 27.8534C7.462 28.072 7.58481 28.3685 7.58481 28.6777V43.6693H11.6718C11.9809 43.6693 12.2774 43.7921 12.496 44.0107C12.7146 44.2294 12.8374 44.5259 12.8374 44.835C12.8374 45.1442 12.7146 45.4407 12.496 45.6593C12.2774 45.8779 11.9809 46.0007 11.6718 46.0007Z" fill="black"/>
<path d="M16.9252 46.0009H11.6717C11.3626 46.0009 11.0661 45.8781 10.8475 45.6595C10.6289 45.4409 10.506 45.1444 10.506 44.8352V29.3579C10.506 29.0487 10.6289 28.7522 10.8475 28.5336C11.0661 28.315 11.3626 28.1922 11.6717 28.1922C11.9809 28.1922 12.2774 28.315 12.496 28.5336C12.7146 28.7522 12.8374 29.0487 12.8374 29.3579V43.6695H15.7595V21.6301C15.7594 21.1463 15.9028 20.6733 16.1716 20.271C16.4404 19.8688 16.8224 19.5552 17.2694 19.3701C17.7164 19.185 18.2082 19.1367 18.6827 19.2312C19.1572 19.3256 19.593 19.5587 19.935 19.9009L21.762 21.7256C21.8974 21.8616 22.0583 21.9694 22.2356 22.0428C22.4129 22.1162 22.603 22.1537 22.7948 22.1531H28.22C28.4144 22.1531 28.6069 22.1143 28.7862 22.039C28.9655 21.9637 29.1279 21.8534 29.264 21.7145C29.4 21.5756 29.507 21.4109 29.5786 21.2302C29.6502 21.0494 29.685 20.8562 29.681 20.6618C29.6647 19.873 28.9863 19.2318 28.1687 19.2318H23.8797C23.5707 19.2316 23.2744 19.1086 23.056 18.8899L20.5466 16.3813C20.0914 15.9234 19.5498 15.5604 18.9532 15.3134C18.3566 15.0663 17.717 14.9401 17.0713 14.9421H16.1667L14.4049 16.407C13.6374 17.0449 12.6709 17.3941 11.6729 17.3941C10.6749 17.3941 9.70841 17.0449 8.94091 16.407L7.17759 14.9421H6.41911C5.33536 14.9433 4.29635 15.3744 3.53002 16.1407C2.7637 16.907 2.33263 17.946 2.3314 19.0298C2.3314 19.3389 2.20858 19.6354 1.98997 19.8541C1.77136 20.0727 1.47486 20.1955 1.1657 20.1955C0.856536 20.1955 0.560036 20.0727 0.341425 19.8541C0.122814 19.6354 0 19.3389 0 19.0298C0.00185133 17.3279 0.678743 15.6962 1.88216 14.4928C3.08557 13.2894 4.71723 12.6125 6.41911 12.6107H7.5988C7.87109 12.6108 8.13476 12.7062 8.34407 12.8803L10.4299 14.6141C10.779 14.9049 11.219 15.0641 11.6733 15.0641C12.1276 15.0641 12.5676 14.9049 12.9167 14.6141L15.001 12.8796C15.2103 12.7054 15.474 12.61 15.7463 12.6099H17.0728C18.0248 12.6073 18.9678 12.7935 19.8472 13.1578C20.7267 13.5221 21.5252 14.0572 22.1964 14.7322L24.3646 16.9004H28.1726C30.2506 16.9004 31.9743 18.5666 32.0155 20.6151C32.0257 21.1195 31.9352 21.6209 31.7493 22.0899C31.5633 22.5589 31.2857 22.986 30.9326 23.3464C30.5795 23.7067 30.158 23.993 29.6929 24.1884C29.2278 24.3838 28.7284 24.4845 28.2239 24.4845H22.7917C22.2936 24.4859 21.8001 24.3885 21.3399 24.1978C20.8797 24.0072 20.4619 23.7272 20.1106 23.3739L18.2867 21.5477C18.2718 21.5329 18.2531 21.5224 18.2328 21.5174C18.2124 21.5123 18.191 21.5129 18.1709 21.5189C18.1482 21.5266 18.1284 21.5412 18.1145 21.5608C18.1005 21.5803 18.0931 21.6037 18.0932 21.6277V44.8329C18.0935 44.9864 18.0635 45.1384 18.0049 45.2802C17.9463 45.4221 17.8603 45.551 17.7518 45.6595C17.6432 45.768 17.5144 45.854 17.3725 45.9126C17.2307 45.9712 17.0786 46.0012 16.9252 46.0009Z" fill="black"/>
<path d="M3.7924 32.4703C2.78691 32.4692 1.8229 32.0693 1.11191 31.3584C0.400915 30.6474 0.00102864 29.6833 0 28.6779V19.029C0 18.7198 0.122814 18.4233 0.341425 18.2047C0.560036 17.9861 0.856536 17.8633 1.1657 17.8633C1.47486 17.8633 1.77136 17.9861 1.98997 18.2047C2.20858 18.4233 2.3314 18.7198 2.3314 19.029V28.6779C2.3314 29.0653 2.48532 29.4369 2.75932 29.7109C3.03331 29.9849 3.40492 30.1389 3.7924 30.1389C4.17989 30.1389 4.5515 29.9849 4.82549 29.7109C5.09949 29.4369 5.25341 29.0653 5.25341 28.6779C5.25341 28.3687 5.37623 28.0722 5.59484 27.8536C5.81345 27.635 6.10995 27.5122 6.41911 27.5122C6.72827 27.5122 7.02477 27.635 7.24338 27.8536C7.46199 28.0722 7.58481 28.3687 7.58481 28.6779C7.58378 29.6833 7.18389 30.6474 6.4729 31.3584C5.76191 32.0693 4.7979 32.4692 3.7924 32.4703Z" fill="black"/>
<path d="M36.6831 46.0008H1.16814C0.858977 46.0008 0.562477 45.878 0.343866 45.6594C0.125255 45.4408 0.00244141 45.1443 0.00244141 44.8351C0.00244141 44.526 0.125255 44.2295 0.343866 44.0109C0.562477 43.7923 0.858977 43.6694 1.16814 43.6694H36.6831C36.9922 43.6694 37.2887 43.7923 37.5074 44.0109C37.726 44.2295 37.8488 44.526 37.8488 44.8351C37.8488 45.1443 37.726 45.4408 37.5074 45.6594C37.2887 45.878 36.9922 46.0008 36.6831 46.0008Z" fill="black"/>
<path d="M30.3415 12.8966H24.2978C23.9886 12.8966 23.6921 12.7738 23.4735 12.5552C23.2549 12.3365 23.1321 12.04 23.1321 11.7309C23.1321 11.4217 23.2549 11.1252 23.4735 10.9066C23.6921 10.688 23.9886 10.5652 24.2978 10.5652H30.3415C30.6507 10.5652 30.9472 10.688 31.1658 10.9066C31.3844 11.1252 31.5072 11.4217 31.5072 11.7309C31.5072 12.04 31.3844 12.3365 31.1658 12.5552C30.9472 12.7738 30.6507 12.8966 30.3415 12.8966Z" fill="black"/>
<path d="M36.3853 7.62681H24.2978C23.9886 7.62681 23.6921 7.50399 23.4735 7.28538C23.2549 7.06677 23.1321 6.77027 23.1321 6.46111C23.1321 6.15195 23.2549 5.85545 23.4735 5.63683C23.6921 5.41822 23.9886 5.29541 24.2978 5.29541H36.3853C36.6945 5.29541 36.991 5.41822 37.2096 5.63683C37.4282 5.85545 37.551 6.15195 37.551 6.46111C37.551 6.77027 37.4282 7.06677 37.2096 7.28538C36.991 7.50399 36.6945 7.62681 36.3853 7.62681Z" fill="black"/>
</g>
<defs>
<clipPath id="clip0_23_91">
<rect width="46" height="46" fill="white"/>
</clipPath>
</defs>
</svg>
