<svg width="52" height="52" viewBox="0 0 52 52" fill="none" xmlns="http://www.w3.org/2000/svg">
<g clip-path="url(#clip0_23_32)">
<path d="M27.8688 22.8819L26.8938 20.6983L29.5242 18.0679L31.7078 19.0429C32.2867 19.2968 32.9672 19.0429 33.2313 18.464C33.4852 17.8851 33.2313 17.2046 32.6524 16.9405L22.9836 12.6343C22.5469 12.4413 22.0391 12.5327 21.7039 12.8679C21.3688 13.203 21.2672 13.7108 21.4703 14.1476L25.7766 23.8163C26.0305 24.3952 26.7211 24.6694 27.3 24.3952C27.8485 24.1413 28.1125 23.4608 27.8688 22.8819ZM25.8883 18.4437L24.7813 15.9655L27.2695 17.0726L25.8883 18.4437Z" fill="black"/>
<path d="M46.3023 24.568H37.8727L41.3766 21.0641C43.5195 18.9211 43.5195 15.4375 41.3766 13.2945L29.8797 1.80781C28.8438 0.771875 27.4625 0.203125 26 0.203125C24.5375 0.203125 23.1562 0.771875 22.1203 1.80781L10.6336 13.2945C8.49062 15.4375 8.49062 18.9211 10.6336 21.0641L14.1375 24.568H5.70781C2.67109 24.568 0.203125 27.0359 0.203125 30.0625V46.3023C0.203125 49.3289 2.67109 51.7969 5.69766 51.7969H21.9375C23.5422 51.7969 24.9945 51.0961 26 49.9891C27.0055 51.0961 28.4477 51.7969 30.0625 51.7969H46.3023C49.3289 51.7969 51.7969 49.3289 51.7969 46.3023V30.0625C51.7969 27.0359 49.3289 24.568 46.3023 24.568ZM24.568 46.3023C24.568 47.7547 23.3898 48.9328 21.9375 48.9328H5.69766C4.24531 48.9328 3.06719 47.7547 3.06719 46.3023V30.0625C3.06719 28.6102 4.24531 27.432 5.69766 27.432H17.0016L22.1203 32.5508C22.8109 33.2414 23.6539 33.7289 24.568 33.9727V46.3023ZM26 31.2914C25.2992 31.2914 24.6391 31.0172 24.1414 30.5195L12.6547 19.043C11.6289 18.0172 11.6289 16.3516 12.6547 15.3258L24.1414 3.83906C24.6391 3.34141 25.2992 3.06719 26 3.06719C26.7008 3.06719 27.3609 3.34141 27.8586 3.83906L39.3453 15.3258C40.3711 16.3516 40.3711 18.0172 39.3453 19.043L27.8586 30.5297C27.3609 31.0172 26.7008 31.2914 26 31.2914ZM48.9328 46.3023C48.9328 47.7547 47.7547 48.9328 46.3023 48.9328H30.0625C28.6102 48.9328 27.432 47.7547 27.432 46.3023V33.9727C28.3461 33.7289 29.1891 33.2414 29.8797 32.5508L34.9984 27.432H46.3023C47.7547 27.432 48.9328 28.6102 48.9328 30.0625V46.3023Z" fill="black"/>
<path d="M13.8835 32.0938H11.2937C10.6538 32.0938 10.146 32.6117 10.146 33.2414V38.1773V38.1875V38.1977V43.1336C10.146 43.7734 10.664 44.2812 11.2937 44.2812H13.8835C15.8741 44.2812 17.4991 42.6562 17.4991 40.6656C17.4991 39.7109 17.1233 38.8375 16.5038 38.1977C17.1132 37.5477 17.4991 36.6844 17.4991 35.7297C17.4991 33.7187 15.8741 32.0938 13.8835 32.0938ZM13.8835 41.9656H12.4413V39.3352H13.8835C14.6046 39.3352 15.1937 39.9242 15.1937 40.6453C15.1937 41.3766 14.6046 41.9656 13.8835 41.9656ZM13.8835 37.0195H12.4413V34.3891H13.8835C14.6046 34.3891 15.1937 34.9781 15.1937 35.6992C15.1937 36.4305 14.6046 37.0195 13.8835 37.0195Z" fill="black"/>
<path d="M38.6648 32.0938C35.3031 32.0938 32.571 34.8258 32.571 38.1875C32.571 41.5492 35.3031 44.2812 38.6648 44.2812C40.3609 44.2812 41.996 43.5602 43.1437 42.3109C43.5703 41.8438 43.5398 41.1125 43.0726 40.6859C42.6054 40.2594 41.8742 40.2898 41.4476 40.757C40.7367 41.5391 39.721 41.9758 38.6648 41.9758C36.5726 41.9758 34.8765 40.2797 34.8765 38.1875C34.8765 36.0953 36.5726 34.3992 38.6648 34.3992C39.8835 34.3992 40.9906 34.9578 41.7117 35.9328C42.0875 36.4406 42.8085 36.5523 43.3265 36.1766C43.8343 35.8008 43.946 35.0797 43.5703 34.5617C42.4226 33.018 40.5843 32.0938 38.6648 32.0938Z" fill="black"/>
</g>
<defs>
<clipPath id="clip0_23_32">
<rect width="52" height="52" fill="white"/>
</clipPath>
</defs>
</svg>
