<svg width="34" height="34" viewBox="0 0 34 34" fill="none" xmlns="http://www.w3.org/2000/svg">
<path d="M24.1059 20.5635C23.92 20.3782 23.6637 20.272 23.4014 20.272C23.1391 20.272 22.8827 20.3782 22.6969 20.5635C22.5116 20.7488 22.4053 21.0058 22.4053 21.2681C22.4053 21.5304 22.5116 21.7867 22.6969 21.972C22.8828 22.1579 23.1391 22.2642 23.4014 22.2642C23.6637 22.2642 23.9201 22.1579 24.1059 21.972C24.2912 21.7867 24.3975 21.5297 24.3975 21.2681C24.3975 21.0058 24.2912 20.7488 24.1059 20.5635Z" fill="black"/>
<path d="M17.7045 20.5635C17.5186 20.3782 17.2623 20.272 17 20.272C16.7377 20.272 16.4807 20.3782 16.2954 20.5635C16.1102 20.7488 16.0039 21.0058 16.0039 21.2681C16.0039 21.5297 16.1102 21.7867 16.2954 21.972C16.4807 22.1579 16.7377 22.2642 17 22.2642C17.2623 22.2642 17.5186 22.1579 17.7045 21.972C17.8898 21.7867 17.9961 21.5297 17.9961 21.2681C17.9961 21.0058 17.8898 20.7488 17.7045 20.5635Z" fill="black"/>
<path d="M33.0039 32.0076H30.7992V16.9291H33.0039C33.4146 16.9291 33.7833 16.677 33.9322 16.2941C34.0811 15.9113 33.9798 15.4763 33.6769 15.1988L30.7992 12.5608V6.59741C30.7992 6.0473 30.3532 5.60132 29.8031 5.60132C29.253 5.60132 28.807 6.0473 28.807 6.59741V10.7347L20.8738 3.46251C20.493 3.11341 19.9085 3.11341 19.5276 3.46251L6.7245 15.1987C6.42168 15.4763 6.32028 15.9112 6.46923 16.2941C6.61811 16.6769 6.9868 16.929 7.39752 16.929H9.60221V32.0076H0.996094C0.445984 32.0076 0 32.4536 0 33.0037C0 33.5538 0.445984 33.9998 0.996094 33.9998H17H23.4015H33.0039C33.554 33.9998 34 33.5538 34 33.0037C34 32.4536 33.554 32.0076 33.0039 32.0076ZM22.4054 32.0075H17.9961V27.5983H22.4054V32.0075ZM28.807 32.0075H24.3977V26.6022C24.3977 26.0521 23.9517 25.6061 23.4016 25.6061H17C16.4499 25.6061 16.0039 26.0521 16.0039 26.6022V32.0075H11.5945V16.9291H28.807V32.0075ZM29.8031 14.9369H10.5984H9.95842L20.2007 5.54806L30.4431 14.9369H29.8031Z" fill="black"/>
<path d="M9.53149 4.26786H9.33971C9.2399 3.85621 9.07627 3.45724 8.85069 3.08563L8.9859 2.95043C9.3749 2.56149 9.37497 1.93076 8.98596 1.54175C8.59695 1.15268 7.96629 1.15268 7.57729 1.54169L7.44315 1.67583C7.07605 1.45197 6.67781 1.28702 6.25992 1.18575V0.996094C6.25992 0.445984 5.81393 0 5.26382 0C4.71372 0 4.26773 0.445984 4.26773 0.996094V1.18575C3.84997 1.28702 3.45173 1.45197 3.0847 1.67583L2.9505 1.54162C2.56155 1.15261 1.93083 1.15261 1.54182 1.54169C1.15281 1.9307 1.15288 2.56136 1.54189 2.95036L1.67716 3.08563C1.45157 3.45724 1.28802 3.85621 1.18814 4.2678H0.996094C0.445984 4.2678 0 4.71378 0 5.26389C0 5.814 0.445984 6.25992 0.996094 6.25992H1.18814C1.28802 6.67144 1.45151 7.07028 1.67709 7.44182L1.54182 7.57709C1.15281 7.96603 1.15275 8.59676 1.54175 8.98576C1.73626 9.18033 1.99119 9.27755 2.24613 9.27755C2.50099 9.27755 2.75593 9.18033 2.95043 8.98583L3.08464 8.85169C3.45166 9.07555 3.8499 9.2405 4.26773 9.34177V9.53162C4.26773 10.0817 4.71372 10.5277 5.26382 10.5277C5.81393 10.5277 6.25992 10.0817 6.25992 9.53162V9.34183C6.67781 9.24056 7.07612 9.07561 7.44315 8.85176L7.57722 8.9859C7.77172 9.1804 8.02666 9.27762 8.28152 9.27762C8.53646 9.27762 8.79139 9.1804 8.9859 8.9859C9.3749 8.59689 9.3749 7.96623 8.9859 7.57722L8.85063 7.44195C9.07621 7.07041 9.23977 6.67157 9.33964 6.26005H9.53149C10.0816 6.26005 10.5276 5.81407 10.5276 5.26396C10.5276 4.71385 10.0816 4.26786 9.53149 4.26786ZM6.82351 6.82205C6.82331 6.82225 6.82304 6.82245 6.82284 6.82265C6.82258 6.82284 6.82245 6.82311 6.82218 6.82338C6.40588 7.23935 5.85258 7.46845 5.26396 7.46845C4.675 7.46845 4.12137 7.23915 3.705 6.82265C2.84544 5.96315 2.84551 4.56443 3.705 3.70481C4.12104 3.28864 4.67414 3.0594 5.26256 3.05907C5.26296 3.05907 5.26343 3.05914 5.26382 3.05914C5.26429 3.05914 5.26469 3.05907 5.26515 3.05907C5.85318 3.0594 6.40601 3.28831 6.82198 3.70381C6.82225 3.70408 6.82251 3.70441 6.82278 3.70467C6.82304 3.70494 6.82338 3.7052 6.82371 3.70554C7.68221 4.56503 7.68214 5.96262 6.82351 6.82205Z" fill="black"/>
</svg>
