<svg width="30" height="30" viewBox="0 0 30 30" fill="none" xmlns="http://www.w3.org/2000/svg">
<g clip-path="url(#clip0_33_1848)">
<path d="M26.3104 3.6897C24.0211 2.00149 20.7712 2.19281 18.6999 4.26403C17.5944 5.3696 16.9855 6.83943 16.9855 8.403C16.9855 8.94589 17.0591 9.47737 17.2012 9.98636C15.2313 9.4375 13.0282 9.93578 11.482 11.482C10.3764 12.5875 9.76758 14.0574 9.76758 15.6209C9.76758 16.1638 9.84117 16.6954 9.98326 17.2043C8.01332 16.6554 5.81027 17.1536 4.26403 18.6999C3.15852 19.8055 2.54965 21.2754 2.54965 22.8389C2.54965 24.1057 2.94945 25.3109 3.68917 26.3108L0 29.9999H30V0L26.3104 3.6897ZM19.9419 5.50595C21.3262 4.12165 23.4623 3.93793 25.0473 4.9527L19.3881 10.6119C18.968 9.95855 18.7419 9.19834 18.7419 8.403C18.7419 7.30862 19.168 6.2798 19.9419 5.50595ZM12.7239 12.7239C14.1082 11.3396 16.2443 11.1559 17.8293 12.1706L12.1701 17.8298C11.75 17.1765 11.5239 16.4163 11.5239 15.6209C11.5239 14.5266 11.9501 13.4977 12.7239 12.7239ZM4.306 22.8389C4.306 21.7446 4.73215 20.7157 5.50601 19.9419C6.89025 18.5576 9.02639 18.3738 10.6114 19.3886L4.95223 25.0478C4.53211 24.3944 4.306 23.6343 4.306 22.8389ZM28.2436 28.2436H4.24026L28.2436 4.2402V28.2436Z" fill="black"/>
<path d="M17.7441 18.9581L19.0712 17.631L20.3129 18.8728L18.9859 20.1998L17.7441 18.9581Z" fill="black"/>
<path d="M21.7344 22.949L23.0614 21.622L24.3032 22.8637L22.9761 24.1908L21.7344 22.949Z" fill="black"/>
<path d="M22.1328 14.5699L23.4599 13.2429L24.7016 14.4846L23.3746 15.8117L22.1328 14.5699Z" fill="black"/>
<path d="M13.2383 23.463L14.5654 22.1359L15.8071 23.3776L14.48 24.7047L13.2383 23.463Z" fill="black"/>
</g>
<defs>
<clipPath id="clip0_33_1848">
<rect width="30" height="30" fill="white"/>
</clipPath>
</defs>
</svg>
