<svg width="36" height="36" viewBox="0 0 36 36" fill="none" xmlns="http://www.w3.org/2000/svg">
<g clip-path="url(#clip0_26_401)">
<path d="M30.267 30.2673C26.9679 33.5664 22.5814 35.3833 17.9158 35.3833C13.2502 35.3833 8.86366 33.5664 5.56453 30.2673C2.26541 26.9681 0.448486 22.5817 0.448486 17.916C0.448486 13.2503 2.26541 8.86389 5.56453 5.5647C8.86372 2.26557 13.2501 0.44865 17.9158 0.44865C22.5815 0.44865 26.9679 2.26557 30.2671 5.5647C33.5662 8.86389 35.3831 13.2503 35.3831 17.916C35.3831 22.5817 33.5662 26.9681 30.267 30.2673ZM22.599 29.0926C24.0315 26.1244 24.8204 22.1552 24.8204 17.916C24.8204 13.6769 24.0315 9.70767 22.599 6.73949C21.3007 4.04929 19.5938 2.50645 17.9158 2.50645C16.2379 2.50645 14.5309 4.04936 13.2326 6.73949C11.8001 9.7076 11.0112 13.6768 11.0112 17.916C11.0112 22.1551 11.8001 26.1243 13.2326 29.0925C14.5309 31.7827 16.2379 33.3256 17.9158 33.3256C19.5938 33.3256 21.3007 31.7827 22.599 29.0926ZM2.50615 17.916C2.50615 24.6554 6.85537 30.3974 12.8942 32.4848C12.3471 31.7738 11.8391 30.9394 11.3794 29.9869C9.81505 26.7455 8.95351 22.4586 8.95351 17.916C8.95351 13.3733 9.81505 9.08653 11.3794 5.84509C11.8391 4.89259 12.3471 4.05821 12.8942 3.34722C6.85537 5.43451 2.50615 11.1766 2.50615 17.916ZM22.9373 3.34722C23.4844 4.05821 23.9924 4.89266 24.4521 5.84509C26.0165 9.08653 26.878 13.3734 26.878 17.916C26.878 22.4585 26.0165 26.7454 24.4521 29.9869C23.9924 30.9394 23.4844 31.7737 22.9373 32.4847C28.9762 30.3974 33.3254 24.6554 33.3254 17.9159C33.3254 11.1764 28.9762 5.43451 22.9373 3.34722Z" fill="white"/>
<path d="M17.9158 14.0294C20.0589 14.0294 21.8025 15.7729 21.8025 17.9161C21.8025 20.0593 20.0589 21.8027 17.9158 21.8027C15.7727 21.8027 14.0291 20.0592 14.0291 17.916C14.0291 15.7728 15.7726 14.0294 17.9158 14.0294ZM17.9158 19.7451C18.9243 19.7451 19.7448 18.9246 19.7448 17.916C19.7448 16.9074 18.9244 16.0869 17.9158 16.0869C16.9072 16.0869 16.0867 16.9075 16.0867 17.916C16.0867 18.9245 16.9072 19.7451 17.9158 19.7451Z" fill="white"/>
</g>
<defs>
<clipPath id="clip0_26_401">
<rect width="34.9346" height="34.9346" fill="white" transform="matrix(1 0 0 -1 0.448486 35.3833)"/>
</clipPath>
</defs>
</svg>
