<svg width="38" height="38" viewBox="0 0 38 38" fill="none" xmlns="http://www.w3.org/2000/svg">
<path d="M32.9937 10.6344C32.6588 10.6344 32.3411 10.7072 32.0546 10.837C31.5611 9.84281 30.5361 9.15918 29.3509 9.15918C28.1844 9.15918 27.1733 9.82158 26.6712 10.7904C26.4143 10.69 26.135 10.6344 25.8426 10.6344C24.5836 10.6344 23.563 11.6549 23.563 12.914C23.563 14.173 24.5836 15.1936 25.8426 15.1936C26.473 15.1936 32.3321 15.1936 32.9937 15.1936C34.2527 15.1936 35.2734 14.173 35.2734 12.914C35.2733 11.655 34.2527 10.6344 32.9937 10.6344Z" stroke="white" stroke-miterlimit="10" stroke-linecap="round" stroke-linejoin="round"/>
<path d="M20.687 2.98049C20.4685 2.98049 20.261 3.02799 20.0741 3.11268C19.752 2.46378 19.083 2.01758 18.3094 2.01758C17.548 2.01758 16.888 2.4499 16.5603 3.08225C16.3926 3.01679 16.2103 2.98042 16.0194 2.98042C15.1977 2.98042 14.5315 3.64661 14.5315 4.46836C14.5315 5.29011 15.1977 5.95629 16.0194 5.95629C16.4309 5.95629 20.2552 5.95629 20.687 5.95629C21.5087 5.95629 22.1749 5.29011 22.1749 4.46836C22.175 3.64668 21.5088 2.98049 20.687 2.98049Z" stroke="white" stroke-miterlimit="10" stroke-linecap="round" stroke-linejoin="round"/>
<path d="M16.1619 35.9827H1.07291C0.787758 35.9827 0.556641 35.7516 0.556641 35.4665V23.1354C0.556641 22.8503 0.787758 22.6191 1.07291 22.6191H15.6456C15.9308 22.6191 16.1619 22.8503 16.1619 23.1354V35.9827Z" stroke="white" stroke-miterlimit="10" stroke-linecap="round" stroke-linejoin="round"/>
<path d="M8.00221 4.63632L2.1416 11.4688C1.8799 11.7739 2.0967 12.2456 2.49867 12.2456H14.22C14.622 12.2456 14.8388 11.7739 14.577 11.4688L8.71642 4.63632C8.52857 4.41745 8.18991 4.41745 8.00221 4.63632Z" stroke="white" stroke-miterlimit="10" stroke-linecap="round" stroke-linejoin="round"/>
<path d="M13.8167 12.5327V22.6193H2.90161V19.1467" stroke="white" stroke-miterlimit="10" stroke-linecap="round" stroke-linejoin="round"/>
<path d="M2.90161 16.5491V12.5327" stroke="white" stroke-miterlimit="10" stroke-linecap="round" stroke-linejoin="round"/>
<path d="M8.35921 20.0446C9.80456 20.0446 10.9762 18.8729 10.9762 17.4276C10.9762 15.9822 9.80456 14.8105 8.35921 14.8105C6.91387 14.8105 5.74219 15.9822 5.74219 17.4276C5.74219 18.8729 6.91387 20.0446 8.35921 20.0446Z" stroke="white" stroke-miterlimit="10" stroke-linecap="round" stroke-linejoin="round"/>
<path d="M11.5162 35.9831H5.20215V28.6541C5.20215 27.0572 6.49667 25.7627 8.09356 25.7627H8.62482C10.2217 25.7627 11.5162 27.0572 11.5162 28.6541V35.9831Z" stroke="white" stroke-miterlimit="10" stroke-linecap="round" stroke-linejoin="round"/>
<circle cx="2.98267" cy="24.9917" r="0.556641" fill="white"/>
<circle cx="13.6069" cy="25.1216" r="0.556641" fill="white"/>
<path d="M36.757 35.983H31.6841C31.2016 35.983 30.7377 35.7962 30.3899 35.4616L17.5588 23.122C17.211 22.7875 16.7472 22.6006 16.2646 22.6006H13.8445V17.7959H17.8886C18.571 17.7959 19.227 18.0601 19.7188 18.5332L32.1009 30.441C32.5928 30.9141 33.2487 31.1783 33.9311 31.1783H34.803C36.2612 31.1783 37.4434 32.3604 37.4434 33.8187V35.2967C37.4433 35.6756 37.136 35.983 36.757 35.983Z" stroke="white" stroke-miterlimit="10" stroke-linecap="round" stroke-linejoin="round"/>
<path d="M20.9654 35.983H16.1619V23.0039" stroke="white" stroke-miterlimit="10" stroke-linecap="round" stroke-linejoin="round"/>
<path d="M32.2827 35.9829H23.563" stroke="white" stroke-miterlimit="10" stroke-linecap="round" stroke-linejoin="round"/>
</svg>
