<svg width="40" height="40" viewBox="0 0 40 40" fill="none" xmlns="http://www.w3.org/2000/svg">
<path d="M39.7144 18.553C39.5225 18.3541 39.254 18.2399 38.9777 18.2399H17.2409L18.3148 7.41867C18.342 7.14477 18.2516 6.8707 18.0668 6.66672C17.882 6.46273 17.6182 6.3457 17.343 6.3457H2.90437C2.62914 6.3457 2.36531 6.46273 2.18055 6.66664C1.99578 6.87063 1.90539 7.14477 1.93258 7.41867L3.9575 27.8256H1.63797C0.734766 27.8256 0 28.5604 0 29.4636C0 30.3668 0.734766 31.1016 1.63797 31.1016H2.95734C3.90492 33.1654 5.96508 34.5108 8.28031 34.5108H31.6712C32.2345 34.5108 32.6928 34.0525 32.6928 33.4892V30.32C34.717 29.3734 36.4564 27.9085 37.7402 26.0649C39.1291 24.0702 39.9102 21.7301 39.9992 19.2973C40.0094 19.0226 39.9055 18.7513 39.7144 18.553ZM3.60969 12.4523H11.4062C11.7299 12.4523 11.9922 12.19 11.9922 11.8663C11.9922 11.5427 11.7299 11.2804 11.4062 11.2804H3.49344L3.12008 7.51766H17.1273L16.754 11.2804H14.1406C13.817 11.2804 13.5547 11.5427 13.5547 11.8663C13.5547 12.19 13.817 12.4523 14.1406 12.4523H16.6377L16.0634 18.24H15.6705C15.3942 18.24 15.1257 18.3541 14.9338 18.5531C14.7427 18.7514 14.6388 19.0227 14.6489 19.2973C14.6628 19.6769 14.6959 20.0538 14.7434 20.428C14.513 20.3359 14.2671 20.2863 14.0148 20.2863C13.4138 20.2863 12.8544 20.5623 12.4736 21.0451C12.2455 20.9605 12.0073 20.916 11.7714 20.916C11.0595 20.916 10.4245 21.2905 10.0728 21.9176C10.0338 21.9872 9.99883 22.0588 9.96805 22.1322C9.91164 22.1276 9.85523 22.1253 9.79867 22.1253C8.98445 22.1253 8.26797 22.6101 7.97344 23.3606C7.91023 23.5218 7.86805 23.6875 7.84695 23.8569C7.08438 24.0038 6.48742 24.5522 6.30383 25.3128C6.24328 25.5634 6.23344 25.8264 6.2725 26.087C5.6625 26.3876 5.25539 26.9524 5.18594 27.6435C5.17984 27.7044 5.17695 27.7651 5.17648 27.8257H5.13523L3.60969 12.4523ZM1.63797 29.9296C1.38094 29.9296 1.17188 29.7205 1.17188 29.4635C1.17188 29.2066 1.38094 28.9974 1.63797 28.9974H17.2656C17.5893 28.9974 17.8516 28.7352 17.8516 28.4115C17.8516 28.0878 17.5893 27.8255 17.2656 27.8255H6.34891C6.34922 27.8038 6.34961 27.7821 6.35172 27.7605C6.38914 27.3884 6.67344 27.1133 7.09375 27.0423C7.27539 27.0115 7.43211 26.8972 7.51664 26.7334C7.60125 26.5697 7.60383 26.3757 7.52375 26.2098C7.42445 26.0038 7.39555 25.783 7.44281 25.5878C7.53055 25.2244 7.85234 24.9895 8.26273 24.9895C8.30203 24.9895 8.34234 24.9916 8.38242 24.9959C8.56648 25.0155 8.74844 24.9473 8.87422 24.8118C8.99984 24.6763 9.0543 24.4895 9.02094 24.3077C8.98703 24.1229 9.00164 23.9481 9.06422 23.7885C9.18141 23.4901 9.46961 23.2972 9.79852 23.2972C9.92227 23.2972 10.0485 23.3227 10.1739 23.3731C10.3454 23.4421 10.5395 23.426 10.6974 23.3297C10.8553 23.2335 10.9585 23.0683 10.9758 22.8842C10.9894 22.7397 11.0295 22.6073 11.0948 22.4908C11.2384 22.2348 11.4849 22.0879 11.7712 22.0879C11.962 22.0879 12.1637 22.1616 12.3395 22.2955C12.4862 22.4072 12.6766 22.4434 12.8538 22.3933C13.0311 22.3432 13.1745 22.2127 13.241 22.041C13.2773 21.9471 13.3247 21.8612 13.382 21.7859C13.5396 21.5776 13.7702 21.4582 14.0146 21.4582C14.2786 21.4582 14.5338 21.5957 14.7145 21.8354C14.8252 21.9823 14.9984 22.0685 15.1823 22.0685C15.3662 22.0685 15.5395 21.9822 15.6502 21.8353C15.8309 21.5957 16.0859 21.4582 16.3498 21.4582C16.5941 21.4582 16.8247 21.5777 16.9825 21.7859C17.0395 21.8612 17.087 21.9472 17.1236 22.0413C17.1902 22.213 17.3336 22.3434 17.5109 22.3934C17.6882 22.4434 17.8786 22.4071 18.0251 22.2955C18.2007 22.1616 18.4024 22.0879 18.5932 22.0879C18.8795 22.0879 19.126 22.2348 19.2695 22.4906C19.335 22.6074 19.3751 22.7399 19.3887 22.8844C19.406 23.0684 19.5092 23.2336 19.6671 23.3298C19.825 23.426 20.0191 23.4421 20.1905 23.373C20.3158 23.3227 20.442 23.2972 20.5659 23.2972C20.8948 23.2972 21.1829 23.4901 21.3 23.7885C21.3627 23.9482 21.3772 24.1229 21.3434 24.3077C21.3101 24.4895 21.3646 24.6765 21.4903 24.8119C21.616 24.9474 21.7984 25.016 21.9821 24.9959C22.0221 24.9916 22.0623 24.9895 22.1016 24.9895C22.512 24.9895 22.8337 25.2244 22.9215 25.5878C22.9687 25.783 22.9398 26.0039 22.8405 26.2098C22.7605 26.3759 22.763 26.5698 22.8477 26.7334C22.9322 26.8972 23.0889 27.0116 23.2705 27.0423C23.6908 27.1133 23.9751 27.3885 24.0124 27.7604C24.0146 27.782 24.015 27.8038 24.0153 27.8255H20C19.6763 27.8255 19.4141 28.0878 19.4141 28.4115C19.4141 28.7352 19.6763 28.9974 20 28.9974H28.7267C28.9837 28.9974 29.1928 29.2066 29.1928 29.4635C29.1928 29.7205 28.9837 29.9296 28.7267 29.9296H1.63797ZM22.0844 33.3388H8.28031C6.61828 33.3388 5.12047 32.4723 4.28242 31.1015H26.0822C25.2441 32.4723 23.7464 33.3388 22.0844 33.3388ZM36.7786 25.3951C35.5455 27.1659 33.8499 28.5516 31.8751 29.4027C31.6602 29.4952 31.521 29.7068 31.521 29.9408V33.3388H25.6042C26.3695 32.7642 26.9941 32.0014 27.4073 31.1015H28.7268C29.63 31.1015 30.3648 30.3667 30.3648 29.4635C30.3648 28.5603 29.63 27.8255 28.7268 27.8255H25.1881C25.1877 27.7648 25.1848 27.7041 25.1787 27.6431C25.1092 26.9522 24.7022 26.3873 24.0923 26.0867C24.1313 25.8263 24.1214 25.5633 24.0609 25.3127C24.0048 25.0805 23.9099 24.8684 23.7838 24.6812H37.2369C37.093 24.924 36.9407 25.1623 36.7786 25.3951ZM37.8413 23.5094H22.4424C22.427 23.4594 22.4104 23.4097 22.3911 23.3605C22.0967 22.6102 21.3803 22.1253 20.5661 22.1253C20.5095 22.1253 20.453 22.1276 20.3966 22.1322C20.3874 22.1102 20.3771 22.0888 20.3671 22.0671H38.3717C38.2276 22.5591 38.0503 23.0407 37.8413 23.5094ZM38.6489 20.8952H17.76C17.3873 20.5059 16.8853 20.2863 16.35 20.2863C16.2014 20.2863 16.0552 20.3041 15.9129 20.3366C15.8723 20.0305 15.8423 19.7223 15.8268 19.4119H38.8215C38.7963 19.9119 38.7376 20.407 38.6489 20.8952Z" fill="white"/>
<path d="M14.5249 23.959H13.6482C13.3245 23.959 13.0623 24.2212 13.0623 24.5449C13.0623 24.8686 13.3245 25.1309 13.6482 25.1309H14.5249C14.8486 25.1309 15.1108 24.8686 15.1108 24.5449C15.1108 24.2212 14.8486 23.959 14.5249 23.959Z" fill="white"/>
<path d="M18.7329 25.186H17.8562C17.5325 25.186 17.2703 25.4483 17.2703 25.772C17.2703 26.0956 17.5325 26.3579 17.8562 26.3579H18.7329C19.0566 26.3579 19.3189 26.0956 19.3189 25.772C19.3189 25.4483 19.0566 25.186 18.7329 25.186Z" fill="white"/>
<path d="M10.7551 25.6245H9.87842C9.55475 25.6245 9.29248 25.8868 9.29248 26.2104C9.29248 26.5341 9.55475 26.7964 9.87842 26.7964H10.7551C11.0787 26.7964 11.341 26.5341 11.341 26.2104C11.341 25.8868 11.0787 25.6245 10.7551 25.6245Z" fill="white"/>
<path d="M22.8009 16.9174C23.1245 16.9174 23.3868 16.6552 23.3868 16.3315V15.2579C23.3868 14.8575 23.7126 14.5317 24.113 14.5317H29.6796C30.7262 14.5317 31.5777 13.6803 31.5777 12.6337C31.5777 11.587 30.7262 10.7356 29.6796 10.7356H24.9083C24.5078 10.7356 24.182 10.4098 24.182 10.0094C24.182 9.60898 24.5078 9.2832 24.9083 9.2832H29.2968C29.6205 9.2832 29.8827 9.02094 29.8827 8.69727C29.8827 8.37359 29.6205 8.11133 29.2968 8.11133H24.9082C23.8616 8.11133 23.0101 8.96273 23.0101 10.0094C23.0101 11.056 23.8616 11.9075 24.9082 11.9075H29.6795C30.0799 11.9075 30.4057 12.2333 30.4057 12.6337C30.4057 13.0341 30.0799 13.3598 29.6795 13.3598H24.1129C23.0663 13.3598 22.2148 14.2112 22.2148 15.2579V16.3315C22.2149 16.6551 22.4772 16.9174 22.8009 16.9174Z" fill="white"/>
<path d="M32.0374 9.27512H35.9584C37.0022 9.27512 37.8514 8.4259 37.8514 7.38215C37.8514 6.3384 37.0022 5.48926 35.9584 5.48926H33.3444C33.0207 5.48926 32.7584 5.75152 32.7584 6.0752C32.7584 6.39887 33.0207 6.66113 33.3444 6.66113H35.9584C36.3561 6.66113 36.6795 6.98465 36.6795 7.38215C36.6795 7.7798 36.356 8.10324 35.9584 8.10324H32.0374C31.7137 8.10324 31.4514 8.36551 31.4514 8.68918C31.4514 9.01285 31.7138 9.27512 32.0374 9.27512Z" fill="white"/>
</svg>
