<svg width="52" height="52" viewBox="0 0 52 52" fill="none" xmlns="http://www.w3.org/2000/svg">
<g clip-path="url(#clip0_11_87)">
<path d="M45.6046 6.39548C41.6366 3.46924 36.0033 3.80088 32.4132 7.39098C30.4969 9.3073 29.4415 11.855 29.4415 14.5652C29.4415 15.5062 29.5691 16.4274 29.8154 17.3097C26.4008 16.3583 22.5822 17.222 19.9021 19.9021C17.9857 21.8184 16.9305 24.3662 16.9305 27.0763C16.9305 28.0173 17.058 28.9386 17.3043 29.8208C13.8898 28.8694 10.0711 29.733 7.39098 32.4131C5.47476 34.3295 4.41939 36.8774 4.41939 39.5875C4.41939 41.7832 5.11238 43.8723 6.39456 45.6054L0 51.9999H52V0L45.6046 6.39548ZM34.5659 9.54364C36.9655 7.14419 40.668 6.82575 43.4153 8.58467L33.606 18.394C32.8779 17.2615 32.486 15.9438 32.486 14.5652C32.4859 12.6683 33.2246 10.885 34.5659 9.54364ZM22.0547 22.0547C24.4542 19.6554 28.1568 19.3368 30.9041 21.0957L21.0948 30.9051C20.3667 29.7726 19.9748 28.4549 19.9748 27.0763C19.9748 25.1794 20.7135 23.3961 22.0547 22.0547ZM7.46374 39.5875C7.46374 37.6906 8.2024 35.9071 9.54374 34.5659C11.9431 32.1665 15.6457 31.848 18.3932 33.6069L8.58386 43.4162C7.85565 42.2836 7.46374 40.966 7.46374 39.5875ZM48.9556 48.9555H7.34978L48.9556 7.34968V48.9555Z" fill="black"/>
<path d="M30.7562 32.8606L33.0565 30.5604L35.2088 32.7127L32.9086 35.013L30.7562 32.8606Z" fill="black"/>
<path d="M37.6725 39.7783L39.9727 37.4781L42.1251 39.6305L39.8248 41.9307L37.6725 39.7783Z" fill="black"/>
<path d="M38.3639 25.2546L40.6641 22.9544L42.8165 25.1068L40.5162 27.407L38.3639 25.2546Z" fill="black"/>
<path d="M22.9458 40.6692L25.2461 38.3689L27.3985 40.5212L25.0982 42.8215L22.9458 40.6692Z" fill="black"/>
</g>
<defs>
<clipPath id="clip0_11_87">
<rect width="52" height="52" fill="white"/>
</clipPath>
</defs>
</svg>
