<svg width="62" height="62" viewBox="0 0 62 62" fill="none" xmlns="http://www.w3.org/2000/svg">
<g clip-path="url(#clip0_11_77)">
<path d="M51.9992 13.6668L60.2556 17.7186C60.4272 17.8028 60.609 17.8427 60.7881 17.8427C61.2355 17.8427 61.6657 17.5937 61.8761 17.1649C62.1707 16.5645 61.9229 15.8389 61.3225 15.5443L53.0661 11.4925C52.4659 11.1979 51.7401 11.4458 51.4455 12.046C51.1509 12.6467 51.3988 13.3721 51.9992 13.6668Z" fill="black"/>
<path d="M32.6833 50.0105C31.7553 50.9387 30.245 50.9387 29.3169 50.0105C28.844 49.5376 28.0773 49.5376 27.6043 50.0105C27.1314 50.4834 27.1314 51.2501 27.6043 51.7231C28.5405 52.6593 29.7703 53.1275 31 53.1275C32.2297 53.1275 33.4595 52.6593 34.3957 51.7231C34.8686 51.2503 34.8686 50.4835 34.3957 50.0105C33.923 49.5375 33.1562 49.5375 32.6833 50.0105Z" fill="black"/>
<path d="M28.2004 46.1814C28.2004 45.8629 28.0709 45.5505 27.8456 45.3253C27.6204 45.1 27.308 44.9705 26.9883 44.9705C26.6698 44.9705 26.3586 45.1 26.1322 45.3253C25.9069 45.5505 25.7786 45.8629 25.7786 46.1814C25.7786 46.4999 25.9069 46.8123 26.1322 47.0375C26.3586 47.2628 26.6698 47.3923 26.9883 47.3923C27.308 47.3923 27.6204 47.2628 27.8456 47.0375C28.0709 46.8124 28.2004 46.4999 28.2004 46.1814Z" fill="black"/>
<path d="M35.0118 44.9705C34.6921 44.9705 34.3809 45.1 34.1545 45.3253C33.9293 45.5505 33.7997 45.8629 33.7997 46.1814C33.7997 46.4999 33.9293 46.8123 34.1545 47.0375C34.3809 47.2628 34.6921 47.3923 35.0118 47.3923C35.3303 47.3923 35.6427 47.2628 35.868 47.0375C36.0932 46.8123 36.2216 46.4999 36.2216 46.1814C36.2216 45.8629 36.0932 45.5505 35.868 45.3253C35.6427 45.1 35.3303 44.9705 35.0118 44.9705Z" fill="black"/>
<path d="M45.838 42.5282V41.1672C45.838 32.9856 39.1818 26.3293 31 26.3293C22.8182 26.3293 16.162 32.9856 16.162 41.1672V42.5282C12.964 41.7652 9.55023 42.6985 7.18759 45.0611C5.14669 47.102 4.14682 49.9222 4.44423 52.7985C4.48068 53.1513 4.66995 53.4702 4.96202 53.6714C5.2541 53.8725 5.61956 53.9355 5.96213 53.8437L7.51587 53.4274L7.09955 54.9812C7.00776 55.3238 7.07073 55.6894 7.27187 55.9813C7.473 56.2734 7.79196 56.4627 8.1447 56.4991C8.47831 56.5336 8.81071 56.5507 9.14166 56.5507C11.6644 56.5506 14.078 55.5599 15.8822 53.7558C16.6235 53.0144 17.2238 52.1696 17.6756 51.2604C20.0941 56.1801 25.1578 59.5743 30.9999 59.5743C36.842 59.5743 41.9056 56.1801 44.3242 51.2604C44.776 52.1696 45.3764 53.0146 46.1177 53.7558C47.922 55.5601 50.3353 56.5508 52.8582 56.5508C53.1889 56.5508 53.5218 56.5338 53.8552 56.4993C54.2079 56.4628 54.5269 56.2735 54.728 55.9815C54.9291 55.6894 54.9921 55.3239 54.9003 54.9814L54.484 53.4275L56.0379 53.8438C56.3805 53.9356 56.746 53.8726 57.038 53.6715C57.3301 53.4704 57.5193 53.1514 57.5558 52.7987C57.8532 49.9223 56.8533 47.1021 54.8124 45.0612C52.4499 42.6985 49.0362 41.7652 45.838 42.5282ZM43.3981 40.4997C39.3675 40.2195 35.5387 38.4811 32.673 35.6172C33.9757 33.8475 34.9658 31.823 35.5551 29.6167C39.9578 31.3589 43.1345 35.5492 43.3981 40.4997ZM31 28.7512C31.7597 28.7512 32.5037 28.8201 33.2262 28.9515C31.4719 35.5881 25.5284 40.3351 18.5999 40.5339C18.9308 33.9807 24.3662 28.7512 31 28.7512ZM14.1697 52.043C12.9928 53.2199 11.4681 53.9329 9.84473 54.0937L10.3981 52.0283C10.5101 51.6104 10.3906 51.1645 10.0847 50.8585C9.85466 50.6284 9.54538 50.5038 9.22836 50.5038C9.12386 50.5038 9.01863 50.5173 8.91498 50.5451L6.8495 51.0986C7.01019 49.4753 7.72318 47.9505 8.90008 46.7736C10.7535 44.9201 13.4741 44.2439 15.9638 44.9795C16.6992 47.4691 16.0231 50.1897 14.1697 52.043ZM31 57.1522C24.1538 57.1522 18.5839 51.5823 18.5839 44.7361V42.9573C23.4476 42.8408 27.897 40.7835 31.1041 37.4725C34.4107 40.7074 38.8042 42.6518 43.416 42.9275V44.7359C43.4161 51.5824 37.8462 57.1522 31 57.1522ZM53.085 50.5451C52.6673 50.433 52.2213 50.5526 51.9154 50.8585C51.6095 51.1644 51.49 51.6103 51.602 52.0281L52.1554 54.0937C50.5322 53.9329 49.0071 53.2199 47.8303 52.043C45.9769 50.1897 45.3008 47.4692 46.0362 44.9793C48.5261 44.2441 51.2465 44.9201 53.0999 46.7734C54.2769 47.9503 54.9898 49.4751 55.1506 51.0985L53.085 50.5451Z" fill="black"/>
<path d="M47.6394 11.3889C47.9591 11.3889 48.2703 11.2606 48.4968 11.0341C48.722 10.8089 48.8504 10.4977 48.8504 10.178C48.8504 9.8595 48.722 9.54708 48.4968 9.32185C48.2703 9.09661 47.9591 8.96704 47.6394 8.96704C47.3209 8.96704 47.0097 9.09661 46.7833 9.32185C46.558 9.54708 46.4297 9.8595 46.4297 10.178C46.4297 10.4977 46.558 10.8101 46.7833 11.0341C47.0097 11.2606 47.3209 11.3889 47.6394 11.3889Z" fill="black"/>
<path d="M61.9585 27.0974C61.7854 26.4515 61.1215 26.0679 60.4754 26.2412L56.9603 27.183C54.0839 27.9539 51.0795 27.5583 48.5004 26.0692C46.7789 25.0753 45.5475 23.4706 45.033 21.5504C44.9498 21.2402 44.747 20.9757 44.4688 20.8151L38.6306 17.4444C37.8538 16.9959 37.5868 15.9991 38.0352 15.2225C38.2524 14.8462 38.6031 14.577 39.0228 14.4647C39.4422 14.3522 39.8806 14.4098 40.2571 14.6272L47.0249 18.5346C47.6041 18.869 48.3447 18.6706 48.679 18.0914C49.0135 17.5122 48.815 16.7716 48.2358 16.4373L32.9521 7.61492C32.4949 7.3513 32.211 6.85978 32.211 6.33206C32.211 5.80967 32.4653 5.35145 32.9086 5.07524C33.3519 4.79902 33.8752 4.77251 34.3443 5.00258L42.2044 8.85987C42.8047 9.15473 43.5304 8.90686 43.825 8.30636C44.1196 7.70598 43.8719 6.98039 43.2715 6.68577L35.4113 2.82848C34.1936 2.23077 32.7792 2.30233 31.6278 3.01981C31.3994 3.16209 31.1902 3.32569 31.0001 3.50575C30.8099 3.32557 30.6007 3.16209 30.3723 3.01981C29.2211 2.30233 27.8066 2.23077 26.5888 2.82848L0.677689 15.5443C0.0773107 15.8389 -0.170445 16.5645 0.124174 17.1649C0.334512 17.5937 0.764754 17.8427 1.21207 17.8427C1.39117 17.8427 1.57305 17.8027 1.74464 17.7185L27.6558 5.0027C28.1248 4.77251 28.6481 4.79902 29.0915 5.07536C29.5348 5.35169 29.7891 5.80979 29.7891 6.33218C29.7891 6.85978 29.5052 7.35142 29.048 7.61504L13.7643 16.4373C13.1851 16.7716 12.9867 17.5122 13.3211 18.0914C13.6553 18.6704 14.3959 18.8689 14.9752 18.5346L21.743 14.6272C22.1192 14.41 22.5576 14.3523 22.9773 14.4647C23.3969 14.5771 23.7477 14.8462 23.9649 15.2226C24.1822 15.5988 24.2399 16.0372 24.1274 16.4568C24.0149 16.8763 23.7459 17.2271 23.3695 17.4444L17.5313 20.8151C17.2531 20.9757 17.0502 21.2402 16.9671 21.5504C16.4526 23.4704 15.2212 25.0753 13.4996 26.0692C10.9206 27.5581 7.91613 27.9537 5.03969 27.183L1.52461 26.2412C0.87834 26.0681 0.21463 26.4515 0.0414672 27.0974C-0.131695 27.7435 0.251684 28.4074 0.897714 28.5806L4.4128 29.5224C5.58195 29.8357 6.76841 29.9907 7.94725 29.9907C10.2986 29.9907 12.6196 29.374 14.7106 28.1667C16.8432 26.9355 18.4083 24.9971 19.1606 22.671L24.5804 19.5418C26.5137 18.4257 27.1785 15.9448 26.0623 14.0116C25.7773 13.5181 25.3994 13.0996 24.9534 12.7723L30.2579 9.71297C30.5301 9.55591 30.7776 9.36689 30.9998 9.15437C31.222 9.36689 31.4695 9.55604 31.7418 9.71297L37.0462 12.7723C36.6002 13.0997 36.2223 13.5182 35.9374 14.0118C34.8213 15.9449 35.4859 18.4258 37.4192 19.542L42.8391 22.6712C43.5913 24.9972 45.1565 26.9356 47.2891 28.1668C49.3802 29.3741 51.7007 29.9908 54.0524 29.9908C55.231 29.9908 56.4178 29.8358 57.5868 29.5225L61.1019 28.5807C61.7482 28.4074 62.1317 27.7435 61.9585 27.0974Z" fill="black"/>
</g>
<defs>
<clipPath id="clip0_11_77">
<rect width="62" height="62" fill="white"/>
</clipPath>
</defs>
</svg>
