<svg width="50" height="50" viewBox="0 0 50 50" fill="none" xmlns="http://www.w3.org/2000/svg">
<path d="M7.19153 35.2676C7.06336 35.2676 6.94739 35.2524 6.836 35.2402L3.65759 34.8495C3.20287 34.79 2.76648 34.9335 2.43231 35.2302C2.09662 35.527 1.90436 35.9527 1.90436 36.4006V42.9741C1.90436 45.9869 4.35492 48.4375 7.367 48.4375H13.9405C14.3876 48.4375 14.8148 48.2452 15.1108 47.9103C15.4068 47.5754 15.5457 47.1291 15.4908 46.6843L15.1017 43.5188C15.0025 42.6483 15.2771 41.777 15.8555 41.1301C16.4322 40.4839 17.2272 40.1283 18.0954 40.1283C19.7617 40.1283 21.1167 41.4833 21.1167 43.1496C21.1167 43.2823 21.0999 43.4013 21.0892 43.5059L20.7001 46.685C20.6452 47.1291 20.784 47.5754 21.08 47.9103C21.3776 48.246 21.8033 48.4375 22.2504 48.4375H28.8224C31.836 48.4375 34.2865 45.9869 34.2865 42.9741V41.7594C35.113 41.4102 35.8664 40.8916 36.4762 40.2085C37.6465 38.8977 38.202 37.1391 38.0005 35.3714L37.8266 33.9455H42.6331C45.6452 33.9455 48.0957 31.4942 48.0957 28.4813V21.9086C48.0957 21.4607 47.9035 21.035 47.5693 20.7383C47.2336 20.4422 46.7957 20.3026 46.3425 20.3575L43.1778 20.7459C42.3096 20.8474 41.4353 20.5719 40.7883 19.9936C40.1429 19.4176 39.7873 18.6219 39.7873 17.7536C39.7873 16.0874 41.1423 14.7324 42.8086 14.7324C42.9367 14.7324 43.0527 14.7477 43.1641 14.7599L46.3425 15.1505C46.7942 15.2016 47.2336 15.065 47.5678 14.7698C47.9035 14.473 48.0957 14.0473 48.0957 13.5995V7.02591C48.0958 4.01306 45.6452 1.5625 42.6331 1.5625H36.0596C35.6126 1.5625 35.1853 1.75477 34.8893 2.08969C34.5933 2.42461 34.4544 2.87094 34.5094 3.31573L34.8985 6.48117C34.9976 7.35169 34.723 8.2222 34.1447 8.86994C33.5679 9.51614 32.7729 9.87167 31.9047 9.87167C30.2384 9.87167 28.8835 8.51669 28.8835 6.85044C28.8835 6.71769 28.9002 6.59867 28.9109 6.49414L29.3 3.31497C29.355 2.87094 29.2161 2.42462 28.9201 2.08969C28.6225 1.754 28.1968 1.5625 27.7497 1.5625H21.1777C18.1641 1.5625 15.7136 4.01306 15.7136 7.02591V10.8887L14.1923 10.7117C13.9695 10.6895 13.7589 10.6712 13.5316 10.6712C10.408 10.6712 7.85109 13.0299 7.47887 16.0545H7.367C4.35492 16.0545 1.90436 18.5059 1.90436 21.5187V28.0914C1.90436 28.5393 2.09662 28.965 2.43078 29.2618C2.76647 29.5578 3.2044 29.6974 3.65759 29.6425L6.82226 29.2541C7.68744 29.1542 8.56176 29.4288 9.2118 30.0064C9.85725 30.5824 10.2128 31.3782 10.2128 32.2464C10.2128 33.9127 8.8578 35.2676 7.19153 35.2676ZM13.5316 13.7962C13.6521 13.7962 13.7635 13.81 13.9146 13.8245L17.0945 14.1952C17.5462 14.2464 17.981 14.106 18.3152 13.8107C18.6478 13.514 18.8386 13.089 18.8386 12.6434V7.02591C18.8386 5.73655 19.8884 4.6875 21.1777 4.6875H25.9842L25.8072 6.12869C25.7813 6.36062 25.7584 6.59256 25.7584 6.85044C25.7584 10.2394 28.5157 12.9967 31.9047 12.9967C33.6487 12.9967 35.315 12.2513 36.4762 10.9505C37.6465 9.63973 38.202 7.88116 38.0005 6.11344L37.8266 4.6875H42.6331C43.9225 4.6875 44.9707 5.73655 44.9707 7.02591V11.8332L43.5059 11.6539C43.2831 11.6295 43.0573 11.6073 42.8086 11.6073C39.4196 11.6073 36.6623 14.3646 36.6623 17.7536C36.6623 19.4984 37.4085 21.1647 38.7085 22.3251C40.0177 23.4947 41.7649 24.044 43.5456 23.8495L44.9707 23.6748V28.4813C44.9707 29.7714 43.9225 30.8204 42.6331 30.8204H36.0596C35.6125 30.8204 35.1853 31.0127 34.8893 31.3476C34.5933 31.6825 34.4544 32.1289 34.5093 32.5737L34.8984 35.7391C34.9976 36.6096 34.723 37.4801 34.1447 38.1279C33.5679 38.7741 32.7729 39.1296 31.9047 39.1296C30.2384 39.1296 28.8834 37.7746 28.8834 36.1084C28.8834 35.9756 28.9002 35.8566 28.9109 35.7521L29.3 32.5729C29.3549 32.1289 29.2161 31.6826 28.9201 31.3476C28.6225 31.0119 28.1968 30.8204 27.7497 30.8204H21.1778C19.8884 30.8204 18.8386 29.7714 18.8386 28.4813V20.9526C18.8386 20.5047 18.6463 20.079 18.3122 19.7822C18.0238 19.5282 17.656 19.3901 17.2761 19.3901C17.2135 19.3901 17.1495 19.3939 17.0854 19.4015L13.9069 19.7914C13.0372 19.8975 12.1995 19.6365 11.5433 19.0567C10.8887 18.4769 10.5286 17.675 10.5286 16.7984C10.5286 15.1428 11.876 13.7962 13.5316 13.7962ZM11.2916 27.6749C9.98083 26.5045 8.23217 25.9529 6.45453 26.1505L5.02936 26.3252V21.5187C5.02936 20.2286 6.07764 19.1795 7.367 19.1795H7.89867C8.25162 20.0173 8.77672 20.7805 9.47119 21.3959C10.7865 22.5609 12.5367 23.1056 14.2869 22.8935L15.7136 22.7181V28.4813C15.7136 31.4942 18.1641 33.9455 21.1777 33.9455H25.9842L25.8072 35.3867C25.7813 35.6186 25.7584 35.8505 25.7584 36.1084C25.7584 39.2429 28.1258 41.8077 31.1616 42.1795V42.9741C31.1616 44.2635 30.1117 45.3125 28.8224 45.3125H24.0159L24.1929 43.8713C24.2188 43.6394 24.2417 43.4074 24.2417 43.1496C24.2417 39.7606 21.4844 37.0033 18.0955 37.0033C16.3499 37.0033 14.6836 37.7487 13.5239 39.0488C12.3536 40.3603 11.7982 42.1181 11.9996 43.8866L12.1735 45.3125H7.367C6.07762 45.3125 5.02936 44.2635 5.02936 42.9741V38.1668L6.4942 38.3461C6.71698 38.3705 6.94281 38.3927 7.19153 38.3927C10.5805 38.3927 13.3378 35.6354 13.3378 32.2464C13.3378 30.5016 12.5916 28.8353 11.2916 27.6749Z" fill="black"/>
</svg>
