<svg width="68" height="68" viewBox="0 0 68 68" fill="none" xmlns="http://www.w3.org/2000/svg">
<g clip-path="url(#clip0_11_127)">
<path d="M21.452 42.5528L19.4816 41.905C19.2751 42.5333 19.0205 43.153 18.725 43.7472L20.582 44.671C20.9217 43.9881 21.2144 43.2754 21.452 42.5528Z" fill="black"/>
<path d="M67.6684 41.1817C66.8576 37.4593 64.6457 34.2754 61.4403 32.2167L52.9452 26.7605L53.3684 26.3372C54.2793 25.4263 54.7811 24.2151 54.7811 22.9267C54.7811 21.6384 54.2795 20.4272 53.3684 19.5163C52.6634 18.8112 51.7786 18.3513 50.8175 18.1795L53.3908 15.6061C55.2713 13.7255 55.2713 10.6658 53.3908 8.78518C51.5102 6.90458 48.4506 6.90458 46.57 8.78518L45.7913 9.56377C45.6237 8.62783 45.1789 7.73212 44.457 7.01035C43.5461 6.09944 42.3348 5.59766 41.0466 5.59766C39.7583 5.59766 38.5471 6.0993 37.636 7.01035L26.7369 17.9125C27.2148 16.1837 26.7427 14.3025 25.4384 12.9982C24.4023 11.9621 22.969 11.4275 21.5079 11.5313C20.0512 11.6349 18.7129 12.3622 17.8336 13.5275L11.155 21.9358L12.7791 23.2257L19.4662 14.8068L19.4837 14.784C20.002 14.0928 20.7934 13.6614 21.655 13.6001C22.5172 13.5379 23.3611 13.854 23.972 14.4649C24.8794 15.3723 25.1037 16.7532 24.5303 17.9013L18.4941 29.986L18.7262 30.4498C18.748 30.4935 20.9027 34.8802 19.9511 40.0611L21.991 40.4358C22.8843 35.5724 21.3916 31.3997 20.8014 30.0081L24.0205 23.5633L39.1026 8.47698C39.6218 7.95777 40.3122 7.67183 41.0466 7.67183C41.7809 7.67183 42.4711 7.95777 42.9905 8.47698C44.0624 9.54884 44.0624 11.293 42.9905 12.3648L30.4123 24.943L29.8293 24.5686C28.99 24.0296 27.991 23.8496 27.0162 24.0619C26.0416 24.2741 25.2078 24.8533 24.6687 25.6926C23.5559 27.4253 24.0602 29.7403 25.7927 30.8532L26.0132 30.9948C25.5329 31.281 25.1099 31.6798 24.7878 32.1813C24.2486 33.0206 24.0686 34.0196 24.281 34.9944C24.4934 35.9691 25.0724 36.8027 25.9153 37.3441L34.4561 42.7806C33.4029 42.9624 32.445 43.5723 31.8405 44.5135C31.2294 45.4648 31.0617 46.6327 31.38 47.7175C31.6969 48.7974 32.4635 49.6861 33.4847 50.158L35.8688 51.3297L31.9938 55.2045C25.1609 62.0374 14.0428 62.0375 7.20972 55.2045C0.908786 48.9036 0.336628 38.8901 5.87901 31.9125L11.4896 24.849L9.86546 23.5591L4.2549 30.6226C-1.94329 38.426 -1.30352 49.6245 5.74323 56.6711C9.56403 60.4919 14.5829 62.4024 19.6018 62.4024C24.6207 62.4024 29.6396 60.4921 33.4604 56.6711L37.8354 52.2962L47.4419 57.0174C49.4334 57.996 51.5854 58.4826 53.7339 58.4826C56.2018 58.4826 58.6651 57.8405 60.8738 56.5648L59.8365 54.7688C56.3051 56.8084 52.0137 56.9532 48.3567 55.1561L34.3876 48.2909L34.3615 48.2785C33.8805 48.0585 33.5192 47.6412 33.3701 47.1336C33.2212 46.626 33.2997 46.0796 33.5855 45.6345C34.0102 44.9734 34.8072 44.6593 35.569 44.8524L44.5395 47.1311L45.041 47.2563L45.4438 46.9349C45.4842 46.9028 49.5297 43.7349 54.4435 44.9745L54.9508 42.9635C49.9735 41.7081 45.886 44.1004 44.5777 45.0008L39.9665 43.8294L27.0328 35.5966C26.6596 35.3569 26.402 34.9861 26.3076 34.5528C26.2132 34.1194 26.2932 33.6752 26.533 33.302C27.0277 32.5315 28.057 32.3073 28.8276 32.8021L42.4782 41.5697L43.599 39.8246L29.9484 31.057L26.9135 29.1079C26.1431 28.613 25.9189 27.5837 26.4137 26.8131C26.6533 26.44 27.0241 26.1824 27.4575 26.0881C27.8909 25.9936 28.335 26.0737 28.7082 26.3133L33.261 29.2376C33.263 29.2388 33.2648 29.24 33.2667 29.2411L45.3936 37.03L46.5144 35.2849L34.3876 27.4965C33.6172 27.0016 33.3931 25.9723 33.8878 25.2019C34.3825 24.4315 35.4119 24.2072 36.1824 24.702L38.6345 26.2769L48.4098 32.5555L49.5306 30.8104L39.885 24.6152C39.4476 24.0637 39.4039 23.2875 39.7894 22.6875C40.029 22.3143 40.3999 22.0567 40.8332 21.9624C41.2665 21.8678 41.7108 21.948 42.084 22.1876L45.848 24.6051L48.1165 26.124L60.3194 33.9619C63.0588 35.7213 64.9489 38.4421 65.6418 41.6233C66.3346 44.8045 65.7474 48.0648 63.9879 50.8042C63.283 51.9018 62.4155 52.8716 61.4098 53.6872L62.7158 55.2981C63.8935 54.3434 64.9085 53.2086 65.7329 51.9251C67.792 48.7194 68.4792 44.904 67.6684 41.1817ZM38.0445 21.5665C37.744 22.0341 37.5594 22.5496 37.4872 23.0752L37.3032 22.9569C36.8559 22.6696 36.3697 22.491 35.8756 22.4126L48.0364 10.2518C48.5556 9.7326 49.2459 9.44666 49.9803 9.44666C50.7146 9.44666 51.4049 9.7326 51.9242 10.2518C52.9961 11.3237 52.9961 13.0678 51.9242 14.1397L46.5475 19.5164L44.6763 21.3876L43.2049 20.4425C41.4722 19.3295 39.1572 19.8339 38.0445 21.5665ZM46.9938 22.8761L46.4622 22.5345L48.014 20.9827C49.0858 19.9109 50.8299 19.9109 51.9018 20.9827C52.421 21.5019 52.7069 22.1923 52.7069 22.9267C52.7069 23.661 52.421 24.3514 51.9018 24.8706L51.1592 25.6132L49.2624 24.3949L46.9938 22.8761Z" fill="black"/>
</g>
<defs>
<clipPath id="clip0_11_127">
<rect width="68" height="68" fill="white"/>
</clipPath>
</defs>
</svg>
