<svg width="30" height="30" viewBox="0 0 30 30" fill="none" xmlns="http://www.w3.org/2000/svg">
<g clip-path="url(#clip0_43_172)">
<path d="M19.1299 17.8237V20.9113V22.6771V26.2939C19.1299 26.2939 21.8134 26.2859 22.3002 26.2859C23.7819 26.2859 24.9874 25.0804 24.9874 23.5987C24.9874 22.7689 24.6092 22.0259 24.0164 21.5326C24.2498 21.16 24.3852 20.7201 24.3852 20.249C24.3852 18.9117 23.2972 17.8237 21.96 17.8237H19.1299ZM22.3002 24.5213C22.0415 24.5213 21.4237 24.5235 20.8946 24.5256V22.6761H22.3002C22.8088 22.6761 23.2227 23.09 23.2227 23.5987C23.2227 24.1074 22.8088 24.5213 22.3002 24.5213ZM22.6206 20.249C22.6206 20.6133 22.3242 20.9096 21.9601 20.9096C21.7595 20.9096 21.3109 20.91 20.8946 20.9104V19.5884H21.9601C22.3242 19.5884 22.6206 19.8848 22.6206 20.249Z" fill="white"/>
<path d="M22.9412 14.1176V0H7.05882V14.1176H0V30H30V14.1176H22.9412ZM8.82353 1.76471H21.1765V14.1176H8.82353V1.76471ZM14.1176 28.2353H1.76471V15.8824H14.1176V28.2353ZM28.2353 28.2353H15.8824V15.8824H28.2353V28.2353Z" fill="white"/>
<path d="M5.80488 26.503L6.52959 24.6002H9.357L10.0745 26.5015L11.7255 25.8784L8.70335 17.8701L7.20388 17.8716L4.15576 25.8749L5.80488 26.503ZM7.94976 20.8713L8.691 22.8355H7.20164L7.94976 20.8713Z" fill="white"/>
<path d="M18.0473 11.3052C18.1751 11.1913 18.2967 11.066 18.4086 10.9326L18.9757 10.2567L17.6238 9.12242L17.0567 9.79836C16.9995 9.86653 16.9379 9.93006 16.8737 9.9873C16.5441 10.2808 16.1225 10.4296 15.6204 10.4296C14.2583 10.4296 13.15 9.32142 13.15 7.95918C13.15 6.59695 14.2582 5.48877 15.6204 5.48877C16.1155 5.48877 16.593 5.63447 17.0011 5.91018L17.7322 6.40412L18.7201 4.94189L17.9889 4.44794C17.288 3.97442 16.469 3.72412 15.6204 3.72412C13.2851 3.72412 11.3853 5.62395 11.3853 7.95924C11.3853 10.2945 13.2851 12.1944 15.6204 12.1944C16.555 12.1943 17.3942 11.8869 18.0473 11.3052Z" fill="white"/>
</g>
<defs>
<clipPath id="clip0_43_172">
<rect width="30" height="30" fill="white"/>
</clipPath>
</defs>
</svg>
