<svg width="28" height="28" viewBox="0 0 28 28" fill="none" xmlns="http://www.w3.org/2000/svg">
<path d="M24.5563 3.44372C22.4197 1.86805 19.3864 2.04663 17.4533 3.97976C16.4214 5.01162 15.8531 6.38347 15.8531 7.8428C15.8531 8.3495 15.9218 8.84554 16.0544 9.3206C14.2158 8.80833 12.1596 9.27339 10.7165 10.7165C9.68463 11.7484 9.1164 13.1203 9.1164 14.5795C9.1164 15.0862 9.18509 15.5823 9.31771 16.0573C7.4791 15.5451 5.42292 16.0101 3.97976 17.4532C2.94795 18.4851 2.37967 19.857 2.37967 21.3163C2.37967 22.4987 2.75282 23.6235 3.44323 24.5568L0 27.9999H28V0L24.5563 3.44372ZM18.6124 5.13889C19.9045 3.84687 21.8982 3.6754 23.3775 4.62252L18.0955 9.90445C17.7035 9.29465 17.4925 8.58512 17.4925 7.8428C17.4924 6.82137 17.8901 5.86115 18.6124 5.13889ZM11.8756 11.8756C13.1676 10.5837 15.1614 10.4121 16.6407 11.3593L11.3588 16.6412C10.9667 16.0314 10.7557 15.3219 10.7557 14.5795C10.7557 13.5582 11.1534 12.5979 11.8756 11.8756ZM4.01894 21.3163C4.01894 20.295 4.41668 19.3346 5.13894 18.6124C6.4309 17.3204 8.42463 17.1489 9.90402 18.096L4.62208 23.378C4.22997 22.7681 4.01894 22.0586 4.01894 21.3163ZM26.3607 26.3607H3.95757L26.3607 3.95752V26.3607Z" fill="white"/>
<path d="M16.561 17.6941L17.7996 16.4555L18.9586 17.6145L17.72 18.8531L16.561 17.6941Z" fill="white"/>
<path d="M20.2852 21.4192L21.5237 20.1806L22.6827 21.3396L21.4441 22.5782L20.2852 21.4192Z" fill="white"/>
<path d="M20.6577 13.5986L21.8963 12.36L23.0553 13.519L21.8167 14.7576L20.6577 13.5986Z" fill="white"/>
<path d="M12.3555 21.8987L13.5941 20.6601L14.7531 21.819L13.5144 23.0576L12.3555 21.8987Z" fill="white"/>
</svg>
