<svg width="30" height="30" viewBox="0 0 30 30" fill="none" xmlns="http://www.w3.org/2000/svg">
<path d="M21.2701 18.1442C21.1061 17.9807 20.8799 17.887 20.6484 17.887C20.4171 17.887 20.1908 17.9807 20.0268 18.1442C19.8633 18.3077 19.7695 18.5344 19.7695 18.7659C19.7695 18.9973 19.8633 19.2235 20.0268 19.387C20.1909 19.551 20.4171 19.6448 20.6484 19.6448C20.8799 19.6448 21.1061 19.551 21.2701 19.387C21.4336 19.2235 21.5273 18.9967 21.5273 18.7659C21.5273 18.5344 21.4336 18.3077 21.2701 18.1442Z" fill="white"/>
<path d="M15.6216 18.1442C15.4576 17.9807 15.2314 17.887 15 17.887C14.7686 17.887 14.5418 17.9807 14.3783 18.1442C14.2148 18.3077 14.1211 18.5344 14.1211 18.7659C14.1211 18.9967 14.2148 19.2235 14.3783 19.387C14.5418 19.551 14.7686 19.6448 15 19.6448C15.2314 19.6448 15.4576 19.551 15.6216 19.387C15.7851 19.2235 15.8789 18.9967 15.8789 18.7659C15.8789 18.5344 15.7851 18.3077 15.6216 18.1442Z" fill="white"/>
<path d="M29.1211 28.2421H27.1758V14.9375H29.1211C29.4835 14.9375 29.8088 14.715 29.9402 14.3773C30.0715 14.0395 29.9821 13.6556 29.7149 13.4107L27.1758 11.0831V5.82133C27.1758 5.33594 26.7823 4.94243 26.2969 4.94243C25.8115 4.94243 25.418 5.33594 25.418 5.82133V9.47184L18.4181 3.05524C18.0821 2.74721 17.5663 2.74721 17.2303 3.05524L5.93338 13.4107C5.66619 13.6556 5.57672 14.0394 5.70815 14.3772C5.83951 14.715 6.16482 14.9375 6.52723 14.9375H8.47254V28.2421H0.878906C0.393516 28.2421 0 28.6356 0 29.121C0 29.6064 0.393516 29.9999 0.878906 29.9999H15H20.6484H29.1211C29.6065 29.9999 30 29.6064 30 29.121C30 28.6356 29.6065 28.2421 29.1211 28.2421ZM19.7695 28.242H15.8789V24.3515H19.7695V28.242ZM25.418 28.242H21.5273V23.4726C21.5273 22.9872 21.1338 22.5937 20.6484 22.5937H15C14.5146 22.5937 14.1211 22.9872 14.1211 23.4726V28.242H10.2305V14.9375H25.418V28.242ZM26.2969 13.1797H9.35156H8.78684L17.8242 4.89544L26.8615 13.1797H26.2969Z" fill="white"/>
<path d="M8.41014 3.76576H8.24092C8.15285 3.40254 8.00848 3.05051 7.80944 2.72262L7.92873 2.60332C8.27197 2.26014 8.27203 1.70361 7.92879 1.36037C7.58555 1.01707 7.02908 1.01707 6.68584 1.36031L6.56748 1.47867C6.24358 1.28115 5.89219 1.13561 5.52346 1.04625V0.878906C5.52346 0.393516 5.12994 0 4.64455 0C4.15916 0 3.76565 0.393516 3.76565 0.878906V1.04625C3.39703 1.13561 3.04565 1.28115 2.7218 1.47867L2.60338 1.36025C2.2602 1.01701 1.70367 1.01701 1.36043 1.36031C1.01719 1.70356 1.01725 2.26002 1.36049 2.60326L1.47984 2.72262C1.2808 3.05051 1.13648 3.40254 1.04836 3.7657H0.878906C0.393516 3.7657 0 4.15922 0 4.64461C0 5.13 0.393516 5.52346 0.878906 5.52346H1.04836C1.13648 5.88656 1.28074 6.23848 1.47979 6.56631L1.36043 6.68567C1.01719 7.02885 1.01713 7.58537 1.36037 7.92862C1.53199 8.1003 1.75693 8.18608 1.98188 8.18608C2.20676 8.18608 2.4317 8.1003 2.60332 7.92867L2.72174 7.81031C3.04559 8.00783 3.39697 8.15338 3.76565 8.24274V8.41026C3.76565 8.89565 4.15916 9.28916 4.64455 9.28916C5.12994 9.28916 5.52346 8.89565 5.52346 8.41026V8.24279C5.89219 8.15344 6.24363 8.00789 6.56748 7.81037L6.68578 7.92873C6.8574 8.10035 7.08235 8.18614 7.30723 8.18614C7.53217 8.18614 7.75711 8.10035 7.92873 7.92873C8.27197 7.58549 8.27197 7.02903 7.92873 6.68578L7.80938 6.56643C8.00842 6.2386 8.15274 5.88668 8.24086 5.52358H8.41014C8.89553 5.52358 9.28905 5.13006 9.28905 4.64467C9.28905 4.15928 8.89553 3.76576 8.41014 3.76576ZM6.02074 6.01945C6.02057 6.01963 6.02033 6.01981 6.02016 6.01998C6.01992 6.02016 6.01981 6.02039 6.01957 6.02063C5.65225 6.38766 5.16404 6.58981 4.64467 6.58981C4.125 6.58981 3.6365 6.38748 3.26912 6.01998C2.51068 5.2616 2.51074 4.02744 3.26912 3.26895C3.63621 2.90174 4.12424 2.69947 4.64344 2.69918C4.64379 2.69918 4.6442 2.69924 4.64455 2.69924C4.64496 2.69924 4.64531 2.69918 4.64572 2.69918C5.16457 2.69947 5.65236 2.90145 6.0194 3.26807C6.01963 3.2683 6.01986 3.26859 6.0201 3.26883C6.02033 3.26906 6.02063 3.2693 6.02092 3.26959C6.77842 4.02797 6.77836 5.26113 6.02074 6.01945Z" fill="white"/>
</svg>
