<svg width="32" height="32" viewBox="0 0 32 32" fill="none" xmlns="http://www.w3.org/2000/svg">
<g clip-path="url(#clip0_43_149)">
<path d="M27.3137 4.68635C24.2917 1.66429 20.2737 0 16 0C11.7263 0 7.70828 1.66429 4.68635 4.68635C1.66429 7.70828 0 11.7262 0 16C0 20.2738 1.66429 24.2917 4.68635 27.3137C7.70834 30.3358 11.7262 32.0001 16 32.0001C20.2738 32.0001 24.2917 30.3358 27.3137 27.3137C30.3358 24.2917 32.0001 20.2738 32.0001 16C32.0001 11.7262 30.3357 7.70828 27.3137 4.68635ZM16 30.1218C8.21327 30.1218 1.87822 23.7868 1.87822 16C1.87822 8.21327 8.21327 1.87822 16 1.87822C23.7868 1.87822 30.1218 8.21327 30.1218 16C30.1218 23.7868 23.7868 30.1218 16 30.1218Z" fill="white"/>
<path d="M16.0001 4.0144C9.39124 4.0144 4.01465 9.39106 4.01465 15.9998C4.01459 22.6087 9.39124 27.9854 16.0001 27.9854C22.6089 27.9854 27.9856 22.6087 27.9856 15.9999C27.9856 9.39106 22.6089 4.0144 16.0001 4.0144ZM5.93926 16.9665H8.10391V15.0883H5.93438C6.1222 12.9974 6.94887 11.0878 8.21811 9.55741L9.74122 11.0805L11.0693 9.75237L9.5452 8.22838C11.071 6.95889 12.9751 6.12978 15.0609 5.93664V8.07624H16.9391V5.93664C19.0193 6.12922 20.9188 6.95426 22.4426 8.21793L20.9469 9.71349L22.275 11.0416L23.7716 9.54508C25.0355 11.0642 25.8631 12.9582 26.0609 15.0333H23.9512V16.9115H26.0658C25.8792 18.9887 25.0622 20.887 23.807 22.4123L22.314 20.9192L20.9859 22.2473L22.4848 23.7462C20.9673 25.0186 19.0722 25.8544 16.9942 26.0582V23.9235H15.116V26.068C13.028 25.8862 11.1198 25.0674 9.58764 23.8067L11.1082 22.2861L9.7801 20.958L8.25373 22.4844C6.97573 20.9603 6.13842 19.0552 5.93926 16.9665Z" fill="white"/>
<path d="M16.9664 16.608V10.3928H15.0881V15.392L12.3247 16.6314L13.0934 18.3452L16.9664 16.608Z" fill="white"/>
</g>
<defs>
<clipPath id="clip0_43_149">
<rect width="32" height="32" fill="white"/>
</clipPath>
</defs>
</svg>
