<svg width="36" height="36" viewBox="0 0 36 36" fill="none" xmlns="http://www.w3.org/2000/svg">
<path d="M12.8572 11.5714C13.5643 11.5714 14.1429 10.9929 14.1429 10.2857V9.00001C14.1429 6.86573 15.8657 5.14287 18 5.14287C20.1343 5.14287 21.8572 6.86573 21.8572 9.00001V10.2857C21.8572 10.9929 22.4357 11.5714 23.1429 11.5714C23.85 11.5714 24.4286 10.9929 24.4286 10.2857V9.00001C24.4286 5.45144 21.5486 2.57144 18 2.57144C14.4515 2.57144 11.5715 5.45144 11.5715 9.00001V10.2857C11.5715 10.9929 12.15 11.5714 12.8572 11.5714ZM18 21.8572C14.4515 21.8572 11.5715 18.9772 11.5715 15.4286C11.5715 14.7214 12.15 14.1429 12.8572 14.1429C13.5643 14.1429 14.1429 14.7214 14.1429 15.4286C14.1429 17.5629 15.8657 19.2857 18 19.2857C20.1343 19.2857 21.8572 17.5629 21.8572 15.4286C21.8572 14.7214 22.4357 14.1429 23.1429 14.1429C23.85 14.1429 24.4286 14.7214 24.4286 15.4286C24.4286 18.9772 21.5486 21.8572 18 21.8572ZM32.1429 25.5857L30.8572 12.8572C30.8572 10.7229 29.1343 9.00001 27 9.00001H9.00003C6.91718 8.98716 5.20718 10.6457 5.14289 12.7286L3.85718 25.7143C3.85718 29.97 7.31575 33.4286 11.5715 33.4286H24.4286C28.71 33.4157 32.1557 29.9314 32.1429 25.65C32.1429 25.6372 32.1429 25.6114 32.1429 25.5857Z" fill="#262626"/>
</svg>
