<svg width="55" height="55" viewBox="0 0 55 55" fill="none" xmlns="http://www.w3.org/2000/svg">
<g clip-path="url(#clip0_7_230)">
<path d="M34.3008 52.8512C30.4558 52.8512 26.6669 52.4791 23.0394 51.7451C22.4444 51.6246 22.0165 51.1015 22.0165 50.4944V37.6533L15.396 35.6758C14.8555 35.5144 14.4851 35.0173 14.4851 34.4531C14.4851 33.889 14.8555 33.392 15.396 33.2304L33.9357 27.6929C34.1737 27.6217 34.4279 27.6217 34.6659 27.6929L53.1777 33.2219C53.2875 33.2519 53.3911 33.2961 53.4868 33.3524C53.8706 33.5776 54.1169 33.9929 54.1169 34.4529C54.1169 34.4644 54.1167 34.4761 54.1164 34.4874V41.1031L54.9019 42.9925C55.1724 43.6433 54.8644 44.3901 54.2137 44.6606C53.7312 44.8612 53.1954 44.7435 52.8404 44.4035C52.4855 44.7435 51.9497 44.8612 51.4672 44.6604C50.8165 44.3899 50.5083 43.643 50.779 42.9924L51.5647 41.1031V36.1663L34.6662 41.2136C34.4283 41.2848 34.1742 41.2848 33.9359 41.2136L24.5686 38.4157V49.44C27.7173 50.0105 30.9859 50.2994 34.3011 50.2994C37.6163 50.2994 40.8849 50.0105 44.0338 49.44V42.2229C44.0338 41.5183 44.6051 40.947 45.3098 40.947C46.0144 40.947 46.5858 41.5183 46.5858 42.2229V50.4944C46.5858 51.1016 46.1578 51.6246 45.5629 51.7451C41.9349 52.4791 38.146 52.8512 34.3008 52.8512ZM23.6896 35.4897L34.3007 38.6591L48.3821 34.4531L34.3007 30.2473L20.2194 34.4531L23.6262 35.4707C23.6477 35.4766 23.6689 35.4828 23.6896 35.4897ZM17.9722 45.7398C17.8462 45.7398 17.7181 45.7209 17.5913 45.6814L0.895429 40.4654C0.362702 40.2989 0 39.8056 0 39.2475V3.42442C0 3.01849 0.193154 2.63681 0.520127 2.39645C0.847101 2.15608 1.2685 2.08542 1.65656 2.20648L23.4719 9.02205L44.9284 2.31861C45.3162 2.19755 45.7379 2.26821 46.0648 2.50857C46.3918 2.74894 46.585 3.13062 46.585 3.53655V26.3198C46.585 27.0244 46.0136 27.5957 45.309 27.5957C44.6043 27.5957 44.033 27.0244 44.033 26.3198V5.27206L24.5683 11.3533V25.676C24.5683 26.3807 23.997 26.952 23.2923 26.952C22.5877 26.952 22.0163 26.3807 22.0163 25.676V11.241L2.55199 5.15993V38.3093L18.3523 43.2455C19.0249 43.4557 19.3997 44.1714 19.1897 44.844C19.0192 45.39 18.5155 45.7398 17.9722 45.7398ZM12.2845 28.8218C12.1585 28.8218 12.0302 28.803 11.9036 28.7634L8.4096 27.6717C7.73683 27.4616 7.36201 26.7458 7.57223 26.0733C7.78229 25.4009 8.49797 25.0256 9.17057 25.236L12.6646 26.3277C13.3373 26.5378 13.7122 27.2535 13.5019 27.9261C13.3314 28.472 12.8279 28.8218 12.2845 28.8218ZM30.8067 23.5671C30.2632 23.5671 29.7597 23.2173 29.589 22.6714C29.379 21.9988 29.7538 21.2831 30.4264 21.0729L37.4144 18.8898C38.0872 18.6796 38.8027 19.0546 39.0127 19.7272C39.2228 20.3998 38.848 21.1154 38.1754 21.3257L31.1874 23.5087C31.0609 23.5484 30.9328 23.5671 30.8067 23.5671ZM15.7786 23.5671C15.6525 23.5671 15.5244 23.5483 15.3976 23.5087L8.4096 21.3257C7.73699 21.1154 7.36217 20.3998 7.57223 19.7272C7.78229 19.0547 8.49813 18.6796 9.17057 18.8898L16.1586 21.0729C16.8312 21.2831 17.206 21.9988 16.9959 22.6714C16.8254 23.2173 16.3219 23.5671 15.7786 23.5671ZM30.8067 17.6104C30.2632 17.6104 29.7597 17.2607 29.589 16.7147C29.379 16.0421 29.7538 15.3264 30.4264 15.1162L37.4144 12.933C38.0872 12.7228 38.8027 13.0977 39.0127 13.7703C39.2228 14.443 38.848 15.1586 38.1754 15.3687L31.1874 17.5519C31.0609 17.5916 30.9328 17.6104 30.8067 17.6104ZM15.7785 17.6104C15.6525 17.6104 15.5242 17.5916 15.3976 17.5521L8.40976 15.3687C7.73715 15.1586 7.36233 14.443 7.57239 13.7703C7.78245 13.0977 8.49844 12.7228 9.17073 12.933L16.1587 15.1162C16.8313 15.3264 17.2062 16.0421 16.9961 16.7147C16.8254 17.2605 16.3219 17.6104 15.7785 17.6104Z" fill="white"/>
</g>
<defs>
<clipPath id="clip0_7_230">
<rect width="55" height="55" fill="white"/>
</clipPath>
</defs>
</svg>
