<svg width="58" height="58" viewBox="0 0 58 58" fill="none" xmlns="http://www.w3.org/2000/svg">
<g clip-path="url(#clip0_7_196)">
<path d="M22.2342 39.6315H18.3681V35.7654C18.3681 35.2316 17.9353 34.7988 17.4016 34.7988H13.5355C13.0017 34.7988 12.5689 35.2316 12.5689 35.7654V39.6315H8.70284C8.16907 39.6315 7.73631 40.0642 7.73631 40.598V44.4641C7.73631 44.9978 8.16907 45.4306 8.70284 45.4306H12.5689V49.2967C12.5689 49.8305 13.0017 50.2632 13.5355 50.2632H17.4016C17.9353 50.2632 18.3681 49.8305 18.3681 49.2967V45.4306H22.2342C22.768 45.4306 23.2007 44.9978 23.2007 44.4641V40.598C23.2007 40.0642 22.768 39.6315 22.2342 39.6315ZM21.2677 43.4976H17.4016C16.8678 43.4976 16.435 43.9303 16.435 44.4641V48.3302H14.502V44.4641C14.502 43.9303 14.0692 43.4976 13.5355 43.4976H9.66936V41.5645H13.5355C14.0692 41.5645 14.502 41.1317 14.502 40.598V36.7319H16.435V40.598C16.435 41.1317 16.8678 41.5645 17.4016 41.5645H21.2677V43.4976Z" fill="white"/>
<path d="M57.899 40.7652C57.1577 34.1049 50.9023 27.8737 44.2362 27.1633C43.67 27.1008 43.1009 27.0686 42.5312 27.0666H31.8995V23.2005H29.9664V21.2675C29.9664 19.1323 28.2355 17.4014 26.1003 17.4014H21.2677C20.2 17.4014 19.3346 16.536 19.3346 15.4683C19.3346 14.4007 20.2 13.5353 21.2677 13.5353H36.7321C38.8673 13.5353 40.5982 11.8043 40.5982 9.66916C40.5982 7.53399 38.8673 5.80306 36.7321 5.80306H31.8995C30.8318 5.80306 29.9664 4.93766 29.9664 3.87001V0.00390625H28.0333V3.87001C28.0333 6.00519 29.7643 7.73611 31.8995 7.73611H36.7321C37.7997 7.73611 38.6651 8.60151 38.6651 9.66916C38.6651 10.7368 37.7997 11.6022 36.7321 11.6022H21.2677C19.1325 11.6022 17.4016 13.3331 17.4016 15.4683C17.4016 17.6035 19.1325 19.3344 21.2677 19.3344H26.1003C27.1679 19.3344 28.0333 20.1998 28.0333 21.2675V23.2005H26.1003V27.0666H15.4685C14.8983 27.068 14.3284 27.1002 13.7616 27.1633C7.09261 27.8785 0.841117 34.1097 0.101725 40.77C-0.869271 49.2554 5.22226 56.9214 13.7077 57.8924C17.1631 58.2878 20.6508 57.5069 23.6076 55.6759C24.8807 54.8425 26.3358 54.3283 27.8497 54.1768C28.5976 54.1177 29.3487 54.1151 30.0969 54.1691C31.6347 54.3178 33.1133 54.8379 34.4057 55.6846C41.6709 60.1746 51.2005 57.9249 55.6905 50.6595C57.5175 47.7033 58.2955 44.2177 57.899 40.7652ZM28.0333 25.1336H29.9664V27.0666H28.0333V25.1336ZM52.6169 51.5526C48.2472 56.4403 41.0007 57.4892 35.4244 54.0414C33.8672 53.0274 32.0858 52.4093 30.2351 52.2408C29.8272 52.2112 29.4155 52.1963 28.9999 52.1963C28.5601 52.1963 28.13 52.2147 27.697 52.2485C25.8745 52.4231 24.1212 53.0351 22.586 54.0327C16.2309 57.9646 7.89156 56.0004 3.95949 49.6453C2.3588 47.0581 1.67668 44.007 2.02318 40.9846C2.65915 35.2608 8.23987 29.7014 13.9694 29.0857C14.4672 29.03 14.9676 29.0014 15.4685 28.9997H42.5312C43.032 29 43.5324 29.0267 44.0303 29.0799C49.7589 29.6956 55.3387 35.255 55.9766 40.9788C56.4323 44.8228 55.2078 48.6766 52.6169 51.5526Z" fill="white"/>
<path d="M42.5312 32.8657C40.3961 32.8657 38.6651 34.5966 38.6651 36.7318C38.6651 38.867 40.3961 40.5979 42.5312 40.5979C44.6664 40.5979 46.3973 38.867 46.3973 36.7318C46.3973 34.5966 44.6664 32.8657 42.5312 32.8657ZM42.5312 38.6649C41.4636 38.6649 40.5982 37.7995 40.5982 36.7318C40.5982 35.6642 41.4636 34.7988 42.5312 34.7988C43.5989 34.7988 44.4643 35.6642 44.4643 36.7318C44.4643 37.7995 43.5988 38.6649 42.5312 38.6649Z" fill="white"/>
<path d="M42.5312 44.4639C40.3961 44.4639 38.6651 46.1948 38.6651 48.33C38.6651 50.4651 40.3961 52.1961 42.5312 52.1961C44.6664 52.1961 46.3973 50.4651 46.3973 48.33C46.3973 46.1948 44.6664 44.4639 42.5312 44.4639ZM42.5312 50.263C41.4636 50.263 40.5982 49.3976 40.5982 48.33C40.5982 47.2623 41.4636 46.3969 42.5312 46.3969C43.5989 46.3969 44.4643 47.2623 44.4643 48.33C44.4643 49.3976 43.5988 50.263 42.5312 50.263Z" fill="white"/>
<path d="M35.7656 38.665C33.6304 38.665 31.8995 40.396 31.8995 42.5311C31.8995 44.6663 33.6304 46.3972 35.7656 46.3972C37.9007 46.3972 39.6317 44.6663 39.6317 42.5311C39.6317 40.396 37.9007 38.665 35.7656 38.665ZM35.7656 44.4642C34.6979 44.4642 33.8325 43.5988 33.8325 42.5311C33.8325 41.4635 34.6979 40.5981 35.7656 40.5981C36.8332 40.5981 37.6986 41.4635 37.6986 42.5311C37.6986 43.5988 36.8331 44.4642 35.7656 44.4642Z" fill="white"/>
<path d="M49.2969 38.665C47.1617 38.665 45.4308 40.396 45.4308 42.5311C45.4308 44.6663 47.1617 46.3972 49.2969 46.3972C51.4321 46.3972 53.163 44.6663 53.163 42.5311C53.163 40.396 51.4321 38.665 49.2969 38.665ZM49.2969 44.4642C48.2293 44.4642 47.3639 43.5988 47.3639 42.5311C47.3639 41.4635 48.2293 40.5981 49.2969 40.5981C50.3646 40.5981 51.23 41.4635 51.23 42.5311C51.23 43.5988 50.3644 44.4642 49.2969 44.4642Z" fill="white"/>
</g>
<defs>
<clipPath id="clip0_7_196">
<rect width="58" height="58" fill="white"/>
</clipPath>
</defs>
</svg>
