<svg width="86" height="86" viewBox="0 0 86 86" fill="none" xmlns="http://www.w3.org/2000/svg">
<path d="M65.2109 50.691H64.6862C64.1218 50.6917 63.5698 50.5259 63.0993 50.2144C62.6287 49.9028 62.2606 49.4593 62.041 48.9394L55.9988 34.6957C55.9948 34.6863 55.9934 34.6762 55.9894 34.6668C55.9854 34.6574 55.9787 34.6487 55.9746 34.6393L53.6903 29.2508C53.6263 29.1001 53.5316 28.9644 53.4121 28.8524C53.2927 28.7404 53.1512 28.6546 52.9967 28.6004C52.8422 28.5463 52.678 28.525 52.5148 28.538C52.3516 28.551 52.1929 28.5979 52.0489 28.6757C50.192 29.6664 48.0666 30.0362 45.9843 29.7309C43.9019 29.4256 41.9721 28.4613 40.4778 26.9792L38.9816 25.4823C38.6156 25.1327 38.3515 24.6902 38.2175 24.2022C38.0836 23.7142 38.0848 23.1989 38.221 22.7115C38.6196 21.444 38.6626 20.0914 38.3452 18.8012C38.0278 17.5109 37.3622 16.3326 36.4211 15.3947C36.2001 15.1771 35.9019 15.0558 35.5918 15.0571C35.2816 15.0585 34.9846 15.1825 34.7656 15.4021L27.3339 22.8331H27.3306L21.4053 28.759L19.7115 30.4521C19.3363 30.827 19.0387 31.2721 18.8357 31.7621C18.6326 32.2521 18.5281 32.7772 18.5281 33.3076C18.5281 33.838 18.6326 34.3631 18.8357 34.8531C19.0387 35.3431 19.3363 35.7882 19.7115 36.1631L49.233 65.6853C49.4527 65.9043 49.6825 66.1092 49.9177 66.3054H22.2391C21.9273 66.3054 21.6282 66.4293 21.4077 66.6498C21.1872 66.8703 21.0633 67.1693 21.0633 67.4812C21.0633 67.793 21.1872 68.0921 21.4077 68.3126C21.6282 68.5331 21.9273 68.657 22.2391 68.657H67.9736C69.6778 68.6552 71.3118 67.9778 72.5173 66.7732C73.7229 65.5687 74.4016 63.9353 74.4048 62.2311L74.4102 59.895V59.891C74.4033 57.4533 73.4319 55.1173 71.7082 53.3935C69.9845 51.6697 67.6486 50.6981 65.2109 50.691ZM35.5013 17.9909C35.8562 18.5886 36.0819 19.254 36.1639 19.9443C36.246 20.6345 36.1825 21.3344 35.9776 21.9986C35.7061 22.8964 35.6874 23.8517 35.9237 24.7595C36.1599 25.6672 36.6419 26.4923 37.3167 27.1438L38.8136 28.6408C40.5117 30.3244 42.6662 31.4732 45.0105 31.9451C47.3548 32.4169 49.7859 32.191 52.0032 31.2953L53.3644 34.5042L51.1714 35.4327C50.9213 35.5384 50.7155 35.7273 50.5889 35.9675C50.4623 36.2076 50.4227 36.4842 50.4769 36.7502C50.531 37.0162 50.6755 37.2553 50.8859 37.4269C51.0962 37.5985 51.3595 37.692 51.631 37.6916C51.7882 37.6917 51.9439 37.66 52.0885 37.5982L54.2828 36.669L55.6871 39.978L53.49 40.9085C53.3456 40.9672 53.2143 41.054 53.1037 41.1639C52.9932 41.2738 52.9056 41.4046 52.846 41.5487C52.7865 41.6928 52.7562 41.8472 52.7569 42.0031C52.7576 42.159 52.7893 42.3132 52.8502 42.4567C52.911 42.6003 52.9998 42.7303 53.1113 42.8392C53.2229 42.9481 53.355 43.0337 53.4999 43.0911C53.6449 43.1484 53.7998 43.1764 53.9557 43.1734C54.1115 43.1703 54.2652 43.1363 54.4078 43.0733L56.6055 42.1428L58.0091 45.4517L55.8093 46.383C55.5598 46.4889 55.3544 46.6778 55.2281 46.9177C55.1018 47.1576 55.0624 47.4338 55.1163 47.6995C55.1703 47.9652 55.3145 48.2041 55.5244 48.3757C55.7343 48.5473 55.9971 48.6411 56.2682 48.6411C56.4257 48.6415 56.5816 48.61 56.7265 48.5484L58.9235 47.6165L59.8742 49.8572C60.2737 50.8026 60.9432 51.609 61.799 52.1756C62.6547 52.7423 63.6585 53.0438 64.6848 53.0426H65.2082C67.0231 53.0477 68.7623 53.7708 70.0458 55.054C71.3293 56.3372 72.053 58.0761 72.0586 59.891V61.052H58.5875C57.5638 61.0542 56.5498 60.8534 55.6042 60.4613C54.6585 60.0692 53.8 59.4936 53.0782 58.7676L32.289 37.9818L32.4093 37.8616C33.9465 36.3209 34.8098 34.2333 34.8098 32.0569C34.8098 29.8805 33.9465 27.7929 32.4093 26.2522L29.8246 23.6675L35.5013 17.9909ZM28.1624 25.3298L30.7471 27.9145C31.8439 29.0138 32.4598 30.5033 32.4598 32.0562C32.4598 33.6091 31.8439 35.0987 30.7471 36.198L30.6261 36.3189L23.8993 29.5928L28.1624 25.3298ZM67.9736 66.3074H56.4073C55.3836 66.3097 54.3695 66.109 53.4239 65.7169C52.4782 65.3248 51.6197 64.7491 50.8979 64.023L21.3758 34.5008C21.2192 34.3444 21.0949 34.1586 21.0102 33.954C20.9254 33.7495 20.8818 33.5303 20.8818 33.3089C20.8818 33.0876 20.9254 32.8684 21.0102 32.6638C21.0949 32.4593 21.2192 32.2735 21.3758 32.117L22.2391 31.2557L29.795 38.8136L51.4126 60.4312C52.3525 61.3766 53.4707 62.126 54.7023 62.6363C55.9339 63.1465 57.2545 63.4073 58.5875 63.4036H71.8793C71.6258 64.2424 71.1093 64.9776 70.406 65.5005C69.7027 66.0234 68.85 66.3063 67.9736 66.3074Z" fill="white"/>
<path d="M13.9078 20.5757H22.0308C22.3426 20.5757 22.6417 20.4518 22.8622 20.2313C23.0827 20.0108 23.2066 19.7117 23.2066 19.3999C23.2066 19.0881 23.0827 18.789 22.8622 18.5685C22.6417 18.348 22.3426 18.2241 22.0308 18.2241H13.9078C13.596 18.2241 13.2969 18.348 13.0764 18.5685C12.8559 18.789 12.7321 19.0881 12.7321 19.3999C12.7321 19.7117 12.8559 20.0108 13.0764 20.2313C13.2969 20.4518 13.596 20.5757 13.9078 20.5757Z" fill="white"/>
<path d="M34.66 55.7979C34.6601 55.6434 34.6298 55.4905 34.5707 55.3478C34.5117 55.2051 34.425 55.0755 34.3159 54.9663C34.2067 54.8571 34.077 54.7705 33.9343 54.7114C33.7916 54.6523 33.6387 54.622 33.4843 54.6221H19.7961C19.4843 54.6221 19.1852 54.7459 18.9647 54.9665C18.7442 55.187 18.6204 55.486 18.6204 55.7979C18.6204 56.1097 18.7442 56.4088 18.9647 56.6293C19.1852 56.8498 19.4843 56.9736 19.7961 56.9736H33.4843C33.6387 56.9737 33.7916 56.9434 33.9343 56.8843C34.077 56.8253 34.2067 56.7387 34.3159 56.6295C34.425 56.5203 34.5117 56.3906 34.5707 56.2479C34.6298 56.1052 34.6601 55.9523 34.66 55.7979Z" fill="white"/>
<path d="M21.1023 41.2964C21.1023 41.142 21.072 40.989 21.0129 40.8463C20.9539 40.7036 20.8673 40.574 20.7581 40.4648C20.6489 40.3556 20.5192 40.269 20.3765 40.2099C20.2338 40.1509 20.0809 40.1205 19.9265 40.1206H12.7656C12.4538 40.1206 12.1547 40.2445 11.9342 40.465C11.7137 40.6855 11.5898 40.9846 11.5898 41.2964C11.5898 41.6082 11.7137 41.9073 11.9342 42.1278C12.1547 42.3483 12.4538 42.4722 12.7656 42.4722H19.9265C20.0809 42.4723 20.2338 42.4419 20.3765 42.3828C20.5192 42.3238 20.6489 42.2372 20.7581 42.128C20.8673 42.0188 20.9539 41.8891 21.0129 41.7464C21.072 41.6037 21.1023 41.4508 21.1023 41.2964Z" fill="white"/>
</svg>
