<svg width="65" height="65" viewBox="0 0 65 65" fill="none" xmlns="http://www.w3.org/2000/svg">
<g clip-path="url(#clip0_28_71)">
<path d="M13.584 24.1211C13.584 34.6216 22.1265 43.1641 32.627 43.1641C43.1274 43.1641 51.67 34.6216 51.67 24.1211C51.67 13.6207 43.1274 5.07812 32.627 5.07812C22.1265 5.07812 13.584 13.6207 13.584 24.1211ZM32.627 7.61719C41.7274 7.61719 49.1309 15.0207 49.1309 24.1211C49.1309 33.2216 41.7274 40.6251 32.627 40.6251C23.5265 40.6251 16.123 33.2216 16.123 24.1211C16.123 15.0207 23.5265 7.61719 32.627 7.61719Z" fill="#E8063C"/>
<path d="M20.8699 21.8578L25.7908 26.7063L24.6587 33.5206C24.5798 33.9952 24.7757 34.4733 25.165 34.756C25.5538 35.0386 26.069 35.0768 26.496 34.8556L32.627 31.6719L38.7574 34.8556C39.1809 35.0753 39.6962 35.0411 40.0885 34.756C40.4777 34.4733 40.6736 33.9952 40.5948 33.5206L39.4626 26.7063L44.3835 21.8578C44.7262 21.5206 44.8487 21.0187 44.6999 20.561C44.5512 20.1038 44.1569 19.77 43.6813 19.6981L36.8521 18.6701L33.7621 12.4905C33.5474 12.0606 33.1075 11.7888 32.627 11.7888C32.1459 11.7888 31.7066 12.0606 31.4913 12.4905L28.4013 18.6701L21.5721 19.6981C21.0965 19.7695 20.7023 20.1038 20.5535 20.561C20.4047 21.0187 20.5277 21.5206 20.8699 21.8578ZM29.4313 21.0827C29.8399 21.0212 30.193 20.7648 30.378 20.3954L32.627 15.8969L34.8759 20.3954C35.0609 20.7648 35.414 21.0212 35.8226 21.0827L40.7931 21.831L37.2112 25.3594C36.9171 25.6495 36.7822 26.0646 36.8497 26.4723L37.6739 31.4319L33.2116 29.115C33.0287 29.0198 32.8278 28.9721 32.627 28.9721C32.4261 28.9721 32.2253 29.0198 32.0418 29.115L27.5796 31.4319L28.4038 26.4723C28.4717 26.0646 28.3368 25.6495 28.0423 25.3594L24.4608 21.831L29.4313 21.0827Z" fill="#E8063C"/>
<path d="M33.8965 1.26953C33.8965 1.97075 33.3282 2.53907 32.627 2.53907C31.9257 2.53907 31.3574 1.97075 31.3574 1.26953C31.3574 0.568314 31.9257 0 32.627 0C33.3282 0 33.8965 0.568314 33.8965 1.26953Z" fill="#E8063C"/>
<path d="M26.6438 0.748307C15.9643 3.47433 8.50583 13.0856 8.50583 24.1211C8.50583 30.9751 11.3876 37.4334 16.4464 42.0071L8.79792 55.4865C8.55195 55.9204 8.5827 56.458 8.87627 56.8607C9.16985 57.2639 9.67172 57.4578 10.1602 57.3561L18.8461 55.5525L21.8989 64.155C22.0645 64.6232 22.4885 64.951 22.9835 64.9951C23.4784 65.0393 23.953 64.7898 24.1984 64.3579L32.627 49.54L41.055 64.3579C41.2821 64.7571 41.7046 64.9996 42.1579 64.9996C42.1951 64.9996 42.2328 64.9981 42.27 64.9951C42.7649 64.951 43.1889 64.6227 43.355 64.155L46.4073 55.5525L55.0932 57.3561C55.5812 57.4573 56.0836 57.2634 56.3771 56.8607C56.6712 56.458 56.7015 55.9204 56.4555 55.4865L48.8071 42.0071C53.8659 37.4334 56.7476 30.9751 56.7476 24.1211C56.7476 13.0856 49.2891 3.47433 38.6101 0.748307C37.9302 0.574738 37.2394 0.984857 37.0659 1.66426C36.8923 2.34365 37.3024 3.03495 37.9818 3.20852C47.536 5.64742 54.209 14.247 54.209 24.1211C54.209 36.1385 44.449 45.7032 32.627 45.7032C20.7965 45.7032 11.0449 36.1306 11.0449 24.1211C11.0449 14.247 17.7174 5.64742 27.2716 3.20852C27.951 3.03495 28.3611 2.34365 28.1881 1.66426C28.0145 0.984857 27.3237 0.574738 26.6438 0.748307ZM23.3638 60.6906L20.8689 53.6601C20.6567 53.062 20.0358 52.7124 19.4144 52.8413L12.3908 54.2998L18.4439 43.6318C21.9733 46.1976 26.1523 47.7607 30.498 48.1475L23.3638 60.6906ZM45.839 52.8413C45.2182 52.7124 44.5968 53.062 44.3845 53.6601L41.8901 60.6906L34.7554 48.1475C39.1016 47.7607 43.2801 46.1976 46.81 43.6318L52.8631 54.2998L45.839 52.8413Z" fill="#E8063C"/>
</g>
<defs>
<clipPath id="clip0_28_71">
<rect width="65" height="65" fill="white"/>
</clipPath>
</defs>
</svg>
