<svg width="64" height="64" viewBox="0 0 64 64" fill="none" xmlns="http://www.w3.org/2000/svg">
<g clip-path="url(#clip0_28_77)">
<path d="M34.3 28.1625L33.1 25.475L36.3375 22.2375L39.025 23.4375C39.7375 23.75 40.575 23.4375 40.9 22.725C41.2125 22.0125 40.9 21.175 40.1875 20.85L28.2875 15.55C27.75 15.3125 27.125 15.425 26.7125 15.8375C26.3 16.25 26.175 16.875 26.425 17.4125L31.725 29.3125C32.0375 30.025 32.8875 30.3625 33.6 30.025C34.275 29.7125 34.6 28.875 34.3 28.1625ZM31.8625 22.7L30.5 19.65L33.5625 21.0125L31.8625 22.7Z" fill="#20A625"/>
<path d="M56.9875 30.2375H46.6125L50.925 25.925C53.5625 23.2875 53.5625 19 50.925 16.3625L36.775 2.225C35.5 0.95 33.8 0.25 32 0.25C30.2 0.25 28.5 0.95 27.225 2.225L13.0875 16.3625C10.45 19 10.45 23.2875 13.0875 25.925L17.4 30.2375H7.025C3.2875 30.2375 0.25 33.275 0.25 37V56.9875C0.25 60.7125 3.2875 63.75 7.0125 63.75H27C28.975 63.75 30.7625 62.8875 32 61.525C33.2375 62.8875 35.0125 63.75 37 63.75H56.9875C60.7125 63.75 63.75 60.7125 63.75 56.9875V37C63.75 33.275 60.7125 30.2375 56.9875 30.2375ZM30.2375 56.9875C30.2375 58.775 28.7875 60.225 27 60.225H7.0125C5.225 60.225 3.775 58.775 3.775 56.9875V37C3.775 35.2125 5.225 33.7625 7.0125 33.7625H20.925L27.225 40.0625C28.075 40.9125 29.1125 41.5125 30.2375 41.8125V56.9875ZM32 38.5125C31.1375 38.5125 30.325 38.175 29.7125 37.5625L15.575 23.4375C14.3125 22.175 14.3125 20.125 15.575 18.8625L29.7125 4.725C30.325 4.1125 31.1375 3.775 32 3.775C32.8625 3.775 33.675 4.1125 34.2875 4.725L48.425 18.8625C49.6875 20.125 49.6875 22.175 48.425 23.4375L34.2875 37.575C33.675 38.175 32.8625 38.5125 32 38.5125ZM60.225 56.9875C60.225 58.775 58.775 60.225 56.9875 60.225H37C35.2125 60.225 33.7625 58.775 33.7625 56.9875V41.8125C34.8875 41.5125 35.925 40.9125 36.775 40.0625L43.075 33.7625H56.9875C58.775 33.7625 60.225 35.2125 60.225 37V56.9875Z" fill="#20A625"/>
<path d="M17.0875 39.5H13.9C13.1125 39.5 12.4875 40.1375 12.4875 40.9125V46.9875V47V47.0125V53.0875C12.4875 53.875 13.125 54.5 13.9 54.5H17.0875C19.5375 54.5 21.5375 52.5 21.5375 50.05C21.5375 48.875 21.075 47.8 20.3125 47.0125C21.0625 46.2125 21.5375 45.15 21.5375 43.975C21.5375 41.5 19.5375 39.5 17.0875 39.5ZM17.0875 51.65H15.3125V48.4125H17.0875C17.975 48.4125 18.7 49.1375 18.7 50.025C18.7 50.925 17.975 51.65 17.0875 51.65ZM17.0875 45.5625H15.3125V42.325H17.0875C17.975 42.325 18.7 43.05 18.7 43.9375C18.7 44.8375 17.975 45.5625 17.0875 45.5625Z" fill="#20A625"/>
<path d="M47.5875 39.5C43.45 39.5 40.0875 42.8625 40.0875 47C40.0875 51.1375 43.45 54.5 47.5875 54.5C49.675 54.5 51.6875 53.6125 53.1 52.075C53.625 51.5 53.5875 50.6 53.0125 50.075C52.4375 49.55 51.5375 49.5875 51.0125 50.1625C50.1375 51.125 48.8875 51.6625 47.5875 51.6625C45.0125 51.6625 42.925 49.575 42.925 47C42.925 44.425 45.0125 42.3375 47.5875 42.3375C49.0875 42.3375 50.45 43.025 51.3375 44.225C51.8 44.85 52.6875 44.9875 53.325 44.525C53.95 44.0625 54.0875 43.175 53.625 42.5375C52.2125 40.6375 49.95 39.5 47.5875 39.5Z" fill="#20A625"/>
</g>
<defs>
<clipPath id="clip0_28_77">
<rect width="64" height="64" fill="white"/>
</clipPath>
</defs>
</svg>
