<svg width="66" height="66" viewBox="0 0 66 66" fill="none" xmlns="http://www.w3.org/2000/svg">
<g clip-path="url(#clip0_28_251)">
<path d="M25.3009 45.0978H20.9016V40.6985C20.9016 40.0911 20.4091 39.5986 19.8017 39.5986H15.4024C14.795 39.5986 14.3025 40.0911 14.3025 40.6985V45.0978H9.90318C9.2958 45.0978 8.80334 45.5903 8.80334 46.1977V50.597C8.80334 51.2044 9.2958 51.6969 9.90318 51.6969H14.3025V56.0962C14.3025 56.7036 14.795 57.1961 15.4024 57.1961H19.8017C20.4091 57.1961 20.9016 56.7036 20.9016 56.0962V51.6969H25.3009C25.9083 51.6969 26.4008 51.2044 26.4008 50.597V46.1977C26.4008 45.5903 25.9083 45.0978 25.3009 45.0978ZM24.2011 49.4972H19.8017C19.1944 49.4972 18.7019 49.9896 18.7019 50.597V54.9964H16.5022V50.597C16.5022 49.9896 16.0098 49.4972 15.4024 49.4972H11.003V47.2975H15.4024C16.0098 47.2975 16.5022 46.8051 16.5022 46.1977V41.7983H18.7019V46.1977C18.7019 46.8051 19.1944 47.2975 19.8017 47.2975H24.2011V49.4972Z" fill="#E2B619"/>
<path d="M65.885 46.3879C65.0415 38.8089 57.9233 31.7183 50.3377 30.9099C49.6935 30.8388 49.0458 30.8021 48.3976 30.7999H36.2993V26.4005H34.0997V24.2009C34.0997 21.7712 32.13 19.8015 29.7003 19.8015H24.2011C22.9862 19.8015 22.0014 18.8167 22.0014 17.6018C22.0014 16.3869 22.9862 15.4021 24.2011 15.4021H41.7985C44.2282 15.4021 46.1979 13.4325 46.1979 11.0028C46.1979 8.57311 44.2282 6.60343 41.7985 6.60343H36.2993C35.0844 6.60343 34.0997 5.61866 34.0997 4.40375V0.00439453H31.9V4.40375C31.9 6.83344 33.8697 8.80311 36.2993 8.80311H41.7985C43.0135 8.80311 43.9982 9.78788 43.9982 11.0028C43.9982 12.2177 43.0135 13.2025 41.7985 13.2025H24.2011C21.7714 13.2025 19.8018 15.1721 19.8018 17.6018C19.8018 20.0315 21.7714 22.0012 24.2011 22.0012H29.7003C30.9152 22.0012 31.9 22.986 31.9 24.2009V26.4005H29.7003V30.7999H17.6021C16.9532 30.8014 16.3047 30.8381 15.6598 30.9099C8.07086 31.7238 0.957098 38.8144 0.115721 46.3934C-0.989205 56.0492 5.94253 64.7726 15.5984 65.8775C19.5304 66.3275 23.4991 65.4388 26.8638 63.3553C28.3124 62.407 29.9683 61.8218 31.691 61.6494C32.542 61.5822 33.3967 61.5792 34.2481 61.6406C35.9981 61.8099 37.6806 62.4017 39.1512 63.3652C47.4186 68.4745 58.2626 65.9145 63.3719 57.647C65.4509 54.283 66.3362 50.3167 65.885 46.3879ZM31.9 28.6002H34.0997V30.7999H31.9V28.6002ZM59.8744 58.6632C54.9019 64.2251 46.656 65.4187 40.3105 61.4953C38.5385 60.3415 36.5113 59.6381 34.4054 59.4463C33.9413 59.4126 33.4728 59.3957 32.9998 59.3957C32.4994 59.3957 32.01 59.4166 31.5172 59.4551C29.4434 59.6538 27.4482 60.3503 25.7013 61.4854C18.4696 65.9597 8.98002 63.7246 4.50559 56.4928C2.68412 53.5488 1.90791 50.0769 2.3022 46.6376C3.0259 40.1243 9.37637 33.7981 15.8962 33.0975C16.4626 33.0341 17.0321 33.0015 17.6021 32.9996H48.3976C48.9674 33 49.5369 33.0304 50.1034 33.0909C56.6222 33.7915 62.9716 40.1177 63.6975 46.631C64.216 51.0052 62.8227 55.3905 59.8744 58.6632Z" fill="#E2B619"/>
<path d="M48.3976 37.3989C45.968 37.3989 43.9983 39.3686 43.9983 41.7983C43.9983 44.228 45.968 46.1976 48.3976 46.1976C50.8273 46.1976 52.797 44.228 52.797 41.7983C52.797 39.3686 50.8273 37.3989 48.3976 37.3989ZM48.3976 43.998C47.1827 43.998 46.198 43.0132 46.198 41.7983C46.198 40.5834 47.1827 39.5986 48.3976 39.5986C49.6126 39.5986 50.5973 40.5834 50.5973 41.7983C50.5973 43.0132 49.6124 43.998 48.3976 43.998Z" fill="#E2B619"/>
<path d="M48.3976 50.597C45.968 50.597 43.9983 52.5667 43.9983 54.9964C43.9983 57.4261 45.968 59.3958 48.3976 59.3958C50.8273 59.3958 52.797 57.4261 52.797 54.9964C52.797 52.5667 50.8273 50.597 48.3976 50.597ZM48.3976 57.1961C47.1827 57.1961 46.198 56.2113 46.198 54.9964C46.198 53.7815 47.1827 52.7967 48.3976 52.7967C49.6126 52.7967 50.5973 53.7815 50.5973 54.9964C50.5973 56.2113 49.6124 57.1961 48.3976 57.1961Z" fill="#E2B619"/>
<path d="M40.6988 43.998C38.2691 43.998 36.2994 45.9677 36.2994 48.3973C36.2994 50.827 38.2691 52.7967 40.6988 52.7967C43.1285 52.7967 45.0982 50.827 45.0982 48.3973C45.0982 45.9677 43.1285 43.998 40.6988 43.998ZM40.6988 50.597C39.4839 50.597 38.4991 49.6123 38.4991 48.3973C38.4991 47.1824 39.4839 46.1977 40.6988 46.1977C41.9137 46.1977 42.8985 47.1824 42.8985 48.3973C42.8985 49.6123 41.9136 50.597 40.6988 50.597Z" fill="#E2B619"/>
<path d="M56.0965 43.998C53.6668 43.998 51.6971 45.9677 51.6971 48.3973C51.6971 50.827 53.6668 52.7967 56.0965 52.7967C58.5262 52.7967 60.4959 50.827 60.4959 48.3973C60.4959 45.9677 58.5262 43.998 56.0965 43.998ZM56.0965 50.597C54.8816 50.597 53.8968 49.6123 53.8968 48.3973C53.8968 47.1824 54.8816 46.1977 56.0965 46.1977C57.3114 46.1977 58.2962 47.1824 58.2962 48.3973C58.2962 49.6123 57.3113 50.597 56.0965 50.597Z" fill="#E2B619"/>
</g>
<defs>
<clipPath id="clip0_28_251">
<rect width="66" height="66" fill="white"/>
</clipPath>
</defs>
</svg>
