<svg width="235" height="72" viewBox="0 0 235 72" fill="none" xmlns="http://www.w3.org/2000/svg">
<g clip-path="url(#clip0_1_146)">
<mask id="mask0_1_146" style="mask-type:alpha" maskUnits="userSpaceOnUse" x="0" y="0" width="235" height="72">
<path d="M234.643 0.189453H0.520508V71.7603H234.643V0.189453Z" fill="#D9D9D9"/>
</mask>
<g mask="url(#mask0_1_146)">
<path d="M75.5605 59.206V68.306H76.6655V59.206H75.5605ZM80.2405 59.206L76.3275 63.496L80.4355 68.306H81.8005L77.6665 63.47L81.6055 59.206H80.2405ZM83.3661 59.856C83.3661 60.0466 83.4354 60.2156 83.5741 60.363C83.7214 60.5016 83.8904 60.571 84.0811 60.571C84.2804 60.571 84.4494 60.5016 84.5881 60.363C84.7268 60.2156 84.7961 60.0466 84.7961 59.856C84.7961 59.6566 84.7268 59.4876 84.5881 59.349C84.4494 59.2103 84.2804 59.141 84.0811 59.141C83.8904 59.141 83.7214 59.2103 83.5741 59.349C83.4354 59.4876 83.3661 59.6566 83.3661 59.856ZM83.5611 62.326V68.306H84.6011V62.326H83.5611ZM91.098 64.666V68.306H92.138V64.536C92.138 64.0506 92.0514 63.6346 91.878 63.288C91.7134 62.9413 91.4794 62.6726 91.176 62.482C90.8727 62.2913 90.5087 62.196 90.084 62.196C89.694 62.196 89.3474 62.2826 89.044 62.456C88.7494 62.6293 88.5024 62.898 88.303 63.262V62.326H87.263V68.306H88.303V64.666C88.303 64.3713 88.3637 64.1113 88.485 63.886C88.615 63.6606 88.7927 63.4873 89.018 63.366C89.252 63.236 89.5207 63.171 89.824 63.171C90.1014 63.171 90.3354 63.2273 90.526 63.34C90.7167 63.4526 90.8597 63.6216 90.955 63.847C91.0504 64.0636 91.098 64.3366 91.098 64.666ZM99.0981 58.166V68.306H100.138V58.166H99.0981ZM94.0931 65.316C94.0931 65.9573 94.2275 66.512 94.4961 66.98C94.7648 67.448 95.1245 67.8076 95.5751 68.059C96.0258 68.3103 96.5198 68.436 97.0571 68.436C97.4298 68.436 97.7678 68.3666 98.0711 68.228C98.3831 68.0806 98.6475 67.8726 98.8641 67.604C99.0895 67.3353 99.2628 67.0103 99.3841 66.629C99.5055 66.239 99.5661 65.8013 99.5661 65.316C99.5661 64.8306 99.5055 64.3973 99.3841 64.016C99.2628 63.626 99.0895 63.2966 98.8641 63.028C98.6475 62.7593 98.3831 62.5556 98.0711 62.417C97.7678 62.2696 97.4298 62.196 97.0571 62.196C96.5198 62.196 96.0258 62.3216 95.5751 62.573C95.1245 62.8243 94.7648 63.184 94.4961 63.652C94.2275 64.1113 94.0931 64.666 94.0931 65.316ZM95.1461 65.316C95.1461 64.8566 95.2371 64.4666 95.4191 64.146C95.6098 63.8253 95.8611 63.5826 96.1731 63.418C96.4851 63.2533 96.8231 63.171 97.1871 63.171C97.4125 63.171 97.6378 63.2186 97.8631 63.314C98.0885 63.4093 98.2921 63.548 98.4741 63.73C98.6648 63.912 98.8165 64.1373 98.9291 64.406C99.0418 64.666 99.0981 64.9693 99.0981 65.316C99.0981 65.6626 99.0418 65.9703 98.9291 66.239C98.8165 66.499 98.6648 66.72 98.4741 66.902C98.2921 67.084 98.0885 67.2226 97.8631 67.318C97.6378 67.4133 97.4125 67.461 97.1871 67.461C96.8231 67.461 96.4851 67.3786 96.1731 67.214C95.8611 67.0493 95.6098 66.8066 95.4191 66.486C95.2371 66.1653 95.1461 65.7753 95.1461 65.316ZM104.861 68.436C105.503 68.436 106.057 68.3103 106.525 68.059C107.002 67.799 107.396 67.4176 107.708 66.915L106.863 66.382C106.647 66.746 106.382 67.019 106.07 67.201C105.758 67.3743 105.399 67.461 104.991 67.461C104.584 67.461 104.237 67.3743 103.951 67.201C103.665 67.0276 103.449 66.7763 103.301 66.447C103.154 66.1176 103.08 65.719 103.08 65.251C103.08 64.913 103.124 64.6096 103.21 64.341C103.297 64.0723 103.423 63.847 103.587 63.665C103.752 63.483 103.951 63.3443 104.185 63.249C104.428 63.1536 104.697 63.106 104.991 63.106C105.329 63.106 105.624 63.1796 105.875 63.327C106.127 63.4743 106.322 63.678 106.46 63.938C106.608 64.198 106.681 64.5056 106.681 64.861C106.681 64.9216 106.668 64.9996 106.642 65.095C106.616 65.1816 106.59 65.2466 106.564 65.29L106.98 64.692H102.69V65.576H107.799C107.799 65.5586 107.799 65.5196 107.799 65.459C107.808 65.3896 107.812 65.3246 107.812 65.264C107.812 64.6313 107.7 64.0853 107.474 63.626C107.249 63.1666 106.924 62.8156 106.499 62.573C106.083 62.3216 105.581 62.196 104.991 62.196C104.549 62.196 104.146 62.274 103.782 62.43C103.418 62.5773 103.106 62.7896 102.846 63.067C102.586 63.3356 102.383 63.6606 102.235 64.042C102.097 64.4233 102.027 64.848 102.027 65.316C102.027 65.9313 102.144 66.473 102.378 66.941C102.621 67.409 102.955 67.7773 103.379 68.046C103.813 68.306 104.307 68.436 104.861 68.436ZM110.798 62.326H109.758V68.306H110.798V62.326ZM112.605 63.47L113.177 62.612C113.021 62.4473 112.847 62.339 112.657 62.287C112.475 62.2263 112.275 62.196 112.059 62.196C111.781 62.196 111.508 62.3043 111.24 62.521C110.971 62.7376 110.75 63.0323 110.577 63.405C110.412 63.769 110.33 64.1893 110.33 64.666H110.798C110.798 64.38 110.824 64.1243 110.876 63.899C110.936 63.6736 111.04 63.496 111.188 63.366C111.335 63.236 111.539 63.171 111.799 63.171C111.972 63.171 112.115 63.197 112.228 63.249C112.34 63.2923 112.466 63.366 112.605 63.47ZM114.14 68.696C114.14 69.2073 114.266 69.658 114.517 70.048C114.769 70.4466 115.115 70.7543 115.557 70.971C116.008 71.1876 116.524 71.296 117.104 71.296C117.607 71.296 118.084 71.179 118.534 70.945C118.985 70.711 119.353 70.36 119.639 69.892C119.925 69.4326 120.068 68.8606 120.068 68.176V62.326H119.028V68.176C119.028 68.6786 118.929 69.086 118.729 69.398C118.539 69.7186 118.296 69.9526 118.001 70.1C117.707 70.2473 117.408 70.321 117.104 70.321C116.714 70.321 116.376 70.243 116.09 70.087C115.804 69.9396 115.583 69.7403 115.427 69.489C115.271 69.2463 115.193 68.982 115.193 68.696H114.14ZM114.023 65.316C114.023 65.9573 114.158 66.512 114.426 66.98C114.695 67.448 115.055 67.8076 115.505 68.059C115.956 68.3103 116.45 68.436 116.987 68.436C117.36 68.436 117.698 68.3666 118.001 68.228C118.313 68.0806 118.578 67.8726 118.794 67.604C119.02 67.3353 119.193 67.0103 119.314 66.629C119.436 66.239 119.496 65.8013 119.496 65.316C119.496 64.8306 119.436 64.3973 119.314 64.016C119.193 63.626 119.02 63.2966 118.794 63.028C118.578 62.7593 118.313 62.5556 118.001 62.417C117.698 62.2696 117.36 62.196 116.987 62.196C116.45 62.196 115.956 62.3216 115.505 62.573C115.055 62.8243 114.695 63.184 114.426 63.652C114.158 64.1113 114.023 64.666 114.023 65.316ZM115.076 65.316C115.076 64.8566 115.167 64.4666 115.349 64.146C115.54 63.8253 115.791 63.5826 116.103 63.418C116.415 63.2533 116.753 63.171 117.117 63.171C117.343 63.171 117.568 63.2186 117.793 63.314C118.019 63.4093 118.222 63.548 118.404 63.73C118.595 63.912 118.747 64.1373 118.859 64.406C118.972 64.666 119.028 64.9693 119.028 65.316C119.028 65.6626 118.972 65.9703 118.859 66.239C118.747 66.499 118.595 66.72 118.404 66.902C118.222 67.084 118.019 67.2226 117.793 67.318C117.568 67.4133 117.343 67.461 117.117 67.461C116.753 67.461 116.415 67.3786 116.103 67.214C115.791 67.0493 115.54 66.8066 115.349 66.486C115.167 66.1653 115.076 65.7753 115.076 65.316ZM122.945 66.46C122.945 66.2433 122.997 66.057 123.101 65.901C123.205 65.745 123.361 65.6236 123.569 65.537C123.786 65.4503 124.063 65.407 124.401 65.407C124.765 65.407 125.108 65.4546 125.428 65.55C125.749 65.6366 126.061 65.784 126.364 65.992V65.381C126.304 65.303 126.187 65.2033 126.013 65.082C125.84 64.952 125.606 64.8393 125.311 64.744C125.025 64.64 124.666 64.588 124.232 64.588C123.747 64.588 123.327 64.6703 122.971 64.835C122.625 64.991 122.356 65.212 122.165 65.498C121.983 65.784 121.892 66.122 121.892 66.512C121.892 66.9193 121.988 67.266 122.178 67.552C122.369 67.838 122.62 68.059 122.932 68.215C123.253 68.3623 123.595 68.436 123.959 68.436C124.289 68.436 124.618 68.3753 124.947 68.254C125.285 68.1326 125.567 67.9463 125.792 67.695C126.026 67.4436 126.143 67.1273 126.143 66.746L125.935 65.966C125.935 66.278 125.857 66.5553 125.701 66.798C125.554 67.032 125.35 67.214 125.09 67.344C124.839 67.474 124.553 67.539 124.232 67.539C123.981 67.539 123.756 67.5 123.556 67.422C123.366 67.3353 123.214 67.2096 123.101 67.045C122.997 66.8803 122.945 66.6853 122.945 66.46ZM122.789 63.704C122.885 63.6346 123.015 63.5523 123.179 63.457C123.344 63.3616 123.543 63.2793 123.777 63.21C124.02 63.1406 124.289 63.106 124.583 63.106C124.765 63.106 124.939 63.1233 125.103 63.158C125.268 63.1926 125.411 63.249 125.532 63.327C125.662 63.405 125.762 63.5133 125.831 63.652C125.901 63.782 125.935 63.951 125.935 64.159V68.306H126.975V64.016C126.975 63.626 126.876 63.2966 126.676 63.028C126.486 62.7593 126.213 62.5556 125.857 62.417C125.511 62.2696 125.103 62.196 124.635 62.196C124.081 62.196 123.604 62.2783 123.205 62.443C122.815 62.6076 122.508 62.7723 122.282 62.937L122.789 63.704ZM130.296 62.326H129.256V68.306H130.296V62.326ZM132.103 63.47L132.675 62.612C132.519 62.4473 132.346 62.339 132.155 62.287C131.973 62.2263 131.774 62.196 131.557 62.196C131.28 62.196 131.007 62.3043 130.738 62.521C130.469 62.7376 130.248 63.0323 130.075 63.405C129.91 63.769 129.828 64.1893 129.828 64.666H130.296C130.296 64.38 130.322 64.1243 130.374 63.899C130.435 63.6736 130.539 63.496 130.686 63.366C130.833 63.236 131.037 63.171 131.297 63.171C131.47 63.171 131.613 63.197 131.726 63.249C131.839 63.2923 131.964 63.366 132.103 63.47ZM133.322 62.326V63.301H136.312V62.326H133.322ZM134.297 60.246V68.306H135.337V60.246H134.297ZM140.189 68.436C140.831 68.436 141.385 68.3103 141.853 68.059C142.33 67.799 142.724 67.4176 143.036 66.915L142.191 66.382C141.975 66.746 141.71 67.019 141.398 67.201C141.086 67.3743 140.727 67.461 140.319 67.461C139.912 67.461 139.565 67.3743 139.279 67.201C138.993 67.0276 138.777 66.7763 138.629 66.447C138.482 66.1176 138.408 65.719 138.408 65.251C138.408 64.913 138.452 64.6096 138.538 64.341C138.625 64.0723 138.751 63.847 138.915 63.665C139.08 63.483 139.279 63.3443 139.513 63.249C139.756 63.1536 140.025 63.106 140.319 63.106C140.657 63.106 140.952 63.1796 141.203 63.327C141.455 63.4743 141.65 63.678 141.788 63.938C141.936 64.198 142.009 64.5056 142.009 64.861C142.009 64.9216 141.996 64.9996 141.97 65.095C141.944 65.1816 141.918 65.2466 141.892 65.29L142.308 64.692H138.018V65.576H143.127C143.127 65.5586 143.127 65.5196 143.127 65.459C143.136 65.3896 143.14 65.3246 143.14 65.264C143.14 64.6313 143.028 64.0853 142.802 63.626C142.577 63.1666 142.252 62.8156 141.827 62.573C141.411 62.3216 140.909 62.196 140.319 62.196C139.877 62.196 139.474 62.274 139.11 62.43C138.746 62.5773 138.434 62.7896 138.174 63.067C137.914 63.3356 137.711 63.6606 137.563 64.042C137.425 64.4233 137.355 64.848 137.355 65.316C137.355 65.9313 137.472 66.473 137.706 66.941C137.949 67.409 138.283 67.7773 138.707 68.046C139.141 68.306 139.635 68.436 140.189 68.436ZM148.921 64.666V68.306H149.961V64.536C149.961 64.0506 149.874 63.6346 149.701 63.288C149.536 62.9413 149.302 62.6726 148.999 62.482C148.695 62.2913 148.331 62.196 147.907 62.196C147.517 62.196 147.17 62.2826 146.867 62.456C146.572 62.6293 146.325 62.898 146.126 63.262V62.326H145.086V68.306H146.126V64.666C146.126 64.3713 146.186 64.1113 146.308 63.886C146.438 63.6606 146.615 63.4873 146.841 63.366C147.075 63.236 147.343 63.171 147.647 63.171C147.924 63.171 148.158 63.2273 148.349 63.34C148.539 63.4526 148.682 63.6216 148.778 63.847C148.873 64.0636 148.921 64.3366 148.921 64.666ZM158.777 63.314L163.145 68.306H164.393L159.583 62.781C159.41 62.5816 159.236 62.391 159.063 62.209C158.898 62.0183 158.76 61.832 158.647 61.65C158.543 61.468 158.491 61.2773 158.491 61.078C158.491 60.8526 158.534 60.662 158.621 60.506C158.716 60.3413 158.846 60.2156 159.011 60.129C159.184 60.0336 159.388 59.986 159.622 59.986C159.865 59.986 160.068 60.0336 160.233 60.129C160.398 60.2243 160.523 60.3543 160.61 60.519C160.705 60.6836 160.753 60.8786 160.753 61.104C160.753 61.3033 160.688 61.507 160.558 61.715C160.437 61.9143 160.259 62.1136 160.025 62.313C159.791 62.5123 159.509 62.703 159.18 62.885C159.007 62.9803 158.799 63.0886 158.556 63.21C158.313 63.3226 158.066 63.457 157.815 63.613C157.564 63.769 157.33 63.9553 157.113 64.172C156.905 64.3886 156.732 64.64 156.593 64.926C156.463 65.212 156.398 65.5456 156.398 65.927C156.398 66.4383 156.537 66.8846 156.814 67.266C157.1 67.6386 157.464 67.929 157.906 68.137C158.357 68.3363 158.829 68.436 159.323 68.436C159.904 68.436 160.437 68.3276 160.922 68.111C161.407 67.8943 161.858 67.6083 162.274 67.253C162.69 66.8976 163.08 66.499 163.444 66.057C163.808 65.6063 164.163 65.1556 164.51 64.705L163.704 64.198C163.392 64.6226 163.067 65.03 162.729 65.42C162.4 65.81 162.057 66.161 161.702 66.473C161.347 66.7763 160.974 67.019 160.584 67.201C160.203 67.383 159.804 67.474 159.388 67.474C159.041 67.474 158.725 67.409 158.439 67.279C158.153 67.149 157.923 66.9626 157.75 66.72C157.585 66.4773 157.503 66.1913 157.503 65.862C157.503 65.5326 157.581 65.251 157.737 65.017C157.893 64.783 158.092 64.5793 158.335 64.406C158.586 64.224 158.851 64.0636 159.128 63.925C159.405 63.7776 159.661 63.6346 159.895 63.496C160.198 63.314 160.467 63.132 160.701 62.95C160.935 62.7593 161.134 62.5643 161.299 62.365C161.464 62.157 161.589 61.949 161.676 61.741C161.763 61.533 161.806 61.3206 161.806 61.104C161.806 60.74 161.719 60.4063 161.546 60.103C161.373 59.791 161.121 59.5396 160.792 59.349C160.471 59.1583 160.081 59.063 159.622 59.063C159.189 59.063 158.803 59.1453 158.465 59.31C158.136 59.4746 157.876 59.7086 157.685 60.012C157.494 60.3153 157.399 60.6706 157.399 61.078C157.399 61.4073 157.481 61.7106 157.646 61.988C157.819 62.2653 158.014 62.5166 158.231 62.742C158.456 62.9586 158.638 63.1493 158.777 63.314ZM170.628 59.206V68.306H171.733V59.206H170.628ZM171.239 60.246H173.098C173.488 60.246 173.83 60.311 174.125 60.441C174.428 60.5623 174.662 60.7486 174.827 61C175 61.2513 175.087 61.5633 175.087 61.936C175.087 62.3086 175 62.6206 174.827 62.872C174.662 63.1233 174.428 63.314 174.125 63.444C173.83 63.5653 173.488 63.626 173.098 63.626H171.239V64.666H173.098C173.687 64.666 174.212 64.5576 174.671 64.341C175.139 64.1156 175.507 63.7993 175.776 63.392C176.053 62.976 176.192 62.4906 176.192 61.936C176.192 61.3726 176.053 60.8873 175.776 60.48C175.507 60.0726 175.139 59.7606 174.671 59.544C174.212 59.3186 173.687 59.206 173.098 59.206H171.239V60.246ZM178.991 62.326H177.951V68.306H178.991V62.326ZM180.798 63.47L181.37 62.612C181.214 62.4473 181.041 62.339 180.85 62.287C180.668 62.2263 180.469 62.196 180.252 62.196C179.975 62.196 179.702 62.3043 179.433 62.521C179.165 62.7376 178.944 63.0323 178.77 63.405C178.606 63.769 178.523 64.1893 178.523 64.666H178.991C178.991 64.38 179.017 64.1243 179.069 63.899C179.13 63.6736 179.234 63.496 179.381 63.366C179.529 63.236 179.732 63.171 179.992 63.171C180.166 63.171 180.309 63.197 180.421 63.249C180.534 63.2923 180.66 63.366 180.798 63.47ZM185.051 68.436C185.692 68.436 186.247 68.3103 186.715 68.059C187.192 67.799 187.586 67.4176 187.898 66.915L187.053 66.382C186.836 66.746 186.572 67.019 186.26 67.201C185.948 67.3743 185.588 67.461 185.181 67.461C184.774 67.461 184.427 67.3743 184.141 67.201C183.855 67.0276 183.638 66.7763 183.491 66.447C183.344 66.1176 183.27 65.719 183.27 65.251C183.27 64.913 183.313 64.6096 183.4 64.341C183.487 64.0723 183.612 63.847 183.777 63.665C183.942 63.483 184.141 63.3443 184.375 63.249C184.618 63.1536 184.886 63.106 185.181 63.106C185.519 63.106 185.814 63.1796 186.065 63.327C186.316 63.4743 186.511 63.678 186.65 63.938C186.797 64.198 186.871 64.5056 186.871 64.861C186.871 64.9216 186.858 64.9996 186.832 65.095C186.806 65.1816 186.78 65.2466 186.754 65.29L187.17 64.692H182.88V65.576H187.989C187.989 65.5586 187.989 65.5196 187.989 65.459C187.998 65.3896 188.002 65.3246 188.002 65.264C188.002 64.6313 187.889 64.0853 187.664 63.626C187.439 63.1666 187.114 62.8156 186.689 62.573C186.273 62.3216 185.77 62.196 185.181 62.196C184.739 62.196 184.336 62.274 183.972 62.43C183.608 62.5773 183.296 62.7896 183.036 63.067C182.776 63.3356 182.572 63.6606 182.425 64.042C182.286 64.4233 182.217 64.848 182.217 65.316C182.217 65.9313 182.334 66.473 182.568 66.941C182.811 67.409 183.144 67.7773 183.569 68.046C184.002 68.306 184.496 68.436 185.051 68.436ZM194.768 65.55L193.884 66.148C194.083 66.5466 194.339 66.9236 194.651 67.279C194.971 67.6256 195.34 67.9073 195.756 68.124C196.18 68.332 196.64 68.436 197.134 68.436C197.498 68.436 197.844 68.3753 198.174 68.254C198.512 68.1326 198.811 67.9593 199.071 67.734C199.339 67.5086 199.547 67.2356 199.695 66.915C199.851 66.5943 199.929 66.2346 199.929 65.836C199.929 65.42 199.855 65.0646 199.708 64.77C199.56 64.4666 199.37 64.211 199.136 64.003C198.91 63.7863 198.663 63.6086 198.395 63.47C198.126 63.3313 197.87 63.2186 197.628 63.132C197.229 62.9933 196.891 62.8546 196.614 62.716C196.345 62.5773 196.128 62.4343 195.964 62.287C195.808 62.1396 195.695 61.9836 195.626 61.819C195.556 61.6543 195.522 61.4766 195.522 61.286C195.522 61.0866 195.569 60.9003 195.665 60.727C195.769 60.5536 195.925 60.4106 196.133 60.298C196.341 60.1853 196.609 60.129 196.939 60.129C197.294 60.129 197.593 60.1983 197.836 60.337C198.087 60.4756 198.299 60.6533 198.473 60.87C198.646 61.0866 198.789 61.3076 198.902 61.533L199.851 60.987C199.703 60.6663 199.5 60.363 199.24 60.077C198.98 59.7823 198.663 59.544 198.291 59.362C197.927 59.1713 197.498 59.076 197.004 59.076C196.492 59.076 196.037 59.18 195.639 59.388C195.24 59.5873 194.928 59.8646 194.703 60.22C194.477 60.5753 194.365 60.9783 194.365 61.429C194.365 61.845 194.443 62.196 194.599 62.482C194.763 62.768 194.971 63.0106 195.223 63.21C195.474 63.4006 195.738 63.561 196.016 63.691C196.293 63.8123 196.544 63.912 196.77 63.99C197.116 64.1113 197.441 64.25 197.745 64.406C198.057 64.5533 198.308 64.7483 198.499 64.991C198.689 65.2336 198.785 65.5586 198.785 65.966C198.785 66.2433 198.715 66.4903 198.577 66.707C198.447 66.9236 198.26 67.0926 198.018 67.214C197.784 67.3353 197.502 67.396 197.173 67.396C196.809 67.396 196.484 67.318 196.198 67.162C195.912 67.006 195.652 66.7893 195.418 66.512C195.192 66.2346 194.976 65.914 194.768 65.55ZM202.475 65.316C202.475 64.9 202.562 64.5316 202.735 64.211C202.917 63.8816 203.16 63.626 203.463 63.444C203.775 63.262 204.126 63.171 204.516 63.171C204.837 63.171 205.136 63.223 205.413 63.327C205.699 63.4223 205.946 63.5523 206.154 63.717C206.362 63.8816 206.509 64.0636 206.596 64.263V62.963C206.388 62.7203 206.089 62.534 205.699 62.404C205.318 62.2653 204.923 62.196 204.516 62.196C203.935 62.196 203.411 62.3303 202.943 62.599C202.475 62.8676 202.102 63.236 201.825 63.704C201.556 64.172 201.422 64.7093 201.422 65.316C201.422 65.914 201.556 66.4513 201.825 66.928C202.102 67.396 202.475 67.7643 202.943 68.033C203.411 68.3016 203.935 68.436 204.516 68.436C204.923 68.436 205.318 68.371 205.699 68.241C206.089 68.1023 206.388 67.9116 206.596 67.669V66.369C206.509 66.5596 206.362 66.7416 206.154 66.915C205.946 67.0796 205.699 67.214 205.413 67.318C205.136 67.4133 204.837 67.461 204.516 67.461C204.126 67.461 203.775 67.37 203.463 67.188C203.16 66.9973 202.917 66.7416 202.735 66.421C202.562 66.1003 202.475 65.732 202.475 65.316ZM209.775 58.166H208.735V68.306H209.775V58.166ZM212.57 64.666V68.306H213.61V64.536C213.61 64.016 213.523 63.5826 213.35 63.236C213.185 62.8893 212.947 62.6293 212.635 62.456C212.332 62.2826 211.972 62.196 211.556 62.196C211.14 62.196 210.772 62.3043 210.451 62.521C210.139 62.7376 209.892 63.0323 209.71 63.405C209.528 63.769 209.437 64.1893 209.437 64.666H209.775C209.775 64.38 209.836 64.1243 209.957 63.899C210.087 63.6736 210.265 63.496 210.49 63.366C210.724 63.236 210.993 63.171 211.296 63.171C211.582 63.171 211.816 63.2273 211.998 63.34C212.189 63.4526 212.332 63.6216 212.427 63.847C212.522 64.0636 212.57 64.3366 212.57 64.666ZM215.565 65.316C215.565 65.914 215.699 66.4513 215.968 66.928C216.245 67.396 216.618 67.7643 217.086 68.033C217.554 68.3016 218.078 68.436 218.659 68.436C219.248 68.436 219.773 68.3016 220.232 68.033C220.7 67.7643 221.068 67.396 221.337 66.928C221.614 66.4513 221.753 65.914 221.753 65.316C221.753 64.7093 221.614 64.172 221.337 63.704C221.068 63.236 220.7 62.8676 220.232 62.599C219.773 62.3303 219.248 62.196 218.659 62.196C218.078 62.196 217.554 62.3303 217.086 62.599C216.618 62.8676 216.245 63.236 215.968 63.704C215.699 64.172 215.565 64.7093 215.565 65.316ZM216.618 65.316C216.618 64.9 216.705 64.5316 216.878 64.211C217.06 63.8816 217.303 63.626 217.606 63.444C217.918 63.262 218.269 63.171 218.659 63.171C219.049 63.171 219.396 63.262 219.699 63.444C220.011 63.626 220.254 63.8816 220.427 64.211C220.609 64.5316 220.7 64.9 220.7 65.316C220.7 65.732 220.609 66.1003 220.427 66.421C220.254 66.7416 220.011 66.9973 219.699 67.188C219.396 67.37 219.049 67.461 218.659 67.461C218.269 67.461 217.918 67.37 217.606 67.188C217.303 66.9973 217.06 66.7416 216.878 66.421C216.705 66.1003 216.618 65.732 216.618 65.316ZM223.182 65.316C223.182 65.914 223.316 66.4513 223.585 66.928C223.862 67.396 224.235 67.7643 224.703 68.033C225.171 68.3016 225.695 68.436 226.276 68.436C226.865 68.436 227.389 68.3016 227.849 68.033C228.317 67.7643 228.685 67.396 228.954 66.928C229.231 66.4513 229.37 65.914 229.37 65.316C229.37 64.7093 229.231 64.172 228.954 63.704C228.685 63.236 228.317 62.8676 227.849 62.599C227.389 62.3303 226.865 62.196 226.276 62.196C225.695 62.196 225.171 62.3303 224.703 62.599C224.235 62.8676 223.862 63.236 223.585 63.704C223.316 64.172 223.182 64.7093 223.182 65.316ZM224.235 65.316C224.235 64.9 224.321 64.5316 224.495 64.211C224.677 63.8816 224.919 63.626 225.223 63.444C225.535 63.262 225.886 63.171 226.276 63.171C226.666 63.171 227.012 63.262 227.316 63.444C227.628 63.626 227.87 63.8816 228.044 64.211C228.226 64.5316 228.317 64.9 228.317 65.316C228.317 65.732 228.226 66.1003 228.044 66.421C227.87 66.7416 227.628 66.9973 227.316 67.188C227.012 67.37 226.666 67.461 226.276 67.461C225.886 67.461 225.535 67.37 225.223 67.188C224.919 66.9973 224.677 66.7416 224.495 66.421C224.321 66.1003 224.235 65.732 224.235 65.316ZM231.318 58.166V68.306H232.358V58.166H231.318Z" fill="white"/>
<path d="M80.3647 50.9189C79.0147 50.9189 78.0547 50.7239 77.4847 50.3339C76.9147 49.9139 76.5697 49.3889 76.4497 48.7589C76.3297 48.0989 76.2697 47.4389 76.2697 46.7789V23.5139C76.2697 22.8539 76.3297 22.2089 76.4497 21.5789C76.5697 20.9489 76.9147 20.4389 77.4847 20.0489C78.0547 19.6289 79.0297 19.4189 80.4097 19.4189C81.7897 19.4189 82.7497 19.6289 83.2897 20.0489C83.8597 20.4389 84.2047 20.9489 84.3247 21.5789C84.4447 22.2089 84.5047 22.8689 84.5047 23.5589V29.7689L92.3347 20.8139C93.0247 20.0639 93.6697 19.5389 94.2697 19.2389C94.8697 18.9389 95.4847 18.8789 96.1147 19.0589C96.7447 19.2389 97.4347 19.6889 98.1847 20.4089C99.4147 21.5189 100.045 22.4939 100.075 23.3339C100.105 24.1739 99.6097 25.1339 98.5897 26.2139L89.7697 35.2139L98.6347 44.0789C99.7447 45.1889 100.255 46.1939 100.165 47.0939C100.105 47.9639 99.4597 48.9089 98.2297 49.9289C97.3297 50.6489 96.5647 51.0989 95.9347 51.2789C95.3047 51.4589 94.7197 51.3839 94.1797 51.0539C93.6397 50.7539 93.0397 50.2139 92.3797 49.4339L84.5047 40.4789V46.8239C84.5047 47.4839 84.4447 48.1289 84.3247 48.7589C84.2047 49.3889 83.8597 49.9139 83.2897 50.3339C82.7197 50.7239 81.7447 50.9189 80.3647 50.9189ZM107.803 50.9189C106.453 50.9189 105.493 50.7239 104.923 50.3339C104.353 49.9139 104.008 49.3889 103.888 48.7589C103.798 48.1289 103.753 47.4839 103.753 46.8239V32.1539C103.753 31.4939 103.813 30.8639 103.933 30.2639C104.053 29.6339 104.398 29.1239 104.968 28.7339C105.538 28.3139 106.498 28.1039 107.848 28.1039C109.198 28.1039 110.143 28.3139 110.683 28.7339C111.253 29.1239 111.598 29.6339 111.718 30.2639C111.838 30.8939 111.898 31.5539 111.898 32.2439V46.8689C111.898 47.5289 111.838 48.1739 111.718 48.8039C111.598 49.4339 111.253 49.9439 110.683 50.3339C110.143 50.7239 109.183 50.9189 107.803 50.9189ZM107.803 25.8989C106.453 25.8989 105.493 25.7039 104.923 25.3139C104.353 24.8939 104.008 24.3689 103.888 23.7389C103.798 23.1089 103.753 22.4639 103.753 21.8039C103.753 21.1139 103.813 20.4689 103.933 19.8689C104.053 19.2389 104.398 18.7289 104.968 18.3389C105.538 17.9489 106.498 17.7539 107.848 17.7539C109.198 17.7539 110.143 17.9639 110.683 18.3839C111.253 18.7739 111.598 19.2839 111.718 19.9139C111.838 20.5439 111.898 21.1889 111.898 21.8489C111.898 22.5089 111.838 23.1539 111.718 23.7839C111.598 24.4139 111.253 24.9239 110.683 25.3139C110.143 25.7039 109.183 25.8989 107.803 25.8989ZM174.931 50.9189C173.581 50.9189 172.621 50.7239 172.051 50.3339C171.481 49.9139 171.136 49.3889 171.016 48.7589C170.926 48.1289 170.881 47.4839 170.881 46.8239V32.1539C170.881 31.4939 170.941 30.8639 171.061 30.2639C171.181 29.6339 171.526 29.1239 172.096 28.7339C172.666 28.3139 173.626 28.1039 174.976 28.1039C176.326 28.1039 177.271 28.3139 177.811 28.7339C178.381 29.1239 178.726 29.6339 178.846 30.2639C178.966 30.8939 179.026 31.5539 179.026 32.2439V46.8689C179.026 47.5289 178.966 48.1739 178.846 48.8039C178.726 49.4339 178.381 49.9439 177.811 50.3339C177.271 50.7239 176.311 50.9189 174.931 50.9189ZM174.931 25.8989C173.581 25.8989 172.621 25.7039 172.051 25.3139C171.481 24.8939 171.136 24.3689 171.016 23.7389C170.926 23.1089 170.881 22.4639 170.881 21.8039C170.881 21.1139 170.941 20.4689 171.061 19.8689C171.181 19.2389 171.526 18.7289 172.096 18.3389C172.666 17.9489 173.626 17.7539 174.976 17.7539C176.326 17.7539 177.271 17.9639 177.811 18.3839C178.381 18.7739 178.726 19.2839 178.846 19.9139C178.966 20.5439 179.026 21.1889 179.026 21.8489C179.026 22.5089 178.966 23.1539 178.846 23.7839C178.726 24.4139 178.381 24.9239 177.811 25.3139C177.271 25.7039 176.311 25.8989 174.931 25.8989ZM188 50.8739C186.65 50.8739 185.69 50.6789 185.12 50.2889C184.55 49.8689 184.205 49.3439 184.085 48.7139C183.995 48.0839 183.95 47.4389 183.95 46.7789V31.9739C183.95 31.3139 184.01 30.6839 184.13 30.0839C184.25 29.4839 184.595 29.0039 185.165 28.6439C185.735 28.2539 186.695 28.0589 188.045 28.0589C189.275 28.0589 190.16 28.2239 190.7 28.5539C191.27 28.8539 191.63 29.2289 191.78 29.6789C191.93 30.1289 191.99 30.5489 191.96 30.9389C191.96 31.2989 191.99 31.5239 192.05 31.6139L191.69 31.8839C191.66 31.4339 191.825 30.9839 192.185 30.5339C192.575 30.0839 193.07 29.6789 193.67 29.3189C194.3 28.9289 194.96 28.6289 195.65 28.4189C196.37 28.1789 197.045 28.0589 197.675 28.0589C199.175 28.0589 200.495 28.3439 201.635 28.9139C202.775 29.4839 203.72 30.2939 204.47 31.3439C205.25 32.3639 205.835 33.5639 206.225 34.9439C206.615 36.3239 206.81 37.8239 206.81 39.4439V46.8239C206.81 47.4839 206.75 48.1289 206.63 48.7589C206.51 49.3889 206.165 49.8989 205.595 50.2889C205.055 50.6789 204.095 50.8739 202.715 50.8739C201.335 50.8739 200.36 50.6789 199.79 50.2889C199.22 49.8689 198.875 49.3439 198.755 48.7139C198.635 48.0839 198.575 47.4389 198.575 46.7789V39.4439C198.575 38.7539 198.44 38.1689 198.17 37.6889C197.93 37.2089 197.57 36.8489 197.09 36.6089C196.64 36.3389 196.07 36.2039 195.38 36.2039C194.72 36.2039 194.135 36.3389 193.625 36.6089C193.145 36.8789 192.77 37.2539 192.5 37.7339C192.23 38.2139 192.095 38.7839 192.095 39.4439V46.8239C192.095 47.4839 192.035 48.1289 191.915 48.7589C191.795 49.3889 191.45 49.8989 190.88 50.2889C190.34 50.6789 189.38 50.8739 188 50.8739ZM222.688 51.3239C221.308 51.3239 219.913 51.0539 218.503 50.5139C217.093 49.9439 215.788 49.1489 214.588 48.1289C213.418 47.0789 212.473 45.8339 211.753 44.3939C211.063 42.9239 210.718 41.2889 210.718 39.4889C210.718 37.8389 211.033 36.2939 211.663 34.8539C212.293 33.4139 213.148 32.1539 214.228 31.0739C215.338 29.9639 216.598 29.0939 218.008 28.4639C219.448 27.8339 220.978 27.5189 222.598 27.5189C224.818 27.5189 226.828 28.0589 228.628 29.1389C230.428 30.1889 231.868 31.6139 232.948 33.4139C234.028 35.2139 234.568 37.2239 234.568 39.4439C234.568 41.3339 234.208 43.0139 233.488 44.4839C232.768 45.9539 231.823 47.1989 230.653 48.2189C229.483 49.2389 228.193 50.0039 226.783 50.5139C225.403 51.0539 224.038 51.3239 222.688 51.3239ZM222.598 43.0889C223.048 43.0889 223.558 42.9839 224.128 42.7739C224.728 42.5339 225.238 42.1439 225.658 41.6039C226.108 41.0639 226.333 40.3289 226.333 39.3989C226.333 38.6489 226.168 38.0039 225.838 37.4639C225.538 36.9239 225.103 36.5039 224.533 36.2039C223.963 35.9039 223.303 35.7539 222.553 35.7539C221.893 35.7539 221.293 35.9189 220.753 36.2489C220.213 36.5489 219.778 36.9839 219.448 37.5539C219.118 38.0939 218.953 38.7239 218.953 39.4439C218.953 40.3439 219.163 41.0639 219.583 41.6039C220.003 42.1439 220.498 42.5339 221.068 42.7739C221.638 42.9839 222.148 43.0889 222.598 43.0889Z" fill="white"/>
<path d="M126.542 50.8289C125.192 50.8289 123.887 50.5289 122.627 49.9289C121.397 49.2989 120.287 48.4589 119.297 47.4089C118.337 46.3289 117.572 45.0989 117.002 43.7189C116.432 42.3389 116.147 40.8989 116.147 39.3989C116.147 37.9589 116.432 36.5639 117.002 35.2139C117.572 33.8639 118.352 32.6639 119.342 31.6139C120.332 30.5339 121.442 29.6789 122.672 29.0489C123.932 28.4189 125.222 28.1039 126.542 28.1039C127.982 28.1039 129.227 28.4189 130.277 29.0489C131.327 29.6489 132.197 30.4739 132.887 31.5239C133.577 32.5739 134.087 33.7739 134.417 35.1239C134.777 36.4739 134.972 37.8689 135.002 39.3089C135.032 40.7789 134.882 42.2039 134.552 43.5839C134.222 44.9339 133.712 46.1639 133.022 47.2739C132.332 48.3539 131.447 49.2239 130.367 49.8839C129.317 50.5139 128.042 50.8289 126.542 50.8289ZM127.622 42.7289C128.192 42.7289 128.717 42.5789 129.197 42.2789C129.677 41.9789 130.067 41.5889 130.367 41.1089C130.667 40.5989 130.817 40.0589 130.817 39.4889C130.817 38.8889 130.667 38.3489 130.367 37.8689C130.097 37.3889 129.722 36.9989 129.242 36.6989C128.762 36.3989 128.207 36.2489 127.577 36.2489C126.977 36.2489 126.422 36.3989 125.912 36.6989C125.432 36.9689 125.042 37.3589 124.742 37.8689C124.472 38.3489 124.337 38.8889 124.337 39.4889C124.337 40.0589 124.487 40.5989 124.787 41.1089C125.087 41.5889 125.492 41.9789 126.002 42.2789C126.512 42.5789 127.052 42.7289 127.622 42.7289ZM135.002 50.8739C133.802 50.8739 132.902 50.6939 132.302 50.3339C131.702 49.9739 131.297 49.4039 131.087 48.6239V21.8489C131.087 21.1889 131.117 20.5439 131.177 19.9139C131.267 19.2839 131.582 18.7739 132.122 18.3839C132.662 17.9639 133.607 17.7539 134.957 17.7539C136.337 17.7539 137.297 17.9489 137.837 18.3389C138.407 18.7289 138.752 19.2389 138.872 19.8689C138.992 20.4689 139.052 21.1139 139.052 21.8039V46.7789C139.052 47.4389 138.992 48.0839 138.872 48.7139C138.752 49.3439 138.407 49.8689 137.837 50.2889C137.297 50.6789 136.352 50.8739 135.002 50.8739ZM153.459 50.8289C152.109 50.8289 150.804 50.5289 149.544 49.9289C148.314 49.2989 147.204 48.4589 146.214 47.4089C145.254 46.3289 144.489 45.0989 143.919 43.7189C143.349 42.3389 143.064 40.8989 143.064 39.3989C143.064 37.9589 143.349 36.5639 143.919 35.2139C144.489 33.8639 145.269 32.6639 146.259 31.6139C147.249 30.5339 148.359 29.6789 149.589 29.0489C150.849 28.4189 152.139 28.1039 153.459 28.1039C154.899 28.1039 156.144 28.4189 157.194 29.0489C158.244 29.6489 159.114 30.4739 159.804 31.5239C160.494 32.5739 161.004 33.7739 161.334 35.1239C161.694 36.4739 161.889 37.8689 161.919 39.3089C161.949 40.7789 161.799 42.2039 161.469 43.5839C161.139 44.9339 160.629 46.1639 159.939 47.2739C159.249 48.3539 158.364 49.2239 157.284 49.8839C156.234 50.5139 154.959 50.8289 153.459 50.8289ZM154.539 42.7289C155.109 42.7289 155.634 42.5789 156.114 42.2789C156.594 41.9789 156.984 41.5889 157.284 41.1089C157.584 40.5989 157.734 40.0589 157.734 39.4889C157.734 38.8889 157.584 38.3489 157.284 37.8689C157.014 37.3889 156.639 36.9989 156.159 36.6989C155.679 36.3989 155.124 36.2489 154.494 36.2489C153.894 36.2489 153.339 36.3989 152.829 36.6989C152.349 36.9689 151.959 37.3589 151.659 37.8689C151.389 38.3489 151.254 38.8889 151.254 39.4889C151.254 40.0589 151.404 40.5989 151.704 41.1089C152.004 41.5889 152.409 41.9789 152.919 42.2789C153.429 42.5789 153.969 42.7289 154.539 42.7289ZM161.919 50.8739C160.719 50.8739 159.819 50.6939 159.219 50.3339C158.619 49.9739 158.214 49.4039 158.004 48.6239V21.8489C158.004 21.1889 158.034 20.5439 158.094 19.9139C158.184 19.2839 158.499 18.7739 159.039 18.3839C159.579 17.9639 160.524 17.7539 161.874 17.7539C163.254 17.7539 164.214 17.9489 164.754 18.3389C165.324 18.7289 165.669 19.2389 165.789 19.8689C165.909 20.4689 165.969 21.1139 165.969 21.8039V46.7789C165.969 47.4389 165.909 48.0839 165.789 48.7139C165.669 49.3439 165.324 49.8689 164.754 50.2889C164.214 50.6789 163.269 50.8739 161.919 50.8739Z" fill="#E8063C"/>
<path d="M60.6535 60.223C60.4888 62.759 60.2836 65.295 60.0414 67.8308C40.9167 69.1087 21.7931 69.1087 2.66961 67.8308C2.42743 65.2948 2.22218 62.7589 2.05747 60.223C1.17852 46.7825 1.38257 33.3433 2.66961 19.9028C21.7931 18.6249 40.9167 18.6249 60.0414 19.9028C61.3283 33.3433 61.5324 46.7825 60.6535 60.223Z" fill="#F7F9F9"/>
<path d="M60.6537 60.2236C60.489 62.7596 60.2837 65.2956 60.0415 67.8314C40.9168 69.1093 21.7933 69.1093 2.66976 67.8314C2.42758 65.2954 2.22233 62.7595 2.05762 60.2236H60.6537Z" fill="#BCDF95"/>
<path d="M21.2857 31.7247C22.5025 33.9933 21.1038 37.718 17.8467 37.718C14.5895 37.718 11.9492 35.0346 11.9492 31.7247C11.9492 28.4147 14.5895 25.7314 17.8467 25.7314C21.1038 25.7314 23.7441 28.4146 23.7441 31.7247" fill="#80B4FB"/>
<path d="M36.4938 38.0283C38.3112 38.1724 39.9669 40.4831 38.6932 42.4724C37.4195 44.4618 34.8001 45.025 32.8427 43.7306C30.8853 42.4363 30.331 39.7743 31.6046 37.785C32.8783 35.7958 35.8329 34.709 37.7905 36.0033" fill="#DD636E"/>
<path d="M50.91 36.767C53.9087 36.767 56.3396 34.2966 56.3396 31.2492C56.3396 28.2018 53.9087 25.7314 50.91 25.7314C47.9114 25.7314 45.4805 28.2018 45.4805 31.2492C45.4805 34.2966 47.9114 36.767 50.91 36.767Z" fill="#F6E266"/>
<path d="M41.4469 9.1416C41.4469 9.1416 38.7165 10.9064 38.4287 14.8666C41.5308 17.281 44.6433 16.382 44.6433 16.382L45.5232 11.6319L41.4469 9.1416Z" fill="#F6E266"/>
<path d="M42.4767 11.4752C42.4767 11.4752 39.6234 12.9611 38.4277 14.8668C38.7163 10.9066 41.4464 9.1416 41.4464 9.1416L45.5227 11.6317L42.4767 11.4752Z" fill="#ECBE6B"/>
<path d="M41.4463 9.14272C47.1606 6.30542 52.96 3.66108 58.8447 1.20996C60.3741 3.41184 61.4395 5.82529 62.0411 8.45019C56.3268 11.2876 50.5274 13.9318 44.6427 16.3829L41.4463 9.14272Z" fill="#80B4FB"/>
<path d="M42.4766 11.4762L41.4463 9.14272C47.1607 6.30474 52.9593 3.66095 58.8446 1.20996C59.3363 1.91867 59.7811 2.65037 60.1776 3.40245C54.2475 6.02735 48.3482 8.7186 42.4766 11.4762Z" fill="#61A2F9"/>
<path d="M23.0859 21.8086C23.0859 21.8086 25.6802 23.7741 29.4245 22.6389C30.5415 18.8337 28.6075 16.1973 28.6075 16.1973L23.9261 17.0511L23.0859 21.8086Z" fill="#F6E266"/>
<path d="M24.8655 19.9996C24.8655 19.9996 27.2468 22.1812 29.4248 22.6389C25.6801 23.7735 23.0859 21.8082 23.0859 21.8082L23.9261 17.0508L24.8655 19.9996Z" fill="#ECBE6B"/>
<path d="M23.0856 21.8087C18.4436 17.3906 13.9489 12.8228 9.60156 8.1055C11.0825 5.86963 12.9231 3.99927 15.1232 2.49414C19.7652 6.91217 24.2598 11.4799 28.6072 16.1974L23.0856 21.8087Z" fill="#DD636E"/>
<path d="M24.865 19.9991L23.0855 21.8076C18.4428 17.3897 13.9489 12.8226 9.60156 8.10464C10.0784 7.38546 10.593 6.70285 11.1436 6.05859C15.6669 10.7573 20.2404 15.4032 24.865 19.9991Z" fill="#DA4A54"/>
<path d="M60.1068 18.8858C50.272 18.2283 40.3017 17.9071 30.4619 17.9277C30.0741 16.51 29.4599 15.6526 29.4118 15.5871C29.3896 15.5569 29.3655 15.5277 29.3397 15.4995C24.9978 10.7882 20.4455 6.16199 15.8092 1.74913C15.4679 1.42428 14.951 1.38199 14.5629 1.64742C12.2652 3.21931 10.316 5.20022 8.76924 7.53535C8.50806 7.92969 8.54954 8.4551 8.86932 8.80198C11.7853 11.9662 14.7973 15.0897 17.8644 18.1379C12.7951 18.2968 7.67287 18.5474 2.60364 18.8859C2.11312 18.9187 1.71814 19.3076 1.6705 19.8047C0.628855 30.683 0.292477 41.7165 0.671003 52.5985C0.690137 53.1491 1.13543 53.5823 1.67318 53.5823C1.68522 53.5823 1.69726 53.5822 1.70931 53.5816C2.26325 53.5618 2.69636 53.0892 2.6767 52.5264C2.31142 42.0219 2.61769 31.3743 3.58695 20.8652C9.00701 20.5142 14.4811 20.2646 19.8784 20.1203C20.716 20.9368 21.5558 21.7493 22.3997 22.5524C22.4274 22.5788 22.4564 22.6027 22.4862 22.6253C22.581 22.6971 24.3564 24.0124 27.0948 24.0122C27.7223 24.0122 28.4012 23.9415 29.1213 23.7726L29.2715 23.9252C29.4675 24.1243 29.7244 24.2239 29.9811 24.2239C30.2379 24.2239 30.4948 24.1244 30.6908 23.9252C31.0827 23.5269 31.0827 22.8812 30.6908 22.483L30.5402 22.3299C30.7331 21.4803 30.7952 20.6879 30.7707 19.9668C40.1869 19.9535 49.7112 20.2549 59.1235 20.865C60.5314 36.1331 60.5314 51.5992 59.1235 66.8698C40.6931 68.0642 22.0179 68.0644 3.58722 66.8698C3.27011 63.4352 3.02244 59.9695 2.85024 56.5557C2.82187 55.9932 2.34955 55.5599 1.79668 55.5894C1.24314 55.6183 0.817516 56.0976 0.845882 56.6601C1.03401 60.3912 1.31151 64.183 1.67077 67.9303C1.71841 68.4274 2.11339 68.8163 2.60377 68.8491C12.1429 69.4866 21.7491 69.8054 31.3554 69.8054C40.9617 69.8054 50.5681 69.4867 60.1072 68.8491C60.5976 68.8163 60.9926 68.4273 61.0402 67.9302C62.5686 51.962 62.5686 35.7703 61.0402 19.805C60.9922 19.3076 60.5973 18.9187 60.1068 18.8858ZM10.8923 8.01182C12.057 6.399 13.4446 4.98878 15.0317 3.80524C19.1948 7.79058 23.2854 11.9454 27.2097 16.1747L23.064 20.3879C18.9023 16.3998 14.814 12.2427 10.8923 8.01182ZM24.7626 21.5459L28.3488 17.9013C28.6754 18.7792 28.9632 20.137 28.6014 21.8022C26.9615 22.1703 25.6262 21.8782 24.7626 21.5459Z" fill="black"/>
<path d="M9.44557 44.9264C8.95772 45.1936 8.77535 45.8121 9.03827 46.3079C9.30133 46.8038 9.90999 46.9891 10.3978 46.7218L16.8431 43.1917V48.7561L11.0646 61.1651C10.8276 61.6742 11.0414 62.2822 11.5424 62.5231C12.0432 62.7639 12.6417 62.5466 12.8787 62.0375L17.8465 51.3695L22.8141 62.0375C22.9855 62.4058 23.346 62.6214 23.7218 62.6214C23.8657 62.6214 24.0118 62.5899 24.1504 62.5231C24.6514 62.2822 24.8653 61.6742 24.6282 61.1651L18.8498 48.7561V43.2411L26.3901 48.0153C26.5492 48.1161 26.7331 48.1695 26.9208 48.1695L34.0048 48.1699V52.3262L29.8888 61.165C29.6518 61.6741 29.8656 62.282 30.3666 62.523C30.5052 62.5896 30.6513 62.6213 30.7952 62.6213C31.171 62.6213 31.5315 62.4056 31.7029 62.0374L35.0082 54.9394L38.3134 62.0374C38.5503 62.5466 39.1487 62.7639 39.6496 62.523C40.1506 62.282 40.3646 61.6741 40.1275 61.165L36.0116 52.3262V48.9566L40.9839 52.1048C41.1489 52.2094 41.3323 52.2592 41.5136 52.2592C41.8487 52.2592 42.1761 52.0888 42.3662 51.7785C42.6593 51.3004 42.5156 50.6715 42.0452 50.3736L36.0116 46.5533V45.3711C36.0848 45.3586 36.1578 45.3457 36.2309 45.3299C37.5982 45.036 38.771 44.2185 39.5332 43.028C40.2666 41.8825 40.3452 40.5206 39.7488 39.2913C39.1272 38.0099 37.8794 37.1148 36.5706 37.011C36.0163 36.9683 35.5351 37.387 35.492 37.9486C35.4489 38.5102 35.862 39.0008 36.4146 39.0447C37.0127 39.092 37.6436 39.5645 37.9488 40.1934C38.1464 40.6008 38.2898 41.2302 37.8511 41.9158C37.3812 42.6496 36.6584 43.1535 35.8156 43.3347C34.9726 43.5159 34.111 43.3528 33.3889 42.8754C32.6669 42.3979 32.1709 41.6632 31.9926 40.8068C31.8142 39.9503 31.9746 39.0746 32.4445 38.3407C32.9387 37.5689 33.7954 36.9319 34.736 36.6367C35.286 36.464 36.3431 36.2633 37.2419 36.8576C37.7067 37.1649 38.328 37.0311 38.6303 36.5592C38.9327 36.087 38.8011 35.4553 38.3366 35.1481C37.1621 34.3714 35.6732 34.208 34.144 34.688C32.7481 35.126 31.5157 36.052 30.7625 37.2284C30.0002 38.4188 29.7397 39.8396 30.0293 41.2291C30.3186 42.6186 31.123 43.8104 32.2944 44.5851C32.8259 44.9366 33.4042 45.1823 34.0048 45.3193V46.1306L27.2078 46.1302L18.8497 40.8382V38.634C20.1516 38.3634 21.2573 37.5643 21.9678 36.3483C22.8992 34.7545 22.9771 32.7477 22.1661 31.2359C21.9012 30.7414 21.2916 30.5592 20.8048 30.8285C20.3181 31.0981 20.1386 31.7176 20.404 32.2121C20.8752 33.0909 20.8102 34.3346 20.2421 35.3068C19.9386 35.8262 19.2238 36.6976 17.8462 36.6976C15.1477 36.6976 12.9523 34.4665 12.9523 31.7241C12.9523 28.9817 15.1477 26.7506 17.8462 26.7506C20.5447 26.7506 22.74 28.9817 22.74 31.7241C22.74 32.2873 23.1892 32.7439 23.7435 32.7439C24.2979 32.7439 24.747 32.2873 24.747 31.7241C24.747 27.857 21.6513 24.7109 17.8462 24.7109C14.041 24.7109 10.9452 27.857 10.9452 31.7241C10.9452 35.2447 13.5115 38.1668 16.8427 38.6623V40.8749L9.44557 44.9264Z" fill="black"/>
<path d="M50.9096 24.7109C47.3624 24.7109 44.4766 27.6436 44.4766 31.2485C44.4766 34.8534 47.3624 37.7861 50.9096 37.7861C54.4569 37.7861 57.3427 34.8534 57.3427 31.2485C57.3427 27.6436 54.4569 24.7109 50.9096 24.7109ZM50.9096 35.7465C48.4691 35.7465 46.4836 33.7287 46.4836 31.2485C46.4836 28.7683 48.4691 26.7505 50.9096 26.7505C53.3502 26.7505 55.3357 28.7683 55.3357 31.2485C55.3357 33.7287 53.3503 35.7465 50.9096 35.7465Z" fill="black"/>
<path d="M43.5183 24.7616L39.534 23.4349C39.0071 23.2592 38.4404 23.5513 38.268 24.0865C38.0953 24.6218 38.3824 25.1978 38.9091 25.3731L42.8935 26.6998C42.9972 26.7344 43.1025 26.7508 43.206 26.7508C43.6282 26.7508 44.021 26.478 44.1595 26.0482C44.3321 25.513 44.0451 24.9369 43.5183 24.7616Z" fill="black"/>
<path d="M37.5723 31.7239C37.5723 32.2871 38.0214 32.7438 38.5758 32.7438H41.5157C42.07 32.7438 42.5192 32.2871 42.5192 31.7239C42.5192 31.1607 42.07 30.7041 41.5157 30.7041H38.5758C38.0214 30.7041 37.5723 31.1607 37.5723 31.7239Z" fill="black"/>
<path d="M44.1222 44.2766C44.259 44.3412 44.4027 44.3716 44.5441 44.3716C44.9227 44.3716 45.2851 44.1529 45.4551 43.781L47.1901 39.9826C47.4234 39.4717 47.205 38.8654 46.7024 38.6283C46.1994 38.391 45.6028 38.6129 45.3696 39.1239L43.6345 42.9223C43.4012 43.433 43.6196 44.0393 44.1222 44.2766Z" fill="black"/>
<path d="M55.827 44.1306L55.0472 39.3853C54.9559 38.8298 54.4385 38.4543 53.8921 38.5474C53.3454 38.6401 52.9762 39.1657 53.0676 39.7213L53.8474 44.4666C53.9293 44.9652 54.3544 45.3186 54.8361 45.3186C54.8909 45.3186 54.9466 45.314 55.0025 45.3045C55.5492 45.2118 55.9184 44.6862 55.827 44.1306Z" fill="black"/>
<path d="M14.2207 31.1262V31.1886C14.2207 31.7518 14.6698 32.2084 15.2242 32.2084C15.7785 32.2084 16.2276 31.7518 16.2276 31.1886V31.1262C16.2276 30.563 15.7785 30.1064 15.2242 30.1064C14.6698 30.1064 14.2207 30.563 14.2207 31.1262Z" fill="black"/>
<path d="M16.8428 29.9513V30.0137C16.8428 30.5769 17.2919 31.0335 17.8462 31.0335C18.4005 31.0335 18.8497 30.5769 18.8497 30.0137V29.9513C18.8497 29.3881 18.4005 28.9316 17.8462 28.9316C17.2919 28.9316 16.8428 29.3881 16.8428 29.9513Z" fill="black"/>
<path d="M32.8071 39.6938L32.7726 39.7455C32.4616 40.2117 32.5814 40.8457 33.0401 41.1618C33.2126 41.2807 33.4085 41.3375 33.6022 41.3375C33.9237 41.3375 34.2397 41.1806 34.4337 40.8898L34.4683 40.8381C34.7792 40.3719 34.6594 39.7378 34.2007 39.4217C33.742 39.1059 33.118 39.2277 32.8071 39.6938Z" fill="black"/>
<path d="M36.4225 41.8581C36.744 41.8581 37.06 41.7012 37.2541 41.4104L37.2886 41.3587C37.5995 40.8925 37.4798 40.2584 37.021 39.9423C36.5621 39.6263 35.9382 39.7482 35.6274 40.2143L35.5929 40.2659C35.2819 40.7322 35.4017 41.3662 35.8605 41.6823C36.0329 41.8011 36.2288 41.8581 36.4225 41.8581Z" fill="black"/>
<path d="M6.16914 61.0952V59.3519C6.16914 58.7887 5.71997 58.332 5.16563 58.332C4.61128 58.332 4.16211 58.7887 4.16211 59.3519V61.0952C4.16211 61.6584 4.61128 62.1151 5.16563 62.1151C5.71997 62.1151 6.16914 61.6584 6.16914 61.0952Z" fill="black"/>
<path d="M8.81953 61.0952V59.3519C8.81953 58.7887 8.37036 58.332 7.81602 58.332C7.26167 58.332 6.8125 58.7887 6.8125 59.3519V61.0952C6.8125 61.6584 7.26167 62.1151 7.81602 62.1151C8.37036 62.1151 8.81953 61.6584 8.81953 61.0952Z" fill="black"/>
<path d="M43.2193 58.332C42.665 58.332 42.2158 58.7887 42.2158 59.3519V61.0952C42.2158 61.6584 42.665 62.1151 43.2193 62.1151C43.7737 62.1151 44.2229 61.6584 44.2229 61.0952V59.3519C44.2229 58.7887 43.7737 58.332 43.2193 58.332Z" fill="black"/>
<path d="M44.8662 59.3519V61.0952C44.8662 61.6584 45.3154 62.1151 45.8697 62.1151C46.4241 62.1151 46.8732 61.6584 46.8732 61.0952V59.3519C46.8732 58.7887 46.4241 58.332 45.8697 58.332C45.3154 58.332 44.8662 58.7887 44.8662 59.3519Z" fill="black"/>
<path d="M50.4033 59.3519V61.0952C50.4033 61.6584 50.8525 62.1151 51.4068 62.1151C51.9612 62.1151 52.4104 61.6584 52.4104 61.0952V59.3519C52.4104 58.7887 51.9612 58.332 51.4068 58.332C50.8525 58.332 50.4033 58.7887 50.4033 59.3519Z" fill="black"/>
<path d="M54.0582 58.332C53.5039 58.332 53.0547 58.7887 53.0547 59.3519V61.0952C53.0547 61.6584 53.5039 62.1151 54.0582 62.1151C54.6125 62.1151 55.0617 61.6584 55.0617 61.0952V59.3519C55.0617 58.7887 54.6124 58.332 54.0582 58.332Z" fill="black"/>
<path d="M56.1738 59.3519V61.0952C56.1738 61.6584 56.623 62.1151 57.1773 62.1151C57.7317 62.1151 58.1809 61.6584 58.1809 61.0952V59.3519C58.1809 58.7887 57.7317 58.332 57.1773 58.332C56.623 58.332 56.1738 58.7887 56.1738 59.3519Z" fill="black"/>
<path d="M63.0187 8.21926C62.3915 5.47865 61.2631 2.92228 59.6645 0.621283C59.3948 0.232933 58.8966 0.085262 58.4638 0.265975C56.3877 1.13147 54.315 2.02348 52.3027 2.91698C51.7948 3.14257 51.5631 3.74372 51.7851 4.25975C52.0069 4.77592 52.5984 5.01143 53.1064 4.78598C54.861 4.00684 56.6621 3.22878 58.4714 2.46867C59.5409 4.14907 60.3445 5.96912 60.8677 7.89645C55.7214 10.433 50.446 12.84 45.1602 15.0635L42.7601 9.62662C44.9521 8.54697 47.2022 7.47479 49.462 6.43389C49.9667 6.20137 50.1904 5.59695 49.9616 5.08391C49.7328 4.57087 49.1383 4.34352 48.6332 4.57617C46.0547 5.76407 43.4884 6.99221 41.0054 8.22633C40.9714 8.2432 40.9392 8.2621 40.908 8.28222C40.7854 8.3615 38.0338 10.1863 37.4933 14.1757L37.299 14.2643C36.7933 14.4949 36.5673 15.0983 36.7943 15.6122C36.9613 15.9905 37.3272 16.2148 37.7104 16.2148C37.8477 16.2148 37.9872 16.186 38.1206 16.1252L38.3152 16.0366C40.1388 17.2786 41.9252 17.5662 43.1796 17.5662C44.1895 17.5662 44.8549 17.3817 44.9171 17.3637C44.9527 17.3534 44.9882 17.3414 45.0232 17.3269C50.9004 14.8783 56.774 12.2001 62.4815 9.36663C62.902 9.15791 63.1247 8.68199 63.0187 8.21926ZM41.0911 10.8284L43.167 15.5307C42.2435 15.5287 40.8924 15.3189 39.4898 14.3831C39.7346 12.6948 40.4782 11.5304 41.0911 10.8284Z" fill="black"/>
</g>
</g>
<defs>
<clipPath id="clip0_1_146">
<rect width="235" height="72" fill="white"/>
</clipPath>
</defs>
</svg>
