<svg width="461" height="538" viewBox="0 0 461 538" fill="none" xmlns="http://www.w3.org/2000/svg">
<path d="M230.501 69.3096C267.002 69.3096 301.422 73.3518 331.729 80.498C316.109 39.8177 276.681 10.9388 230.501 10.9388C184.321 10.9388 144.894 39.8177 129.273 80.498C159.58 73.3518 194 69.3096 230.501 69.3096Z" fill="#C4E5F9"/>
<path d="M304.476 75.107C313.872 76.6299 322.972 78.4342 331.729 80.499C316.108 39.8187 276.68 10.9387 230.5 10.9387C226.269 10.9387 222.097 11.1899 217.992 11.6621C256.682 16.1076 289.173 40.9205 304.476 75.107Z" fill="#83C8F1"/>
<path d="M130.406 77.6484C146.743 38.4743 185.406 10.9389 230.501 10.9389C275.595 10.9389 314.26 38.4743 330.596 77.6484" stroke="black" stroke-width="20" stroke-miterlimit="10"/>
<path d="M450.642 169.374C450.642 224.639 352.081 269.438 230.501 269.438C108.92 269.438 10.3594 224.639 10.3594 169.374C10.3594 114.109 108.92 69.3098 230.501 69.3098C352.081 69.3098 450.642 114.109 450.642 169.374Z" fill="#6E91EF"/>
<path d="M450.642 169.374C450.642 224.639 352.081 269.438 230.501 269.438C108.92 269.438 10.3594 224.639 10.3594 169.374C10.3594 114.109 108.92 69.3098 230.501 69.3098C352.081 69.3098 450.642 114.109 450.642 169.374Z" fill="#6E91EF"/>
<path d="M230.5 69.3098C226.302 69.3098 222.133 69.3682 217.992 69.4745C333.752 72.4223 425.626 116.019 425.626 169.374C425.626 222.729 333.752 266.326 217.992 269.274C222.133 269.38 226.302 269.438 230.5 269.438C352.081 269.438 450.642 224.639 450.642 169.374C450.642 114.109 352.081 69.3098 230.5 69.3098Z" fill="#3D6DEA"/>
<path d="M88.7434 169.374C88.7434 178.584 81.2761 186.052 72.0661 186.052C62.856 186.052 55.3887 178.584 55.3887 169.374C55.3887 160.164 62.856 152.697 72.0661 152.697C81.2761 152.697 88.7434 160.164 88.7434 169.374Z" fill="white"/>
<path d="M247.179 119.342C247.179 128.552 239.713 136.02 230.502 136.02C221.292 136.02 213.824 128.552 213.824 119.342C213.824 110.132 221.292 102.665 230.502 102.665C239.713 102.665 247.179 110.132 247.179 119.342Z" fill="white"/>
<path d="M155.452 136.02C155.452 145.23 147.985 152.697 138.775 152.697C129.565 152.697 122.098 145.23 122.098 136.02C122.098 126.81 129.565 119.342 138.775 119.342C147.985 119.342 155.452 126.81 155.452 136.02Z" fill="white"/>
<path d="M372.258 169.374C372.258 178.584 379.724 186.052 388.935 186.052C398.146 186.052 405.613 178.584 405.613 169.374C405.613 160.164 398.146 152.697 388.935 152.697C379.724 152.697 372.258 160.164 372.258 169.374Z" fill="white"/>
<path d="M305.549 136.02C305.549 145.23 313.015 152.697 322.226 152.697C331.437 152.697 338.904 145.23 338.904 136.02C338.904 126.81 331.437 119.342 322.226 119.342C313.015 119.342 305.549 126.81 305.549 136.02Z" fill="white"/>
<path d="M130.437 258.528C59.1574 241.966 10.3594 208.261 10.3594 169.375C10.3594 114.11 108.92 69.3109 230.501 69.3109C352.082 69.3109 450.642 114.11 450.642 169.375C450.642 208.261 401.844 241.966 330.565 258.528" stroke="black" stroke-width="20" stroke-miterlimit="10"/>
<path d="M347.243 219.406C347.243 247.039 294.975 269.438 230.501 269.438C166.027 269.438 113.76 247.039 113.76 219.406C113.76 191.774 166.027 169.374 230.501 169.374C294.975 169.374 347.243 191.774 347.243 219.406Z" fill="#3D6DEA"/>
<path d="M397.274 527.938H63.7266L148.562 183.769C169.638 174.868 198.574 169.375 230.5 169.375C262.427 169.375 291.362 174.868 312.438 183.769L397.274 527.938Z" fill="#9CE3BF"/>
<path d="M397.274 527.938H372.258L285.307 175.222C295.303 177.505 304.434 180.392 312.439 183.769L397.274 527.938Z" fill="#52CD8D"/>
<path d="M230.501 186.051C264.831 186.051 295.699 192.402 317.06 202.512L312.439 183.768C291.363 174.867 262.428 169.374 230.501 169.374C198.574 169.374 169.639 174.867 148.563 183.768L143.943 202.512C165.304 192.402 196.171 186.051 230.501 186.051Z" fill="#52CD8D"/>
<path d="M85.3102 440.382L63.7266 527.938H397.274L320.19 215.238" stroke="black" stroke-width="20" stroke-miterlimit="10"/>
<path d="M140.811 215.237L98.6719 386.181" stroke="black" stroke-width="20" stroke-miterlimit="10"/>
<path d="M113.759 402.858C113.759 412.068 106.292 419.535 97.0817 419.535C87.8716 419.535 80.4043 412.068 80.4043 402.858C80.4043 393.648 87.8716 386.18 97.0817 386.18C106.292 386.18 113.759 393.648 113.759 402.858Z" fill="#F8E868"/>
<path d="M113.759 402.858C113.759 412.068 106.292 419.535 97.0817 419.535C87.8716 419.535 80.4043 412.068 80.4043 402.858C80.4043 393.648 87.8716 386.18 97.0817 386.18C106.292 386.18 113.759 393.648 113.759 402.858Z" stroke="black" stroke-width="20" stroke-miterlimit="10"/>
<path d="M191.872 169.374L163.094 286.115" stroke="black" stroke-width="20" stroke-miterlimit="10"/>
<path d="M268.432 169.374L301.379 303.029" stroke="black" stroke-width="20" stroke-miterlimit="10"/>
<path d="M188.807 319.471H205.484" stroke="white" stroke-width="20" stroke-miterlimit="10"/>
<path d="M222.162 319.471H238.839" stroke="white" stroke-width="20" stroke-miterlimit="10"/>
<path d="M255.518 319.471H272.195" stroke="white" stroke-width="20" stroke-miterlimit="10"/>
<path d="M180.469 344.486V444.551" stroke="black" stroke-width="20" stroke-miterlimit="10"/>
<path d="M180.468 394.52H147.113V344.487" stroke="black" stroke-width="20" stroke-miterlimit="10"/>
<path d="M313.889 344.486V444.551" stroke="black" stroke-width="20" stroke-miterlimit="10"/>
<path d="M313.888 394.52H280.533V344.487" stroke="black" stroke-width="20" stroke-miterlimit="10"/>
<path d="M247.179 436.213H213.824V352.826H247.179V436.213Z" stroke="black" stroke-width="20" stroke-miterlimit="10"/>
<path d="M88.7434 169.374C88.7434 178.584 81.2761 186.052 72.0661 186.052C62.856 186.052 55.3887 178.584 55.3887 169.374C55.3887 160.164 62.856 152.697 72.0661 152.697C81.2761 152.697 88.7434 160.164 88.7434 169.374Z" stroke="black" stroke-width="20" stroke-miterlimit="10"/>
<path d="M247.179 119.342C247.179 128.552 239.713 136.02 230.502 136.02C221.292 136.02 213.824 128.552 213.824 119.342C213.824 110.132 221.292 102.665 230.502 102.665C239.713 102.665 247.179 110.132 247.179 119.342Z" stroke="black" stroke-width="20" stroke-miterlimit="10"/>
<path d="M155.452 136.02C155.452 145.23 147.985 152.697 138.775 152.697C129.565 152.697 122.098 145.23 122.098 136.02C122.098 126.81 129.565 119.342 138.775 119.342C147.985 119.342 155.452 126.81 155.452 136.02Z" stroke="black" stroke-width="20" stroke-miterlimit="10"/>
<path d="M372.258 169.374C372.258 178.584 379.724 186.052 388.935 186.052C398.146 186.052 405.613 178.584 405.613 169.374C405.613 160.164 398.146 152.697 388.935 152.697C379.724 152.697 372.258 160.164 372.258 169.374Z" stroke="black" stroke-width="20" stroke-miterlimit="10"/>
<path d="M305.549 136.02C305.549 145.23 313.015 152.697 322.226 152.697C331.437 152.697 338.904 145.23 338.904 136.02C338.904 126.81 331.437 119.342 322.226 119.342C313.015 119.342 305.549 126.81 305.549 136.02Z" stroke="black" stroke-width="20" stroke-miterlimit="10"/>
<path d="M134.606 247.947C121.465 239.852 113.76 230.015 113.76 219.406C113.76 191.774 166.027 169.374 230.501 169.374C294.975 169.374 347.243 191.774 347.243 219.406C347.243 230.015 339.538 239.852 326.396 247.947" stroke="black" stroke-width="20" stroke-miterlimit="10"/>
<path d="M430.63 60.9711C430.63 70.1811 423.164 77.6484 413.953 77.6484C404.742 77.6484 397.275 70.1811 397.275 60.9711C397.275 51.761 404.742 44.2937 413.953 44.2937C423.164 44.2937 430.63 51.761 430.63 60.9711Z" fill="#F8E868"/>
<path d="M430.63 60.9711C430.63 70.1811 423.164 77.6484 413.953 77.6484C404.742 77.6484 397.275 70.1811 397.275 60.9711C397.275 51.761 404.742 44.2937 413.953 44.2937C423.164 44.2937 430.63 51.761 430.63 60.9711Z" stroke="black" stroke-width="20" stroke-miterlimit="10"/>
<path d="M80.4043 19.2774V69.3096" stroke="black" stroke-width="20" stroke-miterlimit="10"/>
<path d="M105.421 44.2939H55.3887" stroke="black" stroke-width="20" stroke-miterlimit="10"/>
<path d="M413.951 269.439V319.471" stroke="black" stroke-width="20" stroke-miterlimit="10"/>
<path d="M438.968 294.455H388.936" stroke="black" stroke-width="20" stroke-miterlimit="10"/>
</svg>
