<svg width="235" height="72" viewBox="0 0 235 72" fill="none" xmlns="http://www.w3.org/2000/svg">
<mask id="mask0_115_439" style="mask-type:alpha" maskUnits="userSpaceOnUse" x="0" y="0" width="235" height="72">
<rect x="0.520508" y="0.188965" width="234.122" height="71.5708" fill="#D9D9D9"/>
</mask>
<g mask="url(#mask0_115_439)">
<path d="M75.5605 59.2057V68.3057H76.6655V59.2057H75.5605ZM80.2405 59.2057L76.3275 63.4957L80.4355 68.3057H81.8005L77.6665 63.4697L81.6055 59.2057H80.2405ZM83.3661 59.8557C83.3661 60.0463 83.4354 60.2153 83.5741 60.3627C83.7214 60.5013 83.8904 60.5707 84.0811 60.5707C84.2804 60.5707 84.4494 60.5013 84.5881 60.3627C84.7268 60.2153 84.7961 60.0463 84.7961 59.8557C84.7961 59.6563 84.7268 59.4873 84.5881 59.3487C84.4494 59.21 84.2804 59.1407 84.0811 59.1407C83.8904 59.1407 83.7214 59.21 83.5741 59.3487C83.4354 59.4873 83.3661 59.6563 83.3661 59.8557ZM83.5611 62.3257V68.3057H84.6011V62.3257H83.5611ZM91.098 64.6657V68.3057H92.138V64.5357C92.138 64.0503 92.0514 63.6343 91.878 63.2877C91.7134 62.941 91.4794 62.6723 91.176 62.4817C90.8727 62.291 90.5087 62.1957 90.084 62.1957C89.694 62.1957 89.3474 62.2823 89.044 62.4557C88.7494 62.629 88.5024 62.8977 88.303 63.2617V62.3257H87.263V68.3057H88.303V64.6657C88.303 64.371 88.3637 64.111 88.485 63.8857C88.615 63.6603 88.7927 63.487 89.018 63.3657C89.252 63.2357 89.5207 63.1707 89.824 63.1707C90.1014 63.1707 90.3354 63.227 90.526 63.3397C90.7167 63.4523 90.8597 63.6213 90.955 63.8467C91.0504 64.0633 91.098 64.3363 91.098 64.6657ZM99.0981 58.1657V68.3057H100.138V58.1657H99.0981ZM94.0931 65.3157C94.0931 65.957 94.2275 66.5117 94.4961 66.9797C94.7648 67.4477 95.1245 67.8073 95.5751 68.0587C96.0258 68.31 96.5198 68.4357 97.0571 68.4357C97.4298 68.4357 97.7678 68.3663 98.0711 68.2277C98.3831 68.0803 98.6475 67.8723 98.8641 67.6037C99.0895 67.335 99.2628 67.01 99.3841 66.6287C99.5055 66.2387 99.5661 65.801 99.5661 65.3157C99.5661 64.8303 99.5055 64.397 99.3841 64.0157C99.2628 63.6257 99.0895 63.2963 98.8641 63.0277C98.6475 62.759 98.3831 62.5553 98.0711 62.4167C97.7678 62.2693 97.4298 62.1957 97.0571 62.1957C96.5198 62.1957 96.0258 62.3213 95.5751 62.5727C95.1245 62.824 94.7648 63.1837 94.4961 63.6517C94.2275 64.111 94.0931 64.6657 94.0931 65.3157ZM95.1461 65.3157C95.1461 64.8563 95.2371 64.4663 95.4191 64.1457C95.6098 63.825 95.8611 63.5823 96.1731 63.4177C96.4851 63.253 96.8231 63.1707 97.1871 63.1707C97.4125 63.1707 97.6378 63.2183 97.8631 63.3137C98.0885 63.409 98.2921 63.5477 98.4741 63.7297C98.6648 63.9117 98.8165 64.137 98.9291 64.4057C99.0418 64.6657 99.0981 64.969 99.0981 65.3157C99.0981 65.6623 99.0418 65.97 98.9291 66.2387C98.8165 66.4987 98.6648 66.7197 98.4741 66.9017C98.2921 67.0837 98.0885 67.2223 97.8631 67.3177C97.6378 67.413 97.4125 67.4607 97.1871 67.4607C96.8231 67.4607 96.4851 67.3783 96.1731 67.2137C95.8611 67.049 95.6098 66.8063 95.4191 66.4857C95.2371 66.165 95.1461 65.775 95.1461 65.3157ZM104.861 68.4357C105.503 68.4357 106.057 68.31 106.525 68.0587C107.002 67.7987 107.396 67.4173 107.708 66.9147L106.863 66.3817C106.647 66.7457 106.382 67.0187 106.07 67.2007C105.758 67.374 105.399 67.4607 104.991 67.4607C104.584 67.4607 104.237 67.374 103.951 67.2007C103.665 67.0273 103.449 66.776 103.301 66.4467C103.154 66.1173 103.08 65.7187 103.08 65.2507C103.08 64.9127 103.124 64.6093 103.21 64.3407C103.297 64.072 103.423 63.8467 103.587 63.6647C103.752 63.4827 103.951 63.344 104.185 63.2487C104.428 63.1533 104.697 63.1057 104.991 63.1057C105.329 63.1057 105.624 63.1793 105.875 63.3267C106.127 63.474 106.322 63.6777 106.46 63.9377C106.608 64.1977 106.681 64.5053 106.681 64.8607C106.681 64.9213 106.668 64.9993 106.642 65.0947C106.616 65.1813 106.59 65.2463 106.564 65.2897L106.98 64.6917H102.69V65.5757H107.799C107.799 65.5583 107.799 65.5193 107.799 65.4587C107.808 65.3893 107.812 65.3243 107.812 65.2637C107.812 64.631 107.7 64.085 107.474 63.6257C107.249 63.1663 106.924 62.8153 106.499 62.5727C106.083 62.3213 105.581 62.1957 104.991 62.1957C104.549 62.1957 104.146 62.2737 103.782 62.4297C103.418 62.577 103.106 62.7893 102.846 63.0667C102.586 63.3353 102.383 63.6603 102.235 64.0417C102.097 64.423 102.027 64.8477 102.027 65.3157C102.027 65.931 102.144 66.4727 102.378 66.9407C102.621 67.4087 102.955 67.777 103.379 68.0457C103.813 68.3057 104.307 68.4357 104.861 68.4357ZM110.798 62.3257H109.758V68.3057H110.798V62.3257ZM112.605 63.4697L113.177 62.6117C113.021 62.447 112.847 62.3387 112.657 62.2867C112.475 62.226 112.275 62.1957 112.059 62.1957C111.781 62.1957 111.508 62.304 111.24 62.5207C110.971 62.7373 110.75 63.032 110.577 63.4047C110.412 63.7687 110.33 64.189 110.33 64.6657H110.798C110.798 64.3797 110.824 64.124 110.876 63.8987C110.936 63.6733 111.04 63.4957 111.188 63.3657C111.335 63.2357 111.539 63.1707 111.799 63.1707C111.972 63.1707 112.115 63.1967 112.228 63.2487C112.34 63.292 112.466 63.3657 112.605 63.4697ZM114.14 68.6957C114.14 69.207 114.266 69.6577 114.517 70.0477C114.769 70.4463 115.115 70.754 115.557 70.9707C116.008 71.1873 116.524 71.2957 117.104 71.2957C117.607 71.2957 118.084 71.1787 118.534 70.9447C118.985 70.7107 119.353 70.3597 119.639 69.8917C119.925 69.4323 120.068 68.8603 120.068 68.1757V62.3257H119.028V68.1757C119.028 68.6783 118.929 69.0857 118.729 69.3977C118.539 69.7183 118.296 69.9523 118.001 70.0997C117.707 70.247 117.408 70.3207 117.104 70.3207C116.714 70.3207 116.376 70.2427 116.09 70.0867C115.804 69.9393 115.583 69.74 115.427 69.4887C115.271 69.246 115.193 68.9817 115.193 68.6957H114.14ZM114.023 65.3157C114.023 65.957 114.158 66.5117 114.426 66.9797C114.695 67.4477 115.055 67.8073 115.505 68.0587C115.956 68.31 116.45 68.4357 116.987 68.4357C117.36 68.4357 117.698 68.3663 118.001 68.2277C118.313 68.0803 118.578 67.8723 118.794 67.6037C119.02 67.335 119.193 67.01 119.314 66.6287C119.436 66.2387 119.496 65.801 119.496 65.3157C119.496 64.8303 119.436 64.397 119.314 64.0157C119.193 63.6257 119.02 63.2963 118.794 63.0277C118.578 62.759 118.313 62.5553 118.001 62.4167C117.698 62.2693 117.36 62.1957 116.987 62.1957C116.45 62.1957 115.956 62.3213 115.505 62.5727C115.055 62.824 114.695 63.1837 114.426 63.6517C114.158 64.111 114.023 64.6657 114.023 65.3157ZM115.076 65.3157C115.076 64.8563 115.167 64.4663 115.349 64.1457C115.54 63.825 115.791 63.5823 116.103 63.4177C116.415 63.253 116.753 63.1707 117.117 63.1707C117.343 63.1707 117.568 63.2183 117.793 63.3137C118.019 63.409 118.222 63.5477 118.404 63.7297C118.595 63.9117 118.747 64.137 118.859 64.4057C118.972 64.6657 119.028 64.969 119.028 65.3157C119.028 65.6623 118.972 65.97 118.859 66.2387C118.747 66.4987 118.595 66.7197 118.404 66.9017C118.222 67.0837 118.019 67.2223 117.793 67.3177C117.568 67.413 117.343 67.4607 117.117 67.4607C116.753 67.4607 116.415 67.3783 116.103 67.2137C115.791 67.049 115.54 66.8063 115.349 66.4857C115.167 66.165 115.076 65.775 115.076 65.3157ZM122.945 66.4597C122.945 66.243 122.997 66.0567 123.101 65.9007C123.205 65.7447 123.361 65.6233 123.569 65.5367C123.786 65.45 124.063 65.4067 124.401 65.4067C124.765 65.4067 125.108 65.4543 125.428 65.5497C125.749 65.6363 126.061 65.7837 126.364 65.9917V65.3807C126.304 65.3027 126.187 65.203 126.013 65.0817C125.84 64.9517 125.606 64.839 125.311 64.7437C125.025 64.6397 124.666 64.5877 124.232 64.5877C123.747 64.5877 123.327 64.67 122.971 64.8347C122.625 64.9907 122.356 65.2117 122.165 65.4977C121.983 65.7837 121.892 66.1217 121.892 66.5117C121.892 66.919 121.988 67.2657 122.178 67.5517C122.369 67.8377 122.62 68.0587 122.932 68.2147C123.253 68.362 123.595 68.4357 123.959 68.4357C124.289 68.4357 124.618 68.375 124.947 68.2537C125.285 68.1323 125.567 67.946 125.792 67.6947C126.026 67.4433 126.143 67.127 126.143 66.7457L125.935 65.9657C125.935 66.2777 125.857 66.555 125.701 66.7977C125.554 67.0317 125.35 67.2137 125.09 67.3437C124.839 67.4737 124.553 67.5387 124.232 67.5387C123.981 67.5387 123.756 67.4997 123.556 67.4217C123.366 67.335 123.214 67.2093 123.101 67.0447C122.997 66.88 122.945 66.685 122.945 66.4597ZM122.789 63.7037C122.885 63.6343 123.015 63.552 123.179 63.4567C123.344 63.3613 123.543 63.279 123.777 63.2097C124.02 63.1403 124.289 63.1057 124.583 63.1057C124.765 63.1057 124.939 63.123 125.103 63.1577C125.268 63.1923 125.411 63.2487 125.532 63.3267C125.662 63.4047 125.762 63.513 125.831 63.6517C125.901 63.7817 125.935 63.9507 125.935 64.1587V68.3057H126.975V64.0157C126.975 63.6257 126.876 63.2963 126.676 63.0277C126.486 62.759 126.213 62.5553 125.857 62.4167C125.511 62.2693 125.103 62.1957 124.635 62.1957C124.081 62.1957 123.604 62.278 123.205 62.4427C122.815 62.6073 122.508 62.772 122.282 62.9367L122.789 63.7037ZM130.296 62.3257H129.256V68.3057H130.296V62.3257ZM132.103 63.4697L132.675 62.6117C132.519 62.447 132.346 62.3387 132.155 62.2867C131.973 62.226 131.774 62.1957 131.557 62.1957C131.28 62.1957 131.007 62.304 130.738 62.5207C130.469 62.7373 130.248 63.032 130.075 63.4047C129.91 63.7687 129.828 64.189 129.828 64.6657H130.296C130.296 64.3797 130.322 64.124 130.374 63.8987C130.435 63.6733 130.539 63.4957 130.686 63.3657C130.833 63.2357 131.037 63.1707 131.297 63.1707C131.47 63.1707 131.613 63.1967 131.726 63.2487C131.839 63.292 131.964 63.3657 132.103 63.4697ZM133.322 62.3257V63.3007H136.312V62.3257H133.322ZM134.297 60.2457V68.3057H135.337V60.2457H134.297ZM140.189 68.4357C140.831 68.4357 141.385 68.31 141.853 68.0587C142.33 67.7987 142.724 67.4173 143.036 66.9147L142.191 66.3817C141.975 66.7457 141.71 67.0187 141.398 67.2007C141.086 67.374 140.727 67.4607 140.319 67.4607C139.912 67.4607 139.565 67.374 139.279 67.2007C138.993 67.0273 138.777 66.776 138.629 66.4467C138.482 66.1173 138.408 65.7187 138.408 65.2507C138.408 64.9127 138.452 64.6093 138.538 64.3407C138.625 64.072 138.751 63.8467 138.915 63.6647C139.08 63.4827 139.279 63.344 139.513 63.2487C139.756 63.1533 140.025 63.1057 140.319 63.1057C140.657 63.1057 140.952 63.1793 141.203 63.3267C141.455 63.474 141.65 63.6777 141.788 63.9377C141.936 64.1977 142.009 64.5053 142.009 64.8607C142.009 64.9213 141.996 64.9993 141.97 65.0947C141.944 65.1813 141.918 65.2463 141.892 65.2897L142.308 64.6917H138.018V65.5757H143.127C143.127 65.5583 143.127 65.5193 143.127 65.4587C143.136 65.3893 143.14 65.3243 143.14 65.2637C143.14 64.631 143.028 64.085 142.802 63.6257C142.577 63.1663 142.252 62.8153 141.827 62.5727C141.411 62.3213 140.909 62.1957 140.319 62.1957C139.877 62.1957 139.474 62.2737 139.11 62.4297C138.746 62.577 138.434 62.7893 138.174 63.0667C137.914 63.3353 137.711 63.6603 137.563 64.0417C137.425 64.423 137.355 64.8477 137.355 65.3157C137.355 65.931 137.472 66.4727 137.706 66.9407C137.949 67.4087 138.283 67.777 138.707 68.0457C139.141 68.3057 139.635 68.4357 140.189 68.4357ZM148.921 64.6657V68.3057H149.961V64.5357C149.961 64.0503 149.874 63.6343 149.701 63.2877C149.536 62.941 149.302 62.6723 148.999 62.4817C148.695 62.291 148.331 62.1957 147.907 62.1957C147.517 62.1957 147.17 62.2823 146.867 62.4557C146.572 62.629 146.325 62.8977 146.126 63.2617V62.3257H145.086V68.3057H146.126V64.6657C146.126 64.371 146.186 64.111 146.308 63.8857C146.438 63.6603 146.615 63.487 146.841 63.3657C147.075 63.2357 147.343 63.1707 147.647 63.1707C147.924 63.1707 148.158 63.227 148.349 63.3397C148.539 63.4523 148.682 63.6213 148.778 63.8467C148.873 64.0633 148.921 64.3363 148.921 64.6657ZM158.777 63.3137L163.145 68.3057H164.393L159.583 62.7807C159.41 62.5813 159.236 62.3907 159.063 62.2087C158.898 62.018 158.76 61.8317 158.647 61.6497C158.543 61.4677 158.491 61.277 158.491 61.0777C158.491 60.8523 158.534 60.6617 158.621 60.5057C158.716 60.341 158.846 60.2153 159.011 60.1287C159.184 60.0333 159.388 59.9857 159.622 59.9857C159.865 59.9857 160.068 60.0333 160.233 60.1287C160.398 60.224 160.523 60.354 160.61 60.5187C160.705 60.6833 160.753 60.8783 160.753 61.1037C160.753 61.303 160.688 61.5067 160.558 61.7147C160.437 61.914 160.259 62.1133 160.025 62.3127C159.791 62.512 159.509 62.7027 159.18 62.8847C159.007 62.98 158.799 63.0883 158.556 63.2097C158.313 63.3223 158.066 63.4567 157.815 63.6127C157.564 63.7687 157.33 63.955 157.113 64.1717C156.905 64.3883 156.732 64.6397 156.593 64.9257C156.463 65.2117 156.398 65.5453 156.398 65.9267C156.398 66.438 156.537 66.8843 156.814 67.2657C157.1 67.6383 157.464 67.9287 157.906 68.1367C158.357 68.336 158.829 68.4357 159.323 68.4357C159.904 68.4357 160.437 68.3273 160.922 68.1107C161.407 67.894 161.858 67.608 162.274 67.2527C162.69 66.8973 163.08 66.4987 163.444 66.0567C163.808 65.606 164.163 65.1553 164.51 64.7047L163.704 64.1977C163.392 64.6223 163.067 65.0297 162.729 65.4197C162.4 65.8097 162.057 66.1607 161.702 66.4727C161.347 66.776 160.974 67.0187 160.584 67.2007C160.203 67.3827 159.804 67.4737 159.388 67.4737C159.041 67.4737 158.725 67.4087 158.439 67.2787C158.153 67.1487 157.923 66.9623 157.75 66.7197C157.585 66.477 157.503 66.191 157.503 65.8617C157.503 65.5323 157.581 65.2507 157.737 65.0167C157.893 64.7827 158.092 64.579 158.335 64.4057C158.586 64.2237 158.851 64.0633 159.128 63.9247C159.405 63.7773 159.661 63.6343 159.895 63.4957C160.198 63.3137 160.467 63.1317 160.701 62.9497C160.935 62.759 161.134 62.564 161.299 62.3647C161.464 62.1567 161.589 61.9487 161.676 61.7407C161.763 61.5327 161.806 61.3203 161.806 61.1037C161.806 60.7397 161.719 60.406 161.546 60.1027C161.373 59.7907 161.121 59.5393 160.792 59.3487C160.471 59.158 160.081 59.0627 159.622 59.0627C159.189 59.0627 158.803 59.145 158.465 59.3097C158.136 59.4743 157.876 59.7083 157.685 60.0117C157.494 60.315 157.399 60.6703 157.399 61.0777C157.399 61.407 157.481 61.7103 157.646 61.9877C157.819 62.265 158.014 62.5163 158.231 62.7417C158.456 62.9583 158.638 63.149 158.777 63.3137ZM170.628 59.2057V68.3057H171.733V59.2057H170.628ZM171.239 60.2457H173.098C173.488 60.2457 173.83 60.3107 174.125 60.4407C174.428 60.562 174.662 60.7483 174.827 60.9997C175 61.251 175.087 61.563 175.087 61.9357C175.087 62.3083 175 62.6203 174.827 62.8717C174.662 63.123 174.428 63.3137 174.125 63.4437C173.83 63.565 173.488 63.6257 173.098 63.6257H171.239V64.6657H173.098C173.687 64.6657 174.212 64.5573 174.671 64.3407C175.139 64.1153 175.507 63.799 175.776 63.3917C176.053 62.9757 176.192 62.4903 176.192 61.9357C176.192 61.3723 176.053 60.887 175.776 60.4797C175.507 60.0723 175.139 59.7603 174.671 59.5437C174.212 59.3183 173.687 59.2057 173.098 59.2057H171.239V60.2457ZM178.991 62.3257H177.951V68.3057H178.991V62.3257ZM180.798 63.4697L181.37 62.6117C181.214 62.447 181.041 62.3387 180.85 62.2867C180.668 62.226 180.469 62.1957 180.252 62.1957C179.975 62.1957 179.702 62.304 179.433 62.5207C179.165 62.7373 178.944 63.032 178.77 63.4047C178.606 63.7687 178.523 64.189 178.523 64.6657H178.991C178.991 64.3797 179.017 64.124 179.069 63.8987C179.13 63.6733 179.234 63.4957 179.381 63.3657C179.529 63.2357 179.732 63.1707 179.992 63.1707C180.166 63.1707 180.309 63.1967 180.421 63.2487C180.534 63.292 180.66 63.3657 180.798 63.4697ZM185.051 68.4357C185.692 68.4357 186.247 68.31 186.715 68.0587C187.192 67.7987 187.586 67.4173 187.898 66.9147L187.053 66.3817C186.836 66.7457 186.572 67.0187 186.26 67.2007C185.948 67.374 185.588 67.4607 185.181 67.4607C184.774 67.4607 184.427 67.374 184.141 67.2007C183.855 67.0273 183.638 66.776 183.491 66.4467C183.344 66.1173 183.27 65.7187 183.27 65.2507C183.27 64.9127 183.313 64.6093 183.4 64.3407C183.487 64.072 183.612 63.8467 183.777 63.6647C183.942 63.4827 184.141 63.344 184.375 63.2487C184.618 63.1533 184.886 63.1057 185.181 63.1057C185.519 63.1057 185.814 63.1793 186.065 63.3267C186.316 63.474 186.511 63.6777 186.65 63.9377C186.797 64.1977 186.871 64.5053 186.871 64.8607C186.871 64.9213 186.858 64.9993 186.832 65.0947C186.806 65.1813 186.78 65.2463 186.754 65.2897L187.17 64.6917H182.88V65.5757H187.989C187.989 65.5583 187.989 65.5193 187.989 65.4587C187.998 65.3893 188.002 65.3243 188.002 65.2637C188.002 64.631 187.889 64.085 187.664 63.6257C187.439 63.1663 187.114 62.8153 186.689 62.5727C186.273 62.3213 185.77 62.1957 185.181 62.1957C184.739 62.1957 184.336 62.2737 183.972 62.4297C183.608 62.577 183.296 62.7893 183.036 63.0667C182.776 63.3353 182.572 63.6603 182.425 64.0417C182.286 64.423 182.217 64.8477 182.217 65.3157C182.217 65.931 182.334 66.4727 182.568 66.9407C182.811 67.4087 183.144 67.777 183.569 68.0457C184.002 68.3057 184.496 68.4357 185.051 68.4357ZM194.768 65.5497L193.884 66.1477C194.083 66.5463 194.339 66.9233 194.651 67.2787C194.971 67.6253 195.34 67.907 195.756 68.1237C196.18 68.3317 196.64 68.4357 197.134 68.4357C197.498 68.4357 197.844 68.375 198.174 68.2537C198.512 68.1323 198.811 67.959 199.071 67.7337C199.339 67.5083 199.547 67.2353 199.695 66.9147C199.851 66.594 199.929 66.2343 199.929 65.8357C199.929 65.4197 199.855 65.0643 199.708 64.7697C199.56 64.4663 199.37 64.2107 199.136 64.0027C198.91 63.786 198.663 63.6083 198.395 63.4697C198.126 63.331 197.87 63.2183 197.628 63.1317C197.229 62.993 196.891 62.8543 196.614 62.7157C196.345 62.577 196.128 62.434 195.964 62.2867C195.808 62.1393 195.695 61.9833 195.626 61.8187C195.556 61.654 195.522 61.4763 195.522 61.2857C195.522 61.0863 195.569 60.9 195.665 60.7267C195.769 60.5533 195.925 60.4103 196.133 60.2977C196.341 60.185 196.609 60.1287 196.939 60.1287C197.294 60.1287 197.593 60.198 197.836 60.3367C198.087 60.4753 198.299 60.653 198.473 60.8697C198.646 61.0863 198.789 61.3073 198.902 61.5327L199.851 60.9867C199.703 60.666 199.5 60.3627 199.24 60.0767C198.98 59.782 198.663 59.5437 198.291 59.3617C197.927 59.171 197.498 59.0757 197.004 59.0757C196.492 59.0757 196.037 59.1797 195.639 59.3877C195.24 59.587 194.928 59.8643 194.703 60.2197C194.477 60.575 194.365 60.978 194.365 61.4287C194.365 61.8447 194.443 62.1957 194.599 62.4817C194.763 62.7677 194.971 63.0103 195.223 63.2097C195.474 63.4003 195.738 63.5607 196.016 63.6907C196.293 63.812 196.544 63.9117 196.77 63.9897C197.116 64.111 197.441 64.2497 197.745 64.4057C198.057 64.553 198.308 64.748 198.499 64.9907C198.689 65.2333 198.785 65.5583 198.785 65.9657C198.785 66.243 198.715 66.49 198.577 66.7067C198.447 66.9233 198.26 67.0923 198.018 67.2137C197.784 67.335 197.502 67.3957 197.173 67.3957C196.809 67.3957 196.484 67.3177 196.198 67.1617C195.912 67.0057 195.652 66.789 195.418 66.5117C195.192 66.2343 194.976 65.9137 194.768 65.5497ZM202.475 65.3157C202.475 64.8997 202.562 64.5313 202.735 64.2107C202.917 63.8813 203.16 63.6257 203.463 63.4437C203.775 63.2617 204.126 63.1707 204.516 63.1707C204.837 63.1707 205.136 63.2227 205.413 63.3267C205.699 63.422 205.946 63.552 206.154 63.7167C206.362 63.8813 206.509 64.0633 206.596 64.2627V62.9627C206.388 62.72 206.089 62.5337 205.699 62.4037C205.318 62.265 204.923 62.1957 204.516 62.1957C203.935 62.1957 203.411 62.33 202.943 62.5987C202.475 62.8673 202.102 63.2357 201.825 63.7037C201.556 64.1717 201.422 64.709 201.422 65.3157C201.422 65.9137 201.556 66.451 201.825 66.9277C202.102 67.3957 202.475 67.764 202.943 68.0327C203.411 68.3013 203.935 68.4357 204.516 68.4357C204.923 68.4357 205.318 68.3707 205.699 68.2407C206.089 68.102 206.388 67.9113 206.596 67.6687V66.3687C206.509 66.5593 206.362 66.7413 206.154 66.9147C205.946 67.0793 205.699 67.2137 205.413 67.3177C205.136 67.413 204.837 67.4607 204.516 67.4607C204.126 67.4607 203.775 67.3697 203.463 67.1877C203.16 66.997 202.917 66.7413 202.735 66.4207C202.562 66.1 202.475 65.7317 202.475 65.3157ZM209.775 58.1657H208.735V68.3057H209.775V58.1657ZM212.57 64.6657V68.3057H213.61V64.5357C213.61 64.0157 213.523 63.5823 213.35 63.2357C213.185 62.889 212.947 62.629 212.635 62.4557C212.332 62.2823 211.972 62.1957 211.556 62.1957C211.14 62.1957 210.772 62.304 210.451 62.5207C210.139 62.7373 209.892 63.032 209.71 63.4047C209.528 63.7687 209.437 64.189 209.437 64.6657H209.775C209.775 64.3797 209.836 64.124 209.957 63.8987C210.087 63.6733 210.265 63.4957 210.49 63.3657C210.724 63.2357 210.993 63.1707 211.296 63.1707C211.582 63.1707 211.816 63.227 211.998 63.3397C212.189 63.4523 212.332 63.6213 212.427 63.8467C212.522 64.0633 212.57 64.3363 212.57 64.6657ZM215.565 65.3157C215.565 65.9137 215.699 66.451 215.968 66.9277C216.245 67.3957 216.618 67.764 217.086 68.0327C217.554 68.3013 218.078 68.4357 218.659 68.4357C219.248 68.4357 219.773 68.3013 220.232 68.0327C220.7 67.764 221.068 67.3957 221.337 66.9277C221.614 66.451 221.753 65.9137 221.753 65.3157C221.753 64.709 221.614 64.1717 221.337 63.7037C221.068 63.2357 220.7 62.8673 220.232 62.5987C219.773 62.33 219.248 62.1957 218.659 62.1957C218.078 62.1957 217.554 62.33 217.086 62.5987C216.618 62.8673 216.245 63.2357 215.968 63.7037C215.699 64.1717 215.565 64.709 215.565 65.3157ZM216.618 65.3157C216.618 64.8997 216.705 64.5313 216.878 64.2107C217.06 63.8813 217.303 63.6257 217.606 63.4437C217.918 63.2617 218.269 63.1707 218.659 63.1707C219.049 63.1707 219.396 63.2617 219.699 63.4437C220.011 63.6257 220.254 63.8813 220.427 64.2107C220.609 64.5313 220.7 64.8997 220.7 65.3157C220.7 65.7317 220.609 66.1 220.427 66.4207C220.254 66.7413 220.011 66.997 219.699 67.1877C219.396 67.3697 219.049 67.4607 218.659 67.4607C218.269 67.4607 217.918 67.3697 217.606 67.1877C217.303 66.997 217.06 66.7413 216.878 66.4207C216.705 66.1 216.618 65.7317 216.618 65.3157ZM223.182 65.3157C223.182 65.9137 223.316 66.451 223.585 66.9277C223.862 67.3957 224.235 67.764 224.703 68.0327C225.171 68.3013 225.695 68.4357 226.276 68.4357C226.865 68.4357 227.389 68.3013 227.849 68.0327C228.317 67.764 228.685 67.3957 228.954 66.9277C229.231 66.451 229.37 65.9137 229.37 65.3157C229.37 64.709 229.231 64.1717 228.954 63.7037C228.685 63.2357 228.317 62.8673 227.849 62.5987C227.389 62.33 226.865 62.1957 226.276 62.1957C225.695 62.1957 225.171 62.33 224.703 62.5987C224.235 62.8673 223.862 63.2357 223.585 63.7037C223.316 64.1717 223.182 64.709 223.182 65.3157ZM224.235 65.3157C224.235 64.8997 224.321 64.5313 224.495 64.2107C224.677 63.8813 224.919 63.6257 225.223 63.4437C225.535 63.2617 225.886 63.1707 226.276 63.1707C226.666 63.1707 227.012 63.2617 227.316 63.4437C227.628 63.6257 227.87 63.8813 228.044 64.2107C228.226 64.5313 228.317 64.8997 228.317 65.3157C228.317 65.7317 228.226 66.1 228.044 66.4207C227.87 66.7413 227.628 66.997 227.316 67.1877C227.012 67.3697 226.666 67.4607 226.276 67.4607C225.886 67.4607 225.535 67.3697 225.223 67.1877C224.919 66.997 224.677 66.7413 224.495 66.4207C224.321 66.1 224.235 65.7317 224.235 65.3157ZM231.318 58.1657V68.3057H232.358V58.1657H231.318Z" fill="white"/>
<path d="M80.3647 50.9182C79.0147 50.9182 78.0547 50.7232 77.4847 50.3332C76.9147 49.9132 76.5697 49.3882 76.4497 48.7582C76.3297 48.0982 76.2697 47.4382 76.2697 46.7782V23.5132C76.2697 22.8532 76.3297 22.2082 76.4497 21.5782C76.5697 20.9482 76.9147 20.4382 77.4847 20.0482C78.0547 19.6282 79.0297 19.4182 80.4097 19.4182C81.7897 19.4182 82.7497 19.6282 83.2897 20.0482C83.8597 20.4382 84.2047 20.9482 84.3247 21.5782C84.4447 22.2082 84.5047 22.8682 84.5047 23.5582V29.7682L92.3347 20.8132C93.0247 20.0632 93.6697 19.5382 94.2697 19.2382C94.8697 18.9382 95.4847 18.8782 96.1147 19.0582C96.7447 19.2382 97.4347 19.6882 98.1847 20.4082C99.4147 21.5182 100.045 22.4932 100.075 23.3332C100.105 24.1732 99.6097 25.1332 98.5897 26.2132L89.7697 35.2132L98.6347 44.0782C99.7447 45.1882 100.255 46.1932 100.165 47.0932C100.105 47.9632 99.4597 48.9082 98.2297 49.9282C97.3297 50.6482 96.5647 51.0982 95.9347 51.2782C95.3047 51.4582 94.7197 51.3832 94.1797 51.0532C93.6397 50.7532 93.0397 50.2132 92.3797 49.4332L84.5047 40.4782V46.8232C84.5047 47.4832 84.4447 48.1282 84.3247 48.7582C84.2047 49.3882 83.8597 49.9132 83.2897 50.3332C82.7197 50.7232 81.7447 50.9182 80.3647 50.9182ZM107.803 50.9182C106.453 50.9182 105.493 50.7232 104.923 50.3332C104.353 49.9132 104.008 49.3882 103.888 48.7582C103.798 48.1282 103.753 47.4832 103.753 46.8232V32.1532C103.753 31.4932 103.813 30.8632 103.933 30.2632C104.053 29.6332 104.398 29.1232 104.968 28.7332C105.538 28.3132 106.498 28.1032 107.848 28.1032C109.198 28.1032 110.143 28.3132 110.683 28.7332C111.253 29.1232 111.598 29.6332 111.718 30.2632C111.838 30.8932 111.898 31.5532 111.898 32.2432V46.8682C111.898 47.5282 111.838 48.1732 111.718 48.8032C111.598 49.4332 111.253 49.9432 110.683 50.3332C110.143 50.7232 109.183 50.9182 107.803 50.9182ZM107.803 25.8982C106.453 25.8982 105.493 25.7032 104.923 25.3132C104.353 24.8932 104.008 24.3682 103.888 23.7382C103.798 23.1082 103.753 22.4632 103.753 21.8032C103.753 21.1132 103.813 20.4682 103.933 19.8682C104.053 19.2382 104.398 18.7282 104.968 18.3382C105.538 17.9482 106.498 17.7532 107.848 17.7532C109.198 17.7532 110.143 17.9632 110.683 18.3832C111.253 18.7732 111.598 19.2832 111.718 19.9132C111.838 20.5432 111.898 21.1882 111.898 21.8482C111.898 22.5082 111.838 23.1532 111.718 23.7832C111.598 24.4132 111.253 24.9232 110.683 25.3132C110.143 25.7032 109.183 25.8982 107.803 25.8982ZM174.931 50.9182C173.581 50.9182 172.621 50.7232 172.051 50.3332C171.481 49.9132 171.136 49.3882 171.016 48.7582C170.926 48.1282 170.881 47.4832 170.881 46.8232V32.1532C170.881 31.4932 170.941 30.8632 171.061 30.2632C171.181 29.6332 171.526 29.1232 172.096 28.7332C172.666 28.3132 173.626 28.1032 174.976 28.1032C176.326 28.1032 177.271 28.3132 177.811 28.7332C178.381 29.1232 178.726 29.6332 178.846 30.2632C178.966 30.8932 179.026 31.5532 179.026 32.2432V46.8682C179.026 47.5282 178.966 48.1732 178.846 48.8032C178.726 49.4332 178.381 49.9432 177.811 50.3332C177.271 50.7232 176.311 50.9182 174.931 50.9182ZM174.931 25.8982C173.581 25.8982 172.621 25.7032 172.051 25.3132C171.481 24.8932 171.136 24.3682 171.016 23.7382C170.926 23.1082 170.881 22.4632 170.881 21.8032C170.881 21.1132 170.941 20.4682 171.061 19.8682C171.181 19.2382 171.526 18.7282 172.096 18.3382C172.666 17.9482 173.626 17.7532 174.976 17.7532C176.326 17.7532 177.271 17.9632 177.811 18.3832C178.381 18.7732 178.726 19.2832 178.846 19.9132C178.966 20.5432 179.026 21.1882 179.026 21.8482C179.026 22.5082 178.966 23.1532 178.846 23.7832C178.726 24.4132 178.381 24.9232 177.811 25.3132C177.271 25.7032 176.311 25.8982 174.931 25.8982ZM188 50.8732C186.65 50.8732 185.69 50.6782 185.12 50.2882C184.55 49.8682 184.205 49.3432 184.085 48.7132C183.995 48.0832 183.95 47.4382 183.95 46.7782V31.9732C183.95 31.3132 184.01 30.6832 184.13 30.0832C184.25 29.4832 184.595 29.0032 185.165 28.6432C185.735 28.2532 186.695 28.0582 188.045 28.0582C189.275 28.0582 190.16 28.2232 190.7 28.5532C191.27 28.8532 191.63 29.2282 191.78 29.6782C191.93 30.1282 191.99 30.5482 191.96 30.9382C191.96 31.2982 191.99 31.5232 192.05 31.6132L191.69 31.8832C191.66 31.4332 191.825 30.9832 192.185 30.5332C192.575 30.0832 193.07 29.6782 193.67 29.3182C194.3 28.9282 194.96 28.6282 195.65 28.4182C196.37 28.1782 197.045 28.0582 197.675 28.0582C199.175 28.0582 200.495 28.3432 201.635 28.9132C202.775 29.4832 203.72 30.2932 204.47 31.3432C205.25 32.3632 205.835 33.5632 206.225 34.9432C206.615 36.3232 206.81 37.8232 206.81 39.4432V46.8232C206.81 47.4832 206.75 48.1282 206.63 48.7582C206.51 49.3882 206.165 49.8982 205.595 50.2882C205.055 50.6782 204.095 50.8732 202.715 50.8732C201.335 50.8732 200.36 50.6782 199.79 50.2882C199.22 49.8682 198.875 49.3432 198.755 48.7132C198.635 48.0832 198.575 47.4382 198.575 46.7782V39.4432C198.575 38.7532 198.44 38.1682 198.17 37.6882C197.93 37.2082 197.57 36.8482 197.09 36.6082C196.64 36.3382 196.07 36.2032 195.38 36.2032C194.72 36.2032 194.135 36.3382 193.625 36.6082C193.145 36.8782 192.77 37.2532 192.5 37.7332C192.23 38.2132 192.095 38.7832 192.095 39.4432V46.8232C192.095 47.4832 192.035 48.1282 191.915 48.7582C191.795 49.3882 191.45 49.8982 190.88 50.2882C190.34 50.6782 189.38 50.8732 188 50.8732ZM222.688 51.3232C221.308 51.3232 219.913 51.0532 218.503 50.5132C217.093 49.9432 215.788 49.1482 214.588 48.1282C213.418 47.0782 212.473 45.8332 211.753 44.3932C211.063 42.9232 210.718 41.2882 210.718 39.4882C210.718 37.8382 211.033 36.2932 211.663 34.8532C212.293 33.4132 213.148 32.1532 214.228 31.0732C215.338 29.9632 216.598 29.0932 218.008 28.4632C219.448 27.8332 220.978 27.5182 222.598 27.5182C224.818 27.5182 226.828 28.0582 228.628 29.1382C230.428 30.1882 231.868 31.6132 232.948 33.4132C234.028 35.2132 234.568 37.2232 234.568 39.4432C234.568 41.3332 234.208 43.0132 233.488 44.4832C232.768 45.9532 231.823 47.1982 230.653 48.2182C229.483 49.2382 228.193 50.0032 226.783 50.5132C225.403 51.0532 224.038 51.3232 222.688 51.3232ZM222.598 43.0882C223.048 43.0882 223.558 42.9832 224.128 42.7732C224.728 42.5332 225.238 42.1432 225.658 41.6032C226.108 41.0632 226.333 40.3282 226.333 39.3982C226.333 38.6482 226.168 38.0032 225.838 37.4632C225.538 36.9232 225.103 36.5032 224.533 36.2032C223.963 35.9032 223.303 35.7532 222.553 35.7532C221.893 35.7532 221.293 35.9182 220.753 36.2482C220.213 36.5482 219.778 36.9832 219.448 37.5532C219.118 38.0932 218.953 38.7232 218.953 39.4432C218.953 40.3432 219.163 41.0632 219.583 41.6032C220.003 42.1432 220.498 42.5332 221.068 42.7732C221.638 42.9832 222.148 43.0882 222.598 43.0882Z" fill="white"/>
<path d="M126.542 50.8282C125.192 50.8282 123.887 50.5282 122.627 49.9282C121.397 49.2982 120.287 48.4582 119.297 47.4082C118.337 46.3282 117.572 45.0982 117.002 43.7182C116.432 42.3382 116.147 40.8982 116.147 39.3982C116.147 37.9582 116.432 36.5632 117.002 35.2132C117.572 33.8632 118.352 32.6632 119.342 31.6132C120.332 30.5332 121.442 29.6782 122.672 29.0482C123.932 28.4182 125.222 28.1032 126.542 28.1032C127.982 28.1032 129.227 28.4182 130.277 29.0482C131.327 29.6482 132.197 30.4732 132.887 31.5232C133.577 32.5732 134.087 33.7732 134.417 35.1232C134.777 36.4732 134.972 37.8682 135.002 39.3082C135.032 40.7782 134.882 42.2032 134.552 43.5832C134.222 44.9332 133.712 46.1632 133.022 47.2732C132.332 48.3532 131.447 49.2232 130.367 49.8832C129.317 50.5132 128.042 50.8282 126.542 50.8282ZM127.622 42.7282C128.192 42.7282 128.717 42.5782 129.197 42.2782C129.677 41.9782 130.067 41.5882 130.367 41.1082C130.667 40.5982 130.817 40.0582 130.817 39.4882C130.817 38.8882 130.667 38.3482 130.367 37.8682C130.097 37.3882 129.722 36.9982 129.242 36.6982C128.762 36.3982 128.207 36.2482 127.577 36.2482C126.977 36.2482 126.422 36.3982 125.912 36.6982C125.432 36.9682 125.042 37.3582 124.742 37.8682C124.472 38.3482 124.337 38.8882 124.337 39.4882C124.337 40.0582 124.487 40.5982 124.787 41.1082C125.087 41.5882 125.492 41.9782 126.002 42.2782C126.512 42.5782 127.052 42.7282 127.622 42.7282ZM135.002 50.8732C133.802 50.8732 132.902 50.6932 132.302 50.3332C131.702 49.9732 131.297 49.4032 131.087 48.6232V21.8482C131.087 21.1882 131.117 20.5432 131.177 19.9132C131.267 19.2832 131.582 18.7732 132.122 18.3832C132.662 17.9632 133.607 17.7532 134.957 17.7532C136.337 17.7532 137.297 17.9482 137.837 18.3382C138.407 18.7282 138.752 19.2382 138.872 19.8682C138.992 20.4682 139.052 21.1132 139.052 21.8032V46.7782C139.052 47.4382 138.992 48.0832 138.872 48.7132C138.752 49.3432 138.407 49.8682 137.837 50.2882C137.297 50.6782 136.352 50.8732 135.002 50.8732ZM153.459 50.8282C152.109 50.8282 150.804 50.5282 149.544 49.9282C148.314 49.2982 147.204 48.4582 146.214 47.4082C145.254 46.3282 144.489 45.0982 143.919 43.7182C143.349 42.3382 143.064 40.8982 143.064 39.3982C143.064 37.9582 143.349 36.5632 143.919 35.2132C144.489 33.8632 145.269 32.6632 146.259 31.6132C147.249 30.5332 148.359 29.6782 149.589 29.0482C150.849 28.4182 152.139 28.1032 153.459 28.1032C154.899 28.1032 156.144 28.4182 157.194 29.0482C158.244 29.6482 159.114 30.4732 159.804 31.5232C160.494 32.5732 161.004 33.7732 161.334 35.1232C161.694 36.4732 161.889 37.8682 161.919 39.3082C161.949 40.7782 161.799 42.2032 161.469 43.5832C161.139 44.9332 160.629 46.1632 159.939 47.2732C159.249 48.3532 158.364 49.2232 157.284 49.8832C156.234 50.5132 154.959 50.8282 153.459 50.8282ZM154.539 42.7282C155.109 42.7282 155.634 42.5782 156.114 42.2782C156.594 41.9782 156.984 41.5882 157.284 41.1082C157.584 40.5982 157.734 40.0582 157.734 39.4882C157.734 38.8882 157.584 38.3482 157.284 37.8682C157.014 37.3882 156.639 36.9982 156.159 36.6982C155.679 36.3982 155.124 36.2482 154.494 36.2482C153.894 36.2482 153.339 36.3982 152.829 36.6982C152.349 36.9682 151.959 37.3582 151.659 37.8682C151.389 38.3482 151.254 38.8882 151.254 39.4882C151.254 40.0582 151.404 40.5982 151.704 41.1082C152.004 41.5882 152.409 41.9782 152.919 42.2782C153.429 42.5782 153.969 42.7282 154.539 42.7282ZM161.919 50.8732C160.719 50.8732 159.819 50.6932 159.219 50.3332C158.619 49.9732 158.214 49.4032 158.004 48.6232V21.8482C158.004 21.1882 158.034 20.5432 158.094 19.9132C158.184 19.2832 158.499 18.7732 159.039 18.3832C159.579 17.9632 160.524 17.7532 161.874 17.7532C163.254 17.7532 164.214 17.9482 164.754 18.3382C165.324 18.7282 165.669 19.2382 165.789 19.8682C165.909 20.4682 165.969 21.1132 165.969 21.8032V46.7782C165.969 47.4382 165.909 48.0832 165.789 48.7132C165.669 49.3432 165.324 49.8682 164.754 50.2882C164.214 50.6782 163.269 50.8732 161.919 50.8732Z" fill="#E8063C"/>
<path d="M60.6535 60.2225C60.4888 62.7585 60.2836 65.2945 60.0414 67.8303C40.9167 69.1082 21.7931 69.1082 2.66961 67.8303C2.42743 65.2943 2.22218 62.7584 2.05747 60.2225C1.17852 46.782 1.38257 33.3428 2.66961 19.9023C21.7931 18.6244 40.9167 18.6244 60.0414 19.9023C61.3283 33.3428 61.5324 46.782 60.6535 60.2225Z" fill="#F7F9F9"/>
<path d="M60.6537 60.2231C60.489 62.7591 60.2837 65.2951 60.0415 67.8309C40.9168 69.1088 21.7933 69.1088 2.66976 67.8309C2.42758 65.2949 2.22233 62.759 2.05762 60.2231H60.6537Z" fill="#BCDF95"/>
<path d="M21.2857 31.7243C22.5025 33.9929 21.1038 37.7176 17.8467 37.7176C14.5895 37.7176 11.9492 35.0342 11.9492 31.7243C11.9492 28.4143 14.5895 25.731 17.8467 25.731C21.1038 25.731 23.7441 28.4142 23.7441 31.7243" fill="#80B4FB"/>
<path d="M36.4938 38.0278C38.3112 38.1719 39.9669 40.4826 38.6932 42.4719C37.4195 44.4613 34.8001 45.0245 32.8427 43.7301C30.8853 42.4358 30.331 39.7738 31.6046 37.7845C32.8783 35.7953 35.8329 34.7085 37.7905 36.0028" fill="#DD636E"/>
<path d="M50.91 36.7666C53.9087 36.7666 56.3396 34.2962 56.3396 31.2488C56.3396 28.2014 53.9087 25.731 50.91 25.731C47.9114 25.731 45.4805 28.2014 45.4805 31.2488C45.4805 34.2962 47.9114 36.7666 50.91 36.7666Z" fill="#F6E266"/>
<path d="M41.4469 9.1416C41.4469 9.1416 38.7165 10.9064 38.4287 14.8666C41.5308 17.281 44.6433 16.382 44.6433 16.382L45.5232 11.6319L41.4469 9.1416Z" fill="#F6E266"/>
<path d="M42.4767 11.4752C42.4767 11.4752 39.6234 12.9611 38.4277 14.8668C38.7163 10.9066 41.4464 9.1416 41.4464 9.1416L45.5227 11.6317L42.4767 11.4752Z" fill="#ECBE6B"/>
<path d="M41.4463 9.14223C47.1606 6.30493 52.96 3.66059 58.8447 1.20947C60.3741 3.41135 61.4395 5.8248 62.0411 8.4497C56.3268 11.2871 50.5274 13.9313 44.6427 16.3824L41.4463 9.14223Z" fill="#80B4FB"/>
<path d="M42.4766 11.4757L41.4463 9.14223C47.1607 6.30425 52.9593 3.66046 58.8446 1.20947C59.3363 1.91818 59.7811 2.64988 60.1776 3.40196C54.2475 6.02686 48.3482 8.71811 42.4766 11.4757V11.4757Z" fill="#61A2F9"/>
<path d="M23.0859 21.8076C23.0859 21.8076 25.6802 23.7731 29.4245 22.6379C30.5415 18.8327 28.6075 16.1963 28.6075 16.1963L23.9261 17.0501L23.0859 21.8076Z" fill="#F6E266"/>
<path d="M24.8655 19.9991C24.8655 19.9991 27.2468 22.1807 29.4248 22.6384C25.6801 23.773 23.0859 21.8077 23.0859 21.8077L23.9261 17.0503L24.8655 19.9991Z" fill="#ECBE6B"/>
<path d="M23.0856 21.8082C18.4436 17.3901 13.9489 12.8223 9.60156 8.10501C11.0825 5.86914 12.9231 3.99878 15.1232 2.49365C19.7652 6.91168 24.2598 11.4794 28.6072 16.1969L23.0856 21.8082Z" fill="#DD636E"/>
<path d="M24.865 19.9991L23.0855 21.8076C18.4428 17.3897 13.9489 12.8226 9.60156 8.10464C10.0784 7.38546 10.593 6.70285 11.1436 6.05859C15.6669 10.7573 20.2404 15.4032 24.865 19.9991V19.9991Z" fill="#DA4A54"/>
<path d="M60.1068 18.8853C50.272 18.2278 40.3017 17.9066 30.4619 17.9272C30.0741 16.5095 29.4599 15.6521 29.4118 15.5866L29.4114 15.5869C29.3892 15.5567 29.3655 15.5272 29.3397 15.499C24.9978 10.7877 20.4455 6.1615 15.8092 1.74864C15.4679 1.42379 14.951 1.3815 14.5629 1.64693C12.2652 3.21882 10.316 5.19973 8.76924 7.53486C8.50806 7.9292 8.54954 8.45461 8.86932 8.80149C11.7853 11.9657 14.7973 15.0892 17.8644 18.1374C12.7951 18.2963 7.67287 18.5469 2.60364 18.8854C2.11312 18.9182 1.71814 19.3071 1.6705 19.8042C0.628855 30.6825 0.292477 41.716 0.671003 52.598C0.690137 53.1486 1.13543 53.5818 1.67318 53.5818C1.68522 53.5818 1.69726 53.5817 1.70931 53.5811C2.26325 53.5613 2.69636 53.0887 2.6767 52.5259C2.31142 42.0214 2.61769 31.3738 3.58695 20.8647C9.00701 20.5137 14.4811 20.2641 19.8784 20.1198C20.716 20.9363 21.5558 21.7488 22.3997 22.5519C22.4274 22.5783 22.4564 22.6022 22.4862 22.6248L22.486 22.6252C22.5808 22.697 24.3564 24.0119 27.0948 24.0117C27.7223 24.0117 28.4012 23.941 29.1213 23.7721L29.2715 23.9247C29.4675 24.1238 29.7244 24.2234 29.9811 24.2234C30.2379 24.2234 30.4948 24.1239 30.6908 23.9247C31.0827 23.5264 31.0827 22.8807 30.6908 22.4825L30.5402 22.3294C30.7331 21.4798 30.7952 20.6874 30.7707 19.9663C40.1869 19.953 49.7112 20.2544 59.1235 20.8645C60.5314 36.1326 60.5314 51.5987 59.1235 66.8693C40.6931 68.0637 22.0179 68.0639 3.58722 66.8693C3.27011 63.4347 3.02244 59.969 2.85024 56.5552C2.82187 55.9927 2.34955 55.5594 1.79668 55.5889C1.24314 55.6178 0.817516 56.0971 0.845882 56.6596C1.03401 60.3907 1.31151 64.1825 1.67077 67.9298C1.71841 68.4269 2.11339 68.8158 2.60377 68.8486C12.1429 69.4861 21.7491 69.8049 31.3554 69.8049C40.9617 69.8049 50.5681 69.4862 60.1072 68.8486C60.5976 68.8158 60.9926 68.4268 61.0402 67.9297C62.5686 51.9615 62.5686 35.7698 61.0402 19.8045C60.9922 19.3071 60.5973 18.9182 60.1068 18.8853V18.8853ZM10.8923 8.01133C12.057 6.39851 13.4446 4.98829 15.0317 3.80475C19.1948 7.79009 23.2854 11.9449 27.2097 16.1742L23.064 20.3874C18.9023 16.3993 14.814 12.2422 10.8923 8.01133V8.01133ZM24.7626 21.5454L28.3488 17.9008C28.6754 18.7787 28.9632 20.1365 28.6014 21.8017C26.9615 22.1698 25.6262 21.8777 24.7626 21.5454Z" fill="black"/>
<path d="M9.44557 44.9259C8.95772 45.1931 8.77535 45.8116 9.03827 46.3074C9.30133 46.8033 9.90999 46.9886 10.3978 46.7213L16.8431 43.1912V48.7556L11.0646 61.1646C10.8276 61.6737 11.0414 62.2817 11.5424 62.5226C12.0432 62.7634 12.6417 62.5461 12.8787 62.037L17.8465 51.369L22.8141 62.037C22.9855 62.4053 23.346 62.6209 23.7218 62.6209C23.8657 62.6209 24.0118 62.5894 24.1504 62.5226C24.6514 62.2817 24.8653 61.6737 24.6282 61.1646L18.8498 48.7556V43.2406L26.3901 48.0148C26.5492 48.1156 26.7331 48.169 26.9208 48.169L34.0048 48.1694V52.3257L29.8888 61.1645C29.6518 61.6736 29.8656 62.2815 30.3666 62.5225C30.5052 62.5891 30.6513 62.6208 30.7952 62.6208C31.171 62.6208 31.5315 62.4051 31.7029 62.0369L35.0082 54.9389L38.3134 62.0369C38.5503 62.5461 39.1487 62.7634 39.6496 62.5225C40.1506 62.2815 40.3646 61.6736 40.1275 61.1645L36.0116 52.3257V48.9561L40.9839 52.1043C41.1489 52.2089 41.3323 52.2587 41.5136 52.2587C41.8487 52.2587 42.1761 52.0883 42.3662 51.778C42.6593 51.2999 42.5156 50.671 42.0452 50.3731L36.0116 46.5528V45.3706C36.0848 45.3581 36.1578 45.3452 36.2309 45.3294C37.5982 45.0355 38.771 44.218 39.5332 43.0275C40.2666 41.882 40.3452 40.5201 39.7488 39.2908C39.1272 38.0094 37.8794 37.1143 36.5706 37.0105C36.0163 36.9678 35.5351 37.3865 35.492 37.9481C35.4489 38.5097 35.862 39.0003 36.4146 39.0442C37.0127 39.0915 37.6436 39.564 37.9488 40.1929C38.1464 40.6003 38.2898 41.2297 37.8511 41.9153C37.3812 42.6491 36.6584 43.153 35.8156 43.3342C34.9726 43.5154 34.111 43.3523 33.3889 42.8749C32.6669 42.3974 32.1709 41.6627 31.9926 40.8063C31.8142 39.9498 31.9746 39.0741 32.4445 38.3402C32.9387 37.5684 33.7954 36.9314 34.736 36.6362C35.286 36.4635 36.3431 36.2628 37.2419 36.8571C37.7067 37.1644 38.328 37.0306 38.6303 36.5587C38.9327 36.0865 38.8011 35.4548 38.3366 35.1476C37.1621 34.3709 35.6732 34.2075 34.144 34.6875C32.7481 35.1255 31.5157 36.0515 30.7625 37.2279C30.0002 38.4183 29.7397 39.8391 30.0293 41.2286C30.3186 42.6181 31.123 43.8099 32.2944 44.5846C32.8259 44.9361 33.4042 45.1818 34.0048 45.3188V46.1301L27.2078 46.1297L18.8497 40.8377V38.6335C20.1516 38.3629 21.2573 37.5638 21.9678 36.3478C22.8992 34.754 22.9771 32.7472 22.1661 31.2354C21.9012 30.7409 21.2916 30.5587 20.8048 30.828C20.3181 31.0976 20.1386 31.7171 20.404 32.2116C20.8752 33.0904 20.8102 34.3341 20.2421 35.3063C19.9386 35.8257 19.2238 36.6971 17.8462 36.6971C15.1477 36.6971 12.9523 34.466 12.9523 31.7236C12.9523 28.9812 15.1477 26.7501 17.8462 26.7501C20.5447 26.7501 22.74 28.9812 22.74 31.7236C22.74 32.2868 23.1892 32.7434 23.7435 32.7434C24.2979 32.7434 24.747 32.2868 24.747 31.7236C24.747 27.8565 21.6513 24.7104 17.8462 24.7104C14.041 24.7104 10.9452 27.8565 10.9452 31.7236C10.9452 35.2442 13.5115 38.1663 16.8427 38.6618V40.8744L9.44557 44.9259Z" fill="black"/>
<path d="M50.9096 24.71C47.3624 24.71 44.4766 27.6427 44.4766 31.2476C44.4766 34.8525 47.3624 37.7852 50.9096 37.7852C54.4569 37.7852 57.3427 34.8525 57.3427 31.2476C57.3427 27.6427 54.4569 24.71 50.9096 24.71V24.71ZM50.9096 35.7456C48.4691 35.7456 46.4836 33.7278 46.4836 31.2476C46.4836 28.7674 48.4691 26.7496 50.9096 26.7496C53.3502 26.7496 55.3357 28.7674 55.3357 31.2476C55.3357 33.7278 53.3503 35.7456 50.9096 35.7456Z" fill="black"/>
<path d="M43.5183 24.7611L39.534 23.4344C39.0071 23.2587 38.4404 23.5508 38.268 24.086C38.0953 24.6213 38.3824 25.1973 38.9091 25.3726L42.8935 26.6993C42.9972 26.7339 43.1025 26.7503 43.206 26.7503C43.6282 26.7503 44.021 26.4775 44.1595 26.0477C44.3321 25.5125 44.0451 24.9364 43.5183 24.7611Z" fill="black"/>
<path d="M37.5723 31.7239C37.5723 32.2871 38.0214 32.7438 38.5758 32.7438H41.5157C42.07 32.7438 42.5192 32.2871 42.5192 31.7239C42.5192 31.1607 42.07 30.7041 41.5157 30.7041H38.5758C38.0214 30.7041 37.5723 31.1607 37.5723 31.7239Z" fill="black"/>
<path d="M44.1222 44.2757C44.259 44.3403 44.4027 44.3707 44.5441 44.3707C44.9227 44.3707 45.2851 44.152 45.4551 43.7801L47.1901 39.9817C47.4234 39.4708 47.205 38.8645 46.7024 38.6274C46.1994 38.3901 45.6028 38.612 45.3696 39.123L43.6345 42.9214C43.4012 43.4321 43.6196 44.0384 44.1222 44.2757Z" fill="black"/>
<path d="M55.827 44.1296L55.0472 39.3843C54.9559 38.8288 54.4385 38.4533 53.8921 38.5464C53.3454 38.6391 52.9762 39.1647 53.0676 39.7203L53.8474 44.4656C53.9293 44.9642 54.3544 45.3176 54.8361 45.3176C54.8909 45.3176 54.9466 45.313 55.0025 45.3035C55.5492 45.2108 55.9184 44.6852 55.827 44.1296V44.1296Z" fill="black"/>
<path d="M14.2207 31.1262V31.1886C14.2207 31.7518 14.6698 32.2084 15.2242 32.2084C15.7785 32.2084 16.2276 31.7518 16.2276 31.1886V31.1262C16.2276 30.563 15.7785 30.1064 15.2242 30.1064C14.6698 30.1064 14.2207 30.563 14.2207 31.1262Z" fill="black"/>
<path d="M16.8428 29.9509V30.0133C16.8428 30.5765 17.2919 31.0331 17.8462 31.0331C18.4005 31.0331 18.8497 30.5765 18.8497 30.0133V29.9509C18.8497 29.3877 18.4005 28.9312 17.8462 28.9312C17.2919 28.9312 16.8428 29.3877 16.8428 29.9509Z" fill="black"/>
<path d="M32.8071 39.6933L32.7726 39.745C32.4616 40.2112 32.5814 40.8452 33.0401 41.1613C33.2126 41.2802 33.4085 41.337 33.6022 41.337C33.9237 41.337 34.2397 41.1801 34.4337 40.8893L34.4683 40.8376C34.7792 40.3714 34.6594 39.7373 34.2007 39.4212C33.742 39.1054 33.118 39.2272 32.8071 39.6933V39.6933Z" fill="black"/>
<path d="M36.4225 41.8581C36.744 41.8581 37.06 41.7012 37.2541 41.4104L37.2886 41.3587C37.5995 40.8925 37.4798 40.2584 37.021 39.9423C36.5621 39.6263 35.9382 39.7482 35.6274 40.2143L35.5929 40.2659C35.2819 40.7322 35.4017 41.3662 35.8605 41.6823C36.0329 41.8011 36.2288 41.8581 36.4225 41.8581Z" fill="black"/>
<path d="M6.16914 61.0947V59.3514C6.16914 58.7882 5.71997 58.3315 5.16563 58.3315C4.61128 58.3315 4.16211 58.7882 4.16211 59.3514V61.0947C4.16211 61.6579 4.61128 62.1146 5.16563 62.1146C5.71997 62.1146 6.16914 61.6579 6.16914 61.0947Z" fill="black"/>
<path d="M8.81953 61.0947V59.3514C8.81953 58.7882 8.37036 58.3315 7.81602 58.3315C7.26167 58.3315 6.8125 58.7882 6.8125 59.3514V61.0947C6.8125 61.6579 7.26167 62.1146 7.81602 62.1146C8.37036 62.1146 8.81953 61.6579 8.81953 61.0947Z" fill="black"/>
<path d="M43.2193 58.3315C42.665 58.3315 42.2158 58.7882 42.2158 59.3514V61.0947C42.2158 61.6579 42.665 62.1146 43.2193 62.1146C43.7737 62.1146 44.2229 61.6579 44.2229 61.0947V59.3514C44.2229 58.7882 43.7737 58.3315 43.2193 58.3315Z" fill="black"/>
<path d="M44.8662 59.3514V61.0947C44.8662 61.6579 45.3154 62.1146 45.8697 62.1146C46.4241 62.1146 46.8732 61.6579 46.8732 61.0947V59.3514C46.8732 58.7882 46.4241 58.3315 45.8697 58.3315C45.3154 58.3315 44.8662 58.7882 44.8662 59.3514Z" fill="black"/>
<path d="M50.4033 59.3514V61.0947C50.4033 61.6579 50.8525 62.1146 51.4068 62.1146C51.9612 62.1146 52.4104 61.6579 52.4104 61.0947V59.3514C52.4104 58.7882 51.9612 58.3315 51.4068 58.3315C50.8525 58.3315 50.4033 58.7882 50.4033 59.3514Z" fill="black"/>
<path d="M54.0582 58.3315C53.5039 58.3315 53.0547 58.7882 53.0547 59.3514V61.0947C53.0547 61.6579 53.5039 62.1146 54.0582 62.1146C54.6125 62.1146 55.0617 61.6579 55.0617 61.0947V59.3514C55.0617 58.7882 54.6124 58.3315 54.0582 58.3315Z" fill="black"/>
<path d="M56.1738 59.3514V61.0947C56.1738 61.6579 56.623 62.1146 57.1773 62.1146C57.7317 62.1146 58.1809 61.6579 58.1809 61.0947V59.3514C58.1809 58.7882 57.7317 58.3315 57.1773 58.3315C56.623 58.3315 56.1738 58.7882 56.1738 59.3514Z" fill="black"/>
<path d="M63.0187 8.21877C62.3915 5.47816 61.2631 2.92179 59.6645 0.620795C59.3948 0.232445 58.8966 0.0847738 58.4638 0.265487C56.3877 1.13098 54.315 2.02299 52.3027 2.91649C51.7948 3.14208 51.5631 3.74323 51.7851 4.25926C52.0069 4.77543 52.5984 5.01094 53.1064 4.78549C54.861 4.00635 56.6621 3.22829 58.4714 2.46818C59.5409 4.14858 60.3445 5.96863 60.8677 7.89596C55.7214 10.4325 50.446 12.8395 45.1602 15.063L42.7601 9.62613C44.9521 8.54648 47.2022 7.4743 49.462 6.4334C49.9667 6.20088 50.1904 5.59646 49.9616 5.08342C49.7328 4.57038 49.1383 4.34303 48.6332 4.57568C46.0547 5.76358 43.4884 6.99172 41.0054 8.22584C40.9714 8.24271 40.9392 8.26161 40.908 8.28173L40.9077 8.28132C40.7851 8.3606 38.0338 10.1858 37.4933 14.1752L37.299 14.2638C36.7933 14.4944 36.5673 15.0978 36.7943 15.6117C36.9613 15.99 37.3272 16.2143 37.7104 16.2143C37.8477 16.2143 37.9872 16.1855 38.1206 16.1247L38.3152 16.0361C40.1388 17.2781 41.9252 17.5657 43.1796 17.5657C44.1895 17.5657 44.8549 17.3812 44.9171 17.3632C44.9527 17.3529 44.9882 17.3409 45.0232 17.3264C50.9004 14.8778 56.774 12.1996 62.4815 9.36614C62.902 9.15742 63.1247 8.6815 63.0187 8.21877V8.21877ZM41.0911 10.8279L43.167 15.5302C42.2435 15.5282 40.8924 15.3184 39.4898 14.3826C39.7346 12.6943 40.4782 11.5299 41.0911 10.8279V10.8279Z" fill="black"/>
</g>
</svg>
