<svg width="235" height="71" viewBox="0 0 235 71" fill="none" xmlns="http://www.w3.org/2000/svg">
<mask id="mask0_108_439" style="mask-type:alpha" maskUnits="userSpaceOnUse" x="0" y="0" width="235" height="71">
<rect x="0.5" y="0.157318" width="234.055" height="70.4304" fill="#D9D9D9"/>
</mask>
<g mask="url(#mask0_108_439)">
<path d="M75.54 58.3085H76.645V67.4085H75.54V58.3085ZM80.22 58.3085H81.585L77.646 62.5725L81.78 67.4085H80.415L76.307 62.5985L80.22 58.3085ZM83.3456 58.9585C83.3456 58.7592 83.4149 58.5902 83.5536 58.4515C83.7009 58.3128 83.8699 58.2435 84.0606 58.2435C84.2599 58.2435 84.4289 58.3128 84.5676 58.4515C84.7063 58.5902 84.7756 58.7592 84.7756 58.9585C84.7756 59.1492 84.7063 59.3182 84.5676 59.4655C84.4289 59.6042 84.2599 59.6735 84.0606 59.6735C83.8699 59.6735 83.7009 59.6042 83.5536 59.4655C83.4149 59.3182 83.3456 59.1492 83.3456 58.9585ZM83.5406 61.4285H84.5806V67.4085H83.5406V61.4285ZM91.0775 63.7685C91.0775 63.2745 90.9692 62.9018 90.7525 62.6505C90.5359 62.3992 90.2195 62.2735 89.8035 62.2735C89.5002 62.2735 89.2315 62.3385 88.9975 62.4685C88.7722 62.5898 88.5945 62.7632 88.4645 62.9885C88.3432 63.2138 88.2825 63.4738 88.2825 63.7685V67.4085H87.2425V61.4285H88.2825V62.3645C88.4819 62.0005 88.7289 61.7318 89.0235 61.5585C89.3269 61.3852 89.6735 61.2985 90.0635 61.2985C90.6962 61.2985 91.1945 61.5108 91.5585 61.9355C91.9312 62.3515 92.1175 62.9192 92.1175 63.6385V67.4085H91.0775V63.7685ZM99.0776 57.2685H100.118V67.4085H99.0776V57.2685ZM94.0726 64.4185C94.0726 63.7685 94.2069 63.2138 94.4756 62.7545C94.7443 62.2865 95.104 61.9268 95.5546 61.6755C96.0053 61.4242 96.4993 61.2985 97.0366 61.2985C97.5393 61.2985 97.977 61.4242 98.3496 61.6755C98.7223 61.9268 99.0126 62.2865 99.2206 62.7545C99.4373 63.2138 99.5456 63.7685 99.5456 64.4185C99.5456 65.0598 99.4373 65.6145 99.2206 66.0825C99.0126 66.5505 98.7223 66.9102 98.3496 67.1615C97.977 67.4128 97.5393 67.5385 97.0366 67.5385C96.4993 67.5385 96.0053 67.4128 95.5546 67.1615C95.104 66.9102 94.7443 66.5505 94.4756 66.0825C94.2069 65.6145 94.0726 65.0598 94.0726 64.4185ZM95.1256 64.4185C95.1256 64.8778 95.2166 65.2678 95.3986 65.5885C95.5893 65.9092 95.8406 66.1518 96.1526 66.3165C96.4646 66.4812 96.8026 66.5635 97.1666 66.5635C97.47 66.5635 97.769 66.4812 98.0636 66.3165C98.3583 66.1518 98.601 65.9092 98.7916 65.5885C98.9823 65.2678 99.0776 64.8778 99.0776 64.4185C99.0776 63.9592 98.9823 63.5692 98.7916 63.2485C98.601 62.9278 98.3583 62.6852 98.0636 62.5205C97.769 62.3558 97.47 62.2735 97.1666 62.2735C96.8026 62.2735 96.4646 62.3558 96.1526 62.5205C95.8406 62.6852 95.5893 62.9278 95.3986 63.2485C95.2166 63.5692 95.1256 63.9592 95.1256 64.4185ZM104.841 67.5385C104.286 67.5385 103.792 67.4085 103.359 67.1485C102.934 66.8798 102.6 66.5115 102.358 66.0435C102.124 65.5755 102.007 65.0338 102.007 64.4185C102.007 63.7945 102.128 63.2485 102.371 62.7805C102.622 62.3125 102.969 61.9485 103.411 61.6885C103.861 61.4285 104.381 61.2985 104.971 61.2985C105.56 61.2985 106.063 61.4242 106.479 61.6755C106.903 61.9182 107.228 62.2692 107.454 62.7285C107.679 63.1878 107.792 63.7338 107.792 64.3665C107.792 64.4272 107.787 64.4922 107.779 64.5615C107.779 64.6222 107.779 64.6612 107.779 64.6785H102.67V63.7945H106.96L106.544 64.3925C106.57 64.3492 106.596 64.2842 106.622 64.1975C106.648 64.1022 106.661 64.0242 106.661 63.9635C106.661 63.6082 106.587 63.3005 106.44 63.0405C106.301 62.7805 106.106 62.5768 105.855 62.4295C105.603 62.2822 105.309 62.2085 104.971 62.2085C104.572 62.2085 104.23 62.2952 103.944 62.4685C103.666 62.6332 103.45 62.8758 103.294 63.1965C103.146 63.5085 103.068 63.8942 103.06 64.3535C103.06 64.8215 103.133 65.2202 103.281 65.5495C103.428 65.8788 103.645 66.1302 103.931 66.3035C104.217 66.4768 104.563 66.5635 104.971 66.5635C105.378 66.5635 105.738 66.4768 106.05 66.3035C106.362 66.1215 106.626 65.8485 106.843 65.4845L107.688 66.0175C107.376 66.5202 106.981 66.9015 106.505 67.1615C106.037 67.4128 105.482 67.5385 104.841 67.5385ZM110.777 61.4285V67.4085H109.737V61.4285H110.777ZM112.584 62.5725C112.445 62.4685 112.32 62.3948 112.207 62.3515C112.094 62.2995 111.951 62.2735 111.778 62.2735C111.518 62.2735 111.314 62.3385 111.167 62.4685C111.02 62.5985 110.916 62.7762 110.855 63.0015C110.803 63.2268 110.777 63.4825 110.777 63.7685H110.309C110.309 63.2918 110.391 62.8715 110.556 62.5075C110.729 62.1348 110.95 61.8402 111.219 61.6235C111.488 61.4068 111.761 61.2985 112.038 61.2985C112.255 61.2985 112.454 61.3288 112.636 61.3895C112.827 61.4415 113 61.5498 113.156 61.7145L112.584 62.5725ZM114.12 67.7985H115.173C115.173 68.0845 115.251 68.3488 115.407 68.5915C115.563 68.8428 115.784 69.0422 116.07 69.1895C116.356 69.3455 116.694 69.4235 117.084 69.4235C117.387 69.4235 117.686 69.3498 117.981 69.2025C118.275 69.0552 118.518 68.8212 118.709 68.5005C118.908 68.1885 119.008 67.7812 119.008 67.2785V61.4285H120.048V67.2785C120.048 67.9632 119.905 68.5352 119.619 68.9945C119.333 69.4625 118.964 69.8135 118.514 70.0475C118.063 70.2815 117.586 70.3985 117.084 70.3985C116.503 70.3985 115.987 70.2902 115.537 70.0735C115.095 69.8568 114.748 69.5492 114.497 69.1505C114.245 68.7605 114.12 68.3098 114.12 67.7985ZM114.003 64.4185C114.003 63.7685 114.137 63.2138 114.406 62.7545C114.674 62.2865 115.034 61.9268 115.485 61.6755C115.935 61.4242 116.429 61.2985 116.967 61.2985C117.469 61.2985 117.907 61.4242 118.28 61.6755C118.652 61.9268 118.943 62.2865 119.151 62.7545C119.367 63.2138 119.476 63.7685 119.476 64.4185C119.476 65.0598 119.367 65.6145 119.151 66.0825C118.943 66.5505 118.652 66.9102 118.28 67.1615C117.907 67.4128 117.469 67.5385 116.967 67.5385C116.429 67.5385 115.935 67.4128 115.485 67.1615C115.034 66.9102 114.674 66.5505 114.406 66.0825C114.137 65.6145 114.003 65.0598 114.003 64.4185ZM115.056 64.4185C115.056 64.8778 115.147 65.2678 115.329 65.5885C115.519 65.9092 115.771 66.1518 116.083 66.3165C116.395 66.4812 116.733 66.5635 117.097 66.5635C117.4 66.5635 117.699 66.4812 117.994 66.3165C118.288 66.1518 118.531 65.9092 118.722 65.5885C118.912 65.2678 119.008 64.8778 119.008 64.4185C119.008 64.0718 118.951 63.7685 118.839 63.5085C118.726 63.2398 118.574 63.0145 118.384 62.8325C118.202 62.6505 117.998 62.5118 117.773 62.4165C117.547 62.3212 117.322 62.2735 117.097 62.2735C116.733 62.2735 116.395 62.3558 116.083 62.5205C115.771 62.6852 115.519 62.9278 115.329 63.2485C115.147 63.5692 115.056 63.9592 115.056 64.4185ZM122.925 65.5625C122.925 65.7878 122.977 65.9828 123.081 66.1475C123.193 66.3122 123.345 66.4378 123.536 66.5245C123.735 66.6025 123.96 66.6415 124.212 66.6415C124.532 66.6415 124.818 66.5765 125.07 66.4465C125.33 66.3165 125.533 66.1345 125.681 65.9005C125.837 65.6578 125.915 65.3805 125.915 65.0685L126.123 65.8485C126.123 66.2298 126.006 66.5462 125.772 66.7975C125.546 67.0488 125.265 67.2352 124.927 67.3565C124.597 67.4778 124.268 67.5385 123.939 67.5385C123.575 67.5385 123.232 67.4648 122.912 67.3175C122.6 67.1615 122.348 66.9405 122.158 66.6545C121.967 66.3685 121.872 66.0218 121.872 65.6145C121.872 65.0338 122.075 64.5702 122.483 64.2235C122.899 63.8682 123.475 63.6905 124.212 63.6905C124.645 63.6905 125.005 63.7425 125.291 63.8465C125.585 63.9418 125.819 64.0545 125.993 64.1845C126.166 64.3058 126.283 64.4055 126.344 64.4835V65.0945C126.04 64.8865 125.728 64.7392 125.408 64.6525C125.087 64.5572 124.745 64.5095 124.381 64.5095C124.043 64.5095 123.765 64.5528 123.549 64.6395C123.341 64.7262 123.185 64.8475 123.081 65.0035C122.977 65.1595 122.925 65.3458 122.925 65.5625ZM122.769 62.8065L122.262 62.0395C122.487 61.8748 122.795 61.7102 123.185 61.5455C123.583 61.3808 124.06 61.2985 124.615 61.2985C125.083 61.2985 125.49 61.3722 125.837 61.5195C126.192 61.6582 126.465 61.8618 126.656 62.1305C126.855 62.3992 126.955 62.7285 126.955 63.1185V67.4085H125.915V63.2615C125.915 63.0535 125.88 62.8845 125.811 62.7545C125.741 62.6158 125.642 62.5075 125.512 62.4295C125.39 62.3515 125.247 62.2952 125.083 62.2605C124.918 62.2258 124.745 62.2085 124.563 62.2085C124.268 62.2085 123.999 62.2432 123.757 62.3125C123.523 62.3818 123.323 62.4642 123.159 62.5595C122.994 62.6548 122.864 62.7372 122.769 62.8065ZM130.276 61.4285V67.4085H129.236V61.4285H130.276ZM132.083 62.5725C131.944 62.4685 131.818 62.3948 131.706 62.3515C131.593 62.2995 131.45 62.2735 131.277 62.2735C131.017 62.2735 130.813 62.3385 130.666 62.4685C130.518 62.5985 130.414 62.7762 130.354 63.0015C130.302 63.2268 130.276 63.4825 130.276 63.7685H129.808C129.808 63.2918 129.89 62.8715 130.055 62.5075C130.228 62.1348 130.449 61.8402 130.718 61.6235C130.986 61.4068 131.259 61.2985 131.537 61.2985C131.753 61.2985 131.953 61.3288 132.135 61.3895C132.325 61.4415 132.499 61.5498 132.655 61.7145L132.083 62.5725ZM133.302 61.4285H136.292V62.4035H133.302V61.4285ZM134.277 59.3485H135.317V67.4085H134.277V59.3485ZM140.169 67.5385C139.614 67.5385 139.12 67.4085 138.687 67.1485C138.262 66.8798 137.928 66.5115 137.686 66.0435C137.452 65.5755 137.335 65.0338 137.335 64.4185C137.335 63.7945 137.456 63.2485 137.699 62.7805C137.95 62.3125 138.297 61.9485 138.739 61.6885C139.189 61.4285 139.709 61.2985 140.299 61.2985C140.888 61.2985 141.391 61.4242 141.807 61.6755C142.231 61.9182 142.556 62.2692 142.782 62.7285C143.007 63.1878 143.12 63.7338 143.12 64.3665C143.12 64.4272 143.115 64.4922 143.107 64.5615C143.107 64.6222 143.107 64.6612 143.107 64.6785H137.998V63.7945H142.288L141.872 64.3925C141.898 64.3492 141.924 64.2842 141.95 64.1975C141.976 64.1022 141.989 64.0242 141.989 63.9635C141.989 63.6082 141.915 63.3005 141.768 63.0405C141.629 62.7805 141.434 62.5768 141.183 62.4295C140.931 62.2822 140.637 62.2085 140.299 62.2085C139.9 62.2085 139.558 62.2952 139.272 62.4685C138.994 62.6332 138.778 62.8758 138.622 63.1965C138.474 63.5085 138.396 63.8942 138.388 64.3535C138.388 64.8215 138.461 65.2202 138.609 65.5495C138.756 65.8788 138.973 66.1302 139.259 66.3035C139.545 66.4768 139.891 66.5635 140.299 66.5635C140.706 66.5635 141.066 66.4768 141.378 66.3035C141.69 66.1215 141.954 65.8485 142.171 65.4845L143.016 66.0175C142.704 66.5202 142.309 66.9015 141.833 67.1615C141.365 67.4128 140.81 67.5385 140.169 67.5385ZM148.9 63.7685C148.9 63.2745 148.792 62.9018 148.575 62.6505C148.358 62.3992 148.042 62.2735 147.626 62.2735C147.323 62.2735 147.054 62.3385 146.82 62.4685C146.595 62.5898 146.417 62.7632 146.287 62.9885C146.166 63.2138 146.105 63.4738 146.105 63.7685V67.4085H145.065V61.4285H146.105V62.3645C146.304 62.0005 146.551 61.7318 146.846 61.5585C147.149 61.3852 147.496 61.2985 147.886 61.2985C148.519 61.2985 149.017 61.5108 149.381 61.9355C149.754 62.3515 149.94 62.9192 149.94 63.6385V67.4085H148.9V63.7685ZM158.757 62.4165C158.618 62.2518 158.436 62.0612 158.211 61.8445C157.994 61.6192 157.799 61.3678 157.626 61.0905C157.461 60.8132 157.379 60.5098 157.379 60.1805C157.379 59.7732 157.474 59.4178 157.665 59.1145C157.855 58.8112 158.115 58.5772 158.445 58.4125C158.783 58.2478 159.168 58.1655 159.602 58.1655C160.061 58.1655 160.451 58.2608 160.772 58.4515C161.101 58.6422 161.352 58.8935 161.526 59.2055C161.699 59.5088 161.786 59.8425 161.786 60.2065C161.786 60.4232 161.742 60.6355 161.656 60.8435C161.569 61.0515 161.443 61.2595 161.279 61.4675C161.114 61.6668 160.915 61.8618 160.681 62.0525C160.447 62.2345 160.178 62.4165 159.875 62.5985C159.641 62.7372 159.385 62.8802 159.108 63.0275C158.83 63.1662 158.566 63.3265 158.315 63.5085C158.072 63.6818 157.873 63.8855 157.717 64.1195C157.561 64.3535 157.483 64.6352 157.483 64.9645C157.483 65.2938 157.565 65.5798 157.73 65.8225C157.903 66.0652 158.133 66.2515 158.419 66.3815C158.705 66.5115 159.021 66.5765 159.368 66.5765C159.784 66.5765 160.182 66.4855 160.564 66.3035C160.954 66.1215 161.326 65.8788 161.682 65.5755C162.037 65.2635 162.379 64.9125 162.709 64.5225C163.047 64.1325 163.372 63.7252 163.684 63.3005L164.49 63.8075C164.143 64.2582 163.788 64.7088 163.424 65.1595C163.06 65.6015 162.67 66.0002 162.254 66.3555C161.838 66.7108 161.387 66.9968 160.902 67.2135C160.416 67.4302 159.883 67.5385 159.303 67.5385C158.809 67.5385 158.336 67.4388 157.886 67.2395C157.444 67.0315 157.08 66.7412 156.794 66.3685C156.516 65.9872 156.378 65.5408 156.378 65.0295C156.378 64.6482 156.443 64.3145 156.573 64.0285C156.711 63.7425 156.885 63.4912 157.093 63.2745C157.309 63.0578 157.543 62.8715 157.795 62.7155C158.046 62.5595 158.293 62.4252 158.536 62.3125C158.778 62.1912 158.986 62.0828 159.16 61.9875C159.645 61.7102 160.026 61.4198 160.304 61.1165C160.59 60.8045 160.733 60.5012 160.733 60.2065C160.733 59.9812 160.685 59.7862 160.59 59.6215C160.503 59.4568 160.377 59.3268 160.213 59.2315C160.048 59.1362 159.844 59.0885 159.602 59.0885C159.246 59.0885 158.969 59.1882 158.77 59.3875C158.57 59.5868 158.471 59.8512 158.471 60.1805C158.471 60.4752 158.588 60.7568 158.822 61.0255C159.056 61.2942 159.303 61.5802 159.563 61.8835L164.373 67.4085H163.125L158.757 62.4165ZM170.608 58.3085H171.713V67.4085H170.608V58.3085ZM171.219 59.3485V58.3085H173.078C173.667 58.3085 174.191 58.4212 174.651 58.6465C175.119 58.8632 175.487 59.1752 175.756 59.5825C176.033 59.9898 176.172 60.4752 176.172 61.0385C176.172 61.5932 176.033 62.0785 175.756 62.4945C175.487 62.9018 175.119 63.2182 174.651 63.4435C174.191 63.6602 173.667 63.7685 173.078 63.7685H171.219V62.7285H173.078C173.667 62.7285 174.144 62.5855 174.508 62.2995C174.88 62.0135 175.067 61.5932 175.067 61.0385C175.067 60.4752 174.88 60.0548 174.508 59.7775C174.144 59.4915 173.667 59.3485 173.078 59.3485H171.219ZM178.971 61.4285V67.4085H177.931V61.4285H178.971ZM180.778 62.5725C180.639 62.4685 180.513 62.3948 180.401 62.3515C180.288 62.2995 180.145 62.2735 179.972 62.2735C179.712 62.2735 179.508 62.3385 179.361 62.4685C179.213 62.5985 179.109 62.7762 179.049 63.0015C178.997 63.2268 178.971 63.4825 178.971 63.7685H178.503C178.503 63.2918 178.585 62.8715 178.75 62.5075C178.923 62.1348 179.144 61.8402 179.413 61.6235C179.681 61.4068 179.954 61.2985 180.232 61.2985C180.448 61.2985 180.648 61.3288 180.83 61.3895C181.02 61.4415 181.194 61.5498 181.35 61.7145L180.778 62.5725ZM185.03 67.5385C184.476 67.5385 183.982 67.4085 183.548 67.1485C183.124 66.8798 182.79 66.5115 182.547 66.0435C182.313 65.5755 182.196 65.0338 182.196 64.4185C182.196 63.7945 182.318 63.2485 182.56 62.7805C182.812 62.3125 183.158 61.9485 183.6 61.6885C184.051 61.4285 184.571 61.2985 185.16 61.2985C185.75 61.2985 186.252 61.4242 186.668 61.6755C187.093 61.9182 187.418 62.2692 187.643 62.7285C187.869 63.1878 187.981 63.7338 187.981 64.3665C187.981 64.4272 187.977 64.4922 187.968 64.5615C187.968 64.6222 187.968 64.6612 187.968 64.6785H182.859V63.7945H187.149L186.733 64.3925C186.759 64.3492 186.785 64.2842 186.811 64.1975C186.837 64.1022 186.85 64.0242 186.85 63.9635C186.85 63.6082 186.777 63.3005 186.629 63.0405C186.491 62.7805 186.296 62.5768 186.044 62.4295C185.793 62.2822 185.498 62.2085 185.16 62.2085C184.762 62.2085 184.419 62.2952 184.133 62.4685C183.856 62.6332 183.639 62.8758 183.483 63.1965C183.336 63.5085 183.258 63.8942 183.249 64.3535C183.249 64.8215 183.323 65.2202 183.47 65.5495C183.618 65.8788 183.834 66.1302 184.12 66.3035C184.406 66.4768 184.753 66.5635 185.16 66.5635C185.568 66.5635 185.927 66.4768 186.239 66.3035C186.551 66.1215 186.816 65.8485 187.032 65.4845L187.877 66.0175C187.565 66.5202 187.171 66.9015 186.694 67.1615C186.226 67.4128 185.672 67.5385 185.03 67.5385ZM194.747 64.6525C194.955 65.0165 195.172 65.3372 195.397 65.6145C195.631 65.8918 195.891 66.1085 196.177 66.2645C196.463 66.4205 196.788 66.4985 197.152 66.4985C197.638 66.4985 198.028 66.3642 198.322 66.0955C198.617 65.8268 198.764 65.4845 198.764 65.0685C198.764 64.6612 198.669 64.3362 198.478 64.0935C198.288 63.8508 198.036 63.6558 197.724 63.5085C197.421 63.3525 197.096 63.2138 196.749 63.0925C196.524 63.0145 196.273 62.9148 195.995 62.7935C195.718 62.6635 195.454 62.5032 195.202 62.3125C194.951 62.1132 194.743 61.8705 194.578 61.5845C194.422 61.2985 194.344 60.9475 194.344 60.5315C194.344 60.0808 194.457 59.6778 194.682 59.3225C194.908 58.9672 195.22 58.6898 195.618 58.4905C196.017 58.2825 196.472 58.1785 196.983 58.1785C197.477 58.1785 197.906 58.2738 198.27 58.4645C198.643 58.6465 198.959 58.8848 199.219 59.1795C199.479 59.4655 199.683 59.7688 199.83 60.0895L198.881 60.6355C198.769 60.4102 198.626 60.1892 198.452 59.9725C198.279 59.7558 198.067 59.5782 197.815 59.4395C197.573 59.3008 197.274 59.2315 196.918 59.2315C196.424 59.2315 196.065 59.3528 195.839 59.5955C195.614 59.8295 195.501 60.0938 195.501 60.3885C195.501 60.6398 195.566 60.8738 195.696 61.0905C195.826 61.2985 196.043 61.4978 196.346 61.6885C196.658 61.8705 197.079 62.0525 197.607 62.2345C197.85 62.3212 198.106 62.4338 198.374 62.5725C198.643 62.7112 198.89 62.8888 199.115 63.1055C199.349 63.3135 199.54 63.5692 199.687 63.8725C199.835 64.1672 199.908 64.5225 199.908 64.9385C199.908 65.3372 199.83 65.6968 199.674 66.0175C199.527 66.3382 199.319 66.6112 199.05 66.8365C198.79 67.0618 198.491 67.2352 198.153 67.3565C197.824 67.4778 197.477 67.5385 197.113 67.5385C196.619 67.5385 196.16 67.4345 195.735 67.2265C195.319 67.0098 194.951 66.7282 194.63 66.3815C194.318 66.0262 194.063 65.6492 193.863 65.2505L194.747 64.6525ZM202.454 64.4185C202.454 64.8345 202.541 65.2028 202.714 65.5235C202.896 65.8442 203.139 66.0998 203.442 66.2905C203.754 66.4725 204.105 66.5635 204.495 66.5635C204.816 66.5635 205.115 66.5158 205.392 66.4205C205.678 66.3165 205.925 66.1822 206.133 66.0175C206.341 65.8442 206.489 65.6622 206.575 65.4715V66.7715C206.367 67.0142 206.068 67.2048 205.678 67.3435C205.297 67.4735 204.903 67.5385 204.495 67.5385C203.915 67.5385 203.39 67.4042 202.922 67.1355C202.454 66.8668 202.082 66.4985 201.804 66.0305C201.536 65.5538 201.401 65.0165 201.401 64.4185C201.401 63.8118 201.536 63.2745 201.804 62.8065C202.082 62.3385 202.454 61.9702 202.922 61.7015C203.39 61.4328 203.915 61.2985 204.495 61.2985C204.903 61.2985 205.297 61.3678 205.678 61.5065C206.068 61.6365 206.367 61.8228 206.575 62.0655V63.3655C206.489 63.1662 206.341 62.9842 206.133 62.8195C205.925 62.6548 205.678 62.5248 205.392 62.4295C205.115 62.3255 204.816 62.2735 204.495 62.2735C204.105 62.2735 203.754 62.3645 203.442 62.5465C203.139 62.7285 202.896 62.9842 202.714 63.3135C202.541 63.6342 202.454 64.0025 202.454 64.4185ZM209.754 57.2685V67.4085H208.714V57.2685H209.754ZM212.549 63.7685C212.549 63.2745 212.441 62.9018 212.224 62.6505C212.016 62.3992 211.7 62.2735 211.275 62.2735C210.972 62.2735 210.703 62.3385 210.469 62.4685C210.244 62.5985 210.066 62.7762 209.936 63.0015C209.815 63.2268 209.754 63.4825 209.754 63.7685H209.416C209.416 63.2918 209.507 62.8715 209.689 62.5075C209.871 62.1348 210.118 61.8402 210.43 61.6235C210.751 61.4068 211.119 61.2985 211.535 61.2985C211.951 61.2985 212.311 61.3852 212.614 61.5585C212.926 61.7318 213.165 61.9918 213.329 62.3385C213.503 62.6852 213.589 63.1185 213.589 63.6385V67.4085H212.549V63.7685ZM215.544 64.4185C215.544 63.8118 215.679 63.2745 215.947 62.8065C216.225 62.3385 216.597 61.9702 217.065 61.7015C217.533 61.4328 218.058 61.2985 218.638 61.2985C219.228 61.2985 219.752 61.4328 220.211 61.7015C220.679 61.9702 221.048 62.3385 221.316 62.8065C221.594 63.2745 221.732 63.8118 221.732 64.4185C221.732 65.0165 221.594 65.5538 221.316 66.0305C221.048 66.4985 220.679 66.8668 220.211 67.1355C219.752 67.4042 219.228 67.5385 218.638 67.5385C218.058 67.5385 217.533 67.4042 217.065 67.1355C216.597 66.8668 216.225 66.4985 215.947 66.0305C215.679 65.5538 215.544 65.0165 215.544 64.4185ZM216.597 64.4185C216.597 64.8345 216.684 65.2028 216.857 65.5235C217.039 65.8442 217.282 66.0998 217.585 66.2905C217.897 66.4725 218.248 66.5635 218.638 66.5635C219.028 66.5635 219.375 66.4725 219.678 66.2905C219.99 66.0998 220.233 65.8442 220.406 65.5235C220.588 65.2028 220.679 64.8345 220.679 64.4185C220.679 64.0025 220.588 63.6342 220.406 63.3135C220.233 62.9842 219.99 62.7285 219.678 62.5465C219.375 62.3645 219.028 62.2735 218.638 62.2735C218.248 62.2735 217.897 62.3645 217.585 62.5465C217.282 62.7285 217.039 62.9842 216.857 63.3135C216.684 63.6342 216.597 64.0025 216.597 64.4185ZM223.161 64.4185C223.161 63.8118 223.295 63.2745 223.564 62.8065C223.841 62.3385 224.214 61.9702 224.682 61.7015C225.15 61.4328 225.674 61.2985 226.255 61.2985C226.844 61.2985 227.369 61.4328 227.828 61.7015C228.296 61.9702 228.664 62.3385 228.933 62.8065C229.21 63.2745 229.349 63.8118 229.349 64.4185C229.349 65.0165 229.21 65.5538 228.933 66.0305C228.664 66.4985 228.296 66.8668 227.828 67.1355C227.369 67.4042 226.844 67.5385 226.255 67.5385C225.674 67.5385 225.15 67.4042 224.682 67.1355C224.214 66.8668 223.841 66.4985 223.564 66.0305C223.295 65.5538 223.161 65.0165 223.161 64.4185ZM224.214 64.4185C224.214 64.8345 224.301 65.2028 224.474 65.5235C224.656 65.8442 224.899 66.0998 225.202 66.2905C225.514 66.4725 225.865 66.5635 226.255 66.5635C226.645 66.5635 226.992 66.4725 227.295 66.2905C227.607 66.0998 227.85 65.8442 228.023 65.5235C228.205 65.2028 228.296 64.8345 228.296 64.4185C228.296 64.0025 228.205 63.6342 228.023 63.3135C227.85 62.9842 227.607 62.7285 227.295 62.5465C226.992 62.3645 226.645 62.2735 226.255 62.2735C225.865 62.2735 225.514 62.3645 225.202 62.5465C224.899 62.7285 224.656 62.9842 224.474 63.3135C224.301 63.6342 224.214 64.0025 224.214 64.4185ZM231.298 57.2685H232.338V67.4085H231.298V57.2685Z" fill="#444444"/>
<path d="M80.3442 50.7856C78.9942 50.7856 78.0342 50.5906 77.4642 50.2006C76.8942 49.7806 76.5492 49.2556 76.4292 48.6256C76.3092 47.9656 76.2492 47.3056 76.2492 46.6456V23.3806C76.2492 22.7206 76.3092 22.0756 76.4292 21.4456C76.5492 20.8156 76.8942 20.3056 77.4642 19.9156C78.0342 19.4956 79.0092 19.2856 80.3892 19.2856C81.7692 19.2856 82.7292 19.4956 83.2692 19.9156C83.8392 20.3056 84.1842 20.8156 84.3042 21.4456C84.4242 22.0756 84.4842 22.7356 84.4842 23.4256V29.6356L92.3142 20.6806C93.0042 19.9306 93.6492 19.4056 94.2492 19.1056C94.8492 18.8056 95.4642 18.7456 96.0942 18.9256C96.7242 19.1056 97.4142 19.5556 98.1642 20.2756C99.3942 21.3856 100.024 22.3606 100.054 23.2006C100.084 24.0406 99.5892 25.0006 98.5692 26.0806L89.7492 35.0806L98.6142 43.9456C99.7242 45.0556 100.234 46.0606 100.144 46.9606C100.084 47.8306 99.4392 48.7756 98.2092 49.7956C97.3092 50.5156 96.5442 50.9656 95.9142 51.1456C95.2842 51.3256 94.6992 51.2506 94.1592 50.9206C93.6192 50.6206 93.0192 50.0806 92.3592 49.3006L84.4842 40.3456V46.6906C84.4842 47.3506 84.4242 47.9956 84.3042 48.6256C84.1842 49.2556 83.8392 49.7806 83.2692 50.2006C82.6992 50.5906 81.7242 50.7856 80.3442 50.7856ZM107.782 50.7856C106.432 50.7856 105.472 50.5906 104.902 50.2006C104.332 49.7806 103.987 49.2556 103.867 48.6256C103.777 47.9956 103.732 47.3506 103.732 46.6906V32.0206C103.732 31.3606 103.792 30.7306 103.912 30.1306C104.032 29.5006 104.377 28.9906 104.947 28.6006C105.517 28.1806 106.477 27.9706 107.827 27.9706C109.177 27.9706 110.122 28.1806 110.662 28.6006C111.232 28.9906 111.577 29.5006 111.697 30.1306C111.817 30.7606 111.877 31.4206 111.877 32.1106V46.7356C111.877 47.3956 111.817 48.0406 111.697 48.6706C111.577 49.3006 111.232 49.8106 110.662 50.2006C110.122 50.5906 109.162 50.7856 107.782 50.7856ZM107.782 25.7656C106.432 25.7656 105.472 25.5706 104.902 25.1806C104.332 24.7606 103.987 24.2356 103.867 23.6056C103.777 22.9756 103.732 22.3306 103.732 21.6706C103.732 20.9806 103.792 20.3356 103.912 19.7356C104.032 19.1056 104.377 18.5956 104.947 18.2056C105.517 17.8156 106.477 17.6206 107.827 17.6206C109.177 17.6206 110.122 17.8306 110.662 18.2506C111.232 18.6406 111.577 19.1506 111.697 19.7806C111.817 20.4106 111.877 21.0556 111.877 21.7156C111.877 22.3756 111.817 23.0206 111.697 23.6506C111.577 24.2806 111.232 24.7906 110.662 25.1806C110.122 25.5706 109.162 25.7656 107.782 25.7656ZM174.91 50.7856C173.56 50.7856 172.6 50.5906 172.03 50.2006C171.46 49.7806 171.115 49.2556 170.995 48.6256C170.905 47.9956 170.86 47.3506 170.86 46.6906V32.0206C170.86 31.3606 170.92 30.7306 171.04 30.1306C171.16 29.5006 171.505 28.9906 172.075 28.6006C172.645 28.1806 173.605 27.9706 174.955 27.9706C176.305 27.9706 177.25 28.1806 177.79 28.6006C178.36 28.9906 178.705 29.5006 178.825 30.1306C178.945 30.7606 179.005 31.4206 179.005 32.1106V46.7356C179.005 47.3956 178.945 48.0406 178.825 48.6706C178.705 49.3006 178.36 49.8106 177.79 50.2006C177.25 50.5906 176.29 50.7856 174.91 50.7856ZM174.91 25.7656C173.56 25.7656 172.6 25.5706 172.03 25.1806C171.46 24.7606 171.115 24.2356 170.995 23.6056C170.905 22.9756 170.86 22.3306 170.86 21.6706C170.86 20.9806 170.92 20.3356 171.04 19.7356C171.16 19.1056 171.505 18.5956 172.075 18.2056C172.645 17.8156 173.605 17.6206 174.955 17.6206C176.305 17.6206 177.25 17.8306 177.79 18.2506C178.36 18.6406 178.705 19.1506 178.825 19.7806C178.945 20.4106 179.005 21.0556 179.005 21.7156C179.005 22.3756 178.945 23.0206 178.825 23.6506C178.705 24.2806 178.36 24.7906 177.79 25.1806C177.25 25.5706 176.29 25.7656 174.91 25.7656ZM187.979 50.7406C186.629 50.7406 185.669 50.5456 185.099 50.1556C184.529 49.7356 184.184 49.2106 184.064 48.5806C183.974 47.9506 183.929 47.3056 183.929 46.6456V31.8406C183.929 31.1806 183.989 30.5506 184.109 29.9506C184.229 29.3506 184.574 28.8706 185.144 28.5106C185.714 28.1206 186.674 27.9256 188.024 27.9256C189.254 27.9256 190.139 28.0906 190.679 28.4206C191.249 28.7206 191.609 29.0956 191.759 29.5456C191.909 29.9956 191.969 30.4156 191.939 30.8056C191.939 31.1656 191.969 31.3906 192.029 31.4806L191.669 31.7506C191.639 31.3006 191.804 30.8506 192.164 30.4006C192.554 29.9506 193.049 29.5456 193.649 29.1856C194.279 28.7956 194.939 28.4956 195.629 28.2856C196.349 28.0456 197.024 27.9256 197.654 27.9256C199.154 27.9256 200.474 28.2106 201.614 28.7806C202.754 29.3506 203.699 30.1606 204.449 31.2106C205.229 32.2306 205.814 33.4306 206.204 34.8106C206.594 36.1906 206.789 37.6906 206.789 39.3106V46.6906C206.789 47.3506 206.729 47.9956 206.609 48.6256C206.489 49.2556 206.144 49.7656 205.574 50.1556C205.034 50.5456 204.074 50.7406 202.694 50.7406C201.314 50.7406 200.339 50.5456 199.769 50.1556C199.199 49.7356 198.854 49.2106 198.734 48.5806C198.614 47.9506 198.554 47.3056 198.554 46.6456V39.3106C198.554 38.6206 198.419 38.0356 198.149 37.5556C197.909 37.0756 197.549 36.7156 197.069 36.4756C196.619 36.2056 196.049 36.0706 195.359 36.0706C194.699 36.0706 194.114 36.2056 193.604 36.4756C193.124 36.7456 192.749 37.1206 192.479 37.6006C192.209 38.0806 192.074 38.6506 192.074 39.3106V46.6906C192.074 47.3506 192.014 47.9956 191.894 48.6256C191.774 49.2556 191.429 49.7656 190.859 50.1556C190.319 50.5456 189.359 50.7406 187.979 50.7406ZM222.667 51.1906C221.287 51.1906 219.892 50.9206 218.482 50.3806C217.072 49.8106 215.767 49.0156 214.567 47.9956C213.397 46.9456 212.452 45.7006 211.732 44.2606C211.042 42.7906 210.697 41.1556 210.697 39.3556C210.697 37.7056 211.012 36.1606 211.642 34.7206C212.272 33.2806 213.127 32.0206 214.207 30.9406C215.317 29.8306 216.577 28.9606 217.987 28.3306C219.427 27.7006 220.957 27.3856 222.577 27.3856C224.797 27.3856 226.807 27.9256 228.607 29.0056C230.407 30.0556 231.847 31.4806 232.927 33.2806C234.007 35.0806 234.547 37.0906 234.547 39.3106C234.547 41.2006 234.187 42.8806 233.467 44.3506C232.747 45.8206 231.802 47.0656 230.632 48.0856C229.462 49.1056 228.172 49.8706 226.762 50.3806C225.382 50.9206 224.017 51.1906 222.667 51.1906ZM222.577 42.9556C223.027 42.9556 223.537 42.8506 224.107 42.6406C224.707 42.4006 225.217 42.0106 225.637 41.4706C226.087 40.9306 226.312 40.1956 226.312 39.2656C226.312 38.5156 226.147 37.8706 225.817 37.3306C225.517 36.7906 225.082 36.3706 224.512 36.0706C223.942 35.7706 223.282 35.6206 222.532 35.6206C221.872 35.6206 221.272 35.7856 220.732 36.1156C220.192 36.4156 219.757 36.8506 219.427 37.4206C219.097 37.9606 218.932 38.5906 218.932 39.3106C218.932 40.2106 219.142 40.9306 219.562 41.4706C219.982 42.0106 220.477 42.4006 221.047 42.6406C221.617 42.8506 222.127 42.9556 222.577 42.9556Z" fill="black"/>
<path d="M126.521 50.6956C125.171 50.6956 123.866 50.3956 122.606 49.7956C121.376 49.1656 120.266 48.3256 119.276 47.2756C118.316 46.1956 117.551 44.9656 116.981 43.5856C116.411 42.2056 116.126 40.7656 116.126 39.2656C116.126 37.8256 116.411 36.4306 116.981 35.0806C117.551 33.7306 118.331 32.5306 119.321 31.4806C120.311 30.4006 121.421 29.5456 122.651 28.9156C123.911 28.2856 125.201 27.9706 126.521 27.9706C127.961 27.9706 129.206 28.2856 130.256 28.9156C131.306 29.5156 132.176 30.3406 132.866 31.3906C133.556 32.4406 134.066 33.6406 134.396 34.9906C134.756 36.3406 134.951 37.7356 134.981 39.1756C135.011 40.6456 134.861 42.0706 134.531 43.4506C134.201 44.8006 133.691 46.0306 133.001 47.1406C132.311 48.2206 131.426 49.0906 130.346 49.7506C129.296 50.3806 128.021 50.6956 126.521 50.6956ZM127.601 42.5956C128.171 42.5956 128.696 42.4456 129.176 42.1456C129.656 41.8456 130.046 41.4556 130.346 40.9756C130.646 40.4656 130.796 39.9256 130.796 39.3556C130.796 38.7556 130.646 38.2156 130.346 37.7356C130.076 37.2556 129.701 36.8656 129.221 36.5656C128.741 36.2656 128.186 36.1156 127.556 36.1156C126.956 36.1156 126.401 36.2656 125.891 36.5656C125.411 36.8356 125.021 37.2256 124.721 37.7356C124.451 38.2156 124.316 38.7556 124.316 39.3556C124.316 39.9256 124.466 40.4656 124.766 40.9756C125.066 41.4556 125.471 41.8456 125.981 42.1456C126.491 42.4456 127.031 42.5956 127.601 42.5956ZM134.981 50.7406C133.781 50.7406 132.881 50.5606 132.281 50.2006C131.681 49.8406 131.276 49.2706 131.066 48.4906V21.7156C131.066 21.0556 131.096 20.4106 131.156 19.7806C131.246 19.1506 131.561 18.6406 132.101 18.2506C132.641 17.8306 133.586 17.6206 134.936 17.6206C136.316 17.6206 137.276 17.8156 137.816 18.2056C138.386 18.5956 138.731 19.1056 138.851 19.7356C138.971 20.3356 139.031 20.9806 139.031 21.6706V46.6456C139.031 47.3056 138.971 47.9506 138.851 48.5806C138.731 49.2106 138.386 49.7356 137.816 50.1556C137.276 50.5456 136.331 50.7406 134.981 50.7406ZM153.438 50.6956C152.088 50.6956 150.783 50.3956 149.523 49.7956C148.293 49.1656 147.183 48.3256 146.193 47.2756C145.233 46.1956 144.468 44.9656 143.898 43.5856C143.328 42.2056 143.043 40.7656 143.043 39.2656C143.043 37.8256 143.328 36.4306 143.898 35.0806C144.468 33.7306 145.248 32.5306 146.238 31.4806C147.228 30.4006 148.338 29.5456 149.568 28.9156C150.828 28.2856 152.118 27.9706 153.438 27.9706C154.878 27.9706 156.123 28.2856 157.173 28.9156C158.223 29.5156 159.093 30.3406 159.783 31.3906C160.473 32.4406 160.983 33.6406 161.313 34.9906C161.673 36.3406 161.868 37.7356 161.898 39.1756C161.928 40.6456 161.778 42.0706 161.448 43.4506C161.118 44.8006 160.608 46.0306 159.918 47.1406C159.228 48.2206 158.343 49.0906 157.263 49.7506C156.213 50.3806 154.938 50.6956 153.438 50.6956ZM154.518 42.5956C155.088 42.5956 155.613 42.4456 156.093 42.1456C156.573 41.8456 156.963 41.4556 157.263 40.9756C157.563 40.4656 157.713 39.9256 157.713 39.3556C157.713 38.7556 157.563 38.2156 157.263 37.7356C156.993 37.2556 156.618 36.8656 156.138 36.5656C155.658 36.2656 155.103 36.1156 154.473 36.1156C153.873 36.1156 153.318 36.2656 152.808 36.5656C152.328 36.8356 151.938 37.2256 151.638 37.7356C151.368 38.2156 151.233 38.7556 151.233 39.3556C151.233 39.9256 151.383 40.4656 151.683 40.9756C151.983 41.4556 152.388 41.8456 152.898 42.1456C153.408 42.4456 153.948 42.5956 154.518 42.5956ZM161.898 50.7406C160.698 50.7406 159.798 50.5606 159.198 50.2006C158.598 49.8406 158.193 49.2706 157.983 48.4906V21.7156C157.983 21.0556 158.013 20.4106 158.073 19.7806C158.163 19.1506 158.478 18.6406 159.018 18.2506C159.558 17.8306 160.503 17.6206 161.853 17.6206C163.233 17.6206 164.193 17.8156 164.733 18.2056C165.303 18.5956 165.648 19.1056 165.768 19.7356C165.888 20.3356 165.948 20.9806 165.948 21.6706V46.6456C165.948 47.3056 165.888 47.9506 165.768 48.5806C165.648 49.2106 165.303 49.7356 164.733 50.1556C164.193 50.5456 163.248 50.7406 161.898 50.7406Z" fill="#E8063C"/>
<path d="M60.633 59.2305C60.4683 61.7259 60.2631 64.2213 60.0209 66.7166C40.8962 67.9741 21.7726 67.9741 2.6491 66.7166C2.40692 64.2212 2.20167 61.7258 2.03696 59.2305C1.15801 46.005 1.36206 32.7807 2.6491 19.5551C21.7726 18.2977 40.8962 18.2977 60.0209 19.5551C61.3078 32.7807 61.5119 46.005 60.633 59.2305Z" fill="#F7F9F9"/>
<path d="M60.6332 59.2306C60.4685 61.726 60.2632 64.2214 60.021 66.7167C40.8963 67.9742 21.7728 67.9742 2.64925 66.7167C2.40707 64.2213 2.20182 61.7259 2.03711 59.2306H60.6332Z" fill="#BCDF95"/>
<path d="M21.2652 31.1875C22.4819 33.4198 21.0833 37.0849 17.8262 37.0849C14.569 37.0849 11.9287 34.4445 11.9287 31.1875C11.9287 27.9305 14.569 25.29 17.8262 25.29C21.0833 25.29 23.7236 27.9303 23.7236 31.1875" fill="#80B4FB"/>
<path d="M36.4733 37.3906C38.2907 37.5325 39.9464 39.8062 38.6727 41.7637C37.399 43.7212 34.7796 44.2754 32.8222 43.0018C30.8648 41.7281 30.3105 39.1087 31.5841 37.1513C32.8578 35.1939 35.8124 34.1244 37.7699 35.3981" fill="#DD636E"/>
<path d="M50.8895 36.1491C53.8882 36.1491 56.3191 33.7182 56.3191 30.7196C56.3191 27.7209 53.8882 25.29 50.8895 25.29C47.8909 25.29 45.46 27.7209 45.46 30.7196C45.46 33.7182 47.8909 36.1491 50.8895 36.1491Z" fill="#F6E266"/>
<path d="M41.4264 8.96692C41.4264 8.96692 38.696 10.7035 38.4082 14.6004C41.5103 16.9762 44.6228 16.0915 44.6228 16.0915L45.5027 11.4174L41.4264 8.96692Z" fill="#F6E266"/>
<path d="M42.4562 11.2631C42.4562 11.2631 39.6029 12.7252 38.4072 14.6004C38.6958 10.7035 41.4259 8.9668 41.4259 8.9668L45.5022 11.4171L42.4562 11.2631Z" fill="#ECBE6B"/>
<path d="M41.4258 8.96695C47.1401 6.17504 52.9395 3.57299 58.8242 1.16107C60.3536 3.32773 61.419 5.70258 62.0206 8.2855C56.3063 11.0775 50.5069 13.6795 44.6222 16.0914L41.4258 8.96695Z" fill="#80B4FB"/>
<path d="M42.4561 11.2631L41.4258 8.96695C47.1402 6.17437 52.9388 3.57285 58.8241 1.16107C59.3158 1.85845 59.7605 2.57844 60.1571 3.3185C54.227 5.90141 48.3277 8.54962 42.4561 11.2631V11.2631Z" fill="#61A2F9"/>
<path d="M23.0654 21.4302C23.0654 21.4302 25.6597 23.3642 29.404 22.2472C30.521 18.5029 28.587 15.9086 28.587 15.9086L23.9056 16.7488L23.0654 21.4302Z" fill="#F6E266"/>
<path d="M24.845 19.6505C24.845 19.6505 27.2263 21.7972 29.4043 22.2476C25.6596 23.364 23.0654 21.4302 23.0654 21.4302L23.9056 16.7488L24.845 19.6505Z" fill="#ECBE6B"/>
<path d="M23.0651 21.4302C18.4231 17.0827 13.9284 12.588 9.58105 7.94617C11.062 5.74606 12.9026 3.90562 15.1027 2.42456C19.7447 6.77192 24.2393 11.2666 28.5867 15.9086L23.0651 21.4302Z" fill="#DD636E"/>
<path d="M24.8445 19.6505L23.065 21.4301C18.4223 17.0828 13.9284 12.5888 9.58105 7.9463C10.0579 7.23862 10.5725 6.56694 11.1231 5.93298C15.6464 10.5565 20.2199 15.1281 24.8445 19.6505V19.6505Z" fill="#DA4A54"/>
<path d="M60.0863 18.5547C50.2515 17.9077 40.2812 17.5917 30.4414 17.6119C30.0536 16.2169 29.4393 15.3733 29.3913 15.3088L29.3909 15.309C29.3687 15.2793 29.345 15.2503 29.3192 15.2226C24.9773 10.5866 20.425 6.03442 15.7887 1.69214C15.4474 1.37249 14.9305 1.33088 14.5424 1.59206C12.2447 3.13881 10.2955 5.08804 8.74873 7.38582C8.48755 7.77385 8.52903 8.29086 8.84882 8.63219C11.7648 11.7458 14.7768 14.8193 17.8439 17.8188C12.7746 17.9752 7.65236 18.2218 2.58313 18.5548C2.09261 18.5871 1.69763 18.9697 1.65 19.4589C0.608347 30.1632 0.271969 41.0203 0.650495 51.7282C0.669629 52.27 1.11492 52.6963 1.65267 52.6963C1.66471 52.6963 1.67676 52.6962 1.6888 52.6956C2.24274 52.6761 2.67586 52.2111 2.65619 51.6573C2.29091 41.3208 2.59718 30.8435 3.56644 20.5024C8.9865 20.1571 14.4606 19.9114 19.8579 19.7695C20.6955 20.573 21.5353 21.3724 22.3791 22.1627C22.4068 22.1886 22.4359 22.2122 22.4657 22.2344L22.4655 22.2348C22.5603 22.3054 24.3359 23.5993 27.0743 23.5992C27.7018 23.5992 28.3807 23.5296 29.1008 23.3634L29.251 23.5135C29.447 23.7094 29.7039 23.8075 29.9606 23.8075C30.2174 23.8075 30.4743 23.7095 30.6703 23.5135C31.0622 23.1216 31.0622 22.4862 30.6703 22.0944L30.5197 21.9438C30.7126 21.1078 30.7747 20.328 30.7502 19.6184C40.1664 19.6053 49.6907 19.9019 59.103 20.5023C60.5109 35.5261 60.5109 50.7449 59.103 65.7713C40.6726 66.9466 21.9974 66.9468 3.56671 65.7713C3.2496 62.3916 3.00193 58.9814 2.82973 55.6221C2.80136 55.0686 2.32904 54.6423 1.77617 54.6713C1.22263 54.6997 0.797008 55.1714 0.825374 55.7249C1.0135 59.3963 1.29101 63.1275 1.65026 66.8148C1.6979 67.304 2.09288 67.6867 2.58327 67.7189C12.1224 68.3462 21.7286 68.66 31.3349 68.66C40.9412 68.66 50.5476 68.3463 60.0867 67.7189C60.5771 67.6867 60.9721 67.3039 61.0197 66.8147C62.5481 51.1019 62.5481 35.1692 61.0197 19.4592C60.9717 18.9697 60.5768 18.5871 60.0863 18.5547V18.5547ZM10.8718 7.85466C12.0365 6.26764 13.424 4.87998 15.0112 3.71536C19.1743 7.63697 23.2649 11.7253 27.1892 15.8869L23.0435 20.0328C18.8818 16.1085 14.7935 12.0179 10.8718 7.85466V7.85466ZM24.7421 21.1723L28.3283 17.586C28.6549 18.4498 28.9427 19.7859 28.5809 21.4245C26.941 21.7867 25.6057 21.4993 24.7421 21.1723Z" fill="black"/>
<path d="M9.42506 44.1788C8.93722 44.4418 8.75484 45.0504 9.01777 45.5383C9.28082 46.0262 9.88949 46.2086 10.3773 45.9456L16.8226 42.4719V47.9474L11.0441 60.1579C10.8071 60.6588 11.0209 61.2571 11.5219 61.4942C12.0227 61.7311 12.6212 61.5173 12.8582 61.0164L17.826 50.5189L22.7936 61.0164C22.965 61.3787 23.3255 61.5909 23.7013 61.5909C23.8452 61.5909 23.9913 61.5599 24.1299 61.4942C24.6309 61.2571 24.8448 60.6588 24.6077 60.1579L18.8293 47.9474V42.5205L26.3696 47.2184C26.5287 47.3176 26.7126 47.3701 26.9003 47.3701L33.9843 47.3705V51.4603L29.8683 60.1577C29.6313 60.6587 29.8451 61.2569 30.3461 61.494C30.4847 61.5596 30.6308 61.5908 30.7747 61.5908C31.1505 61.5908 31.511 61.3786 31.6824 61.0162L34.9877 54.0317L38.2929 61.0162C38.5298 61.5173 39.1282 61.7311 39.6291 61.494C40.1301 61.2569 40.344 60.6587 40.1069 60.1577L35.9911 51.4603V48.1446L40.9634 51.2425C41.1284 51.3454 41.3118 51.3944 41.4931 51.3944C41.8282 51.3944 42.1556 51.2267 42.3457 50.9214C42.6388 50.4509 42.495 49.8321 42.0247 49.5389L35.9911 45.7798V44.6165C36.0643 44.6042 36.1373 44.5915 36.2104 44.576C37.5777 44.2867 38.7505 43.4823 39.5127 42.3108C40.2461 41.1837 40.3246 39.8435 39.7283 38.6339C39.1066 37.373 37.8589 36.4922 36.5501 36.3901C35.9957 36.3481 35.5146 36.76 35.4715 37.3126C35.4284 37.8652 35.8415 38.348 36.3941 38.3912C36.9922 38.4378 37.623 38.9027 37.9282 39.5216C38.1259 39.9225 38.2693 40.5418 37.8306 41.2165C37.3607 41.9384 36.6379 42.4343 35.795 42.6127C34.9521 42.7909 34.0905 42.6305 33.3684 42.1607C32.6464 41.6908 32.1504 40.9679 31.972 40.1252C31.7937 39.2823 31.9541 38.4207 32.424 37.6985C32.9182 36.9391 33.7749 36.3122 34.7155 36.0217C35.2655 35.8518 36.3226 35.6543 37.2214 36.2391C37.6862 36.5415 38.3074 36.4099 38.6098 35.9455C38.9122 35.4809 38.7806 34.8592 38.3161 34.557C37.1416 33.7927 35.6527 33.6319 34.1235 34.1042C32.7276 34.5352 31.4952 35.4464 30.742 36.604C29.9797 37.7753 29.7192 39.1734 30.0088 40.5408C30.2981 41.9079 31.1025 43.0807 32.2739 43.843C32.8054 44.1889 33.3837 44.4306 33.9843 44.5655V45.3638L27.1873 45.3634L18.8292 40.1561V37.9871C20.1311 37.7209 21.2368 36.9345 21.9473 35.7379C22.8787 34.1696 22.9566 32.195 22.1456 30.7074C21.8807 30.2207 21.2711 30.0414 20.7843 30.3065C20.2975 30.5717 20.1181 31.1813 20.3835 31.6679C20.8547 32.5327 20.7897 33.7564 20.2215 34.7131C19.9181 35.2243 19.2033 36.0817 17.8257 36.0817C15.1272 36.0817 12.9317 33.8862 12.9317 31.1877C12.9317 28.4892 15.1272 26.2938 17.8257 26.2938C20.5242 26.2938 22.7195 28.4892 22.7195 31.1877C22.7195 31.7419 23.1687 32.1912 23.723 32.1912C24.2774 32.1912 24.7265 31.7419 24.7265 31.1877C24.7265 27.3825 21.6308 24.2867 17.8257 24.2867C14.0205 24.2867 10.9247 27.3825 10.9247 31.1877C10.9247 34.652 13.491 37.5274 16.8222 38.015V40.1922L9.42506 44.1788Z" fill="black"/>
<path d="M50.8891 24.2865C47.3419 24.2865 44.4561 27.1723 44.4561 30.7195C44.4561 34.2668 47.3419 37.1526 50.8891 37.1526C54.4363 37.1526 57.3222 34.2668 57.3222 30.7195C57.3222 27.1723 54.4363 24.2865 50.8891 24.2865V24.2865ZM50.8891 35.1456C48.4486 35.1456 46.4631 33.1601 46.4631 30.7195C46.4631 28.279 48.4486 26.2935 50.8891 26.2935C53.3297 26.2935 55.3152 28.279 55.3152 30.7195C55.3152 33.1601 53.3298 35.1456 50.8891 35.1456Z" fill="black"/>
<path d="M43.4978 24.3364L39.5135 23.0309C38.9866 22.858 38.4199 23.1455 38.2474 23.6721C38.0748 24.1989 38.3618 24.7657 38.8886 24.9381L42.873 26.2436C42.9767 26.2776 43.082 26.2938 43.1855 26.2938C43.6077 26.2938 44.0005 26.0254 44.139 25.6025C44.3116 25.0758 44.0246 24.5089 43.4978 24.3364Z" fill="black"/>
<path d="M37.5518 31.1875C37.5518 31.7417 38.0009 32.191 38.5553 32.191H41.4952C42.0495 32.191 42.4987 31.7417 42.4987 31.1875C42.4987 30.6333 42.0495 30.184 41.4952 30.184H38.5553C38.0009 30.184 37.5518 30.6333 37.5518 31.1875Z" fill="black"/>
<path d="M44.1017 43.5391C44.2385 43.6027 44.3822 43.6326 44.5236 43.6326C44.9021 43.6326 45.2646 43.4174 45.4345 43.0514L47.1696 39.3138C47.4029 38.8111 47.1845 38.2145 46.6818 37.9811C46.1789 37.7476 45.5823 37.966 45.349 38.4688L43.614 42.2065C43.3807 42.709 43.599 43.3056 44.1017 43.5391Z" fill="black"/>
<path d="M55.8065 43.3954L55.0267 38.726C54.9354 38.1794 54.418 37.8099 53.8716 37.9015C53.3249 37.9928 52.9557 38.5099 53.0471 39.0566L53.8269 43.7261C53.9088 44.2167 54.3339 44.5645 54.8156 44.5645C54.8704 44.5645 54.9261 44.5599 54.982 44.5506C55.5287 44.4593 55.8979 43.9422 55.8065 43.3954V43.3954Z" fill="black"/>
<path d="M14.2002 30.5999V30.6613C14.2002 31.2154 14.6493 31.6647 15.2036 31.6647C15.758 31.6647 16.2071 31.2154 16.2071 30.6613V30.5999C16.2071 30.0457 15.758 29.5964 15.2036 29.5964C14.6493 29.5964 14.2002 30.0457 14.2002 30.5999Z" fill="black"/>
<path d="M16.8223 29.4429V29.5043C16.8223 30.0585 17.2714 30.5078 17.8257 30.5078C18.38 30.5078 18.8292 30.0585 18.8292 29.5043V29.4429C18.8292 28.8887 18.38 28.4395 17.8257 28.4395C17.2714 28.4395 16.8223 28.8887 16.8223 29.4429Z" fill="black"/>
<path d="M32.7866 39.0302L32.752 39.0811C32.4411 39.5398 32.5609 40.1637 33.0196 40.4748C33.1921 40.5917 33.388 40.6477 33.5817 40.6477C33.9032 40.6477 34.2192 40.4933 34.4132 40.2071L34.4477 40.1562C34.7587 39.6974 34.6389 39.0736 34.1802 38.7625C33.7215 38.4517 33.0975 38.5716 32.7866 39.0302V39.0302Z" fill="black"/>
<path d="M36.402 41.1601C36.7235 41.1601 37.0395 41.0057 37.2335 40.7196L37.2681 40.6687C37.579 40.2099 37.4593 39.5861 37.0005 39.275C36.5416 38.9641 35.9177 39.0839 35.6069 39.5426L35.5724 39.5934C35.2614 40.0522 35.3812 40.6761 35.8399 40.9871C36.0124 41.1041 36.2083 41.1601 36.402 41.1601Z" fill="black"/>
<path d="M6.14863 60.0887V58.3732C6.14863 57.819 5.69946 57.3697 5.14512 57.3697C4.59078 57.3697 4.1416 57.819 4.1416 58.3732V60.0887C4.1416 60.6429 4.59078 61.0922 5.14512 61.0922C5.69946 61.0922 6.14863 60.6429 6.14863 60.0887Z" fill="black"/>
<path d="M8.79902 60.0887V58.3732C8.79902 57.819 8.34985 57.3697 7.79551 57.3697C7.24117 57.3697 6.79199 57.819 6.79199 58.3732V60.0887C6.79199 60.6429 7.24117 61.0922 7.79551 61.0922C8.34985 61.0922 8.79902 60.6429 8.79902 60.0887Z" fill="black"/>
<path d="M43.1988 57.3696C42.6445 57.3696 42.1953 57.8189 42.1953 58.3731V60.0886C42.1953 60.6428 42.6445 61.0921 43.1988 61.0921C43.7532 61.0921 44.2023 60.6428 44.2023 60.0886V58.3731C44.2023 57.8189 43.7532 57.3696 43.1988 57.3696Z" fill="black"/>
<path d="M44.8457 58.3731V60.0886C44.8457 60.6428 45.2949 61.0921 45.8492 61.0921C46.4036 61.0921 46.8527 60.6428 46.8527 60.0886V58.3731C46.8527 57.8189 46.4036 57.3696 45.8492 57.3696C45.2949 57.3696 44.8457 57.8189 44.8457 58.3731Z" fill="black"/>
<path d="M50.3828 58.3731V60.0886C50.3828 60.6428 50.832 61.0921 51.3863 61.0921C51.9407 61.0921 52.3898 60.6428 52.3898 60.0886V58.3731C52.3898 57.8189 51.9407 57.3696 51.3863 57.3696C50.832 57.3696 50.3828 57.8189 50.3828 58.3731Z" fill="black"/>
<path d="M54.0377 57.3696C53.4834 57.3696 53.0342 57.8189 53.0342 58.3731V60.0886C53.0342 60.6428 53.4834 61.0921 54.0377 61.0921C54.592 61.0921 55.0412 60.6428 55.0412 60.0886V58.3731C55.0412 57.8189 54.5919 57.3696 54.0377 57.3696Z" fill="black"/>
<path d="M56.1533 58.3731V60.0886C56.1533 60.6428 56.6025 61.0921 57.1568 61.0921C57.7112 61.0921 58.1604 60.6428 58.1604 60.0886V58.3731C58.1604 57.8189 57.7112 57.3696 57.1568 57.3696C56.6025 57.3696 56.1533 57.8189 56.1533 58.3731Z" fill="black"/>
<path d="M62.9982 8.0587C62.371 5.36192 61.2426 2.84644 59.644 0.582241C59.3743 0.200103 58.8761 0.0547935 58.4433 0.232616C56.3672 1.08427 54.2945 1.96201 52.2822 2.84122C51.7743 3.0632 51.5426 3.65474 51.7645 4.16252C51.9864 4.67043 52.5779 4.90218 53.0858 4.68033C54.8405 3.91365 56.6416 3.14803 58.4509 2.40008C59.5204 4.0536 60.324 5.84454 60.8472 7.74105C55.7009 10.237 50.4255 12.6056 45.1397 14.7935L42.7396 9.44355C44.9315 8.38116 47.1817 7.32613 49.4415 6.30188C49.9462 6.07308 50.1699 5.47833 49.9411 4.97349C49.7123 4.46866 49.1178 4.24494 48.6127 4.47388C46.0342 5.64277 43.4679 6.85127 40.9849 8.06566C40.9509 8.08225 40.9187 8.10085 40.8875 8.12065L40.8872 8.12025C40.7645 8.19826 38.0133 9.99428 37.4727 13.9199L37.2785 14.007C36.7728 14.2339 36.5468 14.8277 36.7738 15.3334C36.9407 15.7056 37.3067 15.9264 37.6899 15.9264C37.8272 15.9264 37.9667 15.898 38.1001 15.8382L38.2947 15.751C40.1183 16.9731 41.9047 17.2561 43.1591 17.2561C44.169 17.2561 44.8344 17.0746 44.8966 17.0569C44.9322 17.0467 44.9677 17.0349 45.0027 17.0206C50.8798 14.6113 56.7535 11.9759 62.461 9.18772C62.8815 8.98234 63.1041 8.51403 62.9982 8.0587V8.0587ZM41.0705 10.6261L43.1465 15.2532C42.223 15.2512 40.8719 15.0448 39.4693 14.1239C39.7141 12.4627 40.4577 11.3169 41.0705 10.6261V10.6261Z" fill="black"/>
</g>
</svg>
