<svg width="56" height="56" viewBox="0 0 56 56" fill="none" xmlns="http://www.w3.org/2000/svg">
<path d="M8.05445 39.4998C7.91089 39.4998 7.78101 39.4827 7.65625 39.469L4.09644 39.0315C3.58715 38.9648 3.09839 39.1255 2.72412 39.4579C2.34815 39.7903 2.13281 40.2671 2.13281 40.7687V48.131C2.13281 51.5054 4.87744 54.25 8.25097 54.25H15.6133C16.114 54.25 16.5925 54.0347 16.9241 53.6595C17.2556 53.2844 17.4111 52.7845 17.3496 52.2864L16.9138 48.7411C16.8027 47.7661 17.1103 46.7903 17.758 46.0657C18.404 45.3419 19.2944 44.9437 20.2668 44.9437C22.133 44.9437 23.6506 46.4613 23.6506 48.3275C23.6506 48.4762 23.6318 48.6095 23.6198 48.7266L23.1841 52.2872C23.1225 52.7845 23.278 53.2844 23.6096 53.6595C23.9429 54.0355 24.4197 54.25 24.9204 54.25H32.281C35.6562 54.25 38.4009 51.5054 38.4009 48.131V46.7705C39.3265 46.3794 40.1703 45.7985 40.8533 45.0335C42.164 43.5654 42.7861 41.5958 42.5605 39.616L42.3657 38.0189H47.749C51.1225 38.0189 53.8672 35.2735 53.8672 31.8991V24.5376C53.8672 24.036 53.6518 23.5592 53.2776 23.2268C52.9016 22.8953 52.4111 22.7389 51.9035 22.8005L48.3591 23.2354C47.3867 23.349 46.4075 23.0406 45.6828 22.3929C44.9599 21.7477 44.5617 20.8565 44.5617 19.8841C44.5617 18.0179 46.0793 16.5003 47.9455 16.5003C48.0891 16.5003 48.219 16.5174 48.3437 16.5311L51.9035 16.9686C52.4094 17.0258 52.9016 16.8729 53.2758 16.5422C53.6518 16.2098 53.8672 15.733 53.8672 15.2314V7.86902C53.8672 4.49463 51.1226 1.75 47.749 1.75H40.3867C39.886 1.75 39.4075 1.96534 39.0759 2.34045C38.7444 2.71556 38.5889 3.21545 38.6504 3.71362L39.0862 7.25891C39.1973 8.23389 38.8897 9.20887 38.242 9.93433C37.596 10.6581 36.7056 11.0563 35.7332 11.0563C33.867 11.0563 32.3494 9.53869 32.3494 7.67249C32.3494 7.52381 32.3682 7.39051 32.3802 7.27344L32.8159 3.71276C32.8775 3.21545 32.722 2.71558 32.3904 2.34045C32.0571 1.96448 31.5803 1.75 31.0796 1.75H23.719C20.3438 1.75 17.5991 4.49463 17.5991 7.86902V12.1953L15.8953 11.9971C15.6458 11.9723 15.4099 11.9518 15.1553 11.9518C11.6569 11.9518 8.79315 14.5934 8.37627 17.9811H8.25097C4.87744 17.9811 2.13281 20.7266 2.13281 24.1009V31.4624C2.13281 31.964 2.34815 32.4408 2.72241 32.7732C3.09838 33.1047 3.58887 33.2611 4.09644 33.1996L7.64087 32.7646C8.60986 32.6527 9.58911 32.9603 10.3171 33.6072C11.0401 34.2523 11.4382 35.1435 11.4382 36.1159C11.4382 37.9822 9.92066 39.4998 8.05445 39.4998ZM15.1553 15.4518C15.2903 15.4518 15.4151 15.4672 15.5842 15.4834L19.1458 15.8987C19.6516 15.9559 20.1387 15.7987 20.513 15.468C20.8855 15.1356 21.0991 14.6597 21.0991 14.1606V7.86902C21.0991 6.42493 22.2749 5.25 23.719 5.25H29.1023L28.904 6.86413C28.875 7.1239 28.8494 7.38367 28.8494 7.67249C28.8494 11.4682 31.9375 14.5563 35.7331 14.5563C37.6865 14.5563 39.5527 13.7214 40.8533 12.2645C42.164 10.7965 42.7861 8.8269 42.5605 6.84705L42.3657 5.25H47.749C49.1931 5.25 50.3672 6.42493 50.3672 7.86902V13.2532L48.7265 13.0524C48.477 13.025 48.2241 13.0002 47.9455 13.0002C44.1499 13.0002 41.0618 16.0884 41.0618 19.884C41.0618 21.8382 41.8974 23.7044 43.3535 25.0041C44.8198 26.3141 46.7766 26.9293 48.771 26.7114L50.3672 26.5157V31.899C50.3672 33.344 49.1931 34.5189 47.749 34.5189H40.3867C39.886 34.5189 39.4075 34.7342 39.0759 35.1093C38.7444 35.4845 38.5889 35.9843 38.6504 36.4825L39.0862 40.0278C39.1973 41.0028 38.8897 41.9778 38.2419 42.7032C37.5959 43.427 36.7056 43.8252 35.7332 43.8252C33.8669 43.8252 32.3494 42.3076 32.3494 40.4414C32.3494 40.2927 32.3682 40.1594 32.3801 40.0423L32.8159 36.4817C32.8775 35.9843 32.7219 35.4845 32.3904 35.1093C32.0571 34.7334 31.5803 34.5189 31.0796 34.5189H23.719C22.2749 34.5189 21.0992 33.344 21.0992 31.899V23.4669C21.0992 22.9653 20.8838 22.4885 20.5096 22.1561C20.1866 21.8716 19.7747 21.7169 19.3492 21.7169C19.2791 21.7169 19.2073 21.7212 19.1355 21.7297L15.5757 22.1664C14.6016 22.2851 13.6633 21.9929 12.9285 21.3435C12.1953 20.6941 11.792 19.796 11.792 18.8142C11.792 16.96 13.301 15.4518 15.1553 15.4518ZM12.6465 30.9958C11.1785 29.6851 9.21996 29.0673 7.229 29.2886L5.63281 29.4842V24.1009C5.63281 22.656 6.80689 21.4811 8.25097 21.4811H8.84644C9.24175 22.4194 9.82985 23.2741 10.6077 23.9634C12.0808 25.2682 14.041 25.8783 16.0012 25.6408L17.5991 25.4442V31.8991C17.5991 35.2735 20.3438 38.0189 23.719 38.0189H29.1023L28.904 39.6331C28.875 39.8928 28.8494 40.1526 28.8494 40.4414C28.8494 43.9521 31.5009 46.8246 34.9009 47.241V48.131C34.9009 49.5751 33.7251 50.75 32.281 50.75H26.8977L27.096 49.1359C27.125 48.8761 27.1506 48.6163 27.1506 48.3275C27.1506 44.5319 24.0625 41.4437 20.2669 41.4437C18.3118 41.4437 16.4456 42.2786 15.1467 43.7346C13.836 45.2035 13.2139 47.1723 13.4395 49.153L13.6343 50.75H8.25097C6.80687 50.75 5.63281 49.5751 5.63281 48.131V42.7468L7.27344 42.9476C7.52295 42.975 7.77588 42.9998 8.05445 42.9998C11.8501 42.9998 14.9382 39.9116 14.9382 36.116C14.9382 34.1618 14.1025 32.2955 12.6465 30.9958Z" fill="black"/>
</svg>
