<svg width="62" height="62" viewBox="0 0 62 62" fill="none" xmlns="http://www.w3.org/2000/svg">
<path d="M19.5591 38.7982L17.7626 38.2075C17.5743 38.7804 17.3422 39.3454 17.0728 39.8871L18.7659 40.7294C19.0756 40.1067 19.3425 39.457 19.5591 38.7982Z" fill="black"/>
<path d="M61.6975 37.548C60.9582 34.1541 58.9415 31.2511 56.0189 29.3741L48.2734 24.3993L48.6593 24.0134C49.4898 23.1828 49.9473 22.0785 49.9473 20.9037C49.9473 19.7292 49.49 18.6248 48.6593 17.7942C48.0165 17.1514 47.2097 16.7321 46.3334 16.5754L48.6797 14.2291C50.3942 12.5145 50.3942 9.72469 48.6797 8.01003C46.965 6.29536 44.1754 6.29536 42.4607 8.01003L41.7507 8.71992C41.5979 7.86656 41.1923 7.04989 40.5341 6.39181C39.7036 5.56126 38.5992 5.10376 37.4246 5.10376C36.2501 5.10376 35.1457 5.56114 34.315 6.39181L24.3776 16.332C24.8133 14.7557 24.3829 13.0406 23.1937 11.8514C22.249 10.9066 20.9421 10.4192 19.6099 10.5139C18.2818 10.6083 17.0616 11.2714 16.2599 12.3339L10.1705 20.0003L11.6513 21.1764L17.7484 13.5003L17.7644 13.4795C18.2369 12.8493 18.9585 12.456 19.7441 12.4001C20.5303 12.3434 21.2997 12.6316 21.8566 13.1886C22.684 14.016 22.8885 15.275 22.3657 16.3218L16.8621 27.3402L17.0737 27.763C17.0936 27.8029 19.0581 31.8025 18.1905 36.5263L20.0504 36.868C20.865 32.4336 19.5039 28.6291 18.9659 27.3604L21.9009 21.4842L35.6522 7.72902C36.1256 7.25563 36.7551 6.99492 37.4246 6.99492C38.0942 6.99492 38.7235 7.25563 39.197 7.72902C40.1743 8.70631 40.1743 10.2965 39.197 11.2738L27.7287 22.7422L27.1972 22.4008C26.4319 21.9094 25.5211 21.7453 24.6323 21.9388C23.7436 22.1323 22.9834 22.6604 22.4919 23.4256C21.4773 25.0054 21.9371 27.1162 23.5167 28.1309L23.7178 28.26C23.2798 28.521 22.8942 28.8845 22.6004 29.3418C22.1089 30.107 21.9447 31.0179 22.1384 31.9067C22.332 32.7953 22.86 33.5554 23.6285 34.0491L31.4157 39.0059C30.4554 39.1716 29.582 39.7277 29.0308 40.5859C28.4737 41.4533 28.3208 42.518 28.611 43.5072C28.9 44.4918 29.5989 45.302 30.53 45.7323L32.7037 46.8006L29.1706 50.3336C22.9407 56.5635 12.8036 56.5636 6.5734 50.3336C0.828432 44.5886 0.306759 35.4587 5.36011 29.0967L10.4756 22.6565L8.99481 21.4804L3.8793 27.9206C-1.77199 35.0355 -1.18867 45.2459 5.23631 51.6708C8.71998 55.1544 13.296 56.8963 17.8721 56.8963C22.4481 56.8963 27.0242 55.1546 30.5079 51.6708L34.4968 47.6818L43.2557 51.9864C45.0715 52.8788 47.0336 53.3224 48.9925 53.3224C51.2427 53.3224 53.4886 52.7369 55.5024 51.5738L54.5567 49.9363C51.3369 51.796 47.4241 51.928 44.0898 50.2894L31.3533 44.03L31.3295 44.0186C30.8909 43.8181 30.5614 43.4376 30.4255 42.9748C30.2898 42.512 30.3614 42.0138 30.622 41.6079C31.0091 41.0052 31.7358 40.7188 32.4304 40.8949L40.6094 42.9725L41.0666 43.0866L41.4339 42.7936C41.4707 42.7644 45.1592 39.876 49.6395 41.0062L50.102 39.1727C45.5639 38.028 41.8371 40.2092 40.6442 41.0302L36.4399 39.9621L24.6474 32.4557C24.3072 32.2372 24.0723 31.8991 23.9862 31.504C23.9001 31.1089 23.9731 30.7038 24.1917 30.3636C24.6427 29.6611 25.5812 29.4566 26.2838 29.9078L38.73 37.9018L39.7519 36.3106L27.3057 28.3167L24.5386 26.5395C23.8362 26.0883 23.6318 25.1499 24.0829 24.4473C24.3014 24.107 24.6395 23.8722 25.0346 23.7862C25.4298 23.7001 25.8347 23.7731 26.175 23.9916L30.3261 26.6578C30.3278 26.6589 30.3295 26.6601 30.3312 26.6611L41.3881 33.7627L42.41 32.1715L31.3533 25.0703C30.6508 24.6191 30.4465 23.6807 30.8975 22.9782C31.3486 22.2758 32.2872 22.0713 32.9897 22.5225L35.2254 23.9584L44.1382 29.6829L45.1601 28.0918L36.3655 22.4433C35.9668 21.9404 35.9269 21.2328 36.2784 20.6856C36.4969 20.3454 36.835 20.1105 37.2301 20.0245C37.6252 19.9383 38.0303 20.0114 38.3705 20.2299L41.8024 22.4341L43.8708 23.819L54.9969 30.9653C57.4946 32.5694 59.2179 35.0502 59.8497 37.9507C60.4814 40.8511 59.946 43.8238 58.3418 46.3215C57.6991 47.3223 56.9081 48.2065 55.9911 48.9501L57.1819 50.4189C58.2557 49.5484 59.1811 48.5137 59.9328 47.3434C61.8102 44.4207 62.4367 40.9419 61.6975 37.548ZM34.6874 19.6636C34.4135 20.09 34.2452 20.56 34.1794 21.0391L34.0116 20.9314C33.6037 20.6694 33.1605 20.5065 32.7099 20.435L43.7977 9.34724C44.2711 8.87385 44.9005 8.61314 45.5701 8.61314C46.2396 8.61314 46.869 8.87385 47.3425 9.34724C48.3198 10.3245 48.3198 11.9148 47.3425 12.8921L42.4402 17.7944L40.7341 19.5005L39.3926 18.6388C37.8127 17.6239 35.702 18.0838 34.6874 19.6636ZM42.8471 20.8576L42.3624 20.5462L43.7773 19.1313C44.7545 18.154 46.3448 18.154 47.3221 19.1313C47.7955 19.6047 48.0562 20.2342 48.0562 20.9037C48.0562 21.5733 47.7955 22.2028 47.3221 22.6761L46.645 23.3533L44.9155 22.2425L42.8471 20.8576Z" fill="black"/>
</svg>
